<?xml version="1.0" encoding="utf-8" standalone="no"?>
<!DOCTYPE svg PUBLIC "-//W3C//DTD SVG 1.1//EN"
  "http://www.w3.org/Graphics/SVG/1.1/DTD/svg11.dtd">
<svg xmlns:xlink="http://www.w3.org/1999/xlink" width="712.8pt" height="299.952pt" viewBox="0 0 712.8 299.952" xmlns="http://www.w3.org/2000/svg" version="1.1">
 <metadata>
  <rdf:RDF xmlns:dc="http://purl.org/dc/elements/1.1/" xmlns:cc="http://creativecommons.org/ns#" xmlns:rdf="http://www.w3.org/1999/02/22-rdf-syntax-ns#">
   <cc:Work>
    <dc:type rdf:resource="http://purl.org/dc/dcmitype/StillImage"/>
    <dc:date>2025-06-15T12:07:43.360897</dc:date>
    <dc:format>image/svg+xml</dc:format>
    <dc:creator>
     <cc:Agent>
      <dc:title>Matplotlib v3.9.2, https://matplotlib.org/</dc:title>
     </cc:Agent>
    </dc:creator>
   </cc:Work>
  </rdf:RDF>
 </metadata>
 <defs>
  <style type="text/css">*{stroke-linejoin: round; stroke-linecap: butt}</style>
 </defs>
 <g id="figure_1">
  <g id="patch_1">
   <path d="M -0 299.952 
L 712.8 299.952 
L 712.8 0 
L -0 0 
z
" style="fill: #ffffff"/>
  </g>
  <g id="axes_1">
   <g id="patch_2">
    <path d="M 45.866149 262.877953 
L 357.98132 262.877953 
L 357.98132 47.610997 
L 45.866149 47.610997 
z
" style="fill: #ffffff"/>
   </g>
   <g id="PathCollection_1">
    <defs>
     <path id="m83ee01cb4c" d="M 0 2.95804 
C 0.784481 2.95804 1.536938 2.646362 2.09165 2.09165 
C 2.646362 1.536938 2.95804 0.784481 2.95804 0 
C 2.95804 -0.784481 2.646362 -1.536938 2.09165 -2.09165 
C 1.536938 -2.646362 0.784481 -2.95804 0 -2.95804 
C -0.784481 -2.95804 -1.536938 -2.646362 -2.09165 -2.09165 
C -2.646362 -1.536938 -2.95804 -0.784481 -2.95804 0 
C -2.95804 0.784481 -2.646362 1.536938 -2.09165 2.09165 
C -1.536938 2.646362 -0.784481 2.95804 0 2.95804 
z
" style="stroke: #000000; stroke-width: 0.5"/>
    </defs>
    <g clip-path="url(#p248b4fe889)">
     <use xlink:href="#m83ee01cb4c" x="334.457493" y="155.244475" style="fill: #2fb47c; stroke: #000000; stroke-width: 0.5"/>
     <use xlink:href="#m83ee01cb4c" x="307.147803" y="155.244475" style="fill: #2fb47c; stroke: #000000; stroke-width: 0.5"/>
     <use xlink:href="#m83ee01cb4c" x="299.47129" y="170.309158" style="fill: #2fb47c; stroke: #000000; stroke-width: 0.5"/>
     <use xlink:href="#m83ee01cb4c" x="299.47129" y="140.179792" style="fill: #2fb47c; stroke: #000000; stroke-width: 0.5"/>
     <use xlink:href="#m83ee01cb4c" x="246.257569" y="136.351741" style="fill: #2fb47c; stroke: #000000; stroke-width: 0.5"/>
     <use xlink:href="#m83ee01cb4c" x="246.257569" y="174.137209" style="fill: #2fb47c; stroke: #000000; stroke-width: 0.5"/>
     <use xlink:href="#m83ee01cb4c" x="217.639382" y="196.114059" style="fill: #2fb47c; stroke: #000000; stroke-width: 0.5"/>
     <use xlink:href="#m83ee01cb4c" x="217.639382" y="114.374891" style="fill: #2fb47c; stroke: #000000; stroke-width: 0.5"/>
     <use xlink:href="#m83ee01cb4c" x="165.196783" y="103.868965" style="fill: #2fb47c; stroke: #000000; stroke-width: 0.5"/>
     <use xlink:href="#m83ee01cb4c" x="165.196783" y="206.619985" style="fill: #2fb47c; stroke: #000000; stroke-width: 0.5"/>
     <use xlink:href="#m83ee01cb4c" x="138.237223" y="80.45628" style="fill: #2fb47c; stroke: #000000; stroke-width: 0.5"/>
     <use xlink:href="#m83ee01cb4c" x="138.237223" y="230.032671" style="fill: #2fb47c; stroke: #000000; stroke-width: 0.5"/>
     <use xlink:href="#m83ee01cb4c" x="94.675727" y="244.93164" style="fill: #2fb47c; stroke: #000000; stroke-width: 0.5"/>
     <use xlink:href="#m83ee01cb4c" x="94.675727" y="65.55731" style="fill: #2fb47c; stroke: #000000; stroke-width: 0.5"/>
    </g>
   </g>
   <g id="matplotlib.axis_1">
    <g id="xtick_1">
     <g id="line2d_1">
      <path d="M 45.866149 262.877953 
L 45.866149 47.610997 
" clip-path="url(#p248b4fe889)" style="fill: none; stroke-dasharray: 1.85,0.8; stroke-dashoffset: 0; stroke: #b0b0b0; stroke-width: 0.5"/>
     </g>
     <g id="line2d_2">
      <defs>
       <path id="mdc0bd74497" d="M 0 0 
L 0 3.5 
" style="stroke: #000000; stroke-width: 0.8"/>
      </defs>
      <g>
       <use xlink:href="#mdc0bd74497" x="45.866149" y="262.877953" style="stroke: #000000; stroke-width: 0.8"/>
      </g>
     </g>
     <g id="text_1">
      <!-- $\mathdefault{−12}$ -->
      <g transform="translate(37.014395 276.632531) scale(0.1 -0.1)">
       <defs>
        <path id="CMSY10-0" d="M 4218 1472 
C 4326 1472 4442 1472 4442 1600 
C 4442 1728 4326 1728 4218 1728 
L 755 1728 
C 646 1728 531 1728 531 1600 
C 531 1472 646 1472 755 1472 
L 4218 1472 
z
" transform="scale(0.015625)"/>
        <path id="NimbusRomNo9L-Regu-31" d="M 1862 4352 
L 710 3776 
L 710 3686 
C 787 3718 858 3743 883 3756 
C 998 3801 1107 3826 1171 3826 
C 1306 3826 1363 3731 1363 3525 
L 1363 599 
C 1363 386 1312 238 1210 179 
C 1114 121 1024 102 755 96 
L 755 0 
L 2522 0 
L 2522 96 
C 2016 102 1914 167 1914 477 
L 1914 4339 
L 1862 4352 
z
" transform="scale(0.015625)"/>
        <path id="NimbusRomNo9L-Regu-32" d="M 3040 879 
L 2957 912 
C 2720 544 2637 486 2349 486 
L 819 486 
L 1894 1621 
C 2464 2221 2714 2711 2714 3214 
C 2714 3858 2195 4352 1530 4352 
C 1178 4352 845 4211 608 3955 
C 403 3736 307 3530 198 3072 
L 333 3039 
C 589 3671 819 3878 1261 3878 
C 1798 3878 2163 3510 2163 2969 
C 2163 2466 1869 1866 1331 1292 
L 192 76 
L 192 0 
L 2688 0 
L 3040 879 
z
" transform="scale(0.015625)"/>
       </defs>
       <use xlink:href="#CMSY10-0" transform="scale(0.996264)"/>
       <use xlink:href="#NimbusRomNo9L-Regu-31" transform="translate(77.408707 0) scale(0.996264)"/>
       <use xlink:href="#NimbusRomNo9L-Regu-32" transform="translate(127.221908 0) scale(0.996264)"/>
      </g>
     </g>
    </g>
    <g id="xtick_2">
     <g id="line2d_3">
      <path d="M 112.747972 262.877953 
L 112.747972 47.610997 
" clip-path="url(#p248b4fe889)" style="fill: none; stroke-dasharray: 1.85,0.8; stroke-dashoffset: 0; stroke: #b0b0b0; stroke-width: 0.5"/>
     </g>
     <g id="line2d_4">
      <g>
       <use xlink:href="#mdc0bd74497" x="112.747972" y="262.877953" style="stroke: #000000; stroke-width: 0.8"/>
      </g>
     </g>
     <g id="text_2">
      <!-- $\mathdefault{−9}$ -->
      <g transform="translate(106.386877 276.632531) scale(0.1 -0.1)">
       <defs>
        <path id="NimbusRomNo9L-Regu-39" d="M 378 -122 
C 1094 -39 1446 83 1882 396 
C 2547 883 2938 1676 2938 2542 
C 2938 3601 2349 4352 1523 4352 
C 762 4352 192 3704 192 2837 
C 192 2055 653 1536 1344 1536 
C 1696 1536 1965 1638 2304 1901 
C 2042 857 1331 172 358 6 
L 378 -122 
z
M 2317 2292 
C 2317 2164 2291 2106 2221 2048 
C 2042 1894 1805 1811 1574 1811 
C 1088 1811 781 2292 781 3056 
C 781 3421 883 3806 1018 3973 
C 1126 4102 1286 4172 1472 4172 
C 2029 4172 2317 3620 2317 2542 
L 2317 2292 
z
" transform="scale(0.015625)"/>
       </defs>
       <use xlink:href="#CMSY10-0" transform="scale(0.996264)"/>
       <use xlink:href="#NimbusRomNo9L-Regu-39" transform="translate(77.408707 0) scale(0.996264)"/>
      </g>
     </g>
    </g>
    <g id="xtick_3">
     <g id="line2d_5">
      <path d="M 179.629794 262.877953 
L 179.629794 47.610997 
" clip-path="url(#p248b4fe889)" style="fill: none; stroke-dasharray: 1.85,0.8; stroke-dashoffset: 0; stroke: #b0b0b0; stroke-width: 0.5"/>
     </g>
     <g id="line2d_6">
      <g>
       <use xlink:href="#mdc0bd74497" x="179.629794" y="262.877953" style="stroke: #000000; stroke-width: 0.8"/>
      </g>
     </g>
     <g id="text_3">
      <!-- $\mathdefault{−6}$ -->
      <g transform="translate(173.268699 276.632531) scale(0.1 -0.1)">
       <defs>
        <path id="NimbusRomNo9L-Regu-36" d="M 2854 4390 
C 2125 4326 1754 4204 1286 3878 
C 595 3385 218 2655 218 1801 
C 218 1248 390 688 666 369 
C 909 89 1254 -64 1651 -64 
C 2445 -64 2995 541 2995 1420 
C 2995 2234 2528 2752 1792 2752 
C 1510 2752 1376 2707 973 2463 
C 1146 3430 1862 4121 2867 4288 
L 2854 4390 
z
M 1549 2457 
C 2099 2457 2419 1999 2419 1203 
C 2419 503 2170 115 1722 115 
C 1158 115 813 713 813 1700 
C 813 2024 864 2203 992 2298 
C 1126 2400 1325 2457 1549 2457 
z
" transform="scale(0.015625)"/>
       </defs>
       <use xlink:href="#CMSY10-0" transform="scale(0.996264)"/>
       <use xlink:href="#NimbusRomNo9L-Regu-36" transform="translate(77.408707 0) scale(0.996264)"/>
      </g>
     </g>
    </g>
    <g id="xtick_4">
     <g id="line2d_7">
      <path d="M 246.511616 262.877953 
L 246.511616 47.610997 
" clip-path="url(#p248b4fe889)" style="fill: none; stroke-dasharray: 1.85,0.8; stroke-dashoffset: 0; stroke: #b0b0b0; stroke-width: 0.5"/>
     </g>
     <g id="line2d_8">
      <g>
       <use xlink:href="#mdc0bd74497" x="246.511616" y="262.877953" style="stroke: #000000; stroke-width: 0.8"/>
      </g>
     </g>
     <g id="text_4">
      <!-- $\mathdefault{−3}$ -->
      <g transform="translate(240.150522 276.632531) scale(0.1 -0.1)">
       <defs>
        <path id="NimbusRomNo9L-Regu-33" d="M 979 2137 
C 1357 2137 1504 2124 1658 2067 
C 2054 1926 2304 1561 2304 1120 
C 2304 582 1939 166 1466 166 
C 1293 166 1165 211 928 364 
C 736 480 627 524 518 524 
C 371 524 275 435 275 300 
C 275 76 550 -64 998 -64 
C 1491 -64 1997 102 2298 364 
C 2598 627 2765 998 2765 1427 
C 2765 1753 2662 2054 2477 2252 
C 2349 2393 2227 2470 1946 2592 
C 2387 2892 2547 3129 2547 3475 
C 2547 3993 2138 4352 1549 4352 
C 1229 4352 947 4243 717 4038 
C 525 3865 429 3699 288 3315 
L 384 3289 
C 646 3757 934 3967 1338 3967 
C 1754 3967 2042 3686 2042 3283 
C 2042 3052 1946 2822 1786 2662 
C 1594 2470 1414 2374 979 2220 
L 979 2137 
z
" transform="scale(0.015625)"/>
       </defs>
       <use xlink:href="#CMSY10-0" transform="scale(0.996264)"/>
       <use xlink:href="#NimbusRomNo9L-Regu-33" transform="translate(77.408707 0) scale(0.996264)"/>
      </g>
     </g>
    </g>
    <g id="xtick_5">
     <g id="line2d_9">
      <path d="M 313.393439 262.877953 
L 313.393439 47.610997 
" clip-path="url(#p248b4fe889)" style="fill: none; stroke-dasharray: 1.85,0.8; stroke-dashoffset: 0; stroke: #b0b0b0; stroke-width: 0.5"/>
     </g>
     <g id="line2d_10">
      <g>
       <use xlink:href="#mdc0bd74497" x="313.393439" y="262.877953" style="stroke: #000000; stroke-width: 0.8"/>
      </g>
     </g>
     <g id="text_5">
      <!-- $\mathdefault{0}$ -->
      <g transform="translate(310.902779 276.632531) scale(0.1 -0.1)">
       <defs>
        <path id="NimbusRomNo9L-Regu-30" d="M 1626 4352 
C 1274 4352 1005 4243 768 4019 
C 397 3661 154 2924 154 2176 
C 154 1478 365 729 666 371 
C 902 89 1229 -64 1600 -64 
C 1926 -64 2202 44 2432 268 
C 2803 620 3046 1363 3046 2137 
C 3046 3449 2464 4352 1626 4352 
z
M 1606 4185 
C 2144 4185 2432 3462 2432 2124 
C 2432 787 2150 102 1600 102 
C 1050 102 768 787 768 2118 
C 768 3475 1056 4185 1606 4185 
z
" transform="scale(0.015625)"/>
       </defs>
       <use xlink:href="#NimbusRomNo9L-Regu-30" transform="scale(0.996264)"/>
      </g>
     </g>
    </g>
    <g id="text_6">
     <!-- \textbf{Re}$(\lambda)$ -->
     <g transform="translate(188.898262 290.26134) scale(0.1 -0.1)">
      <defs>
       <path id="NimbusRomNo9L-Medi-52" d="M 4576 160 
C 4461 160 4378 198 4314 282 
L 3027 2118 
C 3405 2240 3565 2324 3744 2485 
C 3930 2659 4032 2916 4032 3206 
C 4032 3947 3398 4352 2227 4352 
L 166 4352 
L 166 4191 
C 640 4159 730 4062 730 3599 
L 730 752 
C 730 282 666 217 166 160 
L 166 0 
L 2330 0 
L 2330 160 
C 1830 224 1766 295 1766 752 
L 1766 2014 
L 1939 2014 
L 3264 0 
L 4576 0 
L 4576 160 
z
M 1766 3865 
C 1766 3903 1792 3999 1811 4038 
C 1850 4102 1952 4134 2112 4134 
C 2701 4134 2938 3859 2938 3187 
C 2938 2777 2842 2527 2637 2393 
C 2470 2284 2253 2239 1766 2233 
L 1766 3865 
z
" transform="scale(0.015625)"/>
       <path id="NimbusRomNo9L-Medi-65" d="M 2573 811 
C 2317 508 2118 396 1843 396 
C 1594 396 1408 508 1274 725 
C 1158 923 1107 1127 1082 1555 
L 2694 1555 
C 2656 2090 2560 2389 2355 2631 
C 2144 2879 1850 3008 1498 3008 
C 698 3008 160 2377 160 1449 
C 160 545 685 -64 1478 -64 
C 1997 -64 2310 140 2726 725 
L 2573 811 
z
M 1050 1792 
C 1069 2555 1184 2809 1498 2809 
C 1677 2809 1798 2707 1850 2510 
C 1882 2389 1894 2211 1907 1887 
L 1907 1792 
L 1050 1792 
z
" transform="scale(0.015625)"/>
       <path id="CMR10-28" d="M 2118 -1536 
C 2118 -1517 2118 -1504 2010 -1396 
C 1210 -589 1005 620 1005 1600 
C 1005 2713 1248 3827 2035 4627 
C 2118 4704 2118 4716 2118 4736 
C 2118 4780 2093 4800 2054 4800 
C 1990 4800 1414 4365 1037 3552 
C 710 2848 634 2137 634 1600 
C 634 1100 704 326 1056 -397 
C 1440 -1184 1990 -1600 2054 -1600 
C 2093 -1600 2118 -1581 2118 -1536 
z
" transform="scale(0.015625)"/>
       <path id="StandardSymL-6c" d="M 480 3650 
C 525 4013 710 4224 998 4224 
C 1203 4224 1376 4064 1472 3778 
C 1517 3650 1574 3440 1632 3198 
L 154 19 
L 755 19 
L 1843 2301 
C 2048 1059 2150 607 2266 358 
C 2406 83 2611 -64 2848 -64 
C 3098 -64 3296 89 3405 371 
C 3475 543 3501 715 3507 1014 
L 3373 1014 
C 3322 683 3174 499 2944 499 
C 2752 499 2586 620 2483 843 
C 2400 1008 2355 1174 2266 1645 
L 2093 2466 
C 2086 2485 2080 2530 2067 2594 
C 1920 3415 1690 4192 1536 4422 
C 1395 4627 1203 4736 992 4736 
C 602 4736 397 4403 326 3650 
L 480 3650 
z
" transform="scale(0.015625)"/>
       <path id="CMR10-29" d="M 1850 1600 
C 1850 2099 1779 2873 1427 3597 
C 1043 4384 493 4800 429 4800 
C 390 4800 365 4774 365 4736 
C 365 4716 365 4704 486 4589 
C 1114 3955 1478 2937 1478 1600 
C 1478 505 1242 -621 448 -1428 
C 365 -1504 365 -1517 365 -1536 
C 365 -1575 390 -1600 429 -1600 
C 493 -1600 1069 -1165 1446 -352 
C 1773 352 1850 1062 1850 1600 
z
" transform="scale(0.015625)"/>
      </defs>
      <use xlink:href="#NimbusRomNo9L-Medi-52" transform="scale(0.996264)"/>
      <use xlink:href="#NimbusRomNo9L-Medi-65" transform="translate(71.929985 0) scale(0.996264)"/>
      <use xlink:href="#CMR10-28" transform="translate(116.163554 0) scale(0.996264)"/>
      <use xlink:href="#StandardSymL-6c" transform="translate(154.817399 0) scale(0.996264)"/>
      <use xlink:href="#CMR10-29" transform="translate(221.766034 0) scale(0.996264)"/>
     </g>
    </g>
   </g>
   <g id="matplotlib.axis_2">
    <g id="ytick_1">
     <g id="line2d_11">
      <path d="M 45.866149 241.351258 
L 357.98132 241.351258 
" clip-path="url(#p248b4fe889)" style="fill: none; stroke-dasharray: 1.85,0.8; stroke-dashoffset: 0; stroke: #b0b0b0; stroke-width: 0.5"/>
     </g>
     <g id="line2d_12">
      <defs>
       <path id="m0c1d4d5d8c" d="M 0 0 
L -3.5 0 
" style="stroke: #000000; stroke-width: 0.8"/>
      </defs>
      <g>
       <use xlink:href="#m0c1d4d5d8c" x="45.866149" y="241.351258" style="stroke: #000000; stroke-width: 0.8"/>
      </g>
     </g>
     <g id="text_7">
      <!-- $\mathdefault{−20}$ -->
      <g transform="translate(21.16264 244.728547) scale(0.1 -0.1)">
       <use xlink:href="#CMSY10-0" transform="scale(0.996264)"/>
       <use xlink:href="#NimbusRomNo9L-Regu-32" transform="translate(77.408707 0) scale(0.996264)"/>
       <use xlink:href="#NimbusRomNo9L-Regu-30" transform="translate(127.221908 0) scale(0.996264)"/>
      </g>
     </g>
    </g>
    <g id="ytick_2">
     <g id="line2d_13">
      <path d="M 45.866149 198.297866 
L 357.98132 198.297866 
" clip-path="url(#p248b4fe889)" style="fill: none; stroke-dasharray: 1.85,0.8; stroke-dashoffset: 0; stroke: #b0b0b0; stroke-width: 0.5"/>
     </g>
     <g id="line2d_14">
      <g>
       <use xlink:href="#m0c1d4d5d8c" x="45.866149" y="198.297866" style="stroke: #000000; stroke-width: 0.8"/>
      </g>
     </g>
     <g id="text_8">
      <!-- $\mathdefault{−10}$ -->
      <g transform="translate(21.16264 201.675155) scale(0.1 -0.1)">
       <use xlink:href="#CMSY10-0" transform="scale(0.996264)"/>
       <use xlink:href="#NimbusRomNo9L-Regu-31" transform="translate(77.408707 0) scale(0.996264)"/>
       <use xlink:href="#NimbusRomNo9L-Regu-30" transform="translate(127.221908 0) scale(0.996264)"/>
      </g>
     </g>
    </g>
    <g id="ytick_3">
     <g id="line2d_15">
      <path d="M 45.866149 155.244475 
L 357.98132 155.244475 
" clip-path="url(#p248b4fe889)" style="fill: none; stroke-dasharray: 1.85,0.8; stroke-dashoffset: 0; stroke: #b0b0b0; stroke-width: 0.5"/>
     </g>
     <g id="line2d_16">
      <g>
       <use xlink:href="#m0c1d4d5d8c" x="45.866149" y="155.244475" style="stroke: #000000; stroke-width: 0.8"/>
      </g>
     </g>
     <g id="text_9">
      <!-- $\mathdefault{0}$ -->
      <g transform="translate(33.884829 158.621764) scale(0.1 -0.1)">
       <use xlink:href="#NimbusRomNo9L-Regu-30" transform="scale(0.996264)"/>
      </g>
     </g>
    </g>
    <g id="ytick_4">
     <g id="line2d_17">
      <path d="M 45.866149 112.191084 
L 357.98132 112.191084 
" clip-path="url(#p248b4fe889)" style="fill: none; stroke-dasharray: 1.85,0.8; stroke-dashoffset: 0; stroke: #b0b0b0; stroke-width: 0.5"/>
     </g>
     <g id="line2d_18">
      <g>
       <use xlink:href="#m0c1d4d5d8c" x="45.866149" y="112.191084" style="stroke: #000000; stroke-width: 0.8"/>
      </g>
     </g>
     <g id="text_10">
      <!-- $\mathdefault{10}$ -->
      <g transform="translate(28.903509 115.568373) scale(0.1 -0.1)">
       <use xlink:href="#NimbusRomNo9L-Regu-31" transform="scale(0.996264)"/>
       <use xlink:href="#NimbusRomNo9L-Regu-30" transform="translate(49.8132 0) scale(0.996264)"/>
      </g>
     </g>
    </g>
    <g id="ytick_5">
     <g id="line2d_19">
      <path d="M 45.866149 69.137692 
L 357.98132 69.137692 
" clip-path="url(#p248b4fe889)" style="fill: none; stroke-dasharray: 1.85,0.8; stroke-dashoffset: 0; stroke: #b0b0b0; stroke-width: 0.5"/>
     </g>
     <g id="line2d_20">
      <g>
       <use xlink:href="#m0c1d4d5d8c" x="45.866149" y="69.137692" style="stroke: #000000; stroke-width: 0.8"/>
      </g>
     </g>
     <g id="text_11">
      <!-- $\mathdefault{20}$ -->
      <g transform="translate(28.903509 72.514981) scale(0.1 -0.1)">
       <use xlink:href="#NimbusRomNo9L-Regu-32" transform="scale(0.996264)"/>
       <use xlink:href="#NimbusRomNo9L-Regu-30" transform="translate(49.8132 0) scale(0.996264)"/>
      </g>
     </g>
    </g>
    <g id="text_12">
     <!-- \textbf{Im}$(\lambda)$ -->
     <g transform="translate(14.67198 168.54887) rotate(-90) scale(0.1 -0.1)">
      <defs>
       <path id="NimbusRomNo9L-Medi-49" d="M 723 617 
C 723 295 608 205 128 160 
L 128 0 
L 2368 0 
L 2368 160 
C 1882 192 1760 282 1760 617 
L 1760 3734 
C 1760 4069 1894 4172 2368 4191 
L 2368 4352 
L 128 4352 
L 128 4191 
C 589 4159 723 4062 723 3734 
L 723 617 
z
" transform="scale(0.015625)"/>
       <path id="NimbusRomNo9L-Medi-6d" d="M 1325 2944 
L 102 2944 
L 102 2790 
C 384 2752 454 2675 454 2413 
L 454 536 
C 454 274 384 204 102 153 
L 102 0 
L 1638 0 
L 1638 153 
C 1414 185 1344 274 1344 517 
L 1344 2222 
C 1344 2260 1446 2381 1530 2445 
C 1664 2534 1773 2579 1882 2579 
C 2131 2579 2227 2433 2227 2052 
L 2227 515 
C 2227 255 2157 172 1920 153 
L 1920 0 
L 3418 0 
L 3418 153 
C 3194 179 3117 274 3117 515 
L 3117 2210 
C 3117 2242 3219 2363 3302 2426 
C 3443 2534 3552 2579 3661 2579 
C 3904 2579 4000 2426 4000 2052 
L 4000 515 
C 4000 248 3930 172 3686 153 
L 3686 0 
L 5210 0 
L 5210 153 
C 4960 166 4890 242 4890 515 
L 4890 2109 
C 4890 2655 4550 3008 4026 3008 
C 3661 3008 3418 2860 3085 2452 
C 2893 2854 2669 3008 2266 3008 
C 1862 3008 1568 2835 1325 2452 
L 1325 2944 
z
" transform="scale(0.015625)"/>
      </defs>
      <use xlink:href="#NimbusRomNo9L-Medi-49" transform="scale(0.996264)"/>
      <use xlink:href="#NimbusRomNo9L-Medi-6d" transform="translate(38.753706 0) scale(0.996264)"/>
      <use xlink:href="#CMR10-28" transform="translate(121.742136 0) scale(0.996264)"/>
      <use xlink:href="#StandardSymL-6c" transform="translate(160.395982 0) scale(0.996264)"/>
      <use xlink:href="#CMR10-29" transform="translate(227.344617 0) scale(0.996264)"/>
     </g>
    </g>
   </g>
   <g id="line2d_21">
    <path d="M 45.866149 155.244475 
L 357.98132 155.244475 
" clip-path="url(#p248b4fe889)" style="fill: none; stroke: #000000; stroke-width: 1.2; stroke-linecap: square"/>
   </g>
   <g id="line2d_22">
    <path d="M 313.393439 262.877953 
L 313.393439 47.610997 
" clip-path="url(#p248b4fe889)" style="fill: none; stroke: #000000; stroke-width: 1.2; stroke-linecap: square"/>
   </g>
   <g id="patch_3">
    <path d="M 45.866149 262.877953 
L 45.866149 47.610997 
" style="fill: none; stroke: #000000; stroke-width: 0.8; stroke-linejoin: miter; stroke-linecap: square"/>
   </g>
   <g id="patch_4">
    <path d="M 357.98132 262.877953 
L 357.98132 47.610997 
" style="fill: none; stroke: #000000; stroke-width: 0.8; stroke-linejoin: miter; stroke-linecap: square"/>
   </g>
   <g id="patch_5">
    <path d="M 45.866149 262.877953 
L 357.98132 262.877953 
" style="fill: none; stroke: #000000; stroke-width: 0.8; stroke-linejoin: miter; stroke-linecap: square"/>
   </g>
   <g id="patch_6">
    <path d="M 45.866149 47.610997 
L 357.98132 47.610997 
" style="fill: none; stroke: #000000; stroke-width: 0.8; stroke-linejoin: miter; stroke-linecap: square"/>
   </g>
   <g id="text_13">
    <!-- \textbf{Case I (Unstable)} -->
    <g transform="translate(157.76185 41.610997) scale(0.12 -0.12)">
     <defs>
      <path id="NimbusRomNo9L-Medi-43" d="M 4205 966 
C 3827 569 3622 416 3309 294 
C 3123 217 2912 179 2733 179 
C 2310 179 1907 403 1722 736 
C 1536 1075 1446 1536 1446 2176 
C 1446 3501 1856 4204 2624 4204 
C 2925 4204 3200 4089 3475 3846 
C 3750 3597 3898 3385 4122 2899 
L 4282 2899 
L 4282 4396 
L 4109 4396 
C 4019 4173 3949 4102 3827 4102 
C 3770 4102 3674 4128 3533 4192 
C 3155 4345 2848 4416 2541 4416 
C 1267 4416 314 3430 314 2124 
C 314 806 1254 -128 2579 -128 
C 3034 -128 3411 -20 3763 217 
C 3968 358 4109 486 4397 806 
L 4205 966 
z
" transform="scale(0.015625)"/>
      <path id="NimbusRomNo9L-Medi-61" d="M 3027 429 
L 2963 366 
C 2944 347 2925 341 2893 341 
C 2803 341 2758 397 2758 498 
L 2758 2141 
C 2758 2670 2272 3008 1491 3008 
C 768 3008 282 2683 282 2211 
C 282 1953 435 1795 698 1795 
C 954 1795 1133 1946 1133 2160 
C 1133 2249 1094 2330 1018 2431 
C 960 2494 941 2532 941 2570 
C 941 2702 1120 2803 1344 2803 
C 1715 2803 1882 2633 1882 2249 
L 1882 1789 
C 1120 1562 806 1436 570 1279 
C 294 1090 160 876 160 605 
C 160 221 461 -64 870 -64 
C 1235 -64 1530 64 1882 378 
C 1952 57 2093 -64 2406 -64 
C 2682 -64 2880 38 3123 296 
L 3027 429 
z
M 1875 655 
C 1702 460 1574 385 1421 385 
C 1229 385 1094 555 1094 807 
C 1094 1172 1363 1436 1875 1568 
L 1875 655 
z
" transform="scale(0.015625)"/>
      <path id="NimbusRomNo9L-Medi-73" d="M 2176 2079 
L 2176 2995 
L 2035 2995 
C 1997 2899 1958 2867 1882 2867 
C 1843 2867 1779 2879 1677 2911 
C 1466 2982 1318 3008 1178 3008 
C 595 3008 173 2614 173 2085 
C 173 1670 435 1380 1082 1110 
C 1517 921 1696 764 1696 562 
C 1696 317 1504 153 1216 153 
C 768 153 474 436 339 984 
L 160 984 
L 160 -58 
L 320 -58 
C 390 76 429 121 486 121 
C 518 121 570 108 634 83 
C 806 6 1146 -64 1325 -64 
C 1907 -64 2310 329 2310 896 
C 2310 1342 2061 1613 1427 1877 
C 992 2060 813 2217 813 2431 
C 813 2639 992 2796 1235 2796 
C 1402 2796 1574 2727 1715 2595 
C 1850 2469 1920 2356 2016 2079 
L 2176 2079 
z
" transform="scale(0.015625)"/>
      <path id="NimbusRomNo9L-Medi-28" d="M 1958 4416 
C 1562 4204 1382 4070 1133 3807 
C 589 3219 294 2457 294 1631 
C 294 1049 454 479 762 -7 
C 1056 -468 1331 -724 1958 -1102 
L 1958 -922 
C 1594 -692 1434 -526 1299 -238 
C 1107 159 1018 748 1018 1625 
C 1018 2508 1107 3155 1286 3539 
C 1421 3820 1574 3987 1958 4243 
L 1958 4416 
z
" transform="scale(0.015625)"/>
      <path id="NimbusRomNo9L-Medi-55" d="M 3987 3643 
C 3987 4024 4077 4127 4486 4191 
L 4486 4352 
L 3078 4352 
L 3078 4191 
C 3578 4153 3706 4024 3706 3553 
L 3706 1585 
C 3706 630 3347 185 2586 185 
C 1933 185 1645 566 1645 1443 
L 1645 3598 
C 1645 3856 1683 3998 1779 4088 
C 1856 4153 1958 4178 2266 4191 
L 2266 4352 
L 102 4352 
L 102 4191 
C 550 4146 627 4062 627 3598 
L 627 1443 
C 627 811 762 495 1152 211 
C 1459 -13 1869 -128 2336 -128 
C 2810 -128 3258 12 3533 250 
C 3821 495 3987 985 3987 1585 
L 3987 3643 
z
" transform="scale(0.015625)"/>
      <path id="NimbusRomNo9L-Medi-6e" d="M 1357 2944 
L 134 2944 
L 134 2790 
C 416 2745 474 2681 474 2413 
L 474 536 
C 474 268 422 211 134 153 
L 134 0 
L 1677 0 
L 1677 153 
C 1440 185 1363 281 1363 517 
L 1363 2222 
C 1363 2247 1408 2311 1472 2369 
C 1613 2502 1766 2579 1914 2579 
C 2138 2579 2246 2407 2246 2052 
L 2246 515 
C 2246 280 2163 179 1946 153 
L 1946 0 
L 3450 0 
L 3450 153 
C 3200 172 3136 248 3136 515 
L 3136 2109 
C 3136 2655 2797 3008 2272 3008 
C 1888 3008 1594 2828 1357 2452 
L 1357 2944 
z
" transform="scale(0.015625)"/>
      <path id="NimbusRomNo9L-Medi-74" d="M 1952 2944 
L 1350 2944 
L 1350 4025 
L 1190 4025 
C 800 3475 544 3187 128 2835 
L 128 2662 
L 461 2662 
L 461 606 
C 461 192 736 -64 1178 -64 
C 1606 -64 1862 128 2125 650 
L 1965 720 
C 1837 479 1734 390 1600 390 
C 1421 390 1350 498 1350 752 
L 1350 2662 
L 1952 2662 
L 1952 2944 
z
" transform="scale(0.015625)"/>
      <path id="NimbusRomNo9L-Medi-62" d="M 1350 4352 
L 109 4352 
L 109 4198 
C 403 4138 461 4078 461 3812 
L 461 -58 
L 538 -58 
L 1043 298 
C 1338 38 1568 -64 1888 -64 
C 2739 -64 3334 593 3334 1530 
C 3334 2398 2842 3008 2131 3008 
C 1824 3008 1587 2899 1350 2649 
L 1350 4352 
z
M 1350 2291 
C 1459 2561 1587 2662 1798 2662 
C 2195 2662 2394 2241 2394 1417 
C 2394 549 2202 140 1792 140 
C 1523 140 1350 335 1350 637 
L 1350 2291 
z
" transform="scale(0.015625)"/>
      <path id="NimbusRomNo9L-Medi-6c" d="M 1318 4352 
L 102 4352 
L 102 4198 
C 326 4178 429 4062 429 3824 
L 429 540 
C 429 301 320 172 102 153 
L 102 0 
L 1632 0 
L 1632 153 
C 1421 160 1318 282 1318 540 
L 1318 4352 
z
" transform="scale(0.015625)"/>
      <path id="NimbusRomNo9L-Medi-29" d="M 173 -1102 
C 570 -890 749 -756 992 -494 
C 1542 95 1837 857 1837 1676 
C 1837 2265 1677 2835 1370 3321 
C 1075 3782 800 4038 173 4416 
L 173 4236 
C 538 3999 698 3839 832 3551 
C 1024 3155 1114 2559 1114 1689 
C 1114 806 1024 159 845 -225 
C 717 -506 557 -673 173 -929 
L 173 -1102 
z
" transform="scale(0.015625)"/>
     </defs>
     <use xlink:href="#NimbusRomNo9L-Medi-43" transform="scale(0.996264)"/>
     <use xlink:href="#NimbusRomNo9L-Medi-61" transform="translate(71.929985 0) scale(0.996264)"/>
     <use xlink:href="#NimbusRomNo9L-Medi-73" transform="translate(121.743185 0) scale(0.996264)"/>
     <use xlink:href="#NimbusRomNo9L-Medi-65" transform="translate(160.496892 0) scale(0.996264)"/>
     <use xlink:href="#NimbusRomNo9L-Medi-49" transform="translate(229.63706 0) scale(0.996264)"/>
     <use xlink:href="#NimbusRomNo9L-Medi-28" transform="translate(293.297367 0) scale(0.996264)"/>
     <use xlink:href="#NimbusRomNo9L-Medi-55" transform="translate(326.472597 0) scale(0.996264)"/>
     <use xlink:href="#NimbusRomNo9L-Medi-6e" transform="translate(398.402582 0) scale(0.996264)"/>
     <use xlink:href="#NimbusRomNo9L-Medi-73" transform="translate(453.794258 0) scale(0.996264)"/>
     <use xlink:href="#NimbusRomNo9L-Medi-74" transform="translate(492.547965 0) scale(0.996264)"/>
     <use xlink:href="#NimbusRomNo9L-Medi-61" transform="translate(525.723194 0) scale(0.996264)"/>
     <use xlink:href="#NimbusRomNo9L-Medi-62" transform="translate(575.536395 0) scale(0.996264)"/>
     <use xlink:href="#NimbusRomNo9L-Medi-6c" transform="translate(630.928072 0) scale(0.996264)"/>
     <use xlink:href="#NimbusRomNo9L-Medi-65" transform="translate(658.623241 0) scale(0.996264)"/>
     <use xlink:href="#NimbusRomNo9L-Medi-29" transform="translate(702.85681 0) scale(0.996264)"/>
    </g>
   </g>
  </g>
  <g id="axes_2">
   <g id="patch_7">
    <path d="M 393.484829 262.877953 
L 705.6 262.877953 
L 705.6 47.610997 
L 393.484829 47.610997 
z
" style="fill: #ffffff"/>
   </g>
   <g id="PathCollection_2">
    <defs>
     <path id="m8192b3dfe3" d="M 0 2.95804 
C 0.784481 2.95804 1.536938 2.646362 2.09165 2.09165 
C 2.646362 1.536938 2.95804 0.784481 2.95804 0 
C 2.95804 -0.784481 2.646362 -1.536938 2.09165 -2.09165 
C 1.536938 -2.646362 0.784481 -2.95804 0 -2.95804 
C -0.784481 -2.95804 -1.536938 -2.646362 -2.09165 -2.09165 
C -2.646362 -1.536938 -2.95804 -0.784481 -2.95804 0 
C -2.95804 0.784481 -2.646362 1.536938 -2.09165 2.09165 
C -1.536938 2.646362 -0.784481 2.95804 0 2.95804 
z
" style="stroke: #000000; stroke-width: 0.5"/>
    </defs>
    <g clip-path="url(#p9dd4dc1ffd)">
     <use xlink:href="#m8192b3dfe3" x="646.255463" y="153.205348" style="fill: #463480; stroke: #000000; stroke-width: 0.5"/>
     <use xlink:href="#m8192b3dfe3" x="646.255463" y="157.283602" style="fill: #463480; stroke: #000000; stroke-width: 0.5"/>
     <use xlink:href="#m8192b3dfe3" x="609.778295" y="173.027291" style="fill: #463480; stroke: #000000; stroke-width: 0.5"/>
     <use xlink:href="#m8192b3dfe3" x="609.778295" y="137.461659" style="fill: #463480; stroke: #000000; stroke-width: 0.5"/>
     <use xlink:href="#m8192b3dfe3" x="593.861225" y="174.127216" style="fill: #463480; stroke: #000000; stroke-width: 0.5"/>
     <use xlink:href="#m8192b3dfe3" x="593.861225" y="136.361734" style="fill: #463480; stroke: #000000; stroke-width: 0.5"/>
     <use xlink:href="#m8192b3dfe3" x="537.650845" y="110.707508" style="fill: #463480; stroke: #000000; stroke-width: 0.5"/>
     <use xlink:href="#m8192b3dfe3" x="537.650845" y="199.781443" style="fill: #463480; stroke: #000000; stroke-width: 0.5"/>
     <use xlink:href="#m8192b3dfe3" x="513.247216" y="206.24176" style="fill: #463480; stroke: #000000; stroke-width: 0.5"/>
     <use xlink:href="#m8192b3dfe3" x="513.247216" y="104.247191" style="fill: #463480; stroke: #000000; stroke-width: 0.5"/>
     <use xlink:href="#m8192b3dfe3" x="463.683607" y="76.772208" style="fill: #463480; stroke: #000000; stroke-width: 0.5"/>
     <use xlink:href="#m8192b3dfe3" x="463.683607" y="233.716742" style="fill: #463480; stroke: #000000; stroke-width: 0.5"/>
     <use xlink:href="#m8192b3dfe3" x="443.218711" y="66.141515" style="fill: #463480; stroke: #000000; stroke-width: 0.5"/>
     <use xlink:href="#m8192b3dfe3" x="443.218711" y="244.347435" style="fill: #463480; stroke: #000000; stroke-width: 0.5"/>
    </g>
   </g>
   <g id="matplotlib.axis_3">
    <g id="xtick_6">
     <g id="line2d_23">
      <path d="M 393.484829 262.877953 
L 393.484829 47.610997 
" clip-path="url(#p9dd4dc1ffd)" style="fill: none; stroke-dasharray: 1.85,0.8; stroke-dashoffset: 0; stroke: #b0b0b0; stroke-width: 0.5"/>
     </g>
     <g id="line2d_24">
      <g>
       <use xlink:href="#mdc0bd74497" x="393.484829" y="262.877953" style="stroke: #000000; stroke-width: 0.8"/>
      </g>
     </g>
     <g id="text_14">
      <!-- $\mathdefault{−12}$ -->
      <g transform="translate(384.633075 276.632531) scale(0.1 -0.1)">
       <use xlink:href="#CMSY10-0" transform="scale(0.996264)"/>
       <use xlink:href="#NimbusRomNo9L-Regu-31" transform="translate(77.408707 0) scale(0.996264)"/>
       <use xlink:href="#NimbusRomNo9L-Regu-32" transform="translate(127.221908 0) scale(0.996264)"/>
      </g>
     </g>
    </g>
    <g id="xtick_7">
     <g id="line2d_25">
      <path d="M 460.366652 262.877953 
L 460.366652 47.610997 
" clip-path="url(#p9dd4dc1ffd)" style="fill: none; stroke-dasharray: 1.85,0.8; stroke-dashoffset: 0; stroke: #b0b0b0; stroke-width: 0.5"/>
     </g>
     <g id="line2d_26">
      <g>
       <use xlink:href="#mdc0bd74497" x="460.366652" y="262.877953" style="stroke: #000000; stroke-width: 0.8"/>
      </g>
     </g>
     <g id="text_15">
      <!-- $\mathdefault{−9}$ -->
      <g transform="translate(454.005557 276.632531) scale(0.1 -0.1)">
       <use xlink:href="#CMSY10-0" transform="scale(0.996264)"/>
       <use xlink:href="#NimbusRomNo9L-Regu-39" transform="translate(77.408707 0) scale(0.996264)"/>
      </g>
     </g>
    </g>
    <g id="xtick_8">
     <g id="line2d_27">
      <path d="M 527.248474 262.877953 
L 527.248474 47.610997 
" clip-path="url(#p9dd4dc1ffd)" style="fill: none; stroke-dasharray: 1.85,0.8; stroke-dashoffset: 0; stroke: #b0b0b0; stroke-width: 0.5"/>
     </g>
     <g id="line2d_28">
      <g>
       <use xlink:href="#mdc0bd74497" x="527.248474" y="262.877953" style="stroke: #000000; stroke-width: 0.8"/>
      </g>
     </g>
     <g id="text_16">
      <!-- $\mathdefault{−6}$ -->
      <g transform="translate(520.887379 276.632531) scale(0.1 -0.1)">
       <use xlink:href="#CMSY10-0" transform="scale(0.996264)"/>
       <use xlink:href="#NimbusRomNo9L-Regu-36" transform="translate(77.408707 0) scale(0.996264)"/>
      </g>
     </g>
    </g>
    <g id="xtick_9">
     <g id="line2d_29">
      <path d="M 594.130296 262.877953 
L 594.130296 47.610997 
" clip-path="url(#p9dd4dc1ffd)" style="fill: none; stroke-dasharray: 1.85,0.8; stroke-dashoffset: 0; stroke: #b0b0b0; stroke-width: 0.5"/>
     </g>
     <g id="line2d_30">
      <g>
       <use xlink:href="#mdc0bd74497" x="594.130296" y="262.877953" style="stroke: #000000; stroke-width: 0.8"/>
      </g>
     </g>
     <g id="text_17">
      <!-- $\mathdefault{−3}$ -->
      <g transform="translate(587.769202 276.632531) scale(0.1 -0.1)">
       <use xlink:href="#CMSY10-0" transform="scale(0.996264)"/>
       <use xlink:href="#NimbusRomNo9L-Regu-33" transform="translate(77.408707 0) scale(0.996264)"/>
      </g>
     </g>
    </g>
    <g id="xtick_10">
     <g id="line2d_31">
      <path d="M 661.012118 262.877953 
L 661.012118 47.610997 
" clip-path="url(#p9dd4dc1ffd)" style="fill: none; stroke-dasharray: 1.85,0.8; stroke-dashoffset: 0; stroke: #b0b0b0; stroke-width: 0.5"/>
     </g>
     <g id="line2d_32">
      <g>
       <use xlink:href="#mdc0bd74497" x="661.012118" y="262.877953" style="stroke: #000000; stroke-width: 0.8"/>
      </g>
     </g>
     <g id="text_18">
      <!-- $\mathdefault{0}$ -->
      <g transform="translate(658.521458 276.632531) scale(0.1 -0.1)">
       <use xlink:href="#NimbusRomNo9L-Regu-30" transform="scale(0.996264)"/>
      </g>
     </g>
    </g>
    <g id="text_19">
     <!-- \textbf{Re}$(\lambda)$ -->
     <g transform="translate(536.516942 290.26134) scale(0.1 -0.1)">
      <use xlink:href="#NimbusRomNo9L-Medi-52" transform="scale(0.996264)"/>
      <use xlink:href="#NimbusRomNo9L-Medi-65" transform="translate(71.929985 0) scale(0.996264)"/>
      <use xlink:href="#CMR10-28" transform="translate(116.163554 0) scale(0.996264)"/>
      <use xlink:href="#StandardSymL-6c" transform="translate(154.817399 0) scale(0.996264)"/>
      <use xlink:href="#CMR10-29" transform="translate(221.766034 0) scale(0.996264)"/>
     </g>
    </g>
   </g>
   <g id="matplotlib.axis_4">
    <g id="ytick_6">
     <g id="line2d_33">
      <path d="M 393.484829 241.351258 
L 705.6 241.351258 
" clip-path="url(#p9dd4dc1ffd)" style="fill: none; stroke-dasharray: 1.85,0.8; stroke-dashoffset: 0; stroke: #b0b0b0; stroke-width: 0.5"/>
     </g>
     <g id="line2d_34">
      <g>
       <use xlink:href="#m0c1d4d5d8c" x="393.484829" y="241.351258" style="stroke: #000000; stroke-width: 0.8"/>
      </g>
     </g>
     <g id="text_20">
      <!-- $\mathdefault{−20}$ -->
      <g transform="translate(368.78132 244.728547) scale(0.1 -0.1)">
       <use xlink:href="#CMSY10-0" transform="scale(0.996264)"/>
       <use xlink:href="#NimbusRomNo9L-Regu-32" transform="translate(77.408707 0) scale(0.996264)"/>
       <use xlink:href="#NimbusRomNo9L-Regu-30" transform="translate(127.221908 0) scale(0.996264)"/>
      </g>
     </g>
    </g>
    <g id="ytick_7">
     <g id="line2d_35">
      <path d="M 393.484829 198.297866 
L 705.6 198.297866 
" clip-path="url(#p9dd4dc1ffd)" style="fill: none; stroke-dasharray: 1.85,0.8; stroke-dashoffset: 0; stroke: #b0b0b0; stroke-width: 0.5"/>
     </g>
     <g id="line2d_36">
      <g>
       <use xlink:href="#m0c1d4d5d8c" x="393.484829" y="198.297866" style="stroke: #000000; stroke-width: 0.8"/>
      </g>
     </g>
     <g id="text_21">
      <!-- $\mathdefault{−10}$ -->
      <g transform="translate(368.78132 201.675155) scale(0.1 -0.1)">
       <use xlink:href="#CMSY10-0" transform="scale(0.996264)"/>
       <use xlink:href="#NimbusRomNo9L-Regu-31" transform="translate(77.408707 0) scale(0.996264)"/>
       <use xlink:href="#NimbusRomNo9L-Regu-30" transform="translate(127.221908 0) scale(0.996264)"/>
      </g>
     </g>
    </g>
    <g id="ytick_8">
     <g id="line2d_37">
      <path d="M 393.484829 155.244475 
L 705.6 155.244475 
" clip-path="url(#p9dd4dc1ffd)" style="fill: none; stroke-dasharray: 1.85,0.8; stroke-dashoffset: 0; stroke: #b0b0b0; stroke-width: 0.5"/>
     </g>
     <g id="line2d_38">
      <g>
       <use xlink:href="#m0c1d4d5d8c" x="393.484829" y="155.244475" style="stroke: #000000; stroke-width: 0.8"/>
      </g>
     </g>
     <g id="text_22">
      <!-- $\mathdefault{0}$ -->
      <g transform="translate(381.503509 158.621764) scale(0.1 -0.1)">
       <use xlink:href="#NimbusRomNo9L-Regu-30" transform="scale(0.996264)"/>
      </g>
     </g>
    </g>
    <g id="ytick_9">
     <g id="line2d_39">
      <path d="M 393.484829 112.191084 
L 705.6 112.191084 
" clip-path="url(#p9dd4dc1ffd)" style="fill: none; stroke-dasharray: 1.85,0.8; stroke-dashoffset: 0; stroke: #b0b0b0; stroke-width: 0.5"/>
     </g>
     <g id="line2d_40">
      <g>
       <use xlink:href="#m0c1d4d5d8c" x="393.484829" y="112.191084" style="stroke: #000000; stroke-width: 0.8"/>
      </g>
     </g>
     <g id="text_23">
      <!-- $\mathdefault{10}$ -->
      <g transform="translate(376.522189 115.568373) scale(0.1 -0.1)">
       <use xlink:href="#NimbusRomNo9L-Regu-31" transform="scale(0.996264)"/>
       <use xlink:href="#NimbusRomNo9L-Regu-30" transform="translate(49.8132 0) scale(0.996264)"/>
      </g>
     </g>
    </g>
    <g id="ytick_10">
     <g id="line2d_41">
      <path d="M 393.484829 69.137692 
L 705.6 69.137692 
" clip-path="url(#p9dd4dc1ffd)" style="fill: none; stroke-dasharray: 1.85,0.8; stroke-dashoffset: 0; stroke: #b0b0b0; stroke-width: 0.5"/>
     </g>
     <g id="line2d_42">
      <g>
       <use xlink:href="#m0c1d4d5d8c" x="393.484829" y="69.137692" style="stroke: #000000; stroke-width: 0.8"/>
      </g>
     </g>
     <g id="text_24">
      <!-- $\mathdefault{20}$ -->
      <g transform="translate(376.522189 72.514981) scale(0.1 -0.1)">
       <use xlink:href="#NimbusRomNo9L-Regu-32" transform="scale(0.996264)"/>
       <use xlink:href="#NimbusRomNo9L-Regu-30" transform="translate(49.8132 0) scale(0.996264)"/>
      </g>
     </g>
    </g>
   </g>
   <g id="line2d_43">
    <path d="M 393.484829 155.244475 
L 705.6 155.244475 
" clip-path="url(#p9dd4dc1ffd)" style="fill: none; stroke: #000000; stroke-width: 1.2; stroke-linecap: square"/>
   </g>
   <g id="line2d_44">
    <path d="M 661.012118 262.877953 
L 661.012118 47.610997 
" clip-path="url(#p9dd4dc1ffd)" style="fill: none; stroke: #000000; stroke-width: 1.2; stroke-linecap: square"/>
   </g>
   <g id="patch_8">
    <path d="M 393.484829 262.877953 
L 393.484829 47.610997 
" style="fill: none; stroke: #000000; stroke-width: 0.8; stroke-linejoin: miter; stroke-linecap: square"/>
   </g>
   <g id="patch_9">
    <path d="M 705.6 262.877953 
L 705.6 47.610997 
" style="fill: none; stroke: #000000; stroke-width: 0.8; stroke-linejoin: miter; stroke-linecap: square"/>
   </g>
   <g id="patch_10">
    <path d="M 393.484829 262.877953 
L 705.6 262.877953 
" style="fill: none; stroke: #000000; stroke-width: 0.8; stroke-linejoin: miter; stroke-linecap: square"/>
   </g>
   <g id="patch_11">
    <path d="M 393.484829 47.610997 
L 705.6 47.610997 
" style="fill: none; stroke: #000000; stroke-width: 0.8; stroke-linejoin: miter; stroke-linecap: square"/>
   </g>
   <g id="text_25">
    <!-- \textbf{Case II (Stable)} -->
    <g transform="translate(509.696324 41.610997) scale(0.12 -0.12)">
     <defs>
      <path id="NimbusRomNo9L-Medi-53" d="M 3098 3027 
L 3098 4416 
L 2906 4416 
C 2861 4249 2810 4198 2701 4198 
C 2643 4198 2573 4217 2432 4268 
C 2131 4377 1926 4416 1683 4416 
C 813 4416 282 3923 282 3116 
C 282 2553 614 2150 1376 1785 
L 1805 1580 
C 2368 1312 2522 1145 2522 812 
C 2522 371 2208 83 1715 83 
C 1344 83 1024 243 781 556 
C 608 793 518 1004 410 1452 
L 224 1452 
L 224 -128 
L 410 -128 
C 448 32 499 89 602 89 
C 653 89 723 70 864 25 
C 1184 -84 1421 -128 1696 -128 
C 2643 -128 3283 416 3283 1222 
C 3283 1702 2989 2182 2579 2387 
L 1638 2854 
C 1120 3110 979 3270 979 3577 
C 979 3974 1248 4217 1683 4217 
C 1971 4217 2240 4096 2470 3859 
C 2688 3635 2790 3449 2918 3033 
L 3098 3027 
z
" transform="scale(0.015625)"/>
     </defs>
     <use xlink:href="#NimbusRomNo9L-Medi-43" transform="scale(0.996264)"/>
     <use xlink:href="#NimbusRomNo9L-Medi-61" transform="translate(71.929985 0) scale(0.996264)"/>
     <use xlink:href="#NimbusRomNo9L-Medi-73" transform="translate(121.743185 0) scale(0.996264)"/>
     <use xlink:href="#NimbusRomNo9L-Medi-65" transform="translate(160.496892 0) scale(0.996264)"/>
     <use xlink:href="#NimbusRomNo9L-Medi-49" transform="translate(229.63706 0) scale(0.996264)"/>
     <use xlink:href="#NimbusRomNo9L-Medi-49" transform="translate(268.390767 0) scale(0.996264)"/>
     <use xlink:href="#NimbusRomNo9L-Medi-28" transform="translate(332.051073 0) scale(0.996264)"/>
     <use xlink:href="#NimbusRomNo9L-Medi-53" transform="translate(365.226303 0) scale(0.996264)"/>
     <use xlink:href="#NimbusRomNo9L-Medi-74" transform="translate(420.61798 0) scale(0.996264)"/>
     <use xlink:href="#NimbusRomNo9L-Medi-61" transform="translate(453.79321 0) scale(0.996264)"/>
     <use xlink:href="#NimbusRomNo9L-Medi-62" transform="translate(503.60641 0) scale(0.996264)"/>
     <use xlink:href="#NimbusRomNo9L-Medi-6c" transform="translate(558.998087 0) scale(0.996264)"/>
     <use xlink:href="#NimbusRomNo9L-Medi-65" transform="translate(586.693257 0) scale(0.996264)"/>
     <use xlink:href="#NimbusRomNo9L-Medi-29" transform="translate(630.926825 0) scale(0.996264)"/>
    </g>
   </g>
  </g>
  <g id="text_26">
   <!-- \textbf{Eigenvalue Distributions in the Complex Plane} -->
   <g transform="translate(237.423448 15.365318) scale(0.12 -0.12)">
    <defs>
     <path id="NimbusRomNo9L-Medi-45" d="M 3795 4352 
L 102 4352 
L 102 4191 
C 544 4165 666 4062 666 3734 
L 666 617 
C 666 282 576 211 102 160 
L 102 0 
L 3846 0 
L 4102 1338 
L 3923 1338 
C 3725 906 3597 726 3366 539 
C 3072 301 2720 198 2234 198 
C 1824 198 1702 282 1702 559 
L 1702 2117 
C 2400 2117 2662 1866 2739 1119 
L 2906 1119 
L 2906 3296 
L 2739 3296 
C 2643 2562 2394 2330 1702 2336 
L 1702 3831 
C 1702 4076 1786 4134 2118 4134 
C 3162 4134 3475 3915 3635 3058 
L 3795 3058 
L 3795 4352 
z
" transform="scale(0.015625)"/>
     <path id="NimbusRomNo9L-Medi-69" d="M 1331 2944 
L 102 2944 
L 102 2790 
C 384 2733 442 2675 442 2413 
L 442 536 
C 442 274 397 223 102 153 
L 102 0 
L 1632 0 
L 1632 153 
C 1408 185 1331 274 1331 517 
L 1331 2944 
z
M 883 4416 
C 608 4416 384 4191 384 3923 
C 384 3635 595 3423 877 3423 
C 1158 3423 1376 3635 1376 3916 
C 1376 4191 1158 4416 883 4416 
z
" transform="scale(0.015625)"/>
     <path id="NimbusRomNo9L-Medi-67" d="M 3085 2540 
L 3085 2880 
L 2253 2880 
C 1971 2969 1792 3008 1536 3008 
C 774 3008 237 2586 237 1980 
C 237 1764 320 1553 467 1375 
C 608 1222 730 1139 1030 1011 
C 525 844 269 612 269 287 
C 269 25 384 -90 794 -237 
C 390 -295 179 -462 179 -737 
C 179 -1126 659 -1344 1466 -1344 
C 2528 -1344 3091 -1005 3091 -341 
C 3091 153 2694 448 2042 448 
L 1626 448 
C 1114 448 986 490 986 661 
C 986 844 1165 979 1421 979 
L 1709 973 
C 2010 973 2170 1011 2387 1139 
C 2675 1323 2822 1583 2822 1919 
C 2822 2172 2746 2363 2566 2540 
L 3085 2540 
z
M 2074 -321 
C 2419 -321 2586 -435 2586 -656 
C 2586 -965 2234 -1140 1600 -1140 
C 1037 -1140 742 -985 742 -690 
C 742 -549 787 -475 966 -321 
L 2074 -321 
z
M 1536 2809 
C 1837 2809 1958 2567 1958 1974 
C 1958 1381 1837 1152 1536 1152 
C 1229 1152 1114 1381 1114 1974 
C 1114 2573 1235 2809 1536 2809 
z
" transform="scale(0.015625)"/>
     <path id="NimbusRomNo9L-Medi-76" d="M 3104 2944 
L 2138 2944 
L 2138 2790 
C 2413 2777 2490 2733 2490 2581 
C 2490 2512 2464 2411 2419 2297 
L 1958 1145 
L 1453 2429 
C 1408 2550 1395 2588 1395 2626 
C 1395 2721 1459 2765 1619 2777 
C 1632 2777 1683 2784 1734 2790 
L 1734 2944 
L 134 2944 
L 134 2790 
C 282 2771 320 2752 358 2695 
C 371 2702 672 2069 774 1810 
L 1542 -64 
L 1709 -64 
L 2733 2442 
C 2854 2721 2906 2771 3104 2790 
L 3104 2944 
z
" transform="scale(0.015625)"/>
     <path id="NimbusRomNo9L-Medi-75" d="M 2195 -39 
C 2470 57 2624 83 3040 127 
L 3437 172 
L 3437 320 
C 3155 332 3078 414 3078 683 
L 3078 2944 
L 1792 2944 
L 1792 2790 
C 2112 2765 2189 2690 2189 2420 
L 2189 646 
C 1978 421 1843 352 1664 352 
C 1402 352 1306 478 1306 800 
L 1306 2944 
L 102 2944 
L 102 2790 
C 365 2739 416 2683 416 2417 
L 416 825 
C 416 268 736 -64 1267 -64 
C 1600 -64 1824 38 2195 358 
L 2195 -39 
z
" transform="scale(0.015625)"/>
     <path id="NimbusRomNo9L-Medi-44" d="M 621 582 
C 621 300 461 172 90 160 
L 90 0 
L 2112 0 
C 3494 0 4416 887 4416 2221 
C 4416 3548 3520 4352 2042 4352 
L 90 4352 
L 90 4191 
C 499 4153 621 4057 621 3763 
L 621 582 
z
M 1658 3909 
C 1658 4057 1786 4134 2035 4134 
C 2496 4134 2822 3921 3040 3477 
C 3213 3135 3302 2665 3302 2124 
C 3302 1512 3174 958 2970 668 
C 2752 372 2445 224 2029 224 
C 1741 224 1658 307 1658 597 
L 1658 3909 
z
" transform="scale(0.015625)"/>
     <path id="NimbusRomNo9L-Medi-72" d="M 1395 2944 
L 186 2944 
L 186 2790 
C 461 2752 531 2669 531 2413 
L 531 536 
C 531 274 467 204 186 153 
L 186 0 
L 1888 0 
L 1888 153 
C 1498 179 1421 262 1421 658 
L 1421 1864 
C 1421 2196 1600 2471 1811 2471 
C 1862 2471 1920 2426 1990 2324 
C 2112 2152 2208 2094 2374 2094 
C 2611 2094 2778 2273 2778 2522 
C 2778 2796 2560 3008 2259 3008 
C 1939 3008 1696 2835 1395 2406 
L 1395 2944 
z
" transform="scale(0.015625)"/>
     <path id="NimbusRomNo9L-Medi-6f" d="M 1606 3008 
C 794 3008 160 2343 160 1487 
C 160 587 768 -64 1606 -64 
C 2432 -64 3046 593 3046 1468 
C 3046 2350 2432 3008 1606 3008 
z
M 1613 2809 
C 1984 2809 2106 2463 2106 1431 
C 2106 461 1978 134 1606 134 
C 1229 134 1101 455 1101 1374 
C 1101 2482 1216 2809 1613 2809 
z
" transform="scale(0.015625)"/>
     <path id="NimbusRomNo9L-Medi-68" d="M 1331 4352 
L 102 4352 
L 102 4198 
C 397 4138 442 4085 442 3812 
L 442 534 
C 442 267 390 210 102 153 
L 102 0 
L 1645 0 
L 1645 153 
C 1408 185 1331 280 1331 515 
L 1331 2210 
C 1331 2236 1376 2299 1440 2356 
C 1581 2502 1734 2579 1882 2579 
C 2106 2579 2214 2407 2214 2052 
L 2214 515 
C 2214 280 2131 179 1914 153 
L 1914 0 
L 3418 0 
L 3418 153 
C 3187 172 3104 267 3104 534 
L 3104 2109 
C 3104 2655 2765 3008 2240 3008 
C 1901 3008 1664 2879 1331 2509 
L 1331 4352 
z
" transform="scale(0.015625)"/>
     <path id="NimbusRomNo9L-Medi-70" d="M 1357 2944 
L 134 2944 
L 134 2790 
C 416 2745 480 2681 480 2413 
L 480 -783 
C 480 -1044 429 -1101 122 -1152 
L 122 -1280 
L 1869 -1280 
L 1869 -1152 
C 1478 -1133 1370 -1006 1370 -580 
L 1370 319 
C 1677 19 1843 -64 2125 -64 
C 2842 -64 3354 596 3354 1528 
C 3354 2403 2874 3008 2163 3008 
C 1786 3008 1555 2860 1357 2491 
L 1357 2944 
z
M 1370 2202 
C 1370 2246 1427 2347 1504 2428 
C 1632 2567 1779 2643 1920 2643 
C 2253 2643 2406 2265 2406 1440 
C 2406 659 2227 288 1862 288 
C 1651 288 1466 432 1370 672 
L 1370 2202 
z
" transform="scale(0.015625)"/>
     <path id="NimbusRomNo9L-Medi-78" d="M 3098 153 
C 2995 185 2950 211 2906 281 
L 1958 1736 
L 2605 2541 
C 2726 2688 2854 2758 3053 2790 
L 3053 2944 
L 1978 2944 
L 1978 2790 
C 2035 2784 2086 2777 2106 2777 
C 2253 2771 2304 2732 2304 2637 
C 2304 2541 2240 2432 2061 2228 
C 2022 2190 1926 2068 1830 1934 
C 1792 1979 1766 2017 1747 2043 
C 1542 2311 1376 2586 1376 2669 
C 1376 2745 1466 2784 1677 2790 
L 1677 2944 
L 77 2944 
L 77 2790 
C 243 2764 282 2732 410 2541 
L 1229 1283 
C 1043 1047 870 836 813 747 
C 454 274 326 166 90 153 
L 90 0 
L 1171 0 
L 1171 153 
C 941 166 851 211 851 306 
C 851 402 1018 670 1261 964 
C 1274 983 1318 1034 1363 1092 
C 1485 906 1594 747 1632 689 
C 1779 479 1843 357 1843 281 
C 1843 204 1754 166 1555 153 
L 1555 0 
L 3098 0 
L 3098 153 
z
" transform="scale(0.015625)"/>
     <path id="NimbusRomNo9L-Medi-50" d="M 1677 1964 
C 2541 1971 2758 1990 3040 2105 
C 3558 2303 3840 2694 3840 3187 
C 3840 3929 3232 4352 2163 4352 
L 102 4352 
L 102 4191 
C 550 4153 640 4050 640 3599 
L 640 752 
C 640 353 557 224 256 185 
C 237 185 173 172 102 160 
L 102 0 
L 2240 0 
L 2240 160 
C 1734 224 1677 282 1677 752 
L 1677 1964 
z
M 1677 3903 
C 1677 4051 1786 4127 1997 4127 
C 2528 4127 2739 3846 2739 3155 
C 2739 2751 2662 2508 2496 2361 
C 2342 2233 2131 2188 1677 2188 
L 1677 3903 
z
" transform="scale(0.015625)"/>
    </defs>
    <use xlink:href="#NimbusRomNo9L-Medi-45" transform="scale(0.996264)"/>
    <use xlink:href="#NimbusRomNo9L-Medi-69" transform="translate(66.450031 0) scale(0.996264)"/>
    <use xlink:href="#NimbusRomNo9L-Medi-67" transform="translate(94.145201 0) scale(0.996264)"/>
    <use xlink:href="#NimbusRomNo9L-Medi-65" transform="translate(143.958401 0) scale(0.996264)"/>
    <use xlink:href="#NimbusRomNo9L-Medi-6e" transform="translate(188.19197 0) scale(0.996264)"/>
    <use xlink:href="#NimbusRomNo9L-Medi-76" transform="translate(239.599533 0) scale(0.996264)"/>
    <use xlink:href="#NimbusRomNo9L-Medi-61" transform="translate(288.416637 0) scale(0.996264)"/>
    <use xlink:href="#NimbusRomNo9L-Medi-6c" transform="translate(338.229838 0) scale(0.996264)"/>
    <use xlink:href="#NimbusRomNo9L-Medi-75" transform="translate(365.925007 0) scale(0.996264)"/>
    <use xlink:href="#NimbusRomNo9L-Medi-65" transform="translate(421.316684 0) scale(0.996264)"/>
    <use xlink:href="#NimbusRomNo9L-Medi-44" transform="translate(490.456853 0) scale(0.996264)"/>
    <use xlink:href="#NimbusRomNo9L-Medi-69" transform="translate(562.386838 0) scale(0.996264)"/>
    <use xlink:href="#NimbusRomNo9L-Medi-73" transform="translate(590.082008 0) scale(0.996264)"/>
    <use xlink:href="#NimbusRomNo9L-Medi-74" transform="translate(628.835714 0) scale(0.996264)"/>
    <use xlink:href="#NimbusRomNo9L-Medi-72" transform="translate(662.010943 0) scale(0.996264)"/>
    <use xlink:href="#NimbusRomNo9L-Medi-69" transform="translate(706.244512 0) scale(0.996264)"/>
    <use xlink:href="#NimbusRomNo9L-Medi-62" transform="translate(733.939682 0) scale(0.996264)"/>
    <use xlink:href="#NimbusRomNo9L-Medi-75" transform="translate(787.339348 0) scale(0.996264)"/>
    <use xlink:href="#NimbusRomNo9L-Medi-74" transform="translate(842.731025 0) scale(0.996264)"/>
    <use xlink:href="#NimbusRomNo9L-Medi-69" transform="translate(875.906254 0) scale(0.996264)"/>
    <use xlink:href="#NimbusRomNo9L-Medi-6f" transform="translate(903.601424 0) scale(0.996264)"/>
    <use xlink:href="#NimbusRomNo9L-Medi-6e" transform="translate(953.414624 0) scale(0.996264)"/>
    <use xlink:href="#NimbusRomNo9L-Medi-73" transform="translate(1008.806301 0) scale(0.996264)"/>
    <use xlink:href="#NimbusRomNo9L-Medi-69" transform="translate(1072.466608 0) scale(0.996264)"/>
    <use xlink:href="#NimbusRomNo9L-Medi-6e" transform="translate(1100.161777 0) scale(0.996264)"/>
    <use xlink:href="#NimbusRomNo9L-Medi-74" transform="translate(1180.460055 0) scale(0.996264)"/>
    <use xlink:href="#NimbusRomNo9L-Medi-68" transform="translate(1213.635284 0) scale(0.996264)"/>
    <use xlink:href="#NimbusRomNo9L-Medi-65" transform="translate(1269.026961 0) scale(0.996264)"/>
    <use xlink:href="#NimbusRomNo9L-Medi-43" transform="translate(1338.16713 0) scale(0.996264)"/>
    <use xlink:href="#NimbusRomNo9L-Medi-6f" transform="translate(1410.097115 0) scale(0.996264)"/>
    <use xlink:href="#NimbusRomNo9L-Medi-6d" transform="translate(1459.910316 0) scale(0.996264)"/>
    <use xlink:href="#NimbusRomNo9L-Medi-70" transform="translate(1542.898746 0) scale(0.996264)"/>
    <use xlink:href="#NimbusRomNo9L-Medi-6c" transform="translate(1598.290423 0) scale(0.996264)"/>
    <use xlink:href="#NimbusRomNo9L-Medi-65" transform="translate(1625.985592 0) scale(0.996264)"/>
    <use xlink:href="#NimbusRomNo9L-Medi-78" transform="translate(1670.219161 0) scale(0.996264)"/>
    <use xlink:href="#NimbusRomNo9L-Medi-50" transform="translate(1744.938962 0) scale(0.996264)"/>
    <use xlink:href="#NimbusRomNo9L-Medi-6c" transform="translate(1805.810592 0) scale(0.996264)"/>
    <use xlink:href="#NimbusRomNo9L-Medi-61" transform="translate(1833.505762 0) scale(0.996264)"/>
    <use xlink:href="#NimbusRomNo9L-Medi-6e" transform="translate(1883.318963 0) scale(0.996264)"/>
    <use xlink:href="#NimbusRomNo9L-Medi-65" transform="translate(1938.71064 0) scale(0.996264)"/>
   </g>
  </g>
 </g>
 <defs>
  <clipPath id="p248b4fe889">
   <rect x="45.866149" y="47.610997" width="312.115171" height="215.266957"/>
  </clipPath>
  <clipPath id="p9dd4dc1ffd">
   <rect x="393.484829" y="47.610997" width="312.115171" height="215.266957"/>
  </clipPath>
 </defs>
</svg>
