<?xml version="1.0" encoding="utf-8" standalone="no"?>
<!DOCTYPE svg PUBLIC "-//W3C//DTD SVG 1.1//EN"
  "http://www.w3.org/Graphics/SVG/1.1/DTD/svg11.dtd">
<svg xmlns:xlink="http://www.w3.org/1999/xlink" width="674.084829pt" height="263.444179pt" viewBox="0 0 674.084829 263.444179" xmlns="http://www.w3.org/2000/svg" version="1.1">
 <metadata>
  <rdf:RDF xmlns:dc="http://purl.org/dc/elements/1.1/" xmlns:cc="http://creativecommons.org/ns#" xmlns:rdf="http://www.w3.org/1999/02/22-rdf-syntax-ns#">
   <cc:Work>
    <dc:type rdf:resource="http://purl.org/dc/dcmitype/StillImage"/>
    <dc:date>2025-06-15T10:59:40.110863</dc:date>
    <dc:format>image/svg+xml</dc:format>
    <dc:creator>
     <cc:Agent>
      <dc:title>Matplotlib v3.9.2, https://matplotlib.org/</dc:title>
     </cc:Agent>
    </dc:creator>
   </cc:Work>
  </rdf:RDF>
 </metadata>
 <defs>
  <style type="text/css">*{stroke-linejoin: round; stroke-linecap: butt}</style>
 </defs>
 <g id="figure_1">
  <g id="patch_1">
   <path d="M 0 263.444179 
L 674.084829 263.444179 
L 674.084829 0 
L 0 0 
z
" style="fill: #ffffff"/>
  </g>
  <g id="axes_1">
   <g id="patch_2">
    <path d="M 40.884829 226.44 
L 294.521193 226.44 
L 294.521193 32.4 
L 40.884829 32.4 
z
" style="fill: #ffffff"/>
   </g>
   <g id="matplotlib.axis_1">
    <g id="xtick_1">
     <g id="line2d_1">
      <defs>
       <path id="m557cdf31e3" d="M 0 0 
L 0 3.5 
" style="stroke: #000000; stroke-width: 0.8"/>
      </defs>
      <g>
       <use xlink:href="#m557cdf31e3" x="40.884829" y="226.44" style="stroke: #000000; stroke-width: 0.8"/>
      </g>
     </g>
     <g id="text_1">
      <!-- $\mathdefault{0.0}$ -->
      <g transform="translate(34.523735 240.194578) scale(0.1 -0.1)">
       <defs>
        <path id="NimbusRomNo9L-Regu-30" d="M 1626 4352 
C 1274 4352 1005 4243 768 4019 
C 397 3661 154 2924 154 2176 
C 154 1478 365 729 666 371 
C 902 89 1229 -64 1600 -64 
C 1926 -64 2202 44 2432 268 
C 2803 620 3046 1363 3046 2137 
C 3046 3449 2464 4352 1626 4352 
z
M 1606 4185 
C 2144 4185 2432 3462 2432 2124 
C 2432 787 2150 102 1600 102 
C 1050 102 768 787 768 2118 
C 768 3475 1056 4185 1606 4185 
z
" transform="scale(0.015625)"/>
        <path id="CMMI10-3a" d="M 1229 339 
C 1229 524 1075 678 890 678 
C 704 678 550 524 550 339 
C 550 153 704 0 890 0 
C 1075 0 1229 153 1229 339 
z
" transform="scale(0.015625)"/>
       </defs>
       <use xlink:href="#NimbusRomNo9L-Regu-30" transform="scale(0.996264)"/>
       <use xlink:href="#CMMI10-3a" transform="translate(49.8132 0) scale(0.996264)"/>
       <use xlink:href="#NimbusRomNo9L-Regu-30" transform="translate(77.408707 0) scale(0.996264)"/>
      </g>
     </g>
    </g>
    <g id="xtick_2">
     <g id="line2d_2">
      <g>
       <use xlink:href="#m557cdf31e3" x="91.612102" y="226.44" style="stroke: #000000; stroke-width: 0.8"/>
      </g>
     </g>
     <g id="text_2">
      <!-- $\mathdefault{0.2}$ -->
      <g transform="translate(85.251007 240.194578) scale(0.1 -0.1)">
       <defs>
        <path id="NimbusRomNo9L-Regu-32" d="M 3040 879 
L 2957 912 
C 2720 544 2637 486 2349 486 
L 819 486 
L 1894 1621 
C 2464 2221 2714 2711 2714 3214 
C 2714 3858 2195 4352 1530 4352 
C 1178 4352 845 4211 608 3955 
C 403 3736 307 3530 198 3072 
L 333 3039 
C 589 3671 819 3878 1261 3878 
C 1798 3878 2163 3510 2163 2969 
C 2163 2466 1869 1866 1331 1292 
L 192 76 
L 192 0 
L 2688 0 
L 3040 879 
z
" transform="scale(0.015625)"/>
       </defs>
       <use xlink:href="#NimbusRomNo9L-Regu-30" transform="scale(0.996264)"/>
       <use xlink:href="#CMMI10-3a" transform="translate(49.8132 0) scale(0.996264)"/>
       <use xlink:href="#NimbusRomNo9L-Regu-32" transform="translate(77.408707 0) scale(0.996264)"/>
      </g>
     </g>
    </g>
    <g id="xtick_3">
     <g id="line2d_3">
      <g>
       <use xlink:href="#m557cdf31e3" x="142.339375" y="226.44" style="stroke: #000000; stroke-width: 0.8"/>
      </g>
     </g>
     <g id="text_3">
      <!-- $\mathdefault{0.4}$ -->
      <g transform="translate(135.97828 240.194578) scale(0.1 -0.1)">
       <defs>
        <path id="NimbusRomNo9L-Regu-34" d="M 3021 1497 
L 2368 1497 
L 2368 4352 
L 2086 4352 
L 77 1497 
L 77 1088 
L 1875 1088 
L 1875 0 
L 2368 0 
L 2368 1088 
L 3021 1088 
L 3021 1497 
z
M 1869 1497 
L 333 1497 
L 1869 3697 
L 1869 1497 
z
" transform="scale(0.015625)"/>
       </defs>
       <use xlink:href="#NimbusRomNo9L-Regu-30" transform="scale(0.996264)"/>
       <use xlink:href="#CMMI10-3a" transform="translate(49.8132 0) scale(0.996264)"/>
       <use xlink:href="#NimbusRomNo9L-Regu-34" transform="translate(77.408707 0) scale(0.996264)"/>
      </g>
     </g>
    </g>
    <g id="xtick_4">
     <g id="line2d_4">
      <g>
       <use xlink:href="#m557cdf31e3" x="193.066648" y="226.44" style="stroke: #000000; stroke-width: 0.8"/>
      </g>
     </g>
     <g id="text_4">
      <!-- $\mathdefault{0.6}$ -->
      <g transform="translate(186.705553 240.194578) scale(0.1 -0.1)">
       <defs>
        <path id="NimbusRomNo9L-Regu-36" d="M 2854 4390 
C 2125 4326 1754 4204 1286 3878 
C 595 3385 218 2655 218 1801 
C 218 1248 390 688 666 369 
C 909 89 1254 -64 1651 -64 
C 2445 -64 2995 541 2995 1420 
C 2995 2234 2528 2752 1792 2752 
C 1510 2752 1376 2707 973 2463 
C 1146 3430 1862 4121 2867 4288 
L 2854 4390 
z
M 1549 2457 
C 2099 2457 2419 1999 2419 1203 
C 2419 503 2170 115 1722 115 
C 1158 115 813 713 813 1700 
C 813 2024 864 2203 992 2298 
C 1126 2400 1325 2457 1549 2457 
z
" transform="scale(0.015625)"/>
       </defs>
       <use xlink:href="#NimbusRomNo9L-Regu-30" transform="scale(0.996264)"/>
       <use xlink:href="#CMMI10-3a" transform="translate(49.8132 0) scale(0.996264)"/>
       <use xlink:href="#NimbusRomNo9L-Regu-36" transform="translate(77.408707 0) scale(0.996264)"/>
      </g>
     </g>
    </g>
    <g id="xtick_5">
     <g id="line2d_5">
      <g>
       <use xlink:href="#m557cdf31e3" x="243.79392" y="226.44" style="stroke: #000000; stroke-width: 0.8"/>
      </g>
     </g>
     <g id="text_5">
      <!-- $\mathdefault{0.8}$ -->
      <g transform="translate(237.432826 240.194578) scale(0.1 -0.1)">
       <defs>
        <path id="NimbusRomNo9L-Regu-38" d="M 1856 2400 
C 2490 2739 2714 3008 2714 3443 
C 2714 3968 2253 4352 1613 4352 
C 915 4352 397 3923 397 3341 
C 397 2924 518 2739 1190 2150 
C 499 1625 358 1427 358 992 
C 358 371 864 -64 1587 -64 
C 2355 -64 2848 358 2848 1017 
C 2848 1510 2630 1824 1856 2400 
z
M 1741 1740 
C 2208 1408 2362 1177 2362 819 
C 2362 403 2074 115 1658 115 
C 1171 115 845 486 845 1043 
C 845 1452 986 1721 1357 2022 
L 1741 1740 
z
M 1670 2515 
C 1101 2886 870 3180 870 3539 
C 870 3910 1158 4172 1562 4172 
C 1997 4172 2272 3891 2272 3449 
C 2272 3084 2093 2796 1728 2553 
C 1696 2534 1696 2534 1670 2515 
z
" transform="scale(0.015625)"/>
       </defs>
       <use xlink:href="#NimbusRomNo9L-Regu-30" transform="scale(0.996264)"/>
       <use xlink:href="#CMMI10-3a" transform="translate(49.8132 0) scale(0.996264)"/>
       <use xlink:href="#NimbusRomNo9L-Regu-38" transform="translate(77.408707 0) scale(0.996264)"/>
      </g>
     </g>
    </g>
    <g id="xtick_6">
     <g id="line2d_6">
      <g>
       <use xlink:href="#m557cdf31e3" x="294.521193" y="226.44" style="stroke: #000000; stroke-width: 0.8"/>
      </g>
     </g>
     <g id="text_6">
      <!-- $\mathdefault{1.0}$ -->
      <g transform="translate(288.160098 240.194578) scale(0.1 -0.1)">
       <defs>
        <path id="NimbusRomNo9L-Regu-31" d="M 1862 4352 
L 710 3776 
L 710 3686 
C 787 3718 858 3743 883 3756 
C 998 3801 1107 3826 1171 3826 
C 1306 3826 1363 3731 1363 3525 
L 1363 599 
C 1363 386 1312 238 1210 179 
C 1114 121 1024 102 755 96 
L 755 0 
L 2522 0 
L 2522 96 
C 2016 102 1914 167 1914 477 
L 1914 4339 
L 1862 4352 
z
" transform="scale(0.015625)"/>
       </defs>
       <use xlink:href="#NimbusRomNo9L-Regu-31" transform="scale(0.996264)"/>
       <use xlink:href="#CMMI10-3a" transform="translate(49.8132 0) scale(0.996264)"/>
       <use xlink:href="#NimbusRomNo9L-Regu-30" transform="translate(77.408707 0) scale(0.996264)"/>
      </g>
     </g>
    </g>
    <g id="text_7">
     <!-- $\zeta$ -->
     <g transform="translate(165.242276 253.878113) scale(0.1 -0.1)">
      <defs>
       <path id="StandardSymL-7a" d="M 1376 4851 
C 941 4819 653 4576 653 4237 
C 653 3987 800 3865 1222 3763 
C 621 2950 384 2316 384 1484 
C 384 857 525 505 896 217 
C 1107 51 1331 -26 1594 -26 
C 1632 -26 1677 -26 1741 -20 
C 2016 -13 2182 -7 2234 -7 
C 2534 -7 2720 -164 2720 -419 
C 2720 -668 2515 -896 2298 -896 
C 2266 -896 2227 -890 2189 -883 
C 1798 -779 1798 -779 1728 -779 
C 1530 -779 1370 -916 1370 -1082 
C 1370 -1287 1600 -1434 1926 -1434 
C 2547 -1434 2989 -961 2989 -288 
C 2989 313 2598 640 1882 640 
L 1747 640 
L 1670 640 
L 1594 633 
L 1472 640 
C 1011 640 704 1036 704 1632 
C 704 2400 1088 3283 1626 3763 
C 2253 3833 2778 4160 2778 4486 
C 2778 4601 2675 4691 2534 4691 
C 2304 4691 1952 4467 1376 3949 
C 1146 4019 1037 4141 1037 4326 
C 1037 4499 1152 4633 1376 4723 
L 1376 4851 
z
" transform="scale(0.015625)"/>
      </defs>
      <use xlink:href="#StandardSymL-7a" transform="scale(0.996264)"/>
     </g>
    </g>
   </g>
   <g id="matplotlib.axis_2">
    <g id="ytick_1">
     <g id="line2d_7">
      <defs>
       <path id="m686f5c3646" d="M 0 0 
L -3.5 0 
" style="stroke: #000000; stroke-width: 0.8"/>
      </defs>
      <g>
       <use xlink:href="#m686f5c3646" x="40.884829" y="226.44" style="stroke: #000000; stroke-width: 0.8"/>
      </g>
     </g>
     <g id="text_8">
      <!-- $\mathdefault{0.0}$ -->
      <g transform="translate(21.16264 229.817289) scale(0.1 -0.1)">
       <use xlink:href="#NimbusRomNo9L-Regu-30" transform="scale(0.996264)"/>
       <use xlink:href="#CMMI10-3a" transform="translate(49.8132 0) scale(0.996264)"/>
       <use xlink:href="#NimbusRomNo9L-Regu-30" transform="translate(77.408707 0) scale(0.996264)"/>
      </g>
     </g>
    </g>
    <g id="ytick_2">
     <g id="line2d_8">
      <g>
       <use xlink:href="#m686f5c3646" x="40.884829" y="187.632" style="stroke: #000000; stroke-width: 0.8"/>
      </g>
     </g>
     <g id="text_9">
      <!-- $\mathdefault{0.2}$ -->
      <g transform="translate(21.16264 191.009289) scale(0.1 -0.1)">
       <use xlink:href="#NimbusRomNo9L-Regu-30" transform="scale(0.996264)"/>
       <use xlink:href="#CMMI10-3a" transform="translate(49.8132 0) scale(0.996264)"/>
       <use xlink:href="#NimbusRomNo9L-Regu-32" transform="translate(77.408707 0) scale(0.996264)"/>
      </g>
     </g>
    </g>
    <g id="ytick_3">
     <g id="line2d_9">
      <g>
       <use xlink:href="#m686f5c3646" x="40.884829" y="148.824" style="stroke: #000000; stroke-width: 0.8"/>
      </g>
     </g>
     <g id="text_10">
      <!-- $\mathdefault{0.4}$ -->
      <g transform="translate(21.16264 152.201289) scale(0.1 -0.1)">
       <use xlink:href="#NimbusRomNo9L-Regu-30" transform="scale(0.996264)"/>
       <use xlink:href="#CMMI10-3a" transform="translate(49.8132 0) scale(0.996264)"/>
       <use xlink:href="#NimbusRomNo9L-Regu-34" transform="translate(77.408707 0) scale(0.996264)"/>
      </g>
     </g>
    </g>
    <g id="ytick_4">
     <g id="line2d_10">
      <g>
       <use xlink:href="#m686f5c3646" x="40.884829" y="110.016" style="stroke: #000000; stroke-width: 0.8"/>
      </g>
     </g>
     <g id="text_11">
      <!-- $\mathdefault{0.6}$ -->
      <g transform="translate(21.16264 113.393289) scale(0.1 -0.1)">
       <use xlink:href="#NimbusRomNo9L-Regu-30" transform="scale(0.996264)"/>
       <use xlink:href="#CMMI10-3a" transform="translate(49.8132 0) scale(0.996264)"/>
       <use xlink:href="#NimbusRomNo9L-Regu-36" transform="translate(77.408707 0) scale(0.996264)"/>
      </g>
     </g>
    </g>
    <g id="ytick_5">
     <g id="line2d_11">
      <g>
       <use xlink:href="#m686f5c3646" x="40.884829" y="71.208" style="stroke: #000000; stroke-width: 0.8"/>
      </g>
     </g>
     <g id="text_12">
      <!-- $\mathdefault{0.8}$ -->
      <g transform="translate(21.16264 74.585289) scale(0.1 -0.1)">
       <use xlink:href="#NimbusRomNo9L-Regu-30" transform="scale(0.996264)"/>
       <use xlink:href="#CMMI10-3a" transform="translate(49.8132 0) scale(0.996264)"/>
       <use xlink:href="#NimbusRomNo9L-Regu-38" transform="translate(77.408707 0) scale(0.996264)"/>
      </g>
     </g>
    </g>
    <g id="ytick_6">
     <g id="line2d_12">
      <g>
       <use xlink:href="#m686f5c3646" x="40.884829" y="32.4" style="stroke: #000000; stroke-width: 0.8"/>
      </g>
     </g>
     <g id="text_13">
      <!-- $\mathdefault{1.0}$ -->
      <g transform="translate(21.16264 35.777289) scale(0.1 -0.1)">
       <use xlink:href="#NimbusRomNo9L-Regu-31" transform="scale(0.996264)"/>
       <use xlink:href="#CMMI10-3a" transform="translate(49.8132 0) scale(0.996264)"/>
       <use xlink:href="#NimbusRomNo9L-Regu-30" transform="translate(77.408707 0) scale(0.996264)"/>
      </g>
     </g>
    </g>
    <g id="text_14">
     <!-- $C_{ss} \, (mol/L)$ -->
     <g transform="translate(14.67198 153.159187) rotate(-90) scale(0.1 -0.1)">
      <defs>
       <path id="NimbusRomNo9L-ReguItal-43" d="M 4173 2991 
L 4410 4275 
L 4275 4275 
C 4224 4172 4160 4134 4032 4134 
C 3981 4134 3904 4147 3770 4179 
C 3482 4249 3226 4288 3021 4288 
C 1658 4288 422 2991 422 1556 
C 422 567 1114 -128 2093 -128 
C 2752 -128 3264 153 3840 832 
L 3731 922 
C 3155 353 2784 160 2259 160 
C 1549 160 1139 651 1139 1485 
C 1139 2254 1446 3036 1946 3560 
C 2253 3876 2656 4057 3078 4057 
C 3667 4057 3994 3708 4058 3010 
L 4173 2991 
z
" transform="scale(0.015625)"/>
       <path id="NimbusRomNo9L-ReguItal-73" d="M 230 953 
L 102 -64 
L 205 -64 
C 256 38 294 70 358 70 
C 429 70 544 44 672 12 
C 813 -45 922 -64 1024 -64 
C 1562 -64 1946 280 1946 764 
C 1946 1006 1811 1286 1510 1656 
C 1267 1955 1165 2152 1165 2324 
C 1165 2534 1299 2668 1523 2668 
C 1856 2668 2048 2432 2112 1936 
L 2214 1936 
L 2342 2816 
L 2253 2816 
C 2202 2726 2150 2700 2061 2700 
C 2016 2700 1952 2713 1830 2745 
C 1670 2803 1574 2816 1472 2816 
C 1005 2816 698 2541 698 2114 
C 698 1910 832 1636 1101 1293 
C 1350 968 1459 745 1459 560 
C 1459 274 1267 70 986 70 
C 634 70 435 331 333 936 
L 230 953 
z
" transform="scale(0.015625)"/>
       <path id="CMR10-28" d="M 2118 -1536 
C 2118 -1517 2118 -1504 2010 -1396 
C 1210 -589 1005 620 1005 1600 
C 1005 2713 1248 3827 2035 4627 
C 2118 4704 2118 4716 2118 4736 
C 2118 4780 2093 4800 2054 4800 
C 1990 4800 1414 4365 1037 3552 
C 710 2848 634 2137 634 1600 
C 634 1100 704 326 1056 -397 
C 1440 -1184 1990 -1600 2054 -1600 
C 2093 -1600 2118 -1581 2118 -1536 
z
" transform="scale(0.015625)"/>
       <path id="NimbusRomNo9L-ReguItal-6d" d="M 4410 742 
C 4346 665 4294 601 4275 575 
C 4096 345 3962 236 3866 236 
C 3814 236 3782 275 3782 339 
C 3782 371 3808 473 3846 627 
L 4282 2233 
C 4288 2259 4301 2374 4301 2412 
C 4301 2643 4141 2816 3923 2816 
C 3802 2816 3674 2771 3520 2675 
C 3206 2470 2944 2163 2502 1459 
C 2662 1945 2758 2310 2758 2431 
C 2758 2655 2611 2816 2394 2816 
C 2003 2816 1555 2393 966 1465 
L 1338 2803 
L 1318 2816 
C 960 2739 826 2713 294 2617 
L 294 2515 
L 454 2515 
C 621 2515 704 2470 704 2374 
C 704 2303 557 1721 326 908 
C 179 384 160 320 77 -7 
L 557 -7 
C 864 1011 960 1247 1178 1580 
C 1536 2124 1920 2483 2138 2483 
C 2221 2483 2266 2425 2266 2323 
C 2266 2265 2061 1491 1658 -7 
L 2138 -7 
C 2394 991 2522 1311 2848 1766 
C 3162 2201 3482 2483 3667 2483 
C 3738 2483 3795 2419 3795 2348 
C 3795 2316 3782 2239 3750 2124 
L 3379 652 
C 3322 416 3296 294 3296 230 
C 3296 38 3386 -64 3552 -64 
C 3853 -64 4134 147 4474 620 
L 4506 665 
L 4410 742 
z
" transform="scale(0.015625)"/>
       <path id="NimbusRomNo9L-ReguItal-6f" d="M 2080 2816 
C 1120 2816 173 1828 173 828 
C 173 280 531 -64 1114 -64 
C 1536 -64 1946 127 2317 490 
C 2739 904 2995 1446 2995 1923 
C 2995 2452 2624 2816 2080 2816 
z
M 2003 2681 
C 2278 2681 2458 2446 2458 2083 
C 2458 1618 2246 981 1965 567 
C 1728 229 1485 70 1210 70 
C 909 70 710 299 710 650 
C 710 1121 896 1681 1210 2134 
C 1459 2490 1728 2681 2003 2681 
z
" transform="scale(0.015625)"/>
       <path id="NimbusRomNo9L-ReguItal-6c" d="M 1459 793 
C 1402 723 1344 652 1286 576 
C 1082 307 960 211 845 211 
C 781 211 749 256 749 326 
C 749 371 768 448 800 576 
C 806 595 813 627 819 640 
L 1786 4345 
L 1754 4377 
C 1376 4294 1133 4249 755 4205 
L 755 4102 
C 1062 4102 1190 4057 1190 3955 
C 1190 3936 1184 3897 1165 3840 
L 288 460 
C 269 390 256 326 256 294 
C 256 64 365 -64 570 -64 
C 902 -64 1126 121 1542 736 
L 1459 793 
z
" transform="scale(0.015625)"/>
       <path id="CMMI10-3d" d="M 2810 4557 
C 2842 4640 2842 4665 2842 4672 
C 2842 4742 2784 4800 2714 4800 
C 2669 4800 2624 4780 2605 4742 
L 384 -1357 
C 352 -1440 352 -1466 352 -1472 
C 352 -1543 410 -1600 480 -1600 
C 563 -1600 582 -1556 621 -1447 
L 2810 4557 
z
" transform="scale(0.015625)"/>
       <path id="NimbusRomNo9L-ReguItal-4c" d="M 2579 4160 
L 832 4160 
L 832 4057 
C 1229 4019 1325 3968 1325 3783 
C 1325 3694 1299 3548 1254 3389 
L 467 574 
C 352 204 307 166 -51 102 
L -51 0 
L 3206 0 
L 3578 1141 
L 3450 1179 
C 3226 720 3053 516 2771 376 
C 2547 268 2285 230 1728 230 
C 1242 230 1082 281 1082 446 
C 1082 491 1114 644 1146 765 
L 1933 3586 
C 2029 3911 2195 4031 2579 4057 
L 2579 4160 
z
" transform="scale(0.015625)"/>
       <path id="CMR10-29" d="M 1850 1600 
C 1850 2099 1779 2873 1427 3597 
C 1043 4384 493 4800 429 4800 
C 390 4800 365 4774 365 4736 
C 365 4716 365 4704 486 4589 
C 1114 3955 1478 2937 1478 1600 
C 1478 505 1242 -621 448 -1428 
C 365 -1504 365 -1517 365 -1536 
C 365 -1575 390 -1600 429 -1600 
C 493 -1600 1069 -1165 1446 -352 
C 1773 352 1850 1062 1850 1600 
z
" transform="scale(0.015625)"/>
      </defs>
      <use xlink:href="#NimbusRomNo9L-ReguItal-43" transform="scale(0.996264)"/>
      <use xlink:href="#NimbusRomNo9L-ReguItal-73" transform="translate(63.959417 -14.943915) scale(0.737241)"/>
      <use xlink:href="#NimbusRomNo9L-ReguItal-73" transform="translate(92.637366 -14.943915) scale(0.737241)"/>
      <use xlink:href="#CMR10-28" transform="translate(132.883021 0) scale(0.996264)"/>
      <use xlink:href="#NimbusRomNo9L-ReguItal-6d" transform="translate(171.536867 0) scale(0.996264)"/>
      <use xlink:href="#NimbusRomNo9L-ReguItal-6f" transform="translate(243.466852 0) scale(0.996264)"/>
      <use xlink:href="#NimbusRomNo9L-ReguItal-6c" transform="translate(293.280052 0) scale(0.996264)"/>
      <use xlink:href="#CMMI10-3d" transform="translate(326.05508 0) scale(0.996264)"/>
      <use xlink:href="#NimbusRomNo9L-ReguItal-4c" transform="translate(375.86828 0) scale(0.996264)"/>
      <use xlink:href="#CMR10-29" transform="translate(431.557806 0) scale(0.996264)"/>
     </g>
    </g>
   </g>
   <g id="line2d_13">
    <path d="M 40.884829 74.250729 
L 43.446813 74.935652 
L 46.008796 75.615919 
L 48.57078 76.291505 
L 51.132763 76.962387 
L 53.694747 77.628543 
L 56.25673 78.28995 
L 58.818714 78.946589 
L 61.380697 79.598438 
L 63.942681 80.24548 
L 66.504664 80.887696 
L 69.066648 81.525068 
L 71.628631 82.15758 
L 74.190614 82.785216 
L 76.752598 83.40796 
L 79.314581 84.025797 
L 81.876565 84.638714 
L 84.438548 85.246696 
L 87.000532 85.84973 
L 89.562515 86.447805 
L 92.124499 87.040907 
L 94.686482 87.629024 
L 97.248466 88.212146 
L 99.810449 88.790261 
L 102.372433 89.363358 
L 104.934416 89.931425 
L 107.4964 90.494453 
L 110.058383 91.052431 
L 112.620367 91.605348 
L 115.18235 92.153192 
L 117.744333 92.695954 
L 120.306317 93.233622 
L 122.8683 93.766184 
L 125.430284 94.293629 
L 127.992267 94.815945 
L 130.554251 95.333118 
L 133.116234 95.845136 
L 135.678218 96.351984 
L 138.240201 96.853647 
L 140.802185 97.35011 
L 143.364168 97.841355 
L 145.926152 98.327366 
L 148.488135 98.808122 
L 151.050119 99.283603 
L 153.612102 99.753788 
L 156.174086 100.218653 
L 158.736069 100.678173 
L 161.298052 101.132321 
L 163.860036 101.581068 
L 166.422019 102.024382 
L 168.984003 102.462231 
L 171.545986 102.894579 
L 174.10797 103.321386 
L 176.669953 103.742613 
L 179.231937 104.158215 
L 181.79392 104.568144 
L 184.355904 104.97235 
L 186.917887 105.370778 
L 189.479871 105.763372 
L 192.041854 106.150067 
L 194.603838 106.530799 
L 197.165821 106.905497 
L 199.727805 107.274084 
L 202.289788 107.636481 
L 204.851771 107.9926 
L 207.413755 108.342352 
L 209.975738 108.685638 
L 212.537722 109.022354 
L 215.099705 109.35239 
L 217.661689 109.675629 
L 220.223672 109.991946 
L 222.785656 110.301208 
L 225.347639 110.603275 
L 227.909623 110.897996 
L 230.471606 111.185215 
L 233.03359 111.464761 
L 235.595573 111.736458 
L 238.157557 112.000117 
L 240.71954 112.255537 
L 243.281524 112.502507 
L 245.843507 112.740803 
L 248.405491 112.970186 
L 250.967474 113.190407 
L 253.529457 113.401199 
L 256.091441 113.602281 
L 258.653424 113.793357 
L 261.215408 113.974112 
L 263.777391 114.144215 
L 266.339375 114.303315 
L 268.901358 114.451042 
L 271.463342 114.587005 
L 274.025325 114.710791 
L 276.587309 114.821962 
L 279.149292 114.920059 
L 281.711276 115.004596 
L 284.273259 115.075058 
L 286.835243 115.130904 
L 289.397226 115.171561 
L 291.95921 115.196427 
L 294.521193 115.204863 
" clip-path="url(#p40b8cf8f7d)" style="fill: none; stroke: #25848e; stroke-width: 1.5; stroke-linecap: square"/>
   </g>
   <g id="line2d_14">
    <path d="M 40.884829 115.204863 
L 43.446813 115.204863 
L 46.008796 115.204863 
L 48.57078 115.204863 
L 51.132763 115.204863 
L 53.694747 115.204863 
L 56.25673 115.204863 
L 58.818714 115.204863 
L 61.380697 115.204863 
L 63.942681 115.204863 
L 66.504664 115.204863 
L 69.066648 115.204863 
L 71.628631 115.204863 
L 74.190614 115.204863 
L 76.752598 115.204863 
L 79.314581 115.204863 
L 81.876565 115.204863 
L 84.438548 115.204863 
L 87.000532 115.204863 
L 89.562515 115.204863 
L 92.124499 115.204863 
L 94.686482 115.204863 
L 97.248466 115.204863 
L 99.810449 115.204863 
L 102.372433 115.204863 
L 104.934416 115.204863 
L 107.4964 115.204863 
L 110.058383 115.204863 
L 112.620367 115.204863 
L 115.18235 115.204863 
L 117.744333 115.204863 
L 120.306317 115.204863 
L 122.8683 115.204863 
L 125.430284 115.204863 
L 127.992267 115.204863 
L 130.554251 115.204863 
L 133.116234 115.204863 
L 135.678218 115.204863 
L 138.240201 115.204863 
L 140.802185 115.204863 
L 143.364168 115.204863 
L 145.926152 115.204863 
L 148.488135 115.204863 
L 151.050119 115.204863 
L 153.612102 115.204863 
L 156.174086 115.204863 
L 158.736069 115.204863 
L 161.298052 115.204863 
L 163.860036 115.204863 
L 166.422019 115.204863 
L 168.984003 115.204863 
L 171.545986 115.204863 
L 174.10797 115.204863 
L 176.669953 115.204863 
L 179.231937 115.204863 
L 181.79392 115.204863 
L 184.355904 115.204863 
L 186.917887 115.204863 
L 189.479871 115.204863 
L 192.041854 115.204863 
L 194.603838 115.204863 
L 197.165821 115.204863 
L 199.727805 115.204863 
L 202.289788 115.204863 
L 204.851771 115.204863 
L 207.413755 115.204863 
L 209.975738 115.204863 
L 212.537722 115.204863 
L 215.099705 115.204863 
L 217.661689 115.204863 
L 220.223672 115.204863 
L 222.785656 115.204863 
L 225.347639 115.204863 
L 227.909623 115.204863 
L 230.471606 115.204863 
L 233.03359 115.204863 
L 235.595573 115.204863 
L 238.157557 115.204863 
L 240.71954 115.204863 
L 243.281524 115.204863 
L 245.843507 115.204863 
L 248.405491 115.204863 
L 250.967474 115.204863 
L 253.529457 115.204863 
L 256.091441 115.204863 
L 258.653424 115.204863 
L 261.215408 115.204863 
L 263.777391 115.204863 
L 266.339375 115.204863 
L 268.901358 115.204863 
L 271.463342 115.204863 
L 274.025325 115.204863 
L 276.587309 115.204863 
L 279.149292 115.204863 
L 281.711276 115.204863 
L 284.273259 115.204863 
L 286.835243 115.204863 
L 289.397226 115.204863 
L 291.95921 115.204863 
L 294.521193 115.204863 
" clip-path="url(#p40b8cf8f7d)" style="fill: none; stroke-dasharray: 5.55,2.4; stroke-dashoffset: 0; stroke: #25848e; stroke-width: 1.5"/>
   </g>
   <g id="patch_3">
    <path d="M 40.884829 226.44 
L 40.884829 32.4 
" style="fill: none; stroke: #000000; stroke-width: 0.8; stroke-linejoin: miter; stroke-linecap: square"/>
   </g>
   <g id="patch_4">
    <path d="M 294.521193 226.44 
L 294.521193 32.4 
" style="fill: none; stroke: #000000; stroke-width: 0.8; stroke-linejoin: miter; stroke-linecap: square"/>
   </g>
   <g id="patch_5">
    <path d="M 40.884829 226.44 
L 294.521193 226.44 
" style="fill: none; stroke: #000000; stroke-width: 0.8; stroke-linejoin: miter; stroke-linecap: square"/>
   </g>
   <g id="patch_6">
    <path d="M 40.884829 32.4 
L 294.521193 32.4 
" style="fill: none; stroke: #000000; stroke-width: 0.8; stroke-linejoin: miter; stroke-linecap: square"/>
   </g>
  </g>
  <g id="axes_2">
   <g id="patch_7">
    <path d="M 345.248466 226.44 
L 598.884829 226.44 
L 598.884829 32.4 
L 345.248466 32.4 
z
" style="fill: #ffffff"/>
   </g>
   <g id="matplotlib.axis_3">
    <g id="xtick_7">
     <g id="line2d_15">
      <g>
       <use xlink:href="#m557cdf31e3" x="345.248466" y="226.44" style="stroke: #000000; stroke-width: 0.8"/>
      </g>
     </g>
     <g id="text_15">
      <!-- $\mathdefault{0.0}$ -->
      <g transform="translate(338.887371 240.194578) scale(0.1 -0.1)">
       <use xlink:href="#NimbusRomNo9L-Regu-30" transform="scale(0.996264)"/>
       <use xlink:href="#CMMI10-3a" transform="translate(49.8132 0) scale(0.996264)"/>
       <use xlink:href="#NimbusRomNo9L-Regu-30" transform="translate(77.408707 0) scale(0.996264)"/>
      </g>
     </g>
    </g>
    <g id="xtick_8">
     <g id="line2d_16">
      <g>
       <use xlink:href="#m557cdf31e3" x="395.975738" y="226.44" style="stroke: #000000; stroke-width: 0.8"/>
      </g>
     </g>
     <g id="text_16">
      <!-- $\mathdefault{0.2}$ -->
      <g transform="translate(389.614644 240.194578) scale(0.1 -0.1)">
       <use xlink:href="#NimbusRomNo9L-Regu-30" transform="scale(0.996264)"/>
       <use xlink:href="#CMMI10-3a" transform="translate(49.8132 0) scale(0.996264)"/>
       <use xlink:href="#NimbusRomNo9L-Regu-32" transform="translate(77.408707 0) scale(0.996264)"/>
      </g>
     </g>
    </g>
    <g id="xtick_9">
     <g id="line2d_17">
      <g>
       <use xlink:href="#m557cdf31e3" x="446.703011" y="226.44" style="stroke: #000000; stroke-width: 0.8"/>
      </g>
     </g>
     <g id="text_17">
      <!-- $\mathdefault{0.4}$ -->
      <g transform="translate(440.341917 240.194578) scale(0.1 -0.1)">
       <use xlink:href="#NimbusRomNo9L-Regu-30" transform="scale(0.996264)"/>
       <use xlink:href="#CMMI10-3a" transform="translate(49.8132 0) scale(0.996264)"/>
       <use xlink:href="#NimbusRomNo9L-Regu-34" transform="translate(77.408707 0) scale(0.996264)"/>
      </g>
     </g>
    </g>
    <g id="xtick_10">
     <g id="line2d_18">
      <g>
       <use xlink:href="#m557cdf31e3" x="497.430284" y="226.44" style="stroke: #000000; stroke-width: 0.8"/>
      </g>
     </g>
     <g id="text_18">
      <!-- $\mathdefault{0.6}$ -->
      <g transform="translate(491.069189 240.194578) scale(0.1 -0.1)">
       <use xlink:href="#NimbusRomNo9L-Regu-30" transform="scale(0.996264)"/>
       <use xlink:href="#CMMI10-3a" transform="translate(49.8132 0) scale(0.996264)"/>
       <use xlink:href="#NimbusRomNo9L-Regu-36" transform="translate(77.408707 0) scale(0.996264)"/>
      </g>
     </g>
    </g>
    <g id="xtick_11">
     <g id="line2d_19">
      <g>
       <use xlink:href="#m557cdf31e3" x="548.157557" y="226.44" style="stroke: #000000; stroke-width: 0.8"/>
      </g>
     </g>
     <g id="text_19">
      <!-- $\mathdefault{0.8}$ -->
      <g transform="translate(541.796462 240.194578) scale(0.1 -0.1)">
       <use xlink:href="#NimbusRomNo9L-Regu-30" transform="scale(0.996264)"/>
       <use xlink:href="#CMMI10-3a" transform="translate(49.8132 0) scale(0.996264)"/>
       <use xlink:href="#NimbusRomNo9L-Regu-38" transform="translate(77.408707 0) scale(0.996264)"/>
      </g>
     </g>
    </g>
    <g id="xtick_12">
     <g id="line2d_20">
      <g>
       <use xlink:href="#m557cdf31e3" x="598.884829" y="226.44" style="stroke: #000000; stroke-width: 0.8"/>
      </g>
     </g>
     <g id="text_20">
      <!-- $\mathdefault{1.0}$ -->
      <g transform="translate(592.523735 240.194578) scale(0.1 -0.1)">
       <use xlink:href="#NimbusRomNo9L-Regu-31" transform="scale(0.996264)"/>
       <use xlink:href="#CMMI10-3a" transform="translate(49.8132 0) scale(0.996264)"/>
       <use xlink:href="#NimbusRomNo9L-Regu-30" transform="translate(77.408707 0) scale(0.996264)"/>
      </g>
     </g>
    </g>
    <g id="text_21">
     <!-- $\zeta$ -->
     <g transform="translate(469.605912 253.878113) scale(0.1 -0.1)">
      <use xlink:href="#StandardSymL-7a" transform="scale(0.996264)"/>
     </g>
    </g>
   </g>
   <g id="matplotlib.axis_4">
    <g id="ytick_7">
     <g id="line2d_21">
      <g>
       <use xlink:href="#m686f5c3646" x="345.248466" y="226.44" style="stroke: #000000; stroke-width: 0.8"/>
      </g>
     </g>
     <g id="text_22">
      <!-- $\mathdefault{400}$ -->
      <g transform="translate(323.304506 229.817289) scale(0.1 -0.1)">
       <use xlink:href="#NimbusRomNo9L-Regu-34" transform="scale(0.996264)"/>
       <use xlink:href="#NimbusRomNo9L-Regu-30" transform="translate(49.8132 0) scale(0.996264)"/>
       <use xlink:href="#NimbusRomNo9L-Regu-30" transform="translate(99.626401 0) scale(0.996264)"/>
      </g>
     </g>
    </g>
    <g id="ytick_8">
     <g id="line2d_22">
      <g>
       <use xlink:href="#m686f5c3646" x="345.248466" y="202.185" style="stroke: #000000; stroke-width: 0.8"/>
      </g>
     </g>
     <g id="text_23">
      <!-- $\mathdefault{450}$ -->
      <g transform="translate(323.304506 205.562289) scale(0.1 -0.1)">
       <defs>
        <path id="NimbusRomNo9L-Regu-35" d="M 1158 3718 
L 2413 3718 
C 2515 3718 2541 3731 2560 3775 
L 2803 4345 
L 2746 4390 
C 2650 4256 2586 4224 2451 4224 
L 1114 4224 
L 416 2717 
C 410 2705 410 2698 410 2686 
C 410 2654 435 2635 486 2635 
C 691 2635 947 2591 1210 2508 
C 1946 2274 2285 1882 2285 1255 
C 2285 647 1894 172 1395 172 
C 1267 172 1158 217 966 356 
C 762 502 614 565 480 565 
C 294 565 205 489 205 331 
C 205 89 506 -64 986 -64 
C 1523 -64 1984 108 2304 432 
C 2598 717 2733 1078 2733 1559 
C 2733 2015 2611 2306 2291 2622 
C 2010 2901 1645 3047 890 3180 
L 1158 3718 
z
" transform="scale(0.015625)"/>
       </defs>
       <use xlink:href="#NimbusRomNo9L-Regu-34" transform="scale(0.996264)"/>
       <use xlink:href="#NimbusRomNo9L-Regu-35" transform="translate(49.8132 0) scale(0.996264)"/>
       <use xlink:href="#NimbusRomNo9L-Regu-30" transform="translate(99.626401 0) scale(0.996264)"/>
      </g>
     </g>
    </g>
    <g id="ytick_9">
     <g id="line2d_23">
      <g>
       <use xlink:href="#m686f5c3646" x="345.248466" y="177.93" style="stroke: #000000; stroke-width: 0.8"/>
      </g>
     </g>
     <g id="text_24">
      <!-- $\mathdefault{500}$ -->
      <g transform="translate(323.304506 181.307289) scale(0.1 -0.1)">
       <use xlink:href="#NimbusRomNo9L-Regu-35" transform="scale(0.996264)"/>
       <use xlink:href="#NimbusRomNo9L-Regu-30" transform="translate(49.8132 0) scale(0.996264)"/>
       <use xlink:href="#NimbusRomNo9L-Regu-30" transform="translate(99.626401 0) scale(0.996264)"/>
      </g>
     </g>
    </g>
    <g id="ytick_10">
     <g id="line2d_24">
      <g>
       <use xlink:href="#m686f5c3646" x="345.248466" y="153.675" style="stroke: #000000; stroke-width: 0.8"/>
      </g>
     </g>
     <g id="text_25">
      <!-- $\mathdefault{550}$ -->
      <g transform="translate(323.304506 157.052289) scale(0.1 -0.1)">
       <use xlink:href="#NimbusRomNo9L-Regu-35" transform="scale(0.996264)"/>
       <use xlink:href="#NimbusRomNo9L-Regu-35" transform="translate(49.8132 0) scale(0.996264)"/>
       <use xlink:href="#NimbusRomNo9L-Regu-30" transform="translate(99.626401 0) scale(0.996264)"/>
      </g>
     </g>
    </g>
    <g id="ytick_11">
     <g id="line2d_25">
      <g>
       <use xlink:href="#m686f5c3646" x="345.248466" y="129.42" style="stroke: #000000; stroke-width: 0.8"/>
      </g>
     </g>
     <g id="text_26">
      <!-- $\mathdefault{600}$ -->
      <g transform="translate(323.304506 132.797289) scale(0.1 -0.1)">
       <use xlink:href="#NimbusRomNo9L-Regu-36" transform="scale(0.996264)"/>
       <use xlink:href="#NimbusRomNo9L-Regu-30" transform="translate(49.8132 0) scale(0.996264)"/>
       <use xlink:href="#NimbusRomNo9L-Regu-30" transform="translate(99.626401 0) scale(0.996264)"/>
      </g>
     </g>
    </g>
    <g id="ytick_12">
     <g id="line2d_26">
      <g>
       <use xlink:href="#m686f5c3646" x="345.248466" y="105.165" style="stroke: #000000; stroke-width: 0.8"/>
      </g>
     </g>
     <g id="text_27">
      <!-- $\mathdefault{650}$ -->
      <g transform="translate(323.304506 108.542289) scale(0.1 -0.1)">
       <use xlink:href="#NimbusRomNo9L-Regu-36" transform="scale(0.996264)"/>
       <use xlink:href="#NimbusRomNo9L-Regu-35" transform="translate(49.8132 0) scale(0.996264)"/>
       <use xlink:href="#NimbusRomNo9L-Regu-30" transform="translate(99.626401 0) scale(0.996264)"/>
      </g>
     </g>
    </g>
    <g id="ytick_13">
     <g id="line2d_27">
      <g>
       <use xlink:href="#m686f5c3646" x="345.248466" y="80.91" style="stroke: #000000; stroke-width: 0.8"/>
      </g>
     </g>
     <g id="text_28">
      <!-- $\mathdefault{700}$ -->
      <g transform="translate(323.304506 84.287289) scale(0.1 -0.1)">
       <defs>
        <path id="NimbusRomNo9L-Regu-37" d="M 2874 4224 
L 506 4224 
L 128 3283 
L 237 3232 
C 512 3667 627 3750 979 3750 
L 2368 3750 
L 1101 -64 
L 1517 -64 
L 2874 4121 
L 2874 4224 
z
" transform="scale(0.015625)"/>
       </defs>
       <use xlink:href="#NimbusRomNo9L-Regu-37" transform="scale(0.996264)"/>
       <use xlink:href="#NimbusRomNo9L-Regu-30" transform="translate(49.8132 0) scale(0.996264)"/>
       <use xlink:href="#NimbusRomNo9L-Regu-30" transform="translate(99.626401 0) scale(0.996264)"/>
      </g>
     </g>
    </g>
    <g id="ytick_14">
     <g id="line2d_28">
      <g>
       <use xlink:href="#m686f5c3646" x="345.248466" y="56.655" style="stroke: #000000; stroke-width: 0.8"/>
      </g>
     </g>
     <g id="text_29">
      <!-- $\mathdefault{750}$ -->
      <g transform="translate(323.304506 60.032289) scale(0.1 -0.1)">
       <use xlink:href="#NimbusRomNo9L-Regu-37" transform="scale(0.996264)"/>
       <use xlink:href="#NimbusRomNo9L-Regu-35" transform="translate(49.8132 0) scale(0.996264)"/>
       <use xlink:href="#NimbusRomNo9L-Regu-30" transform="translate(99.626401 0) scale(0.996264)"/>
      </g>
     </g>
    </g>
    <g id="ytick_15">
     <g id="line2d_29">
      <g>
       <use xlink:href="#m686f5c3646" x="345.248466" y="32.4" style="stroke: #000000; stroke-width: 0.8"/>
      </g>
     </g>
     <g id="text_30">
      <!-- $\mathdefault{800}$ -->
      <g transform="translate(323.304506 35.777289) scale(0.1 -0.1)">
       <use xlink:href="#NimbusRomNo9L-Regu-38" transform="scale(0.996264)"/>
       <use xlink:href="#NimbusRomNo9L-Regu-30" transform="translate(49.8132 0) scale(0.996264)"/>
       <use xlink:href="#NimbusRomNo9L-Regu-30" transform="translate(99.626401 0) scale(0.996264)"/>
      </g>
     </g>
    </g>
    <g id="text_31">
     <!-- $T_{ss} \, (K)$ -->
     <g transform="translate(316.813846 142.952589) rotate(-90) scale(0.1 -0.1)">
      <defs>
       <path id="NimbusRomNo9L-ReguItal-54" d="M 4051 4160 
L 646 4160 
L 378 3178 
L 493 3152 
C 832 3840 1037 3948 2016 3935 
L 1094 573 
C 992 236 838 134 416 102 
L 416 0 
L 2272 0 
L 2272 102 
C 2163 108 2067 121 2029 121 
C 1773 140 1696 198 1696 389 
C 1696 471 1715 548 1773 764 
L 2662 3935 
L 3014 3935 
C 3475 3935 3680 3776 3680 3420 
C 3680 3337 3674 3242 3661 3133 
L 3770 3121 
L 4051 4160 
z
" transform="scale(0.015625)"/>
       <path id="NimbusRomNo9L-ReguItal-4b" d="M 4621 4160 
L 3200 4160 
L 3200 4057 
C 3277 4051 3347 4038 3373 4038 
C 3526 4025 3590 3987 3590 3917 
C 3590 3764 3238 3420 2669 3025 
L 1696 2350 
L 2035 3586 
C 2131 3904 2304 4031 2682 4057 
L 2682 4160 
L 934 4160 
L 934 4057 
C 1331 4019 1427 3968 1427 3783 
C 1427 3694 1402 3548 1357 3389 
L 570 573 
C 454 191 422 159 45 102 
L 45 0 
L 1632 0 
L 1632 102 
C 1229 147 1171 185 1171 382 
C 1171 446 1184 503 1222 631 
L 1261 764 
L 1658 2217 
L 2432 892 
C 2586 631 2675 408 2675 287 
C 2675 191 2586 140 2381 121 
C 2349 121 2278 115 2195 102 
L 2195 0 
L 3955 0 
L 3955 102 
C 3552 140 3514 159 3334 459 
L 2221 2389 
L 4141 3828 
C 4320 3962 4467 4031 4621 4057 
L 4621 4160 
z
" transform="scale(0.015625)"/>
      </defs>
      <use xlink:href="#NimbusRomNo9L-ReguItal-54" transform="scale(0.996264)"/>
      <use xlink:href="#NimbusRomNo9L-ReguItal-73" transform="translate(47.919712 -14.943915) scale(0.737241)"/>
      <use xlink:href="#NimbusRomNo9L-ReguItal-73" transform="translate(76.597662 -14.943915) scale(0.737241)"/>
      <use xlink:href="#CMR10-28" transform="translate(116.843316 0) scale(0.996264)"/>
      <use xlink:href="#NimbusRomNo9L-ReguItal-4b" transform="translate(155.497162 0) scale(0.996264)"/>
      <use xlink:href="#CMR10-29" transform="translate(227.4259 0) scale(0.996264)"/>
     </g>
    </g>
   </g>
   <g id="line2d_30">
    <path d="M 345.248466 136.052016 
L 347.810449 136.075691 
L 350.372433 136.103828 
L 352.934416 136.136416 
L 355.4964 136.173444 
L 358.058383 136.214899 
L 360.620367 136.260765 
L 363.18235 136.311026 
L 365.744333 136.365663 
L 368.306317 136.424657 
L 370.8683 136.487985 
L 373.430284 136.555625 
L 375.992267 136.627552 
L 378.554251 136.70374 
L 381.116234 136.78416 
L 383.678218 136.868782 
L 386.240201 136.957575 
L 388.802185 137.050506 
L 391.364168 137.14754 
L 393.926152 137.248641 
L 396.488135 137.35377 
L 399.050119 137.462888 
L 401.612102 137.575953 
L 404.174086 137.692922 
L 406.736069 137.813749 
L 409.298052 137.938389 
L 411.860036 138.066792 
L 414.422019 138.198908 
L 416.984003 138.334685 
L 419.545986 138.474069 
L 422.10797 138.617004 
L 424.669953 138.763433 
L 427.231937 138.913295 
L 429.79392 139.066529 
L 432.355904 139.223071 
L 434.917887 139.382856 
L 437.479871 139.545816 
L 440.041854 139.71188 
L 442.603838 139.880977 
L 445.165821 140.053031 
L 447.727805 140.227967 
L 450.289788 140.405704 
L 452.851771 140.586162 
L 455.413755 140.769255 
L 457.975738 140.954897 
L 460.537722 141.142997 
L 463.099705 141.333464 
L 465.661689 141.526201 
L 468.223672 141.72111 
L 470.785656 141.918089 
L 473.347639 142.117032 
L 475.909623 142.31783 
L 478.471606 142.52037 
L 481.03359 142.724537 
L 483.595573 142.93021 
L 486.157557 143.137263 
L 488.71954 143.345567 
L 491.281524 143.554989 
L 493.843507 143.765389 
L 496.405491 143.976624 
L 498.967474 144.188543 
L 501.529457 144.400993 
L 504.091441 144.613811 
L 506.653424 144.826829 
L 509.215408 145.039874 
L 511.777391 145.252764 
L 514.339375 145.46531 
L 516.901358 145.677316 
L 519.463342 145.888575 
L 522.025325 146.098875 
L 524.587309 146.307991 
L 527.149292 146.515691 
L 529.711276 146.721732 
L 532.273259 146.925858 
L 534.835243 147.127804 
L 537.397226 147.327291 
L 539.95921 147.524027 
L 542.521193 147.717708 
L 545.083176 147.908013 
L 547.64516 148.094607 
L 550.207143 148.277138 
L 552.769127 148.455238 
L 555.33111 148.628519 
L 557.893094 148.796574 
L 560.455077 148.958977 
L 563.017061 149.115278 
L 565.579044 149.265005 
L 568.141028 149.407663 
L 570.703011 149.54273 
L 573.264995 149.669655 
L 575.826978 149.787862 
L 578.388962 149.896742 
L 580.950945 149.995655 
L 583.512929 150.083925 
L 586.074912 150.160842 
L 588.636895 150.225658 
L 591.198879 150.277582 
L 593.760862 150.315785 
L 596.322846 150.339389 
L 598.884829 150.34747 
" clip-path="url(#p764031f9e4)" style="fill: none; stroke: #25848e; stroke-width: 1.5; stroke-linecap: square"/>
   </g>
   <g id="line2d_31">
    <path d="M 345.248466 150.34747 
L 347.810449 150.34747 
L 350.372433 150.34747 
L 352.934416 150.34747 
L 355.4964 150.34747 
L 358.058383 150.34747 
L 360.620367 150.34747 
L 363.18235 150.34747 
L 365.744333 150.34747 
L 368.306317 150.34747 
L 370.8683 150.34747 
L 373.430284 150.34747 
L 375.992267 150.34747 
L 378.554251 150.34747 
L 381.116234 150.34747 
L 383.678218 150.34747 
L 386.240201 150.34747 
L 388.802185 150.34747 
L 391.364168 150.34747 
L 393.926152 150.34747 
L 396.488135 150.34747 
L 399.050119 150.34747 
L 401.612102 150.34747 
L 404.174086 150.34747 
L 406.736069 150.34747 
L 409.298052 150.34747 
L 411.860036 150.34747 
L 414.422019 150.34747 
L 416.984003 150.34747 
L 419.545986 150.34747 
L 422.10797 150.34747 
L 424.669953 150.34747 
L 427.231937 150.34747 
L 429.79392 150.34747 
L 432.355904 150.34747 
L 434.917887 150.34747 
L 437.479871 150.34747 
L 440.041854 150.34747 
L 442.603838 150.34747 
L 445.165821 150.34747 
L 447.727805 150.34747 
L 450.289788 150.34747 
L 452.851771 150.34747 
L 455.413755 150.34747 
L 457.975738 150.34747 
L 460.537722 150.34747 
L 463.099705 150.34747 
L 465.661689 150.34747 
L 468.223672 150.34747 
L 470.785656 150.34747 
L 473.347639 150.34747 
L 475.909623 150.34747 
L 478.471606 150.34747 
L 481.03359 150.34747 
L 483.595573 150.34747 
L 486.157557 150.34747 
L 488.71954 150.34747 
L 491.281524 150.34747 
L 493.843507 150.34747 
L 496.405491 150.34747 
L 498.967474 150.34747 
L 501.529457 150.34747 
L 504.091441 150.34747 
L 506.653424 150.34747 
L 509.215408 150.34747 
L 511.777391 150.34747 
L 514.339375 150.34747 
L 516.901358 150.34747 
L 519.463342 150.34747 
L 522.025325 150.34747 
L 524.587309 150.34747 
L 527.149292 150.34747 
L 529.711276 150.34747 
L 532.273259 150.34747 
L 534.835243 150.34747 
L 537.397226 150.34747 
L 539.95921 150.34747 
L 542.521193 150.34747 
L 545.083176 150.34747 
L 547.64516 150.34747 
L 550.207143 150.34747 
L 552.769127 150.34747 
L 555.33111 150.34747 
L 557.893094 150.34747 
L 560.455077 150.34747 
L 563.017061 150.34747 
L 565.579044 150.34747 
L 568.141028 150.34747 
L 570.703011 150.34747 
L 573.264995 150.34747 
L 575.826978 150.34747 
L 578.388962 150.34747 
L 580.950945 150.34747 
L 583.512929 150.34747 
L 586.074912 150.34747 
L 588.636895 150.34747 
L 591.198879 150.34747 
L 593.760862 150.34747 
L 596.322846 150.34747 
L 598.884829 150.34747 
" clip-path="url(#p764031f9e4)" style="fill: none; stroke-dasharray: 5.55,2.4; stroke-dashoffset: 0; stroke: #25848e; stroke-width: 1.5"/>
   </g>
   <g id="patch_8">
    <path d="M 345.248466 226.44 
L 345.248466 32.4 
" style="fill: none; stroke: #000000; stroke-width: 0.8; stroke-linejoin: miter; stroke-linecap: square"/>
   </g>
   <g id="patch_9">
    <path d="M 598.884829 226.44 
L 598.884829 32.4 
" style="fill: none; stroke: #000000; stroke-width: 0.8; stroke-linejoin: miter; stroke-linecap: square"/>
   </g>
   <g id="patch_10">
    <path d="M 345.248466 226.44 
L 598.884829 226.44 
" style="fill: none; stroke: #000000; stroke-width: 0.8; stroke-linejoin: miter; stroke-linecap: square"/>
   </g>
   <g id="patch_11">
    <path d="M 345.248466 32.4 
L 598.884829 32.4 
" style="fill: none; stroke: #000000; stroke-width: 0.8; stroke-linejoin: miter; stroke-linecap: square"/>
   </g>
  </g>
  <g id="text_32">
   <!-- \textbf{Steady State Solution - Case II} -->
   <g transform="translate(233.009648 15.365318) scale(0.12 -0.12)">
    <defs>
     <path id="NimbusRomNo9L-Medi-53" d="M 3098 3027 
L 3098 4416 
L 2906 4416 
C 2861 4249 2810 4198 2701 4198 
C 2643 4198 2573 4217 2432 4268 
C 2131 4377 1926 4416 1683 4416 
C 813 4416 282 3923 282 3116 
C 282 2553 614 2150 1376 1785 
L 1805 1580 
C 2368 1312 2522 1145 2522 812 
C 2522 371 2208 83 1715 83 
C 1344 83 1024 243 781 556 
C 608 793 518 1004 410 1452 
L 224 1452 
L 224 -128 
L 410 -128 
C 448 32 499 89 602 89 
C 653 89 723 70 864 25 
C 1184 -84 1421 -128 1696 -128 
C 2643 -128 3283 416 3283 1222 
C 3283 1702 2989 2182 2579 2387 
L 1638 2854 
C 1120 3110 979 3270 979 3577 
C 979 3974 1248 4217 1683 4217 
C 1971 4217 2240 4096 2470 3859 
C 2688 3635 2790 3449 2918 3033 
L 3098 3027 
z
" transform="scale(0.015625)"/>
     <path id="NimbusRomNo9L-Medi-74" d="M 1952 2944 
L 1350 2944 
L 1350 4025 
L 1190 4025 
C 800 3475 544 3187 128 2835 
L 128 2662 
L 461 2662 
L 461 606 
C 461 192 736 -64 1178 -64 
C 1606 -64 1862 128 2125 650 
L 1965 720 
C 1837 479 1734 390 1600 390 
C 1421 390 1350 498 1350 752 
L 1350 2662 
L 1952 2662 
L 1952 2944 
z
" transform="scale(0.015625)"/>
     <path id="NimbusRomNo9L-Medi-65" d="M 2573 811 
C 2317 508 2118 396 1843 396 
C 1594 396 1408 508 1274 725 
C 1158 923 1107 1127 1082 1555 
L 2694 1555 
C 2656 2090 2560 2389 2355 2631 
C 2144 2879 1850 3008 1498 3008 
C 698 3008 160 2377 160 1449 
C 160 545 685 -64 1478 -64 
C 1997 -64 2310 140 2726 725 
L 2573 811 
z
M 1050 1792 
C 1069 2555 1184 2809 1498 2809 
C 1677 2809 1798 2707 1850 2510 
C 1882 2389 1894 2211 1907 1887 
L 1907 1792 
L 1050 1792 
z
" transform="scale(0.015625)"/>
     <path id="NimbusRomNo9L-Medi-61" d="M 3027 429 
L 2963 366 
C 2944 347 2925 341 2893 341 
C 2803 341 2758 397 2758 498 
L 2758 2141 
C 2758 2670 2272 3008 1491 3008 
C 768 3008 282 2683 282 2211 
C 282 1953 435 1795 698 1795 
C 954 1795 1133 1946 1133 2160 
C 1133 2249 1094 2330 1018 2431 
C 960 2494 941 2532 941 2570 
C 941 2702 1120 2803 1344 2803 
C 1715 2803 1882 2633 1882 2249 
L 1882 1789 
C 1120 1562 806 1436 570 1279 
C 294 1090 160 876 160 605 
C 160 221 461 -64 870 -64 
C 1235 -64 1530 64 1882 378 
C 1952 57 2093 -64 2406 -64 
C 2682 -64 2880 38 3123 296 
L 3027 429 
z
M 1875 655 
C 1702 460 1574 385 1421 385 
C 1229 385 1094 555 1094 807 
C 1094 1172 1363 1436 1875 1568 
L 1875 655 
z
" transform="scale(0.015625)"/>
     <path id="NimbusRomNo9L-Medi-64" d="M 2170 -39 
C 2464 44 2624 76 3021 121 
L 3418 172 
L 3418 320 
C 3123 338 3040 419 3040 681 
L 3040 4352 
L 1664 4352 
L 1664 4198 
C 2093 4165 2150 4118 2150 3812 
L 2150 2612 
C 1875 2905 1683 3008 1389 3008 
C 685 3008 160 2331 160 1428 
C 160 564 646 -64 1318 -64 
C 1658 -64 1869 38 2170 357 
L 2170 -39 
z
M 2150 734 
C 2150 696 2086 589 2010 507 
C 1882 363 1747 294 1606 294 
C 1267 294 1107 671 1107 1468 
C 1107 2278 1280 2649 1651 2649 
C 1862 2649 2061 2498 2150 2260 
L 2150 734 
z
" transform="scale(0.015625)"/>
     <path id="NimbusRomNo9L-Medi-79" d="M 3072 2944 
L 2106 2944 
L 2106 2790 
C 2381 2777 2458 2732 2458 2578 
C 2458 2508 2445 2450 2387 2290 
L 1952 1059 
L 1491 2245 
C 1363 2572 1363 2572 1363 2623 
C 1363 2713 1440 2771 1600 2784 
L 1702 2790 
L 1702 2944 
L 102 2944 
L 102 2790 
C 250 2771 288 2752 326 2694 
C 346 2694 634 2066 742 1796 
L 1510 -95 
L 1395 -435 
C 1286 -755 1120 -960 973 -960 
C 915 -960 864 -909 864 -852 
C 864 -845 864 -832 870 -813 
C 877 -781 883 -749 883 -723 
C 883 -537 730 -409 512 -409 
C 275 -409 102 -576 102 -819 
C 102 -1114 358 -1325 723 -1325 
C 941 -1325 1126 -1249 1261 -1114 
C 1395 -967 1523 -710 1747 -108 
L 2701 2437 
C 2810 2707 2874 2771 3072 2790 
L 3072 2944 
z
" transform="scale(0.015625)"/>
     <path id="NimbusRomNo9L-Medi-6f" d="M 1606 3008 
C 794 3008 160 2343 160 1487 
C 160 587 768 -64 1606 -64 
C 2432 -64 3046 593 3046 1468 
C 3046 2350 2432 3008 1606 3008 
z
M 1613 2809 
C 1984 2809 2106 2463 2106 1431 
C 2106 461 1978 134 1606 134 
C 1229 134 1101 455 1101 1374 
C 1101 2482 1216 2809 1613 2809 
z
" transform="scale(0.015625)"/>
     <path id="NimbusRomNo9L-Medi-6c" d="M 1318 4352 
L 102 4352 
L 102 4198 
C 326 4178 429 4062 429 3824 
L 429 540 
C 429 301 320 172 102 153 
L 102 0 
L 1632 0 
L 1632 153 
C 1421 160 1318 282 1318 540 
L 1318 4352 
z
" transform="scale(0.015625)"/>
     <path id="NimbusRomNo9L-Medi-75" d="M 2195 -39 
C 2470 57 2624 83 3040 127 
L 3437 172 
L 3437 320 
C 3155 332 3078 414 3078 683 
L 3078 2944 
L 1792 2944 
L 1792 2790 
C 2112 2765 2189 2690 2189 2420 
L 2189 646 
C 1978 421 1843 352 1664 352 
C 1402 352 1306 478 1306 800 
L 1306 2944 
L 102 2944 
L 102 2790 
C 365 2739 416 2683 416 2417 
L 416 825 
C 416 268 736 -64 1267 -64 
C 1600 -64 1824 38 2195 358 
L 2195 -39 
z
" transform="scale(0.015625)"/>
     <path id="NimbusRomNo9L-Medi-69" d="M 1331 2944 
L 102 2944 
L 102 2790 
C 384 2733 442 2675 442 2413 
L 442 536 
C 442 274 397 223 102 153 
L 102 0 
L 1632 0 
L 1632 153 
C 1408 185 1331 274 1331 517 
L 1331 2944 
z
M 883 4416 
C 608 4416 384 4191 384 3923 
C 384 3635 595 3423 877 3423 
C 1158 3423 1376 3635 1376 3916 
C 1376 4191 1158 4416 883 4416 
z
" transform="scale(0.015625)"/>
     <path id="NimbusRomNo9L-Medi-6e" d="M 1357 2944 
L 134 2944 
L 134 2790 
C 416 2745 474 2681 474 2413 
L 474 536 
C 474 268 422 211 134 153 
L 134 0 
L 1677 0 
L 1677 153 
C 1440 185 1363 281 1363 517 
L 1363 2222 
C 1363 2247 1408 2311 1472 2369 
C 1613 2502 1766 2579 1914 2579 
C 2138 2579 2246 2407 2246 2052 
L 2246 515 
C 2246 280 2163 179 1946 153 
L 1946 0 
L 3450 0 
L 3450 153 
C 3200 172 3136 248 3136 515 
L 3136 2109 
C 3136 2655 2797 3008 2272 3008 
C 1888 3008 1594 2828 1357 2452 
L 1357 2944 
z
" transform="scale(0.015625)"/>
     <path id="NimbusRomNo9L-Medi-2d" d="M 1837 1830 
L 282 1830 
L 282 1088 
L 1837 1088 
L 1837 1830 
z
" transform="scale(0.015625)"/>
     <path id="NimbusRomNo9L-Medi-43" d="M 4205 966 
C 3827 569 3622 416 3309 294 
C 3123 217 2912 179 2733 179 
C 2310 179 1907 403 1722 736 
C 1536 1075 1446 1536 1446 2176 
C 1446 3501 1856 4204 2624 4204 
C 2925 4204 3200 4089 3475 3846 
C 3750 3597 3898 3385 4122 2899 
L 4282 2899 
L 4282 4396 
L 4109 4396 
C 4019 4173 3949 4102 3827 4102 
C 3770 4102 3674 4128 3533 4192 
C 3155 4345 2848 4416 2541 4416 
C 1267 4416 314 3430 314 2124 
C 314 806 1254 -128 2579 -128 
C 3034 -128 3411 -20 3763 217 
C 3968 358 4109 486 4397 806 
L 4205 966 
z
" transform="scale(0.015625)"/>
     <path id="NimbusRomNo9L-Medi-73" d="M 2176 2079 
L 2176 2995 
L 2035 2995 
C 1997 2899 1958 2867 1882 2867 
C 1843 2867 1779 2879 1677 2911 
C 1466 2982 1318 3008 1178 3008 
C 595 3008 173 2614 173 2085 
C 173 1670 435 1380 1082 1110 
C 1517 921 1696 764 1696 562 
C 1696 317 1504 153 1216 153 
C 768 153 474 436 339 984 
L 160 984 
L 160 -58 
L 320 -58 
C 390 76 429 121 486 121 
C 518 121 570 108 634 83 
C 806 6 1146 -64 1325 -64 
C 1907 -64 2310 329 2310 896 
C 2310 1342 2061 1613 1427 1877 
C 992 2060 813 2217 813 2431 
C 813 2639 992 2796 1235 2796 
C 1402 2796 1574 2727 1715 2595 
C 1850 2469 1920 2356 2016 2079 
L 2176 2079 
z
" transform="scale(0.015625)"/>
     <path id="NimbusRomNo9L-Medi-49" d="M 723 617 
C 723 295 608 205 128 160 
L 128 0 
L 2368 0 
L 2368 160 
C 1882 192 1760 282 1760 617 
L 1760 3734 
C 1760 4069 1894 4172 2368 4191 
L 2368 4352 
L 128 4352 
L 128 4191 
C 589 4159 723 4062 723 3734 
L 723 617 
z
" transform="scale(0.015625)"/>
    </defs>
    <use xlink:href="#NimbusRomNo9L-Medi-53" transform="scale(0.996264)"/>
    <use xlink:href="#NimbusRomNo9L-Medi-74" transform="translate(55.391677 0) scale(0.996264)"/>
    <use xlink:href="#NimbusRomNo9L-Medi-65" transform="translate(88.566907 0) scale(0.996264)"/>
    <use xlink:href="#NimbusRomNo9L-Medi-61" transform="translate(132.800475 0) scale(0.996264)"/>
    <use xlink:href="#NimbusRomNo9L-Medi-64" transform="translate(182.613676 0) scale(0.996264)"/>
    <use xlink:href="#NimbusRomNo9L-Medi-79" transform="translate(238.005353 0) scale(0.996264)"/>
    <use xlink:href="#NimbusRomNo9L-Medi-53" transform="translate(312.725154 0) scale(0.996264)"/>
    <use xlink:href="#NimbusRomNo9L-Medi-74" transform="translate(368.116831 0) scale(0.996264)"/>
    <use xlink:href="#NimbusRomNo9L-Medi-61" transform="translate(401.29206 0) scale(0.996264)"/>
    <use xlink:href="#NimbusRomNo9L-Medi-74" transform="translate(451.105261 0) scale(0.996264)"/>
    <use xlink:href="#NimbusRomNo9L-Medi-65" transform="translate(484.280491 0) scale(0.996264)"/>
    <use xlink:href="#NimbusRomNo9L-Medi-53" transform="translate(553.420659 0) scale(0.996264)"/>
    <use xlink:href="#NimbusRomNo9L-Medi-6f" transform="translate(608.812336 0) scale(0.996264)"/>
    <use xlink:href="#NimbusRomNo9L-Medi-6c" transform="translate(658.625537 0) scale(0.996264)"/>
    <use xlink:href="#NimbusRomNo9L-Medi-75" transform="translate(686.320707 0) scale(0.996264)"/>
    <use xlink:href="#NimbusRomNo9L-Medi-74" transform="translate(741.712383 0) scale(0.996264)"/>
    <use xlink:href="#NimbusRomNo9L-Medi-69" transform="translate(774.887613 0) scale(0.996264)"/>
    <use xlink:href="#NimbusRomNo9L-Medi-6f" transform="translate(802.582783 0) scale(0.996264)"/>
    <use xlink:href="#NimbusRomNo9L-Medi-6e" transform="translate(852.395983 0) scale(0.996264)"/>
    <use xlink:href="#NimbusRomNo9L-Medi-2d" transform="translate(932.694261 0) scale(0.996264)"/>
    <use xlink:href="#NimbusRomNo9L-Medi-43" transform="translate(990.776091 0) scale(0.996264)"/>
    <use xlink:href="#NimbusRomNo9L-Medi-61" transform="translate(1062.706075 0) scale(0.996264)"/>
    <use xlink:href="#NimbusRomNo9L-Medi-73" transform="translate(1112.519276 0) scale(0.996264)"/>
    <use xlink:href="#NimbusRomNo9L-Medi-65" transform="translate(1151.272982 0) scale(0.996264)"/>
    <use xlink:href="#NimbusRomNo9L-Medi-49" transform="translate(1220.413151 0) scale(0.996264)"/>
    <use xlink:href="#NimbusRomNo9L-Medi-49" transform="translate(1259.166857 0) scale(0.996264)"/>
   </g>
  </g>
  <g id="legend_1">
   <g id="patch_12">
    <path d="M 611.674217 144.247553 
L 668.484829 144.247553 
Q 670.084829 144.247553 670.084829 142.647553 
L 670.084829 120.796626 
Q 670.084829 119.196626 668.484829 119.196626 
L 611.674217 119.196626 
Q 610.074217 119.196626 610.074217 120.796626 
L 610.074217 142.647553 
Q 610.074217 144.247553 611.674217 144.247553 
z
" style="fill: #ffffff; opacity: 0.8; stroke: #cccccc; stroke-linejoin: miter"/>
   </g>
   <g id="line2d_32">
    <path d="M 613.274217 125.196626 
L 621.274217 125.196626 
L 629.274217 125.196626 
" style="fill: none; stroke: #25848e; stroke-width: 1.5; stroke-linecap: square"/>
   </g>
   <g id="text_33">
    <!-- Stable (1) -->
    <g transform="translate(635.674217 127.996626) scale(0.08 -0.08)">
     <defs>
      <path id="NimbusRomNo9L-Regu-53" d="M 2861 4313 
L 2726 4313 
C 2701 4166 2630 4095 2522 4095 
C 2458 4095 2349 4121 2240 4172 
C 2003 4300 1766 4352 1562 4352 
C 1286 4352 1005 4243 794 4057 
C 570 3859 454 3590 454 3257 
C 454 2745 736 2387 1453 2009 
C 1914 1766 2246 1504 2406 1260 
C 2464 1177 2496 1043 2496 889 
C 2496 460 2176 166 1709 166 
C 1139 166 736 518 416 1299 
L 269 1299 
L 461 -58 
L 602 -58 
C 608 38 685 128 781 128 
C 851 128 960 102 1082 57 
C 1325 -13 1581 -64 1837 -64 
C 2573 -64 3142 441 3142 1100 
C 3142 1625 2790 2041 1946 2496 
C 1274 2867 1005 3148 1005 3494 
C 1005 3846 1274 4089 1670 4089 
C 1958 4089 2227 3968 2451 3737 
C 2650 3533 2739 3366 2842 2988 
L 3002 2988 
L 2861 4313 
z
" transform="scale(0.015625)"/>
      <path id="NimbusRomNo9L-Regu-74" d="M 1632 2880 
L 986 2880 
L 986 3622 
C 986 3686 979 3705 941 3705 
C 896 3648 858 3590 813 3526 
C 570 3174 294 2867 192 2841 
C 122 2796 83 2751 83 2719 
C 83 2700 90 2687 109 2675 
L 448 2675 
L 448 748 
C 448 211 640 -64 1018 -64 
C 1331 -64 1574 89 1786 422 
L 1702 492 
C 1568 332 1459 268 1318 268 
C 1082 268 986 441 986 844 
L 986 2675 
L 1632 2675 
L 1632 2880 
z
" transform="scale(0.015625)"/>
      <path id="NimbusRomNo9L-Regu-61" d="M 2829 422 
C 2720 332 2643 300 2547 300 
C 2400 300 2355 390 2355 672 
L 2355 1920 
C 2355 2252 2323 2438 2227 2592 
C 2086 2822 1811 2944 1434 2944 
C 832 2944 358 2630 358 2227 
C 358 2080 486 1952 634 1952 
C 787 1952 922 2080 922 2220 
C 922 2246 915 2278 909 2323 
C 896 2380 890 2432 890 2476 
C 890 2649 1094 2790 1350 2790 
C 1664 2790 1837 2604 1837 2259 
L 1837 1868 
C 851 1472 742 1420 467 1177 
C 326 1049 237 832 237 620 
C 237 217 518 -64 909 -64 
C 1190 -64 1453 70 1843 403 
C 1875 70 1990 -64 2253 -64 
C 2470 -64 2605 12 2829 256 
L 2829 422 
z
M 1837 787 
C 1837 588 1805 531 1670 454 
C 1517 364 1338 307 1203 307 
C 979 307 800 524 800 800 
L 800 825 
C 800 1203 1062 1433 1837 1715 
L 1837 787 
z
" transform="scale(0.015625)"/>
      <path id="NimbusRomNo9L-Regu-62" d="M 979 4358 
L 947 4371 
C 678 4275 506 4224 205 4140 
L 19 4089 
L 19 3987 
C 58 3993 83 3993 128 3993 
C 384 3993 442 3936 442 3667 
L 442 345 
C 442 147 986 -64 1498 -64 
C 2342 -64 2995 639 2995 1555 
C 2995 2342 2509 2944 1869 2944 
C 1478 2944 1107 2713 979 2399 
L 979 4358 
z
M 979 2060 
C 979 2310 1280 2540 1613 2540 
C 2112 2540 2432 2041 2432 1260 
C 2432 550 2125 140 1600 140 
C 1267 140 979 287 979 447 
L 979 2060 
z
" transform="scale(0.015625)"/>
      <path id="NimbusRomNo9L-Regu-6c" d="M 122 3987 
L 160 3987 
C 230 3993 307 4000 358 4000 
C 563 4000 627 3910 627 3609 
L 627 556 
C 627 211 538 128 134 96 
L 134 0 
L 1645 0 
L 1645 96 
C 1242 121 1165 185 1165 537 
L 1165 4358 
L 1139 4371 
C 806 4262 563 4198 122 4089 
L 122 3987 
z
" transform="scale(0.015625)"/>
      <path id="NimbusRomNo9L-Regu-65" d="M 2611 1052 
C 2304 564 2029 377 1619 377 
C 1254 377 979 564 794 930 
C 678 1174 634 1386 621 1779 
L 2592 1779 
C 2541 2193 2477 2377 2317 2580 
C 2125 2809 1830 2944 1498 2944 
C 1178 2944 877 2828 634 2612 
C 333 2351 160 1900 160 1374 
C 160 486 621 -64 1357 -64 
C 1965 -64 2445 313 2714 1007 
L 2611 1052 
z
M 634 1984 
C 704 2478 922 2713 1312 2713 
C 1702 2713 1856 2535 1939 1984 
L 634 1984 
z
" transform="scale(0.015625)"/>
      <path id="NimbusRomNo9L-Regu-28" d="M 1888 4352 
C 1414 4044 1222 3878 986 3583 
C 531 3027 307 2387 307 1638 
C 307 825 544 198 1107 -455 
C 1370 -762 1536 -903 1869 -1108 
L 1946 -1006 
C 1434 -602 1254 -378 1082 102 
C 928 530 858 1017 858 1657 
C 858 2329 941 2854 1114 3251 
C 1293 3647 1485 3878 1946 4249 
L 1888 4352 
z
" transform="scale(0.015625)"/>
      <path id="NimbusRomNo9L-Regu-29" d="M 243 -1108 
C 717 -801 909 -634 1146 -340 
C 1600 217 1824 857 1824 1606 
C 1824 2425 1587 3046 1024 3699 
C 762 4006 595 4147 262 4352 
L 186 4249 
C 698 3846 870 3622 1050 3142 
C 1203 2713 1274 2227 1274 1587 
C 1274 921 1190 390 1018 -1 
C 838 -404 646 -634 186 -1006 
L 243 -1108 
z
" transform="scale(0.015625)"/>
     </defs>
     <use xlink:href="#NimbusRomNo9L-Regu-53" transform="scale(0.996264)"/>
     <use xlink:href="#NimbusRomNo9L-Regu-74" transform="translate(55.391677 0) scale(0.996264)"/>
     <use xlink:href="#NimbusRomNo9L-Regu-61" transform="translate(83.086847 0) scale(0.996264)"/>
     <use xlink:href="#NimbusRomNo9L-Regu-62" transform="translate(127.320415 0) scale(0.996264)"/>
     <use xlink:href="#NimbusRomNo9L-Regu-6c" transform="translate(177.133616 0) scale(0.996264)"/>
     <use xlink:href="#NimbusRomNo9L-Regu-65" transform="translate(204.828785 0) scale(0.996264)"/>
     <use xlink:href="#NimbusRomNo9L-Regu-28" transform="translate(273.968954 0) scale(0.996264)"/>
     <use xlink:href="#NimbusRomNo9L-Regu-31" transform="translate(307.144184 0) scale(0.996264)"/>
     <use xlink:href="#NimbusRomNo9L-Regu-29" transform="translate(356.957385 0) scale(0.996264)"/>
    </g>
   </g>
   <g id="line2d_33">
    <path d="M 613.274217 136.52209 
L 621.274217 136.52209 
L 629.274217 136.52209 
" style="fill: none; stroke: #25848e; stroke-width: 1.5; stroke-linecap: square"/>
   </g>
   <g id="text_34">
    <!-- Stable (1) -->
    <g transform="translate(635.674217 139.32209) scale(0.08 -0.08)">
     <use xlink:href="#NimbusRomNo9L-Regu-53" transform="scale(0.996264)"/>
     <use xlink:href="#NimbusRomNo9L-Regu-74" transform="translate(55.391677 0) scale(0.996264)"/>
     <use xlink:href="#NimbusRomNo9L-Regu-61" transform="translate(83.086847 0) scale(0.996264)"/>
     <use xlink:href="#NimbusRomNo9L-Regu-62" transform="translate(127.320415 0) scale(0.996264)"/>
     <use xlink:href="#NimbusRomNo9L-Regu-6c" transform="translate(177.133616 0) scale(0.996264)"/>
     <use xlink:href="#NimbusRomNo9L-Regu-65" transform="translate(204.828785 0) scale(0.996264)"/>
     <use xlink:href="#NimbusRomNo9L-Regu-28" transform="translate(273.968954 0) scale(0.996264)"/>
     <use xlink:href="#NimbusRomNo9L-Regu-31" transform="translate(307.144184 0) scale(0.996264)"/>
     <use xlink:href="#NimbusRomNo9L-Regu-29" transform="translate(356.957385 0) scale(0.996264)"/>
    </g>
   </g>
  </g>
 </g>
 <defs>
  <clipPath id="p40b8cf8f7d">
   <rect x="40.884829" y="32.4" width="253.636364" height="194.04"/>
  </clipPath>
  <clipPath id="p764031f9e4">
   <rect x="345.248466" y="32.4" width="253.636364" height="194.04"/>
  </clipPath>
 </defs>
</svg>
