<?xml version="1.0" encoding="utf-8" standalone="no"?>
<!DOCTYPE svg PUBLIC "-//W3C//DTD SVG 1.1//EN"
  "http://www.w3.org/Graphics/SVG/1.1/DTD/svg11.dtd">
<svg xmlns:xlink="http://www.w3.org/1999/xlink" width="453.031618pt" height="325.769645pt" viewBox="0 0 453.031618 325.769645" xmlns="http://www.w3.org/2000/svg" version="1.1">
 <metadata>
  <rdf:RDF xmlns:dc="http://purl.org/dc/elements/1.1/" xmlns:cc="http://creativecommons.org/ns#" xmlns:rdf="http://www.w3.org/1999/02/22-rdf-syntax-ns#">
   <cc:Work>
    <dc:type rdf:resource="http://purl.org/dc/dcmitype/StillImage"/>
    <dc:date>2025-07-22T17:12:16.325985</dc:date>
    <dc:format>image/svg+xml</dc:format>
    <dc:creator>
     <cc:Agent>
      <dc:title>Matplotlib v3.9.2, https://matplotlib.org/</dc:title>
     </cc:Agent>
    </dc:creator>
   </cc:Work>
  </rdf:RDF>
 </metadata>
 <defs>
  <style type="text/css">*{stroke-linejoin: round; stroke-linecap: butt}</style>
 </defs>
 <g id="figure_1">
  <g id="patch_1">
   <path d="M 0 325.769645 
L 453.031618 325.769645 
L 453.031618 0 
L 0 0 
z
" style="fill: #ffffff"/>
  </g>
  <g id="axes_1">
   <g id="patch_2">
    <path d="M 55.231618 284.4 
L 445.831618 284.4 
L 445.831618 7.2 
L 55.231618 7.2 
z
" style="fill: #ffffff"/>
   </g>
   <g id="matplotlib.axis_1">
    <g id="xtick_1">
     <g id="line2d_1">
      <path d="M 72.986163 284.4 
L 72.986163 7.2 
" clip-path="url(#pccba9d9c15)" style="fill: none; stroke-dasharray: 2.22,0.96; stroke-dashoffset: 0; stroke: #d3d3d3; stroke-width: 0.6"/>
     </g>
     <g id="line2d_2">
      <defs>
       <path id="m816296ce60" d="M 0 0 
L 0 3.5 
" style="stroke: #000000; stroke-width: 0.8"/>
      </defs>
      <g>
       <use xlink:href="#m816296ce60" x="72.986163" y="284.4" style="stroke: #000000; stroke-width: 0.8"/>
      </g>
     </g>
     <g id="text_1">
      <!-- $\mathdefault{0}$ -->
      <g transform="translate(69.997371 299.505484) scale(0.12 -0.12)">
       <defs>
        <path id="NimbusRomNo9L-Regu-30" d="M 1626 4352 
C 1274 4352 1005 4243 768 4019 
C 397 3661 154 2924 154 2176 
C 154 1478 365 729 666 371 
C 902 89 1229 -64 1600 -64 
C 1926 -64 2202 44 2432 268 
C 2803 620 3046 1363 3046 2137 
C 3046 3449 2464 4352 1626 4352 
z
M 1606 4185 
C 2144 4185 2432 3462 2432 2124 
C 2432 787 2150 102 1600 102 
C 1050 102 768 787 768 2118 
C 768 3475 1056 4185 1606 4185 
z
" transform="scale(0.015625)"/>
       </defs>
       <use xlink:href="#NimbusRomNo9L-Regu-30" transform="scale(0.996264)"/>
      </g>
     </g>
    </g>
    <g id="xtick_2">
     <g id="line2d_3">
      <path d="M 120.331618 284.4 
L 120.331618 7.2 
" clip-path="url(#pccba9d9c15)" style="fill: none; stroke-dasharray: 2.22,0.96; stroke-dashoffset: 0; stroke: #d3d3d3; stroke-width: 0.6"/>
     </g>
     <g id="line2d_4">
      <g>
       <use xlink:href="#m816296ce60" x="120.331618" y="284.4" style="stroke: #000000; stroke-width: 0.8"/>
      </g>
     </g>
     <g id="text_2">
      <!-- $\mathdefault{200}$ -->
      <g transform="translate(111.365242 299.505484) scale(0.12 -0.12)">
       <defs>
        <path id="NimbusRomNo9L-Regu-32" d="M 3040 879 
L 2957 912 
C 2720 544 2637 486 2349 486 
L 819 486 
L 1894 1621 
C 2464 2221 2714 2711 2714 3214 
C 2714 3858 2195 4352 1530 4352 
C 1178 4352 845 4211 608 3955 
C 403 3736 307 3530 198 3072 
L 333 3039 
C 589 3671 819 3878 1261 3878 
C 1798 3878 2163 3510 2163 2969 
C 2163 2466 1869 1866 1331 1292 
L 192 76 
L 192 0 
L 2688 0 
L 3040 879 
z
" transform="scale(0.015625)"/>
       </defs>
       <use xlink:href="#NimbusRomNo9L-Regu-32" transform="scale(0.996264)"/>
       <use xlink:href="#NimbusRomNo9L-Regu-30" transform="translate(49.8132 0) scale(0.996264)"/>
       <use xlink:href="#NimbusRomNo9L-Regu-30" transform="translate(99.626401 0) scale(0.996264)"/>
      </g>
     </g>
    </g>
    <g id="xtick_3">
     <g id="line2d_5">
      <path d="M 167.677072 284.4 
L 167.677072 7.2 
" clip-path="url(#pccba9d9c15)" style="fill: none; stroke-dasharray: 2.22,0.96; stroke-dashoffset: 0; stroke: #d3d3d3; stroke-width: 0.6"/>
     </g>
     <g id="line2d_6">
      <g>
       <use xlink:href="#m816296ce60" x="167.677072" y="284.4" style="stroke: #000000; stroke-width: 0.8"/>
      </g>
     </g>
     <g id="text_3">
      <!-- $\mathdefault{400}$ -->
      <g transform="translate(158.710696 299.505484) scale(0.12 -0.12)">
       <defs>
        <path id="NimbusRomNo9L-Regu-34" d="M 3021 1497 
L 2368 1497 
L 2368 4352 
L 2086 4352 
L 77 1497 
L 77 1088 
L 1875 1088 
L 1875 0 
L 2368 0 
L 2368 1088 
L 3021 1088 
L 3021 1497 
z
M 1869 1497 
L 333 1497 
L 1869 3697 
L 1869 1497 
z
" transform="scale(0.015625)"/>
       </defs>
       <use xlink:href="#NimbusRomNo9L-Regu-34" transform="scale(0.996264)"/>
       <use xlink:href="#NimbusRomNo9L-Regu-30" transform="translate(49.8132 0) scale(0.996264)"/>
       <use xlink:href="#NimbusRomNo9L-Regu-30" transform="translate(99.626401 0) scale(0.996264)"/>
      </g>
     </g>
    </g>
    <g id="xtick_4">
     <g id="line2d_7">
      <path d="M 215.022527 284.4 
L 215.022527 7.2 
" clip-path="url(#pccba9d9c15)" style="fill: none; stroke-dasharray: 2.22,0.96; stroke-dashoffset: 0; stroke: #d3d3d3; stroke-width: 0.6"/>
     </g>
     <g id="line2d_8">
      <g>
       <use xlink:href="#m816296ce60" x="215.022527" y="284.4" style="stroke: #000000; stroke-width: 0.8"/>
      </g>
     </g>
     <g id="text_4">
      <!-- $\mathdefault{600}$ -->
      <g transform="translate(206.056151 299.505484) scale(0.12 -0.12)">
       <defs>
        <path id="NimbusRomNo9L-Regu-36" d="M 2854 4390 
C 2125 4326 1754 4204 1286 3878 
C 595 3385 218 2655 218 1801 
C 218 1248 390 688 666 369 
C 909 89 1254 -64 1651 -64 
C 2445 -64 2995 541 2995 1420 
C 2995 2234 2528 2752 1792 2752 
C 1510 2752 1376 2707 973 2463 
C 1146 3430 1862 4121 2867 4288 
L 2854 4390 
z
M 1549 2457 
C 2099 2457 2419 1999 2419 1203 
C 2419 503 2170 115 1722 115 
C 1158 115 813 713 813 1700 
C 813 2024 864 2203 992 2298 
C 1126 2400 1325 2457 1549 2457 
z
" transform="scale(0.015625)"/>
       </defs>
       <use xlink:href="#NimbusRomNo9L-Regu-36" transform="scale(0.996264)"/>
       <use xlink:href="#NimbusRomNo9L-Regu-30" transform="translate(49.8132 0) scale(0.996264)"/>
       <use xlink:href="#NimbusRomNo9L-Regu-30" transform="translate(99.626401 0) scale(0.996264)"/>
      </g>
     </g>
    </g>
    <g id="xtick_5">
     <g id="line2d_9">
      <path d="M 262.367982 284.4 
L 262.367982 7.2 
" clip-path="url(#pccba9d9c15)" style="fill: none; stroke-dasharray: 2.22,0.96; stroke-dashoffset: 0; stroke: #d3d3d3; stroke-width: 0.6"/>
     </g>
     <g id="line2d_10">
      <g>
       <use xlink:href="#m816296ce60" x="262.367982" y="284.4" style="stroke: #000000; stroke-width: 0.8"/>
      </g>
     </g>
     <g id="text_5">
      <!-- $\mathdefault{800}$ -->
      <g transform="translate(253.401605 299.505484) scale(0.12 -0.12)">
       <defs>
        <path id="NimbusRomNo9L-Regu-38" d="M 1856 2400 
C 2490 2739 2714 3008 2714 3443 
C 2714 3968 2253 4352 1613 4352 
C 915 4352 397 3923 397 3341 
C 397 2924 518 2739 1190 2150 
C 499 1625 358 1427 358 992 
C 358 371 864 -64 1587 -64 
C 2355 -64 2848 358 2848 1017 
C 2848 1510 2630 1824 1856 2400 
z
M 1741 1740 
C 2208 1408 2362 1177 2362 819 
C 2362 403 2074 115 1658 115 
C 1171 115 845 486 845 1043 
C 845 1452 986 1721 1357 2022 
L 1741 1740 
z
M 1670 2515 
C 1101 2886 870 3180 870 3539 
C 870 3910 1158 4172 1562 4172 
C 1997 4172 2272 3891 2272 3449 
C 2272 3084 2093 2796 1728 2553 
C 1696 2534 1696 2534 1670 2515 
z
" transform="scale(0.015625)"/>
       </defs>
       <use xlink:href="#NimbusRomNo9L-Regu-38" transform="scale(0.996264)"/>
       <use xlink:href="#NimbusRomNo9L-Regu-30" transform="translate(49.8132 0) scale(0.996264)"/>
       <use xlink:href="#NimbusRomNo9L-Regu-30" transform="translate(99.626401 0) scale(0.996264)"/>
      </g>
     </g>
    </g>
    <g id="xtick_6">
     <g id="line2d_11">
      <path d="M 309.713436 284.4 
L 309.713436 7.2 
" clip-path="url(#pccba9d9c15)" style="fill: none; stroke-dasharray: 2.22,0.96; stroke-dashoffset: 0; stroke: #d3d3d3; stroke-width: 0.6"/>
     </g>
     <g id="line2d_12">
      <g>
       <use xlink:href="#m816296ce60" x="309.713436" y="284.4" style="stroke: #000000; stroke-width: 0.8"/>
      </g>
     </g>
     <g id="text_6">
      <!-- $\mathdefault{1000}$ -->
      <g transform="translate(297.758268 299.505484) scale(0.12 -0.12)">
       <defs>
        <path id="NimbusRomNo9L-Regu-31" d="M 1862 4352 
L 710 3776 
L 710 3686 
C 787 3718 858 3743 883 3756 
C 998 3801 1107 3826 1171 3826 
C 1306 3826 1363 3731 1363 3525 
L 1363 599 
C 1363 386 1312 238 1210 179 
C 1114 121 1024 102 755 96 
L 755 0 
L 2522 0 
L 2522 96 
C 2016 102 1914 167 1914 477 
L 1914 4339 
L 1862 4352 
z
" transform="scale(0.015625)"/>
       </defs>
       <use xlink:href="#NimbusRomNo9L-Regu-31" transform="scale(0.996264)"/>
       <use xlink:href="#NimbusRomNo9L-Regu-30" transform="translate(49.8132 0) scale(0.996264)"/>
       <use xlink:href="#NimbusRomNo9L-Regu-30" transform="translate(99.626401 0) scale(0.996264)"/>
       <use xlink:href="#NimbusRomNo9L-Regu-30" transform="translate(149.439601 0) scale(0.996264)"/>
      </g>
     </g>
    </g>
    <g id="xtick_7">
     <g id="line2d_13">
      <path d="M 357.058891 284.4 
L 357.058891 7.2 
" clip-path="url(#pccba9d9c15)" style="fill: none; stroke-dasharray: 2.22,0.96; stroke-dashoffset: 0; stroke: #d3d3d3; stroke-width: 0.6"/>
     </g>
     <g id="line2d_14">
      <g>
       <use xlink:href="#m816296ce60" x="357.058891" y="284.4" style="stroke: #000000; stroke-width: 0.8"/>
      </g>
     </g>
     <g id="text_7">
      <!-- $\mathdefault{1200}$ -->
      <g transform="translate(345.103722 299.505484) scale(0.12 -0.12)">
       <use xlink:href="#NimbusRomNo9L-Regu-31" transform="scale(0.996264)"/>
       <use xlink:href="#NimbusRomNo9L-Regu-32" transform="translate(49.8132 0) scale(0.996264)"/>
       <use xlink:href="#NimbusRomNo9L-Regu-30" transform="translate(99.626401 0) scale(0.996264)"/>
       <use xlink:href="#NimbusRomNo9L-Regu-30" transform="translate(149.439601 0) scale(0.996264)"/>
      </g>
     </g>
    </g>
    <g id="xtick_8">
     <g id="line2d_15">
      <path d="M 404.404345 284.4 
L 404.404345 7.2 
" clip-path="url(#pccba9d9c15)" style="fill: none; stroke-dasharray: 2.22,0.96; stroke-dashoffset: 0; stroke: #d3d3d3; stroke-width: 0.6"/>
     </g>
     <g id="line2d_16">
      <g>
       <use xlink:href="#m816296ce60" x="404.404345" y="284.4" style="stroke: #000000; stroke-width: 0.8"/>
      </g>
     </g>
     <g id="text_8">
      <!-- $\mathdefault{1400}$ -->
      <g transform="translate(392.449177 299.505484) scale(0.12 -0.12)">
       <use xlink:href="#NimbusRomNo9L-Regu-31" transform="scale(0.996264)"/>
       <use xlink:href="#NimbusRomNo9L-Regu-34" transform="translate(49.8132 0) scale(0.996264)"/>
       <use xlink:href="#NimbusRomNo9L-Regu-30" transform="translate(99.626401 0) scale(0.996264)"/>
       <use xlink:href="#NimbusRomNo9L-Regu-30" transform="translate(149.439601 0) scale(0.996264)"/>
      </g>
     </g>
    </g>
    <g id="text_9">
     <!-- $t_{{m}}$, (s) -->
     <g transform="translate(233.77369 315.550084) scale(0.14 -0.14)">
      <defs>
       <path id="NimbusRomNo9L-ReguItal-74" d="M 1894 2752 
L 1382 2752 
L 1562 3411 
C 1568 3424 1568 3436 1568 3443 
C 1568 3488 1549 3507 1517 3507 
C 1478 3507 1459 3500 1421 3449 
C 1171 3123 774 2803 570 2745 
C 410 2694 365 2655 365 2585 
C 365 2579 365 2566 371 2547 
L 845 2547 
L 384 782 
C 371 724 365 705 346 647 
C 288 454 237 230 237 179 
C 237 38 371 -64 544 -64 
C 838 -64 1050 115 1453 711 
L 1370 756 
C 1056 352 954 249 851 249 
C 794 249 755 300 755 377 
C 755 384 755 390 762 410 
L 1325 2547 
L 1862 2547 
L 1894 2752 
z
" transform="scale(0.015625)"/>
       <path id="NimbusRomNo9L-ReguItal-6d" d="M 4410 742 
C 4346 665 4294 601 4275 575 
C 4096 345 3962 236 3866 236 
C 3814 236 3782 275 3782 339 
C 3782 371 3808 473 3846 627 
L 4282 2233 
C 4288 2259 4301 2374 4301 2412 
C 4301 2643 4141 2816 3923 2816 
C 3802 2816 3674 2771 3520 2675 
C 3206 2470 2944 2163 2502 1459 
C 2662 1945 2758 2310 2758 2431 
C 2758 2655 2611 2816 2394 2816 
C 2003 2816 1555 2393 966 1465 
L 1338 2803 
L 1318 2816 
C 960 2739 826 2713 294 2617 
L 294 2515 
L 454 2515 
C 621 2515 704 2470 704 2374 
C 704 2303 557 1721 326 908 
C 179 384 160 320 77 -7 
L 557 -7 
C 864 1011 960 1247 1178 1580 
C 1536 2124 1920 2483 2138 2483 
C 2221 2483 2266 2425 2266 2323 
C 2266 2265 2061 1491 1658 -7 
L 2138 -7 
C 2394 991 2522 1311 2848 1766 
C 3162 2201 3482 2483 3667 2483 
C 3738 2483 3795 2419 3795 2348 
C 3795 2316 3782 2239 3750 2124 
L 3379 652 
C 3322 416 3296 294 3296 230 
C 3296 38 3386 -64 3552 -64 
C 3853 -64 4134 147 4474 620 
L 4506 665 
L 4410 742 
z
" transform="scale(0.015625)"/>
       <path id="NimbusRomNo9L-Regu-2c" d="M 531 -890 
C 960 -679 1248 -289 1248 96 
C 1248 416 1024 665 736 665 
C 512 665 358 518 358 300 
C 358 57 506 -64 736 -64 
C 774 -64 819 -58 858 -52 
C 902 0 902 0 909 0 
C 960 0 998 -39 998 -90 
C 998 -295 819 -532 474 -769 
L 531 -890 
z
" transform="scale(0.015625)"/>
       <path id="NimbusRomNo9L-Regu-28" d="M 1888 4352 
C 1414 4044 1222 3878 986 3583 
C 531 3027 307 2387 307 1638 
C 307 825 544 198 1107 -455 
C 1370 -762 1536 -903 1869 -1108 
L 1946 -1006 
C 1434 -602 1254 -378 1082 102 
C 928 530 858 1017 858 1657 
C 858 2329 941 2854 1114 3251 
C 1293 3647 1485 3878 1946 4249 
L 1888 4352 
z
" transform="scale(0.015625)"/>
       <path id="NimbusRomNo9L-Regu-73" d="M 2016 2009 
L 1990 2880 
L 1920 2880 
L 1907 2867 
C 1850 2822 1843 2815 1818 2815 
C 1779 2815 1715 2828 1645 2860 
C 1504 2918 1363 2944 1197 2944 
C 691 2944 326 2617 326 2155 
C 326 1796 531 1539 1075 1231 
L 1446 1019 
C 1670 891 1779 737 1779 538 
C 1779 256 1574 76 1248 76 
C 1030 76 832 160 710 301 
C 576 461 518 609 435 974 
L 333 974 
L 333 -26 
L 416 -26 
C 461 38 486 51 563 51 
C 621 51 710 38 858 0 
C 1037 -39 1210 -64 1325 -64 
C 1818 -64 2227 307 2227 756 
C 2227 1077 2074 1289 1690 1520 
L 998 1930 
C 819 2033 723 2193 723 2366 
C 723 2623 922 2803 1216 2803 
C 1581 2803 1773 2585 1920 2014 
L 2016 2009 
z
" transform="scale(0.015625)"/>
       <path id="NimbusRomNo9L-Regu-29" d="M 243 -1108 
C 717 -801 909 -634 1146 -340 
C 1600 217 1824 857 1824 1606 
C 1824 2425 1587 3046 1024 3699 
C 762 4006 595 4147 262 4352 
L 186 4249 
C 698 3846 870 3622 1050 3142 
C 1203 2713 1274 2227 1274 1587 
C 1274 921 1190 390 1018 -1 
C 838 -404 646 -634 186 -1006 
L 243 -1108 
z
" transform="scale(0.015625)"/>
      </defs>
      <use xlink:href="#NimbusRomNo9L-ReguItal-74" transform="scale(0.996264)"/>
      <use xlink:href="#NimbusRomNo9L-ReguItal-6d" transform="translate(27.695078 -14.943915) scale(0.737241)"/>
      <use xlink:href="#NimbusRomNo9L-Regu-2c" transform="translate(81.421795 0) scale(0.996264)"/>
      <use xlink:href="#NimbusRomNo9L-Regu-28" transform="translate(131.234996 0) scale(0.996264)"/>
      <use xlink:href="#NimbusRomNo9L-Regu-73" transform="translate(164.410226 0) scale(0.996264)"/>
      <use xlink:href="#NimbusRomNo9L-Regu-29" transform="translate(203.163932 0) scale(0.996264)"/>
     </g>
    </g>
   </g>
   <g id="matplotlib.axis_2">
    <g id="ytick_1">
     <g id="line2d_17">
      <path d="M 55.231618 248.337611 
L 445.831618 248.337611 
" clip-path="url(#pccba9d9c15)" style="fill: none; stroke-dasharray: 2.22,0.96; stroke-dashoffset: 0; stroke: #d3d3d3; stroke-width: 0.6"/>
     </g>
     <g id="line2d_18">
      <defs>
       <path id="m6ead5ffc89" d="M 0 0 
L -3.5 0 
" style="stroke: #000000; stroke-width: 0.8"/>
      </defs>
      <g>
       <use xlink:href="#m6ead5ffc89" x="55.231618" y="248.337611" style="stroke: #000000; stroke-width: 0.8"/>
      </g>
     </g>
     <g id="text_10">
      <!-- $\mathdefault{−1.0}$ -->
      <g transform="translate(23.675966 252.390353) scale(0.12 -0.12)">
       <defs>
        <path id="CMSY10-0" d="M 4218 1472 
C 4326 1472 4442 1472 4442 1600 
C 4442 1728 4326 1728 4218 1728 
L 755 1728 
C 646 1728 531 1728 531 1600 
C 531 1472 646 1472 755 1472 
L 4218 1472 
z
" transform="scale(0.015625)"/>
        <path id="CMMI10-3a" d="M 1229 339 
C 1229 524 1075 678 890 678 
C 704 678 550 524 550 339 
C 550 153 704 0 890 0 
C 1075 0 1229 153 1229 339 
z
" transform="scale(0.015625)"/>
       </defs>
       <use xlink:href="#CMSY10-0" transform="scale(0.996264)"/>
       <use xlink:href="#NimbusRomNo9L-Regu-31" transform="translate(77.408707 0) scale(0.996264)"/>
       <use xlink:href="#CMMI10-3a" transform="translate(127.221908 0) scale(0.996264)"/>
       <use xlink:href="#NimbusRomNo9L-Regu-30" transform="translate(154.817414 0) scale(0.996264)"/>
      </g>
     </g>
    </g>
    <g id="ytick_2">
     <g id="line2d_19">
      <path d="M 55.231618 205.117616 
L 445.831618 205.117616 
" clip-path="url(#pccba9d9c15)" style="fill: none; stroke-dasharray: 2.22,0.96; stroke-dashoffset: 0; stroke: #d3d3d3; stroke-width: 0.6"/>
     </g>
     <g id="line2d_20">
      <g>
       <use xlink:href="#m6ead5ffc89" x="55.231618" y="205.117616" style="stroke: #000000; stroke-width: 0.8"/>
      </g>
     </g>
     <g id="text_11">
      <!-- $\mathdefault{−0.5}$ -->
      <g transform="translate(23.675966 209.170358) scale(0.12 -0.12)">
       <defs>
        <path id="NimbusRomNo9L-Regu-35" d="M 1158 3718 
L 2413 3718 
C 2515 3718 2541 3731 2560 3775 
L 2803 4345 
L 2746 4390 
C 2650 4256 2586 4224 2451 4224 
L 1114 4224 
L 416 2717 
C 410 2705 410 2698 410 2686 
C 410 2654 435 2635 486 2635 
C 691 2635 947 2591 1210 2508 
C 1946 2274 2285 1882 2285 1255 
C 2285 647 1894 172 1395 172 
C 1267 172 1158 217 966 356 
C 762 502 614 565 480 565 
C 294 565 205 489 205 331 
C 205 89 506 -64 986 -64 
C 1523 -64 1984 108 2304 432 
C 2598 717 2733 1078 2733 1559 
C 2733 2015 2611 2306 2291 2622 
C 2010 2901 1645 3047 890 3180 
L 1158 3718 
z
" transform="scale(0.015625)"/>
       </defs>
       <use xlink:href="#CMSY10-0" transform="scale(0.996264)"/>
       <use xlink:href="#NimbusRomNo9L-Regu-30" transform="translate(77.408707 0) scale(0.996264)"/>
       <use xlink:href="#CMMI10-3a" transform="translate(127.221908 0) scale(0.996264)"/>
       <use xlink:href="#NimbusRomNo9L-Regu-35" transform="translate(154.817414 0) scale(0.996264)"/>
      </g>
     </g>
    </g>
    <g id="ytick_3">
     <g id="line2d_21">
      <path d="M 55.231618 161.897622 
L 445.831618 161.897622 
" clip-path="url(#pccba9d9c15)" style="fill: none; stroke-dasharray: 2.22,0.96; stroke-dashoffset: 0; stroke: #d3d3d3; stroke-width: 0.6"/>
     </g>
     <g id="line2d_22">
      <g>
       <use xlink:href="#m6ead5ffc89" x="55.231618" y="161.897622" style="stroke: #000000; stroke-width: 0.8"/>
      </g>
     </g>
     <g id="text_12">
      <!-- $\mathdefault{0.0}$ -->
      <g transform="translate(32.965 165.950364) scale(0.12 -0.12)">
       <use xlink:href="#NimbusRomNo9L-Regu-30" transform="scale(0.996264)"/>
       <use xlink:href="#CMMI10-3a" transform="translate(49.8132 0) scale(0.996264)"/>
       <use xlink:href="#NimbusRomNo9L-Regu-30" transform="translate(77.408707 0) scale(0.996264)"/>
      </g>
     </g>
    </g>
    <g id="ytick_4">
     <g id="line2d_23">
      <path d="M 55.231618 118.677627 
L 445.831618 118.677627 
" clip-path="url(#pccba9d9c15)" style="fill: none; stroke-dasharray: 2.22,0.96; stroke-dashoffset: 0; stroke: #d3d3d3; stroke-width: 0.6"/>
     </g>
     <g id="line2d_24">
      <g>
       <use xlink:href="#m6ead5ffc89" x="55.231618" y="118.677627" style="stroke: #000000; stroke-width: 0.8"/>
      </g>
     </g>
     <g id="text_13">
      <!-- $\mathdefault{0.5}$ -->
      <g transform="translate(32.965 122.730369) scale(0.12 -0.12)">
       <use xlink:href="#NimbusRomNo9L-Regu-30" transform="scale(0.996264)"/>
       <use xlink:href="#CMMI10-3a" transform="translate(49.8132 0) scale(0.996264)"/>
       <use xlink:href="#NimbusRomNo9L-Regu-35" transform="translate(77.408707 0) scale(0.996264)"/>
      </g>
     </g>
    </g>
    <g id="ytick_5">
     <g id="line2d_25">
      <path d="M 55.231618 75.457632 
L 445.831618 75.457632 
" clip-path="url(#pccba9d9c15)" style="fill: none; stroke-dasharray: 2.22,0.96; stroke-dashoffset: 0; stroke: #d3d3d3; stroke-width: 0.6"/>
     </g>
     <g id="line2d_26">
      <g>
       <use xlink:href="#m6ead5ffc89" x="55.231618" y="75.457632" style="stroke: #000000; stroke-width: 0.8"/>
      </g>
     </g>
     <g id="text_14">
      <!-- $\mathdefault{1.0}$ -->
      <g transform="translate(32.965 79.510374) scale(0.12 -0.12)">
       <use xlink:href="#NimbusRomNo9L-Regu-31" transform="scale(0.996264)"/>
       <use xlink:href="#CMMI10-3a" transform="translate(49.8132 0) scale(0.996264)"/>
       <use xlink:href="#NimbusRomNo9L-Regu-30" transform="translate(77.408707 0) scale(0.996264)"/>
      </g>
     </g>
    </g>
    <g id="ytick_6">
     <g id="line2d_27">
      <path d="M 55.231618 32.237637 
L 445.831618 32.237637 
" clip-path="url(#pccba9d9c15)" style="fill: none; stroke-dasharray: 2.22,0.96; stroke-dashoffset: 0; stroke: #d3d3d3; stroke-width: 0.6"/>
     </g>
     <g id="line2d_28">
      <g>
       <use xlink:href="#m6ead5ffc89" x="55.231618" y="32.237637" style="stroke: #000000; stroke-width: 0.8"/>
      </g>
     </g>
     <g id="text_15">
      <!-- $\mathdefault{1.5}$ -->
      <g transform="translate(32.965 36.290379) scale(0.12 -0.12)">
       <use xlink:href="#NimbusRomNo9L-Regu-31" transform="scale(0.996264)"/>
       <use xlink:href="#CMMI10-3a" transform="translate(49.8132 0) scale(0.996264)"/>
       <use xlink:href="#NimbusRomNo9L-Regu-35" transform="translate(77.408707 0) scale(0.996264)"/>
      </g>
     </g>
    </g>
    <g id="text_16">
     <!-- y(t) -->
     <g transform="translate(16.656406 155.870109) rotate(-90) scale(0.14 -0.14)">
      <defs>
       <path id="NimbusRomNo9L-Regu-79" d="M 3040 2880 
L 2176 2880 
L 2176 2783 
C 2381 2783 2483 2726 2483 2623 
C 2483 2597 2477 2559 2458 2514 
L 1837 741 
L 1101 2366 
C 1062 2456 1037 2540 1037 2610 
C 1037 2726 1133 2771 1408 2783 
L 1408 2880 
L 90 2880 
L 90 2790 
C 256 2764 365 2694 416 2585 
L 1146 1005 
L 1165 953 
L 1261 761 
C 1440 439 1542 208 1542 112 
C 1542 15 1395 -389 1286 -582 
C 1197 -749 1056 -871 966 -871 
C 928 -871 870 -858 806 -826 
C 685 -781 576 -755 467 -755 
C 320 -755 192 -884 192 -1037 
C 192 -1248 397 -1408 666 -1408 
C 1094 -1408 1402 -1050 1747 -126 
L 2733 2495 
C 2816 2700 2886 2764 3040 2783 
L 3040 2880 
z
" transform="scale(0.015625)"/>
       <path id="NimbusRomNo9L-Regu-74" d="M 1632 2880 
L 986 2880 
L 986 3622 
C 986 3686 979 3705 941 3705 
C 896 3648 858 3590 813 3526 
C 570 3174 294 2867 192 2841 
C 122 2796 83 2751 83 2719 
C 83 2700 90 2687 109 2675 
L 448 2675 
L 448 748 
C 448 211 640 -64 1018 -64 
C 1331 -64 1574 89 1786 422 
L 1702 492 
C 1568 332 1459 268 1318 268 
C 1082 268 986 441 986 844 
L 986 2675 
L 1632 2675 
L 1632 2880 
z
" transform="scale(0.015625)"/>
      </defs>
      <use xlink:href="#NimbusRomNo9L-Regu-79" transform="scale(0.996264)"/>
      <use xlink:href="#NimbusRomNo9L-Regu-28" transform="translate(49.8132 0) scale(0.996264)"/>
      <use xlink:href="#NimbusRomNo9L-Regu-74" transform="translate(82.98843 0) scale(0.996264)"/>
      <use xlink:href="#NimbusRomNo9L-Regu-29" transform="translate(110.6836 0) scale(0.996264)"/>
     </g>
    </g>
   </g>
   <g id="line2d_29">
    <path d="M 72.986163 161.897622 
L 75.357388 81.597694 
L 76.543 51.656738 
L 77.135807 40.154576 
L 77.728613 31.089189 
L 78.321419 24.594399 
L 78.914225 20.801324 
L 79.507031 19.8 
L 80.099838 21.6119 
L 80.692644 26.176577 
L 81.28545 33.350356 
L 81.878256 42.913453 
L 83.063869 68.023179 
L 84.842287 115.221991 
L 87.213512 179.973146 
L 88.399124 207.164014 
L 89.584737 228.413149 
L 90.177543 236.475047 
L 90.770349 242.740976 
L 91.363155 247.199806 
L 91.955961 249.881011 
L 92.548768 250.851291 
L 93.141574 250.210588 
L 93.73438 248.087638 
L 94.327186 244.635166 
L 94.919992 240.024871 
L 96.105605 228.081865 
L 97.884023 206.306474 
L 99.662442 184.390032 
L 100.848054 171.790213 
L 102.033667 161.832937 
L 102.626473 158.014988 
L 103.219279 155.017518 
L 103.812085 152.849142 
L 104.404892 151.498749 
L 104.997698 150.937103 
L 105.590504 151.118741 
L 106.18331 151.984122 
L 106.776116 153.461945 
L 107.368922 155.471581 
L 108.554535 160.732044 
L 110.332953 170.332215 
L 112.111372 179.856589 
L 113.296984 185.177008 
L 114.482597 189.18978 
L 115.075403 190.627687 
L 115.668209 191.666054 
L 116.261015 192.302159 
L 116.853822 192.542748 
L 117.446628 192.403254 
L 118.039434 191.906867 
L 118.63224 191.083489 
L 119.225046 189.968605 
L 120.410659 187.027045 
L 122.189077 181.504357 
L 124.560302 173.920724 
L 125.745914 170.70837 
L 126.931527 168.159944 
L 128.117139 166.383287 
L 128.709945 165.795809 
L 129.302752 165.405464 
L 129.895558 165.20432 
L 130.488364 165.180702 
L 131.08117 165.319699 
L 131.673976 165.603728 
L 132.859589 166.526631 
L 134.638007 168.469702 
L 137.009232 171.198649 
L 138.194844 172.294924 
L 139.380457 173.078346 
L 140.566069 173.497492 
L 141.751682 173.54028 
L 142.937294 173.229968 
L 144.122906 172.618551 
L 145.901325 171.298733 
L 150.643775 167.389674 
L 151.829387 166.692585 
L 153.014999 166.183657 
L 154.200612 165.867727 
L 155.386224 165.732509 
L 157.164643 165.80851 
L 159.535867 166.228299 
L 163.092705 166.887817 
L 164.871123 167.012084 
L 166.649542 166.94214 
L 169.020766 166.574767 
L 172.577604 165.696827 
L 176.134441 164.880738 
L 178.505666 164.539753 
L 181.469696 164.363913 
L 186.212146 164.389061 
L 190.954596 164.316407 
L 195.697045 163.97435 
L 203.403526 163.39817 
L 209.331588 163.234445 
L 220.594905 162.948556 
L 232.451029 162.633207 
L 268.612207 162.193005 
L 305.366191 162.009899 
L 377.09574 161.915007 
L 428.077072 161.902233 
L 428.077072 161.902233 
" clip-path="url(#pccba9d9c15)" style="fill: none; stroke: #fde725; stroke-width: 1.5; stroke-linecap: square"/>
   </g>
   <g id="line2d_30">
    <path d="M 72.986163 161.897622 
L 75.357388 81.597631 
L 76.543 51.658132 
L 77.135807 40.153928 
L 77.728613 31.090779 
L 78.321419 24.602014 
L 78.914225 20.823452 
L 79.507031 19.850198 
L 80.099838 21.708215 
L 80.692644 26.353822 
L 81.28545 33.648124 
L 81.878256 43.393037 
L 83.063869 69.025348 
L 84.249481 100.537262 
L 87.806318 199.845935 
L 88.991931 225.753677 
L 90.177543 245.118211 
L 90.770349 252.09325 
L 91.363155 257.21952 
L 91.955961 260.516012 
L 92.548768 262.030326 
L 93.141574 261.859874 
L 93.73438 260.121722 
L 94.327186 256.961861 
L 94.919992 252.535502 
L 96.105605 240.649007 
L 97.884023 218.1285 
L 100.255248 187.258911 
L 101.440861 174.287821 
L 102.626473 164.109428 
L 103.219279 160.218927 
L 103.812085 157.167721 
L 104.404892 154.956469 
L 104.997698 153.571666 
L 105.590504 152.980946 
L 106.18331 153.135216 
L 106.776116 153.973862 
L 107.368922 155.426005 
L 107.961729 157.409938 
L 109.147341 162.616056 
L 110.92576 172.152886 
L 112.704178 181.65962 
L 113.889791 187.00391 
L 115.075403 191.069669 
L 115.668209 192.54302 
L 116.261015 193.619749 
L 116.853822 194.298408 
L 117.446628 194.581447 
L 118.039434 194.482659 
L 118.63224 194.02559 
L 119.225046 193.236161 
L 119.817853 192.147158 
L 121.003465 189.229706 
L 122.189077 185.608946 
L 125.745914 174.003408 
L 126.931527 170.868051 
L 128.117139 168.43362 
L 129.302752 166.784143 
L 129.895558 166.2601 
L 130.488364 165.930882 
L 131.08117 165.784384 
L 131.673976 165.81138 
L 132.266783 165.994739 
L 133.452395 166.755848 
L 134.638007 167.905308 
L 138.787651 172.55066 
L 139.973263 173.473439 
L 141.158875 174.051815 
L 142.344488 174.25636 
L 143.5301 174.093706 
L 144.715713 173.602582 
L 145.901325 172.844887 
L 147.679744 171.378068 
L 151.236581 168.273693 
L 153.014999 167.089073 
L 154.200612 166.526368 
L 155.386224 166.157183 
L 156.571836 165.972676 
L 158.350255 165.987033 
L 160.72148 166.360471 
L 164.871123 167.106001 
L 166.649542 167.203146 
L 168.42796 167.107673 
L 170.799185 166.712615 
L 174.356022 165.804977 
L 177.912859 164.962665 
L 180.284084 164.602858 
L 183.248115 164.405232 
L 187.990565 164.413641 
L 192.733014 164.349885 
L 197.475464 164.016057 
L 205.77475 163.379057 
L 211.702812 163.211297 
L 223.558936 162.90811 
L 235.41506 162.598303 
L 272.169044 162.168037 
L 310.10864 161.994472 
L 385.987833 161.910373 
L 428.077072 161.901759 
L 428.077072 161.901759 
" clip-path="url(#pccba9d9c15)" style="fill: none; stroke: #5ec962; stroke-width: 1.5; stroke-linecap: square"/>
   </g>
   <g id="line2d_31">
    <path d="M 72.986163 161.897622 
L 75.357388 81.59768 
L 76.543 51.657296 
L 77.135807 40.154578 
L 77.728613 31.090275 
L 78.321419 24.599135 
L 78.914225 20.816287 
L 79.507031 19.834559 
L 80.099838 21.685446 
L 80.692644 26.304361 
L 81.28545 33.569889 
L 81.878256 43.259506 
L 83.063869 68.788328 
L 84.249481 100.182753 
L 87.806318 200.137124 
L 88.991931 227.051524 
L 90.177543 248.025912 
L 90.770349 256.054747 
L 91.363155 262.404276 
L 91.955961 267.094716 
L 92.548768 270.165116 
L 93.141574 271.699172 
L 93.73438 271.8 
L 94.327186 270.594566 
L 94.919992 268.209075 
L 95.512799 264.814385 
L 96.698411 255.608687 
L 98.47683 238.16314 
L 100.848054 214.07199 
L 102.033667 203.608017 
L 103.219279 194.908902 
L 104.404892 188.202821 
L 105.590504 183.515117 
L 106.18331 181.885821 
L 106.776116 180.69789 
L 107.368922 179.909631 
L 107.961729 179.479787 
L 108.554535 179.365127 
L 109.147341 179.516278 
L 109.740147 179.884992 
L 110.92576 181.086695 
L 114.482597 185.412324 
L 115.668209 186.261176 
L 116.261015 186.487768 
L 116.853822 186.572081 
L 117.446628 186.511638 
L 118.039434 186.306566 
L 118.63224 185.961317 
L 119.817853 184.882847 
L 121.003465 183.362694 
L 122.781883 180.507022 
L 126.931527 173.382483 
L 128.117139 171.72451 
L 129.302752 170.371563 
L 130.488364 169.358139 
L 131.673976 168.69375 
L 132.859589 168.36475 
L 134.045201 168.339647 
L 135.230814 168.572158 
L 136.416426 169.00599 
L 138.194844 169.900739 
L 142.344488 172.116203 
L 144.122906 172.756267 
L 145.901325 173.087129 
L 147.679744 173.092074 
L 149.458162 172.796633 
L 151.236581 172.256794 
L 153.607805 171.283244 
L 160.72148 168.159283 
L 163.685511 167.214853 
L 166.649542 166.530824 
L 170.206379 165.962255 
L 175.541635 165.374162 
L 183.248115 164.758222 
L 190.954596 164.3734 
L 205.181944 163.712997 
L 220.002099 162.959414 
L 231.265417 162.668445 
L 257.941695 162.281483 
L 285.803586 162.067492 
L 339.74895 161.934758 
L 428.077072 161.900667 
L 428.077072 161.900667 
" clip-path="url(#pccba9d9c15)" style="fill: none; stroke: #21918c; stroke-width: 1.5; stroke-linecap: square"/>
   </g>
   <g id="line2d_32">
    <path d="M 72.986163 161.897622 
L 75.357388 81.597615 
L 76.543 51.657689 
L 77.135807 40.153678 
L 77.728613 31.089001 
L 78.321419 24.599245 
L 78.914225 20.817141 
L 79.507031 19.828888 
L 80.099838 21.674079 
L 80.692644 26.283829 
L 81.28545 33.534192 
L 81.878256 43.201297 
L 83.063869 68.651178 
L 84.249481 99.909646 
L 87.806318 199.114194 
L 88.991931 225.752434 
L 90.177543 246.531548 
L 90.770349 254.515342 
L 91.363155 260.876569 
L 91.955961 265.634685 
L 92.548768 268.8425 
L 93.141574 270.591346 
L 93.73438 270.990555 
L 94.327186 270.163988 
L 94.919992 268.255568 
L 95.512799 265.421673 
L 96.698411 257.59646 
L 98.47683 242.813377 
L 100.848054 223.118344 
L 102.033667 215.082704 
L 103.219279 208.873356 
L 103.812085 206.510988 
L 104.404892 204.646299 
L 104.997698 203.268332 
L 105.590504 202.351448 
L 106.18331 201.863956 
L 106.776116 201.767386 
L 107.368922 202.014193 
L 107.961729 202.556513 
L 108.554535 203.342352 
L 109.740147 205.430509 
L 112.704178 211.371646 
L 113.889791 213.190177 
L 114.482597 213.868342 
L 115.075403 214.370016 
L 115.668209 214.687374 
L 116.261015 214.816297 
L 116.853822 214.756502 
L 117.446628 214.513353 
L 118.039434 214.096185 
L 119.225046 212.786794 
L 120.410659 210.952669 
L 122.189077 207.541758 
L 126.338721 199.041265 
L 128.117139 196.036955 
L 129.302752 194.377461 
L 130.488364 192.994313 
L 131.673976 191.864323 
L 133.452395 190.552632 
L 135.230814 189.547671 
L 140.566069 186.771069 
L 142.937294 185.170656 
L 145.308519 183.299889 
L 150.050968 179.163867 
L 158.350255 171.740135 
L 160.72148 169.277037 
L 163.092705 166.470903 
L 165.463929 163.291063 
L 168.42796 158.893152 
L 173.763216 150.807969 
L 176.134441 147.672955 
L 177.912859 145.671147 
L 179.691278 144.021521 
L 181.469696 142.745063 
L 183.248115 141.841042 
L 185.026534 141.292181 
L 186.804952 141.071761 
L 188.583371 141.149627 
L 190.361789 141.497995 
L 192.140208 142.093931 
L 193.918627 142.92062 
L 195.697045 143.965575 
L 197.475464 145.217286 
L 199.846688 147.185266 
L 202.217913 149.4528 
L 205.181944 152.604965 
L 215.259649 163.712416 
L 218.22368 166.502786 
L 221.187711 168.942269 
L 223.558936 170.639775 
L 226.522967 172.455734 
L 228.894192 173.677107 
L 231.265417 174.700377 
L 234.229448 175.705936 
L 236.600672 176.295963 
L 238.971897 176.696945 
L 241.343122 176.913354 
L 243.714347 176.951254 
L 246.678378 176.75538 
L 249.642409 176.302107 
L 252.60644 175.600309 
L 255.570471 174.654698 
L 258.534501 173.468547 
L 261.498532 172.045428 
L 264.462563 170.395558 
L 268.019401 168.145363 
L 272.169044 165.222443 
L 286.396393 154.857032 
L 289.360423 153.103641 
L 292.324454 151.633735 
L 294.695679 150.694166 
L 297.066904 149.982234 
L 299.438129 149.508225 
L 301.809354 149.276022 
L 304.180578 149.282312 
L 306.551803 149.518195 
L 308.923028 149.970423 
L 311.294253 150.621127 
L 314.258284 151.681188 
L 317.222314 152.973511 
L 320.779152 154.761751 
L 325.521601 157.408476 
L 337.377725 164.167139 
L 341.527368 166.234265 
L 345.084206 167.777526 
L 348.641043 169.069676 
L 351.605074 169.932862 
L 354.569105 170.586216 
L 357.533136 171.021943 
L 360.497167 171.233329 
L 363.461197 171.219032 
L 366.425228 170.982091 
L 369.389259 170.529744 
L 372.35329 169.874163 
L 375.910128 168.844579 
L 379.466965 167.586911 
L 384.209414 165.639936 
L 391.915895 162.147728 
L 398.436763 159.282536 
L 402.586406 157.682575 
L 406.143243 156.522108 
L 409.70008 155.597661 
L 413.256918 154.937165 
L 416.220949 154.60001 
L 419.18498 154.460156 
L 422.149011 154.514572 
L 425.705848 154.825541 
L 428.077072 155.171748 
L 428.077072 155.171748 
" clip-path="url(#pccba9d9c15)" style="fill: none; stroke: #3b528b; stroke-width: 1.5; stroke-linecap: square"/>
   </g>
   <g id="line2d_33">
    <path d="M 72.986163 161.897622 
L 75.357388 81.597616 
L 76.543 51.657768 
L 77.135807 40.153465 
L 77.728613 31.089063 
L 78.321419 24.598908 
L 78.914225 20.815541 
L 79.507031 19.827312 
L 80.099838 21.669566 
L 80.692644 26.280154 
L 81.28545 33.525255 
L 81.878256 43.188476 
L 83.063869 68.619053 
L 84.249481 99.84337 
L 87.806318 198.825955 
L 88.991931 225.358359 
L 90.177543 246.034626 
L 90.770349 253.979191 
L 91.363155 260.303984 
L 91.955961 265.040999 
L 92.548768 268.237195 
L 93.141574 269.998308 
L 93.73438 270.429553 
L 94.327186 269.655896 
L 94.919992 267.83208 
L 95.512799 265.107617 
L 96.698411 257.592327 
L 98.47683 243.501504 
L 100.255248 229.325826 
L 101.440861 221.22805 
L 102.626473 214.822833 
L 103.219279 212.339289 
L 103.812085 210.348318 
L 104.404892 208.846407 
L 104.997698 207.814318 
L 105.590504 207.223879 
L 106.18331 207.03997 
L 106.776116 207.218433 
L 107.368922 207.710134 
L 107.961729 208.463656 
L 109.147341 210.541162 
L 112.704178 217.667855 
L 113.889791 219.256083 
L 114.482597 219.782977 
L 115.075403 220.113237 
L 115.668209 220.24427 
L 116.261015 220.174056 
L 116.853822 219.905704 
L 117.446628 219.449984 
L 118.63224 218.021861 
L 119.817853 216.017918 
L 121.596271 212.27609 
L 126.338721 201.642925 
L 128.117139 198.459941 
L 129.302752 196.708167 
L 130.488364 195.239954 
L 131.673976 194.020275 
L 133.452395 192.551238 
L 135.82362 190.970254 
L 139.380457 188.632659 
L 141.751682 186.787052 
L 144.715713 184.144264 
L 150.050968 179.248913 
L 152.422193 177.347724 
L 154.793418 175.702961 
L 157.164643 174.295974 
L 160.128674 172.7874 
L 164.278317 170.93674 
L 170.206379 168.542101 
L 174.356022 167.070597 
L 178.505666 165.843011 
L 182.655309 164.860109 
L 187.397758 163.968148 
L 193.32582 163.087868 
L 199.846688 162.356732 
L 206.367557 161.849154 
L 214.666843 161.441154 
L 225.337355 161.145278 
L 242.528734 160.923165 
L 263.869757 160.607367 
L 273.354656 160.254597 
L 280.468331 159.770928 
L 286.396393 159.143772 
L 291.731648 158.35661 
L 297.066904 157.334704 
L 302.40216 156.088073 
L 309.515834 154.173789 
L 319.000733 151.615336 
L 323.743183 150.585557 
L 327.30002 150.023264 
L 330.856857 149.691952 
L 333.820888 149.620209 
L 336.784919 149.749446 
L 339.74895 150.090372 
L 342.712981 150.644809 
L 345.677012 151.407326 
L 349.233849 152.579993 
L 352.790686 154.002219 
L 356.940329 155.918212 
L 362.275585 158.658021 
L 375.317321 165.519365 
L 380.059771 167.695735 
L 384.209414 169.342358 
L 387.766251 170.531665 
L 391.323089 171.501274 
L 394.879926 172.246254 
L 398.436763 172.76934 
L 401.9936 173.079959 
L 405.550437 173.191488 
L 409.70008 173.095724 
L 413.849724 172.788313 
L 418.592173 172.223584 
L 424.520235 171.279525 
L 428.077072 170.624529 
L 428.077072 170.624529 
" clip-path="url(#pccba9d9c15)" style="fill: none; stroke: #440154; stroke-width: 1.5; stroke-linecap: square"/>
   </g>
   <g id="patch_3">
    <path d="M 55.231618 284.4 
L 55.231618 7.2 
" style="fill: none; stroke: #000000; stroke-width: 0.8; stroke-linejoin: miter; stroke-linecap: square"/>
   </g>
   <g id="patch_4">
    <path d="M 445.831618 284.4 
L 445.831618 7.2 
" style="fill: none; stroke: #000000; stroke-width: 0.8; stroke-linejoin: miter; stroke-linecap: square"/>
   </g>
   <g id="patch_5">
    <path d="M 55.231618 284.4 
L 445.831618 284.4 
" style="fill: none; stroke: #000000; stroke-width: 0.8; stroke-linejoin: miter; stroke-linecap: square"/>
   </g>
   <g id="patch_6">
    <path d="M 55.231618 7.2 
L 445.831618 7.2 
" style="fill: none; stroke: #000000; stroke-width: 0.8; stroke-linejoin: miter; stroke-linecap: square"/>
   </g>
   <g id="legend_1">
    <g id="patch_7">
     <path d="M 348.299728 101.740973 
L 437.431618 101.740973 
Q 439.831618 101.740973 439.831618 99.340973 
L 439.831618 15.6 
Q 439.831618 13.2 437.431618 13.2 
L 348.299728 13.2 
Q 345.899728 13.2 345.899728 15.6 
L 345.899728 99.340973 
Q 345.899728 101.740973 348.299728 101.740973 
z
" style="fill: #ffffff; opacity: 0.8; stroke: #cccccc; stroke-linejoin: miter"/>
    </g>
    <g id="line2d_34">
     <path d="M 350.699728 22.2 
L 362.699728 22.2 
L 374.699728 22.2 
" style="fill: none; stroke: #fde725; stroke-width: 1.5; stroke-linecap: square"/>
    </g>
    <g id="text_17">
     <!-- $\tau = 1 \, s$ -->
     <g transform="translate(384.299728 26.4) scale(0.12 -0.12)">
      <defs>
       <path id="StandardSymL-74" d="M 230 1983 
C 301 2173 384 2331 480 2452 
C 570 2560 653 2591 826 2591 
L 1293 2591 
C 1197 1894 1158 1419 1158 1025 
C 1158 345 1395 -64 1792 -64 
C 2048 -64 2304 121 2406 384 
C 2483 569 2509 747 2522 1045 
L 2362 1045 
C 2310 683 2221 556 2022 556 
C 1741 556 1523 823 1523 1165 
C 1523 1266 1536 1463 1555 1685 
C 1562 1748 1574 1938 1587 2141 
C 1606 2382 1606 2446 1626 2591 
L 2675 2591 
L 2675 3200 
L 1222 3200 
C 890 3200 691 3116 486 2892 
C 282 2668 173 2427 64 1983 
L 230 1983 
z
" transform="scale(0.015625)"/>
       <path id="CMR10-3d" d="M 4397 2111 
C 4493 2111 4614 2111 4614 2239 
C 4614 2368 4493 2368 4403 2368 
L 570 2368 
C 480 2368 358 2368 358 2239 
C 358 2111 480 2111 576 2111 
L 4397 2111 
z
M 4403 832 
C 4493 832 4614 832 4614 960 
C 4614 1088 4493 1088 4397 1088 
L 576 1088 
C 480 1088 358 1088 358 960 
C 358 832 480 832 570 832 
L 4403 832 
z
" transform="scale(0.015625)"/>
       <path id="NimbusRomNo9L-ReguItal-73" d="M 230 953 
L 102 -64 
L 205 -64 
C 256 38 294 70 358 70 
C 429 70 544 44 672 12 
C 813 -45 922 -64 1024 -64 
C 1562 -64 1946 280 1946 764 
C 1946 1006 1811 1286 1510 1656 
C 1267 1955 1165 2152 1165 2324 
C 1165 2534 1299 2668 1523 2668 
C 1856 2668 2048 2432 2112 1936 
L 2214 1936 
L 2342 2816 
L 2253 2816 
C 2202 2726 2150 2700 2061 2700 
C 2016 2700 1952 2713 1830 2745 
C 1670 2803 1574 2816 1472 2816 
C 1005 2816 698 2541 698 2114 
C 698 1910 832 1636 1101 1293 
C 1350 968 1459 745 1459 560 
C 1459 274 1267 70 986 70 
C 634 70 435 331 333 936 
L 230 953 
z
" transform="scale(0.015625)"/>
      </defs>
      <use xlink:href="#StandardSymL-74" transform="scale(0.996264)"/>
      <use xlink:href="#CMR10-3d" transform="translate(74.142726 0) scale(0.996264)"/>
      <use xlink:href="#NimbusRomNo9L-Regu-31" transform="translate(173.690579 0) scale(0.996264)"/>
      <use xlink:href="#NimbusRomNo9L-ReguItal-73" transform="translate(234.573353 0) scale(0.996264)"/>
     </g>
    </g>
    <g id="line2d_35">
     <path d="M 350.699728 39.188195 
L 362.699728 39.188195 
L 374.699728 39.188195 
" style="fill: none; stroke: #5ec962; stroke-width: 1.5; stroke-linecap: square"/>
    </g>
    <g id="text_18">
     <!-- $\tau = 20 \, s$ -->
     <g transform="translate(384.299728 43.388195) scale(0.12 -0.12)">
      <use xlink:href="#StandardSymL-74" transform="scale(0.996264)"/>
      <use xlink:href="#CMR10-3d" transform="translate(74.142726 0) scale(0.996264)"/>
      <use xlink:href="#NimbusRomNo9L-Regu-32" transform="translate(173.690579 0) scale(0.996264)"/>
      <use xlink:href="#NimbusRomNo9L-Regu-30" transform="translate(223.50378 0) scale(0.996264)"/>
      <use xlink:href="#NimbusRomNo9L-ReguItal-73" transform="translate(284.386553 0) scale(0.996264)"/>
     </g>
    </g>
    <g id="line2d_36">
     <path d="M 350.699728 56.176389 
L 362.699728 56.176389 
L 374.699728 56.176389 
" style="fill: none; stroke: #21918c; stroke-width: 1.5; stroke-linecap: square"/>
    </g>
    <g id="text_19">
     <!-- $\tau = 80 \, s$ -->
     <g transform="translate(384.299728 60.376389) scale(0.12 -0.12)">
      <use xlink:href="#StandardSymL-74" transform="scale(0.996264)"/>
      <use xlink:href="#CMR10-3d" transform="translate(74.142726 0) scale(0.996264)"/>
      <use xlink:href="#NimbusRomNo9L-Regu-38" transform="translate(173.690579 0) scale(0.996264)"/>
      <use xlink:href="#NimbusRomNo9L-Regu-30" transform="translate(223.50378 0) scale(0.996264)"/>
      <use xlink:href="#NimbusRomNo9L-ReguItal-73" transform="translate(284.386553 0) scale(0.996264)"/>
     </g>
    </g>
    <g id="line2d_37">
     <path d="M 350.699728 73.164584 
L 362.699728 73.164584 
L 374.699728 73.164584 
" style="fill: none; stroke: #3b528b; stroke-width: 1.5; stroke-linecap: square"/>
    </g>
    <g id="text_20">
     <!-- $\tau = 350 \, s$ -->
     <g transform="translate(384.299728 77.364584) scale(0.12 -0.12)">
      <defs>
       <path id="NimbusRomNo9L-Regu-33" d="M 979 2137 
C 1357 2137 1504 2124 1658 2067 
C 2054 1926 2304 1561 2304 1120 
C 2304 582 1939 166 1466 166 
C 1293 166 1165 211 928 364 
C 736 480 627 524 518 524 
C 371 524 275 435 275 300 
C 275 76 550 -64 998 -64 
C 1491 -64 1997 102 2298 364 
C 2598 627 2765 998 2765 1427 
C 2765 1753 2662 2054 2477 2252 
C 2349 2393 2227 2470 1946 2592 
C 2387 2892 2547 3129 2547 3475 
C 2547 3993 2138 4352 1549 4352 
C 1229 4352 947 4243 717 4038 
C 525 3865 429 3699 288 3315 
L 384 3289 
C 646 3757 934 3967 1338 3967 
C 1754 3967 2042 3686 2042 3283 
C 2042 3052 1946 2822 1786 2662 
C 1594 2470 1414 2374 979 2220 
L 979 2137 
z
" transform="scale(0.015625)"/>
      </defs>
      <use xlink:href="#StandardSymL-74" transform="scale(0.996264)"/>
      <use xlink:href="#CMR10-3d" transform="translate(74.142726 0) scale(0.996264)"/>
      <use xlink:href="#NimbusRomNo9L-Regu-33" transform="translate(173.690579 0) scale(0.996264)"/>
      <use xlink:href="#NimbusRomNo9L-Regu-35" transform="translate(223.50378 0) scale(0.996264)"/>
      <use xlink:href="#NimbusRomNo9L-Regu-30" transform="translate(273.31698 0) scale(0.996264)"/>
      <use xlink:href="#NimbusRomNo9L-ReguItal-73" transform="translate(334.199754 0) scale(0.996264)"/>
     </g>
    </g>
    <g id="line2d_38">
     <path d="M 350.699728 90.152779 
L 362.699728 90.152779 
L 374.699728 90.152779 
" style="fill: none; stroke: #440154; stroke-width: 1.5; stroke-linecap: square"/>
    </g>
    <g id="text_21">
     <!-- $\tau = 1000 \, s$ -->
     <g transform="translate(384.299728 94.352779) scale(0.12 -0.12)">
      <use xlink:href="#StandardSymL-74" transform="scale(0.996264)"/>
      <use xlink:href="#CMR10-3d" transform="translate(74.142726 0) scale(0.996264)"/>
      <use xlink:href="#NimbusRomNo9L-Regu-31" transform="translate(173.690579 0) scale(0.996264)"/>
      <use xlink:href="#NimbusRomNo9L-Regu-30" transform="translate(223.50378 0) scale(0.996264)"/>
      <use xlink:href="#NimbusRomNo9L-Regu-30" transform="translate(273.31698 0) scale(0.996264)"/>
      <use xlink:href="#NimbusRomNo9L-Regu-30" transform="translate(323.130181 0) scale(0.996264)"/>
      <use xlink:href="#NimbusRomNo9L-ReguItal-73" transform="translate(384.012954 0) scale(0.996264)"/>
     </g>
    </g>
   </g>
  </g>
 </g>
 <defs>
  <clipPath id="pccba9d9c15">
   <rect x="55.231618" y="7.2" width="390.6" height="277.2"/>
  </clipPath>
 </defs>
</svg>
