<?xml version="1.0" encoding="utf-8" standalone="no"?>
<!DOCTYPE svg PUBLIC "-//W3C//DTD SVG 1.1//EN"
  "http://www.w3.org/Graphics/SVG/1.1/DTD/svg11.dtd">
<svg xmlns:xlink="http://www.w3.org/1999/xlink" width="741.6pt" height="273.6pt" viewBox="0 0 741.6 273.6" xmlns="http://www.w3.org/2000/svg" version="1.1">
 <metadata>
  <rdf:RDF xmlns:dc="http://purl.org/dc/elements/1.1/" xmlns:cc="http://creativecommons.org/ns#" xmlns:rdf="http://www.w3.org/1999/02/22-rdf-syntax-ns#">
   <cc:Work>
    <dc:type rdf:resource="http://purl.org/dc/dcmitype/StillImage"/>
    <dc:date>2025-06-11T16:16:40.254013</dc:date>
    <dc:format>image/svg+xml</dc:format>
    <dc:creator>
     <cc:Agent>
      <dc:title>Matplotlib v3.9.2, https://matplotlib.org/</dc:title>
     </cc:Agent>
    </dc:creator>
   </cc:Work>
  </rdf:RDF>
 </metadata>
 <defs>
  <style type="text/css">*{stroke-linejoin: round; stroke-linecap: butt}</style>
 </defs>
 <g id="figure_1">
  <g id="patch_1">
   <path d="M 0 273.6 
L 741.6 273.6 
L 741.6 -0 
L 0 -0 
z
" style="fill: #ffffff"/>
  </g>
  <g id="axes_1">
   <g id="patch_2">
    <path d="M 54.283442 223.177187 
L 359.038905 223.177187 
L 359.038905 35.765318 
L 54.283442 35.765318 
z
" style="fill: #ffffff"/>
   </g>
   <g id="matplotlib.axis_1">
    <g id="xtick_1">
     <g id="line2d_1">
      <path d="M 68.135963 223.177187 
L 68.135963 35.765318 
" clip-path="url(#p9d23802b32)" style="fill: none; stroke-dasharray: 2.22,0.96; stroke-dashoffset: 0; stroke: #b0b0b0; stroke-width: 0.6"/>
     </g>
     <g id="line2d_2">
      <defs>
       <path id="mc3532e1988" d="M 0 0 
L 0 3.5 
" style="stroke: #000000; stroke-width: 0.8"/>
      </defs>
      <g>
       <use xlink:href="#mc3532e1988" x="68.135963" y="223.177187" style="stroke: #000000; stroke-width: 0.8"/>
      </g>
     </g>
     <g id="text_1">
      <!-- $\mathdefault{0.0}$ -->
      <g transform="translate(61.774869 236.931765) scale(0.1 -0.1)">
       <defs>
        <path id="NimbusRomNo9L-Regu-30" d="M 1626 4352 
C 1274 4352 1005 4243 768 4019 
C 397 3661 154 2924 154 2176 
C 154 1478 365 729 666 371 
C 902 89 1229 -64 1600 -64 
C 1926 -64 2202 44 2432 268 
C 2803 620 3046 1363 3046 2137 
C 3046 3449 2464 4352 1626 4352 
z
M 1606 4185 
C 2144 4185 2432 3462 2432 2124 
C 2432 787 2150 102 1600 102 
C 1050 102 768 787 768 2118 
C 768 3475 1056 4185 1606 4185 
z
" transform="scale(0.015625)"/>
        <path id="CMMI10-3a" d="M 1229 339 
C 1229 524 1075 678 890 678 
C 704 678 550 524 550 339 
C 550 153 704 0 890 0 
C 1075 0 1229 153 1229 339 
z
" transform="scale(0.015625)"/>
       </defs>
       <use xlink:href="#NimbusRomNo9L-Regu-30" transform="scale(0.996264)"/>
       <use xlink:href="#CMMI10-3a" transform="translate(49.8132 0) scale(0.996264)"/>
       <use xlink:href="#NimbusRomNo9L-Regu-30" transform="translate(77.408707 0) scale(0.996264)"/>
      </g>
     </g>
    </g>
    <g id="xtick_2">
     <g id="line2d_3">
      <path d="M 137.398569 223.177187 
L 137.398569 35.765318 
" clip-path="url(#p9d23802b32)" style="fill: none; stroke-dasharray: 2.22,0.96; stroke-dashoffset: 0; stroke: #b0b0b0; stroke-width: 0.6"/>
     </g>
     <g id="line2d_4">
      <g>
       <use xlink:href="#mc3532e1988" x="137.398569" y="223.177187" style="stroke: #000000; stroke-width: 0.8"/>
      </g>
     </g>
     <g id="text_2">
      <!-- $\mathdefault{1.5}$ -->
      <g transform="translate(131.037474 236.931765) scale(0.1 -0.1)">
       <defs>
        <path id="NimbusRomNo9L-Regu-31" d="M 1862 4352 
L 710 3776 
L 710 3686 
C 787 3718 858 3743 883 3756 
C 998 3801 1107 3826 1171 3826 
C 1306 3826 1363 3731 1363 3525 
L 1363 599 
C 1363 386 1312 238 1210 179 
C 1114 121 1024 102 755 96 
L 755 0 
L 2522 0 
L 2522 96 
C 2016 102 1914 167 1914 477 
L 1914 4339 
L 1862 4352 
z
" transform="scale(0.015625)"/>
        <path id="NimbusRomNo9L-Regu-35" d="M 1158 3718 
L 2413 3718 
C 2515 3718 2541 3731 2560 3775 
L 2803 4345 
L 2746 4390 
C 2650 4256 2586 4224 2451 4224 
L 1114 4224 
L 416 2717 
C 410 2705 410 2698 410 2686 
C 410 2654 435 2635 486 2635 
C 691 2635 947 2591 1210 2508 
C 1946 2274 2285 1882 2285 1255 
C 2285 647 1894 172 1395 172 
C 1267 172 1158 217 966 356 
C 762 502 614 565 480 565 
C 294 565 205 489 205 331 
C 205 89 506 -64 986 -64 
C 1523 -64 1984 108 2304 432 
C 2598 717 2733 1078 2733 1559 
C 2733 2015 2611 2306 2291 2622 
C 2010 2901 1645 3047 890 3180 
L 1158 3718 
z
" transform="scale(0.015625)"/>
       </defs>
       <use xlink:href="#NimbusRomNo9L-Regu-31" transform="scale(0.996264)"/>
       <use xlink:href="#CMMI10-3a" transform="translate(49.8132 0) scale(0.996264)"/>
       <use xlink:href="#NimbusRomNo9L-Regu-35" transform="translate(77.408707 0) scale(0.996264)"/>
      </g>
     </g>
    </g>
    <g id="xtick_3">
     <g id="line2d_5">
      <path d="M 206.661174 223.177187 
L 206.661174 35.765318 
" clip-path="url(#p9d23802b32)" style="fill: none; stroke-dasharray: 2.22,0.96; stroke-dashoffset: 0; stroke: #b0b0b0; stroke-width: 0.6"/>
     </g>
     <g id="line2d_6">
      <g>
       <use xlink:href="#mc3532e1988" x="206.661174" y="223.177187" style="stroke: #000000; stroke-width: 0.8"/>
      </g>
     </g>
     <g id="text_3">
      <!-- $\mathdefault{3.0}$ -->
      <g transform="translate(200.300079 236.931765) scale(0.1 -0.1)">
       <defs>
        <path id="NimbusRomNo9L-Regu-33" d="M 979 2137 
C 1357 2137 1504 2124 1658 2067 
C 2054 1926 2304 1561 2304 1120 
C 2304 582 1939 166 1466 166 
C 1293 166 1165 211 928 364 
C 736 480 627 524 518 524 
C 371 524 275 435 275 300 
C 275 76 550 -64 998 -64 
C 1491 -64 1997 102 2298 364 
C 2598 627 2765 998 2765 1427 
C 2765 1753 2662 2054 2477 2252 
C 2349 2393 2227 2470 1946 2592 
C 2387 2892 2547 3129 2547 3475 
C 2547 3993 2138 4352 1549 4352 
C 1229 4352 947 4243 717 4038 
C 525 3865 429 3699 288 3315 
L 384 3289 
C 646 3757 934 3967 1338 3967 
C 1754 3967 2042 3686 2042 3283 
C 2042 3052 1946 2822 1786 2662 
C 1594 2470 1414 2374 979 2220 
L 979 2137 
z
" transform="scale(0.015625)"/>
       </defs>
       <use xlink:href="#NimbusRomNo9L-Regu-33" transform="scale(0.996264)"/>
       <use xlink:href="#CMMI10-3a" transform="translate(49.8132 0) scale(0.996264)"/>
       <use xlink:href="#NimbusRomNo9L-Regu-30" transform="translate(77.408707 0) scale(0.996264)"/>
      </g>
     </g>
    </g>
    <g id="xtick_4">
     <g id="line2d_7">
      <path d="M 275.923779 223.177187 
L 275.923779 35.765318 
" clip-path="url(#p9d23802b32)" style="fill: none; stroke-dasharray: 2.22,0.96; stroke-dashoffset: 0; stroke: #b0b0b0; stroke-width: 0.6"/>
     </g>
     <g id="line2d_8">
      <g>
       <use xlink:href="#mc3532e1988" x="275.923779" y="223.177187" style="stroke: #000000; stroke-width: 0.8"/>
      </g>
     </g>
     <g id="text_4">
      <!-- $\mathdefault{4.5}$ -->
      <g transform="translate(269.562684 236.931765) scale(0.1 -0.1)">
       <defs>
        <path id="NimbusRomNo9L-Regu-34" d="M 3021 1497 
L 2368 1497 
L 2368 4352 
L 2086 4352 
L 77 1497 
L 77 1088 
L 1875 1088 
L 1875 0 
L 2368 0 
L 2368 1088 
L 3021 1088 
L 3021 1497 
z
M 1869 1497 
L 333 1497 
L 1869 3697 
L 1869 1497 
z
" transform="scale(0.015625)"/>
       </defs>
       <use xlink:href="#NimbusRomNo9L-Regu-34" transform="scale(0.996264)"/>
       <use xlink:href="#CMMI10-3a" transform="translate(49.8132 0) scale(0.996264)"/>
       <use xlink:href="#NimbusRomNo9L-Regu-35" transform="translate(77.408707 0) scale(0.996264)"/>
      </g>
     </g>
    </g>
    <g id="xtick_5">
     <g id="line2d_9">
      <path d="M 345.186384 223.177187 
L 345.186384 35.765318 
" clip-path="url(#p9d23802b32)" style="fill: none; stroke-dasharray: 2.22,0.96; stroke-dashoffset: 0; stroke: #b0b0b0; stroke-width: 0.6"/>
     </g>
     <g id="line2d_10">
      <g>
       <use xlink:href="#mc3532e1988" x="345.186384" y="223.177187" style="stroke: #000000; stroke-width: 0.8"/>
      </g>
     </g>
     <g id="text_5">
      <!-- $\mathdefault{6.0}$ -->
      <g transform="translate(338.82529 236.931765) scale(0.1 -0.1)">
       <defs>
        <path id="NimbusRomNo9L-Regu-36" d="M 2854 4390 
C 2125 4326 1754 4204 1286 3878 
C 595 3385 218 2655 218 1801 
C 218 1248 390 688 666 369 
C 909 89 1254 -64 1651 -64 
C 2445 -64 2995 541 2995 1420 
C 2995 2234 2528 2752 1792 2752 
C 1510 2752 1376 2707 973 2463 
C 1146 3430 1862 4121 2867 4288 
L 2854 4390 
z
M 1549 2457 
C 2099 2457 2419 1999 2419 1203 
C 2419 503 2170 115 1722 115 
C 1158 115 813 713 813 1700 
C 813 2024 864 2203 992 2298 
C 1126 2400 1325 2457 1549 2457 
z
" transform="scale(0.015625)"/>
       </defs>
       <use xlink:href="#NimbusRomNo9L-Regu-36" transform="scale(0.996264)"/>
       <use xlink:href="#CMMI10-3a" transform="translate(49.8132 0) scale(0.996264)"/>
       <use xlink:href="#NimbusRomNo9L-Regu-30" transform="translate(77.408707 0) scale(0.996264)"/>
      </g>
     </g>
    </g>
    <g id="text_6">
     <!-- \textbf{Time} -->
     <g transform="translate(195.682454 249.843171) scale(0.1 -0.1)">
      <defs>
       <path id="NimbusRomNo9L-Medi-54" d="M 1619 752 
C 1619 275 1549 205 998 160 
L 998 0 
L 3283 0 
L 3283 160 
C 2726 198 2656 263 2656 752 
L 2656 4146 
C 3443 4120 3776 3824 3885 3058 
L 4070 3058 
L 4058 4352 
L 218 4352 
L 198 3058 
L 384 3058 
C 493 3824 826 4120 1619 4146 
L 1619 752 
z
" transform="scale(0.015625)"/>
       <path id="NimbusRomNo9L-Medi-69" d="M 1331 2944 
L 102 2944 
L 102 2790 
C 384 2733 442 2675 442 2413 
L 442 536 
C 442 274 397 223 102 153 
L 102 0 
L 1632 0 
L 1632 153 
C 1408 185 1331 274 1331 517 
L 1331 2944 
z
M 883 4416 
C 608 4416 384 4191 384 3923 
C 384 3635 595 3423 877 3423 
C 1158 3423 1376 3635 1376 3916 
C 1376 4191 1158 4416 883 4416 
z
" transform="scale(0.015625)"/>
       <path id="NimbusRomNo9L-Medi-6d" d="M 1325 2944 
L 102 2944 
L 102 2790 
C 384 2752 454 2675 454 2413 
L 454 536 
C 454 274 384 204 102 153 
L 102 0 
L 1638 0 
L 1638 153 
C 1414 185 1344 274 1344 517 
L 1344 2222 
C 1344 2260 1446 2381 1530 2445 
C 1664 2534 1773 2579 1882 2579 
C 2131 2579 2227 2433 2227 2052 
L 2227 515 
C 2227 255 2157 172 1920 153 
L 1920 0 
L 3418 0 
L 3418 153 
C 3194 179 3117 274 3117 515 
L 3117 2210 
C 3117 2242 3219 2363 3302 2426 
C 3443 2534 3552 2579 3661 2579 
C 3904 2579 4000 2426 4000 2052 
L 4000 515 
C 4000 248 3930 172 3686 153 
L 3686 0 
L 5210 0 
L 5210 153 
C 4960 166 4890 242 4890 515 
L 4890 2109 
C 4890 2655 4550 3008 4026 3008 
C 3661 3008 3418 2860 3085 2452 
C 2893 2854 2669 3008 2266 3008 
C 1862 3008 1568 2835 1325 2452 
L 1325 2944 
z
" transform="scale(0.015625)"/>
       <path id="NimbusRomNo9L-Medi-65" d="M 2573 811 
C 2317 508 2118 396 1843 396 
C 1594 396 1408 508 1274 725 
C 1158 923 1107 1127 1082 1555 
L 2694 1555 
C 2656 2090 2560 2389 2355 2631 
C 2144 2879 1850 3008 1498 3008 
C 698 3008 160 2377 160 1449 
C 160 545 685 -64 1478 -64 
C 1997 -64 2310 140 2726 725 
L 2573 811 
z
M 1050 1792 
C 1069 2555 1184 2809 1498 2809 
C 1677 2809 1798 2707 1850 2510 
C 1882 2389 1894 2211 1907 1887 
L 1907 1792 
L 1050 1792 
z
" transform="scale(0.015625)"/>
      </defs>
      <use xlink:href="#NimbusRomNo9L-Medi-54" transform="scale(0.996264)"/>
      <use xlink:href="#NimbusRomNo9L-Medi-69" transform="translate(64.657452 0) scale(0.996264)"/>
      <use xlink:href="#NimbusRomNo9L-Medi-6d" transform="translate(92.352622 0) scale(0.996264)"/>
      <use xlink:href="#NimbusRomNo9L-Medi-65" transform="translate(175.341052 0) scale(0.996264)"/>
     </g>
    </g>
   </g>
   <g id="matplotlib.axis_2">
    <g id="ytick_1">
     <g id="line2d_11">
      <path d="M 54.283442 213.759867 
L 359.038905 213.759867 
" clip-path="url(#p9d23802b32)" style="fill: none; stroke-dasharray: 2.22,0.96; stroke-dashoffset: 0; stroke: #b0b0b0; stroke-width: 0.6"/>
     </g>
     <g id="line2d_12">
      <defs>
       <path id="mdc3502e09d" d="M 0 0 
L -3.5 0 
" style="stroke: #000000; stroke-width: 0.8"/>
      </defs>
      <g>
       <use xlink:href="#mdc3502e09d" x="54.283442" y="213.759867" style="stroke: #000000; stroke-width: 0.8"/>
      </g>
     </g>
     <g id="text_7">
      <!-- $\mathdefault{0.0}$ -->
      <g transform="translate(34.561253 217.137156) scale(0.1 -0.1)">
       <use xlink:href="#NimbusRomNo9L-Regu-30" transform="scale(0.996264)"/>
       <use xlink:href="#CMMI10-3a" transform="translate(49.8132 0) scale(0.996264)"/>
       <use xlink:href="#NimbusRomNo9L-Regu-30" transform="translate(77.408707 0) scale(0.996264)"/>
      </g>
     </g>
    </g>
    <g id="ytick_2">
     <g id="line2d_13">
      <path d="M 54.283442 174.53564 
L 359.038905 174.53564 
" clip-path="url(#p9d23802b32)" style="fill: none; stroke-dasharray: 2.22,0.96; stroke-dashoffset: 0; stroke: #b0b0b0; stroke-width: 0.6"/>
     </g>
     <g id="line2d_14">
      <g>
       <use xlink:href="#mdc3502e09d" x="54.283442" y="174.53564" style="stroke: #000000; stroke-width: 0.8"/>
      </g>
     </g>
     <g id="text_8">
      <!-- $\mathdefault{0.3}$ -->
      <g transform="translate(34.561253 177.912929) scale(0.1 -0.1)">
       <use xlink:href="#NimbusRomNo9L-Regu-30" transform="scale(0.996264)"/>
       <use xlink:href="#CMMI10-3a" transform="translate(49.8132 0) scale(0.996264)"/>
       <use xlink:href="#NimbusRomNo9L-Regu-33" transform="translate(77.408707 0) scale(0.996264)"/>
      </g>
     </g>
    </g>
    <g id="ytick_3">
     <g id="line2d_15">
      <path d="M 54.283442 135.311412 
L 359.038905 135.311412 
" clip-path="url(#p9d23802b32)" style="fill: none; stroke-dasharray: 2.22,0.96; stroke-dashoffset: 0; stroke: #b0b0b0; stroke-width: 0.6"/>
     </g>
     <g id="line2d_16">
      <g>
       <use xlink:href="#mdc3502e09d" x="54.283442" y="135.311412" style="stroke: #000000; stroke-width: 0.8"/>
      </g>
     </g>
     <g id="text_9">
      <!-- $\mathdefault{0.6}$ -->
      <g transform="translate(34.561253 138.688701) scale(0.1 -0.1)">
       <use xlink:href="#NimbusRomNo9L-Regu-30" transform="scale(0.996264)"/>
       <use xlink:href="#CMMI10-3a" transform="translate(49.8132 0) scale(0.996264)"/>
       <use xlink:href="#NimbusRomNo9L-Regu-36" transform="translate(77.408707 0) scale(0.996264)"/>
      </g>
     </g>
    </g>
    <g id="ytick_4">
     <g id="line2d_17">
      <path d="M 54.283442 96.087185 
L 359.038905 96.087185 
" clip-path="url(#p9d23802b32)" style="fill: none; stroke-dasharray: 2.22,0.96; stroke-dashoffset: 0; stroke: #b0b0b0; stroke-width: 0.6"/>
     </g>
     <g id="line2d_18">
      <g>
       <use xlink:href="#mdc3502e09d" x="54.283442" y="96.087185" style="stroke: #000000; stroke-width: 0.8"/>
      </g>
     </g>
     <g id="text_10">
      <!-- $\mathdefault{0.9}$ -->
      <g transform="translate(34.561253 99.464474) scale(0.1 -0.1)">
       <defs>
        <path id="NimbusRomNo9L-Regu-39" d="M 378 -122 
C 1094 -39 1446 83 1882 396 
C 2547 883 2938 1676 2938 2542 
C 2938 3601 2349 4352 1523 4352 
C 762 4352 192 3704 192 2837 
C 192 2055 653 1536 1344 1536 
C 1696 1536 1965 1638 2304 1901 
C 2042 857 1331 172 358 6 
L 378 -122 
z
M 2317 2292 
C 2317 2164 2291 2106 2221 2048 
C 2042 1894 1805 1811 1574 1811 
C 1088 1811 781 2292 781 3056 
C 781 3421 883 3806 1018 3973 
C 1126 4102 1286 4172 1472 4172 
C 2029 4172 2317 3620 2317 2542 
L 2317 2292 
z
" transform="scale(0.015625)"/>
       </defs>
       <use xlink:href="#NimbusRomNo9L-Regu-30" transform="scale(0.996264)"/>
       <use xlink:href="#CMMI10-3a" transform="translate(49.8132 0) scale(0.996264)"/>
       <use xlink:href="#NimbusRomNo9L-Regu-39" transform="translate(77.408707 0) scale(0.996264)"/>
      </g>
     </g>
    </g>
    <g id="ytick_5">
     <g id="line2d_19">
      <path d="M 54.283442 56.862958 
L 359.038905 56.862958 
" clip-path="url(#p9d23802b32)" style="fill: none; stroke-dasharray: 2.22,0.96; stroke-dashoffset: 0; stroke: #b0b0b0; stroke-width: 0.6"/>
     </g>
     <g id="line2d_20">
      <g>
       <use xlink:href="#mdc3502e09d" x="54.283442" y="56.862958" style="stroke: #000000; stroke-width: 0.8"/>
      </g>
     </g>
     <g id="text_11">
      <!-- $\mathdefault{1.2}$ -->
      <g transform="translate(34.561253 60.240246) scale(0.1 -0.1)">
       <defs>
        <path id="NimbusRomNo9L-Regu-32" d="M 3040 879 
L 2957 912 
C 2720 544 2637 486 2349 486 
L 819 486 
L 1894 1621 
C 2464 2221 2714 2711 2714 3214 
C 2714 3858 2195 4352 1530 4352 
C 1178 4352 845 4211 608 3955 
C 403 3736 307 3530 198 3072 
L 333 3039 
C 589 3671 819 3878 1261 3878 
C 1798 3878 2163 3510 2163 2969 
C 2163 2466 1869 1866 1331 1292 
L 192 76 
L 192 0 
L 2688 0 
L 3040 879 
z
" transform="scale(0.015625)"/>
       </defs>
       <use xlink:href="#NimbusRomNo9L-Regu-31" transform="scale(0.996264)"/>
       <use xlink:href="#CMMI10-3a" transform="translate(49.8132 0) scale(0.996264)"/>
       <use xlink:href="#NimbusRomNo9L-Regu-32" transform="translate(77.408707 0) scale(0.996264)"/>
      </g>
     </g>
    </g>
    <g id="text_12">
     <!-- \textbf{Plant/Model Output} -->
     <g transform="translate(28.404424 172.509353) rotate(-90) scale(0.1 -0.1)">
      <defs>
       <path id="NimbusRomNo9L-Medi-50" d="M 1677 1964 
C 2541 1971 2758 1990 3040 2105 
C 3558 2303 3840 2694 3840 3187 
C 3840 3929 3232 4352 2163 4352 
L 102 4352 
L 102 4191 
C 550 4153 640 4050 640 3599 
L 640 752 
C 640 353 557 224 256 185 
C 237 185 173 172 102 160 
L 102 0 
L 2240 0 
L 2240 160 
C 1734 224 1677 282 1677 752 
L 1677 1964 
z
M 1677 3903 
C 1677 4051 1786 4127 1997 4127 
C 2528 4127 2739 3846 2739 3155 
C 2739 2751 2662 2508 2496 2361 
C 2342 2233 2131 2188 1677 2188 
L 1677 3903 
z
" transform="scale(0.015625)"/>
       <path id="NimbusRomNo9L-Medi-6c" d="M 1318 4352 
L 102 4352 
L 102 4198 
C 326 4178 429 4062 429 3824 
L 429 540 
C 429 301 320 172 102 153 
L 102 0 
L 1632 0 
L 1632 153 
C 1421 160 1318 282 1318 540 
L 1318 4352 
z
" transform="scale(0.015625)"/>
       <path id="NimbusRomNo9L-Medi-61" d="M 3027 429 
L 2963 366 
C 2944 347 2925 341 2893 341 
C 2803 341 2758 397 2758 498 
L 2758 2141 
C 2758 2670 2272 3008 1491 3008 
C 768 3008 282 2683 282 2211 
C 282 1953 435 1795 698 1795 
C 954 1795 1133 1946 1133 2160 
C 1133 2249 1094 2330 1018 2431 
C 960 2494 941 2532 941 2570 
C 941 2702 1120 2803 1344 2803 
C 1715 2803 1882 2633 1882 2249 
L 1882 1789 
C 1120 1562 806 1436 570 1279 
C 294 1090 160 876 160 605 
C 160 221 461 -64 870 -64 
C 1235 -64 1530 64 1882 378 
C 1952 57 2093 -64 2406 -64 
C 2682 -64 2880 38 3123 296 
L 3027 429 
z
M 1875 655 
C 1702 460 1574 385 1421 385 
C 1229 385 1094 555 1094 807 
C 1094 1172 1363 1436 1875 1568 
L 1875 655 
z
" transform="scale(0.015625)"/>
       <path id="NimbusRomNo9L-Medi-6e" d="M 1357 2944 
L 134 2944 
L 134 2790 
C 416 2745 474 2681 474 2413 
L 474 536 
C 474 268 422 211 134 153 
L 134 0 
L 1677 0 
L 1677 153 
C 1440 185 1363 281 1363 517 
L 1363 2222 
C 1363 2247 1408 2311 1472 2369 
C 1613 2502 1766 2579 1914 2579 
C 2138 2579 2246 2407 2246 2052 
L 2246 515 
C 2246 280 2163 179 1946 153 
L 1946 0 
L 3450 0 
L 3450 153 
C 3200 172 3136 248 3136 515 
L 3136 2109 
C 3136 2655 2797 3008 2272 3008 
C 1888 3008 1594 2828 1357 2452 
L 1357 2944 
z
" transform="scale(0.015625)"/>
       <path id="NimbusRomNo9L-Medi-74" d="M 1952 2944 
L 1350 2944 
L 1350 4025 
L 1190 4025 
C 800 3475 544 3187 128 2835 
L 128 2662 
L 461 2662 
L 461 606 
C 461 192 736 -64 1178 -64 
C 1606 -64 1862 128 2125 650 
L 1965 720 
C 1837 479 1734 390 1600 390 
C 1421 390 1350 498 1350 752 
L 1350 2662 
L 1952 2662 
L 1952 2944 
z
" transform="scale(0.015625)"/>
       <path id="NimbusRomNo9L-Medi-2f" d="M 1933 4416 
L 1357 4416 
L -154 -128 
L 422 -128 
L 1933 4416 
z
" transform="scale(0.015625)"/>
       <path id="NimbusRomNo9L-Medi-4d" d="M 4339 3921 
L 4339 643 
C 4339 282 4250 205 3770 160 
L 3770 0 
L 5894 0 
L 5894 160 
C 5395 224 5331 295 5331 752 
L 5331 3599 
C 5331 4062 5427 4159 5894 4191 
L 5894 4352 
L 4282 4352 
L 3002 1312 
L 1722 4352 
L 102 4352 
L 102 4191 
C 570 4153 672 4069 672 3734 
L 672 675 
C 672 288 589 211 90 160 
L 90 0 
L 1587 0 
L 1587 160 
C 1062 198 941 321 941 797 
L 941 3824 
L 2554 0 
L 2726 0 
L 4339 3921 
z
" transform="scale(0.015625)"/>
       <path id="NimbusRomNo9L-Medi-6f" d="M 1606 3008 
C 794 3008 160 2343 160 1487 
C 160 587 768 -64 1606 -64 
C 2432 -64 3046 593 3046 1468 
C 3046 2350 2432 3008 1606 3008 
z
M 1613 2809 
C 1984 2809 2106 2463 2106 1431 
C 2106 461 1978 134 1606 134 
C 1229 134 1101 455 1101 1374 
C 1101 2482 1216 2809 1613 2809 
z
" transform="scale(0.015625)"/>
       <path id="NimbusRomNo9L-Medi-64" d="M 2170 -39 
C 2464 44 2624 76 3021 121 
L 3418 172 
L 3418 320 
C 3123 338 3040 419 3040 681 
L 3040 4352 
L 1664 4352 
L 1664 4198 
C 2093 4165 2150 4118 2150 3812 
L 2150 2612 
C 1875 2905 1683 3008 1389 3008 
C 685 3008 160 2331 160 1428 
C 160 564 646 -64 1318 -64 
C 1658 -64 1869 38 2170 357 
L 2170 -39 
z
M 2150 734 
C 2150 696 2086 589 2010 507 
C 1882 363 1747 294 1606 294 
C 1267 294 1107 671 1107 1468 
C 1107 2278 1280 2649 1651 2649 
C 1862 2649 2061 2498 2150 2260 
L 2150 734 
z
" transform="scale(0.015625)"/>
       <path id="NimbusRomNo9L-Medi-4f" d="M 2515 4416 
C 1178 4416 224 3469 224 2137 
C 224 812 1165 -128 2490 -128 
C 3814 -128 4755 819 4755 2144 
C 4755 3449 3802 4416 2515 4416 
z
M 2509 4204 
C 3213 4204 3622 3430 3622 2099 
C 3622 787 3226 83 2490 83 
C 1754 83 1357 787 1357 2080 
C 1357 3462 1760 4204 2509 4204 
z
" transform="scale(0.015625)"/>
       <path id="NimbusRomNo9L-Medi-75" d="M 2195 -39 
C 2470 57 2624 83 3040 127 
L 3437 172 
L 3437 320 
C 3155 332 3078 414 3078 683 
L 3078 2944 
L 1792 2944 
L 1792 2790 
C 2112 2765 2189 2690 2189 2420 
L 2189 646 
C 1978 421 1843 352 1664 352 
C 1402 352 1306 478 1306 800 
L 1306 2944 
L 102 2944 
L 102 2790 
C 365 2739 416 2683 416 2417 
L 416 825 
C 416 268 736 -64 1267 -64 
C 1600 -64 1824 38 2195 358 
L 2195 -39 
z
" transform="scale(0.015625)"/>
       <path id="NimbusRomNo9L-Medi-70" d="M 1357 2944 
L 134 2944 
L 134 2790 
C 416 2745 480 2681 480 2413 
L 480 -783 
C 480 -1044 429 -1101 122 -1152 
L 122 -1280 
L 1869 -1280 
L 1869 -1152 
C 1478 -1133 1370 -1006 1370 -580 
L 1370 319 
C 1677 19 1843 -64 2125 -64 
C 2842 -64 3354 596 3354 1528 
C 3354 2403 2874 3008 2163 3008 
C 1786 3008 1555 2860 1357 2491 
L 1357 2944 
z
M 1370 2202 
C 1370 2246 1427 2347 1504 2428 
C 1632 2567 1779 2643 1920 2643 
C 2253 2643 2406 2265 2406 1440 
C 2406 659 2227 288 1862 288 
C 1651 288 1466 432 1370 672 
L 1370 2202 
z
" transform="scale(0.015625)"/>
      </defs>
      <use xlink:href="#NimbusRomNo9L-Medi-50" transform="scale(0.996264)"/>
      <use xlink:href="#NimbusRomNo9L-Medi-6c" transform="translate(60.871631 0) scale(0.996264)"/>
      <use xlink:href="#NimbusRomNo9L-Medi-61" transform="translate(88.5668 0) scale(0.996264)"/>
      <use xlink:href="#NimbusRomNo9L-Medi-6e" transform="translate(138.380001 0) scale(0.996264)"/>
      <use xlink:href="#NimbusRomNo9L-Medi-74" transform="translate(193.771678 0) scale(0.996264)"/>
      <use xlink:href="#NimbusRomNo9L-Medi-2f" transform="translate(226.946907 0) scale(0.996264)"/>
      <use xlink:href="#NimbusRomNo9L-Medi-4d" transform="translate(254.642077 0) scale(0.996264)"/>
      <use xlink:href="#NimbusRomNo9L-Medi-6f" transform="translate(348.688846 0) scale(0.996264)"/>
      <use xlink:href="#NimbusRomNo9L-Medi-64" transform="translate(398.502047 0) scale(0.996264)"/>
      <use xlink:href="#NimbusRomNo9L-Medi-65" transform="translate(453.893724 0) scale(0.996264)"/>
      <use xlink:href="#NimbusRomNo9L-Medi-6c" transform="translate(498.127292 0) scale(0.996264)"/>
      <use xlink:href="#NimbusRomNo9L-Medi-4f" transform="translate(550.729062 0) scale(0.996264)"/>
      <use xlink:href="#NimbusRomNo9L-Medi-75" transform="translate(628.237432 0) scale(0.996264)"/>
      <use xlink:href="#NimbusRomNo9L-Medi-74" transform="translate(683.629109 0) scale(0.996264)"/>
      <use xlink:href="#NimbusRomNo9L-Medi-70" transform="translate(716.804339 0) scale(0.996264)"/>
      <use xlink:href="#NimbusRomNo9L-Medi-75" transform="translate(772.196016 0) scale(0.996264)"/>
      <use xlink:href="#NimbusRomNo9L-Medi-74" transform="translate(827.587693 0) scale(0.996264)"/>
     </g>
    </g>
   </g>
   <g id="line2d_21">
    <path d="M 68.135963 108.331681 
L 70.825773 108.141348 
L 73.515583 107.682109 
L 76.205393 106.953965 
L 78.895203 105.956916 
L 81.585013 104.690961 
L 84.274823 103.378148 
L 86.964633 102.404177 
L 89.654443 101.775962 
L 91.447649 101.557428 
L 92.344253 101.69819 
L 93.240856 102.139365 
L 94.137459 102.880954 
L 95.034063 103.922957 
L 95.930666 105.265373 
L 96.827269 106.908203 
L 97.723872 108.851446 
L 98.620476 111.095103 
L 100.413682 116.483657 
L 103.103492 125.854031 
L 105.793302 135.931274 
L 108.483112 146.715107 
L 111.172922 157.726965 
L 112.966129 163.916516 
L 114.759335 169.013857 
L 116.552542 173.018989 
L 117.449145 174.611976 
L 118.345748 175.93191 
L 120.138955 178.149619 
L 121.932162 180.92573 
L 123.725368 184.352277 
L 125.518575 188.429261 
L 127.311781 193.156681 
L 129.104988 198.214849 
L 130.001591 200.248792 
L 130.898195 201.865409 
L 131.794798 203.064701 
L 132.691401 203.846667 
L 133.588005 204.211307 
L 134.484608 204.158622 
L 135.381211 203.688611 
L 136.277814 202.801275 
L 138.967624 198.879037 
L 139.864228 198.149913 
L 140.760831 197.815692 
L 141.657434 197.876374 
L 142.554038 198.331959 
L 143.450641 199.182448 
L 144.347244 200.42784 
L 145.243848 202.068135 
L 146.140451 204.103333 
L 147.933657 208.548308 
L 148.830261 210.265477 
L 149.726864 211.606913 
L 150.623467 212.572617 
L 151.520071 213.162588 
L 152.416674 213.376827 
L 153.313277 213.215334 
L 154.209881 212.678108 
L 155.106484 211.76515 
L 157.796294 208.039189 
L 158.692897 207.076352 
L 159.5895 206.286103 
L 160.486104 205.668443 
L 161.382707 205.223372 
L 162.27931 204.950889 
L 163.175914 204.850994 
L 164.072517 204.923688 
L 165.865724 205.519715 
L 169.452137 206.798784 
L 173.03855 207.866217 
L 174.831757 208.289533 
L 175.72836 208.281404 
L 176.624963 208.054844 
L 177.521566 207.609853 
L 178.41817 206.94643 
L 179.314773 206.064576 
L 180.211376 204.96429 
L 181.10798 203.645573 
L 182.901186 200.352846 
L 184.694393 196.622321 
L 185.590996 195.187927 
L 186.4876 194.093089 
L 187.384203 193.337808 
L 188.280806 192.922083 
L 189.177409 192.845916 
L 190.074013 193.109305 
L 190.970616 193.71225 
L 191.867219 194.654753 
L 193.660426 197.248217 
L 194.557029 198.21259 
L 195.453633 198.829073 
L 196.350236 199.097664 
L 197.246839 199.018365 
L 198.143442 198.591174 
L 199.040046 197.816092 
L 199.936649 196.69312 
L 200.833252 195.222256 
L 203.523062 189.784231 
L 204.419666 188.59902 
L 205.316269 187.846017 
L 206.212872 187.525225 
L 207.109476 187.636641 
L 208.006079 188.180267 
L 208.902682 189.156103 
L 209.799285 190.564148 
L 210.695889 192.404402 
L 212.489095 196.774072 
L 214.282302 200.346878 
L 215.178905 201.781648 
L 216.075509 202.981996 
L 216.972112 203.947921 
L 217.868715 204.679425 
L 218.765318 205.176506 
L 219.661922 205.439165 
L 220.558525 205.46764 
L 222.351732 205.220655 
L 224.144938 204.797518 
L 225.938145 204.198229 
L 227.731352 203.422788 
L 231.317765 201.579591 
L 233.110971 201.123867 
L 234.904178 201.108844 
L 236.697385 201.53452 
L 238.490591 202.400897 
L 245.663418 206.980309 
L 248.353227 208.562543 
L 249.249831 208.97561 
L 250.146434 209.229527 
L 251.043037 209.324293 
L 251.939641 209.259908 
L 252.836244 209.036373 
L 253.732847 208.653687 
L 254.629451 208.111851 
L 255.526054 207.410864 
L 256.422657 206.550727 
L 259.112467 203.623091 
L 260.00907 202.960858 
L 260.905674 202.494584 
L 261.802277 202.224268 
L 262.69888 202.14991 
L 263.595484 202.271512 
L 264.492087 202.589072 
L 265.38869 203.10259 
L 266.285294 203.812067 
L 268.0785 205.410032 
L 268.975103 206.009634 
L 269.871707 206.464829 
L 270.76831 206.775615 
L 271.664913 206.941993 
L 272.561517 206.963964 
L 273.45812 206.841527 
L 274.354723 206.574683 
L 275.251327 206.16343 
L 277.044533 205.109722 
L 278.83774 204.44 
L 279.734343 204.276407 
L 280.630946 204.226992 
L 281.52755 204.291755 
L 282.424153 204.470696 
L 284.21736 205.171114 
L 291.390186 209.25375 
L 294.079996 210.451716 
L 294.976599 210.770806 
L 295.873203 210.906003 
L 296.769806 210.846738 
L 297.666409 210.593009 
L 298.563013 210.144817 
L 299.459616 209.502163 
L 300.356219 208.665045 
L 301.252822 207.633465 
L 302.149426 206.407421 
L 305.735839 200.775424 
L 306.632442 199.83298 
L 307.529046 199.136745 
L 308.425649 198.68672 
L 309.322252 198.482903 
L 310.218855 198.525294 
L 311.115459 198.813895 
L 312.012062 199.348705 
L 313.805269 201.049489 
L 316.495079 204.117123 
L 319.184889 207.646167 
L 323.667905 213.896332 
L 324.564508 214.466272 
L 325.461112 214.658466 
L 326.357715 214.472913 
L 327.254318 213.909614 
L 328.150922 212.968568 
L 329.047525 211.649776 
L 329.944128 209.953237 
L 330.840731 207.878952 
L 332.633938 203.316704 
L 333.530541 201.44392 
L 334.427145 199.877872 
L 335.323748 198.618559 
L 336.220351 197.665982 
L 337.116955 197.020141 
L 338.013558 196.681035 
L 338.910161 196.648665 
L 339.806765 196.923031 
L 340.703368 197.504133 
L 341.599971 198.39197 
L 342.496574 199.586543 
L 343.393178 201.087851 
L 344.289781 202.895896 
L 345.186384 205.010676 
L 345.186384 205.010676 
" clip-path="url(#p9d23802b32)" style="fill: none; stroke: #463480; stroke-width: 1.8; stroke-linecap: square"/>
   </g>
   <g id="line2d_22">
    <path d="M 68.135963 213.759867 
L 77.370977 213.759867 
L 77.370977 213.759867 
L 86.605991 213.759867 
L 86.605991 213.759867 
L 95.841005 213.759867 
L 95.841005 44.284039 
L 105.07602 44.284039 
L 105.07602 75.419751 
L 114.311034 75.419751 
L 114.311034 113.135654 
L 123.546048 113.135654 
L 123.546048 149.645513 
L 132.781062 149.645513 
L 132.781062 174.787203 
L 142.016076 174.787203 
L 142.016076 186.436868 
L 151.25109 186.436868 
L 151.25109 197.134157 
L 160.486104 197.134157 
L 160.486104 200.586535 
L 169.721118 200.586535 
L 169.721118 201.243214 
L 178.956132 201.243214 
L 178.956132 199.202274 
L 188.191146 199.202274 
L 188.191146 190.805866 
L 197.42616 190.805866 
L 197.42616 189.729571 
L 206.661174 189.729571 
L 206.661174 183.014362 
L 215.896188 183.014362 
L 215.896188 190.66796 
L 225.131202 190.66796 
L 225.131202 196.121112 
L 234.366216 196.121112 
L 234.366216 196.30122 
L 243.60123 196.30122 
L 243.60123 196.750858 
L 252.836244 196.750858 
L 252.836244 201.24364 
L 262.071258 201.24364 
L 262.071258 198.298661 
L 271.306272 198.298661 
L 271.306272 198.898421 
L 280.541286 198.898421 
L 280.541286 198.035153 
L 289.7763 198.035153 
L 289.7763 201.041381 
L 299.011314 201.041381 
L 299.011314 202.805145 
L 308.246328 202.805145 
L 308.246328 196.304467 
L 317.481342 196.304467 
L 317.481342 196.544394 
L 326.716356 196.544394 
L 326.716356 204.187682 
L 335.95137 204.187682 
L 335.95137 197.554403 
L 345.186384 197.554403 
L 345.186384 196.613625 
" clip-path="url(#p9d23802b32)" style="fill: none; stroke-dasharray: 6.66,2.88; stroke-dashoffset: 0; stroke: #7ad151; stroke-width: 1.8"/>
   </g>
   <g id="patch_3">
    <path d="M 54.283442 223.177187 
L 54.283442 35.765318 
" style="fill: none; stroke: #000000; stroke-width: 0.8; stroke-linejoin: miter; stroke-linecap: square"/>
   </g>
   <g id="patch_4">
    <path d="M 359.038905 223.177187 
L 359.038905 35.765318 
" style="fill: none; stroke: #000000; stroke-width: 0.8; stroke-linejoin: miter; stroke-linecap: square"/>
   </g>
   <g id="patch_5">
    <path d="M 54.283442 223.177187 
L 359.038905 223.177187 
" style="fill: none; stroke: #000000; stroke-width: 0.8; stroke-linejoin: miter; stroke-linecap: square"/>
   </g>
   <g id="patch_6">
    <path d="M 54.283442 35.765318 
L 359.038905 35.765318 
" style="fill: none; stroke: #000000; stroke-width: 0.8; stroke-linejoin: miter; stroke-linecap: square"/>
   </g>
   <g id="text_13">
    <!-- \textbf{True and Estimated Outputs vs. Time} -->
    <g transform="translate(110.207917 29.765318) scale(0.12 -0.12)">
     <defs>
      <path id="NimbusRomNo9L-Medi-72" d="M 1395 2944 
L 186 2944 
L 186 2790 
C 461 2752 531 2669 531 2413 
L 531 536 
C 531 274 467 204 186 153 
L 186 0 
L 1888 0 
L 1888 153 
C 1498 179 1421 262 1421 658 
L 1421 1864 
C 1421 2196 1600 2471 1811 2471 
C 1862 2471 1920 2426 1990 2324 
C 2112 2152 2208 2094 2374 2094 
C 2611 2094 2778 2273 2778 2522 
C 2778 2796 2560 3008 2259 3008 
C 1939 3008 1696 2835 1395 2406 
L 1395 2944 
z
" transform="scale(0.015625)"/>
      <path id="NimbusRomNo9L-Medi-45" d="M 3795 4352 
L 102 4352 
L 102 4191 
C 544 4165 666 4062 666 3734 
L 666 617 
C 666 282 576 211 102 160 
L 102 0 
L 3846 0 
L 4102 1338 
L 3923 1338 
C 3725 906 3597 726 3366 539 
C 3072 301 2720 198 2234 198 
C 1824 198 1702 282 1702 559 
L 1702 2117 
C 2400 2117 2662 1866 2739 1119 
L 2906 1119 
L 2906 3296 
L 2739 3296 
C 2643 2562 2394 2330 1702 2336 
L 1702 3831 
C 1702 4076 1786 4134 2118 4134 
C 3162 4134 3475 3915 3635 3058 
L 3795 3058 
L 3795 4352 
z
" transform="scale(0.015625)"/>
      <path id="NimbusRomNo9L-Medi-73" d="M 2176 2079 
L 2176 2995 
L 2035 2995 
C 1997 2899 1958 2867 1882 2867 
C 1843 2867 1779 2879 1677 2911 
C 1466 2982 1318 3008 1178 3008 
C 595 3008 173 2614 173 2085 
C 173 1670 435 1380 1082 1110 
C 1517 921 1696 764 1696 562 
C 1696 317 1504 153 1216 153 
C 768 153 474 436 339 984 
L 160 984 
L 160 -58 
L 320 -58 
C 390 76 429 121 486 121 
C 518 121 570 108 634 83 
C 806 6 1146 -64 1325 -64 
C 1907 -64 2310 329 2310 896 
C 2310 1342 2061 1613 1427 1877 
C 992 2060 813 2217 813 2431 
C 813 2639 992 2796 1235 2796 
C 1402 2796 1574 2727 1715 2595 
C 1850 2469 1920 2356 2016 2079 
L 2176 2079 
z
" transform="scale(0.015625)"/>
      <path id="NimbusRomNo9L-Medi-76" d="M 3104 2944 
L 2138 2944 
L 2138 2790 
C 2413 2777 2490 2733 2490 2581 
C 2490 2512 2464 2411 2419 2297 
L 1958 1145 
L 1453 2429 
C 1408 2550 1395 2588 1395 2626 
C 1395 2721 1459 2765 1619 2777 
C 1632 2777 1683 2784 1734 2790 
L 1734 2944 
L 134 2944 
L 134 2790 
C 282 2771 320 2752 358 2695 
C 371 2702 672 2069 774 1810 
L 1542 -64 
L 1709 -64 
L 2733 2442 
C 2854 2721 2906 2771 3104 2790 
L 3104 2944 
z
" transform="scale(0.015625)"/>
      <path id="NimbusRomNo9L-Medi-2e" d="M 800 1017 
C 506 1017 262 768 262 480 
C 262 172 493 -64 794 -64 
C 1101 -64 1344 172 1344 467 
C 1344 768 1101 1017 800 1017 
z
" transform="scale(0.015625)"/>
     </defs>
     <use xlink:href="#NimbusRomNo9L-Medi-54" transform="scale(0.996264)"/>
     <use xlink:href="#NimbusRomNo9L-Medi-72" transform="translate(59.077729 0) scale(0.996264)"/>
     <use xlink:href="#NimbusRomNo9L-Medi-75" transform="translate(103.311298 0) scale(0.996264)"/>
     <use xlink:href="#NimbusRomNo9L-Medi-65" transform="translate(158.702975 0) scale(0.996264)"/>
     <use xlink:href="#NimbusRomNo9L-Medi-61" transform="translate(227.843144 0) scale(0.996264)"/>
     <use xlink:href="#NimbusRomNo9L-Medi-6e" transform="translate(277.656344 0) scale(0.996264)"/>
     <use xlink:href="#NimbusRomNo9L-Medi-64" transform="translate(333.048021 0) scale(0.996264)"/>
     <use xlink:href="#NimbusRomNo9L-Medi-45" transform="translate(413.346298 0) scale(0.996264)"/>
     <use xlink:href="#NimbusRomNo9L-Medi-73" transform="translate(479.79633 0) scale(0.996264)"/>
     <use xlink:href="#NimbusRomNo9L-Medi-74" transform="translate(518.550036 0) scale(0.996264)"/>
     <use xlink:href="#NimbusRomNo9L-Medi-69" transform="translate(551.725265 0) scale(0.996264)"/>
     <use xlink:href="#NimbusRomNo9L-Medi-6d" transform="translate(579.420435 0) scale(0.996264)"/>
     <use xlink:href="#NimbusRomNo9L-Medi-61" transform="translate(662.408865 0) scale(0.996264)"/>
     <use xlink:href="#NimbusRomNo9L-Medi-74" transform="translate(712.222066 0) scale(0.996264)"/>
     <use xlink:href="#NimbusRomNo9L-Medi-65" transform="translate(745.397296 0) scale(0.996264)"/>
     <use xlink:href="#NimbusRomNo9L-Medi-64" transform="translate(789.630864 0) scale(0.996264)"/>
     <use xlink:href="#NimbusRomNo9L-Medi-4f" transform="translate(869.929141 0) scale(0.996264)"/>
     <use xlink:href="#NimbusRomNo9L-Medi-75" transform="translate(947.437512 0) scale(0.996264)"/>
     <use xlink:href="#NimbusRomNo9L-Medi-74" transform="translate(1002.829189 0) scale(0.996264)"/>
     <use xlink:href="#NimbusRomNo9L-Medi-70" transform="translate(1036.004418 0) scale(0.996264)"/>
     <use xlink:href="#NimbusRomNo9L-Medi-75" transform="translate(1091.396095 0) scale(0.996264)"/>
     <use xlink:href="#NimbusRomNo9L-Medi-74" transform="translate(1146.787772 0) scale(0.996264)"/>
     <use xlink:href="#NimbusRomNo9L-Medi-73" transform="translate(1179.963002 0) scale(0.996264)"/>
     <use xlink:href="#NimbusRomNo9L-Medi-76" transform="translate(1243.623308 0) scale(0.996264)"/>
     <use xlink:href="#NimbusRomNo9L-Medi-73" transform="translate(1293.436509 0) scale(0.996264)"/>
     <use xlink:href="#NimbusRomNo9L-Medi-2e" transform="translate(1332.190215 0) scale(0.996264)"/>
     <use xlink:href="#NimbusRomNo9L-Medi-54" transform="translate(1387.980848 0) scale(0.996264)"/>
     <use xlink:href="#NimbusRomNo9L-Medi-69" transform="translate(1452.6383 0) scale(0.996264)"/>
     <use xlink:href="#NimbusRomNo9L-Medi-6d" transform="translate(1480.333469 0) scale(0.996264)"/>
     <use xlink:href="#NimbusRomNo9L-Medi-65" transform="translate(1563.3219 0) scale(0.996264)"/>
    </g>
   </g>
   <g id="legend_1">
    <g id="patch_7">
     <path d="M 272.007595 69.89807 
L 352.738905 69.89807 
Q 354.538905 69.89807 354.538905 68.09807 
L 354.538905 42.065318 
Q 354.538905 40.265318 352.738905 40.265318 
L 272.007595 40.265318 
Q 270.207595 40.265318 270.207595 42.065318 
L 270.207595 68.09807 
Q 270.207595 69.89807 272.007595 69.89807 
z
" style="fill: #ffffff; opacity: 0.8; stroke: #cccccc; stroke-linejoin: miter"/>
    </g>
    <g id="line2d_23">
     <path d="M 273.807595 47.4401 
L 282.807595 47.4401 
L 291.807595 47.4401 
" style="fill: none; stroke: #463480; stroke-width: 1.8; stroke-linecap: square"/>
    </g>
    <g id="text_14">
     <!-- True $y(t)$ -->
     <g transform="translate(299.007595 50.5901) scale(0.09 -0.09)">
      <defs>
       <path id="NimbusRomNo9L-Regu-54" d="M 1626 3955 
L 1626 765 
C 1626 223 1555 153 1024 121 
L 1024 0 
L 2893 0 
L 2893 121 
C 2368 147 2278 230 2278 695 
L 2278 3955 
L 2624 3955 
C 3354 3955 3494 3840 3642 3138 
L 3795 3138 
L 3757 4224 
L 147 4224 
L 109 3138 
L 262 3138 
C 416 3834 563 3955 1280 3955 
L 1626 3955 
z
" transform="scale(0.015625)"/>
       <path id="NimbusRomNo9L-Regu-72" d="M 45 2496 
C 134 2515 192 2521 269 2521 
C 429 2521 486 2419 486 2137 
L 486 537 
C 486 217 442 172 32 96 
L 32 0 
L 1568 0 
L 1568 96 
C 1133 115 1024 211 1024 576 
L 1024 2016 
C 1024 2220 1299 2540 1472 2540 
C 1510 2540 1568 2508 1638 2444 
C 1741 2355 1811 2316 1894 2316 
C 2048 2316 2144 2425 2144 2604 
C 2144 2815 2010 2944 1792 2944 
C 1523 2944 1338 2796 1024 2342 
L 1024 2931 
L 992 2944 
C 653 2803 422 2720 45 2598 
L 45 2496 
z
" transform="scale(0.015625)"/>
       <path id="NimbusRomNo9L-Regu-75" d="M 3066 319 
L 3034 319 
C 2739 319 2669 390 2669 684 
L 2669 2880 
L 1658 2880 
L 1658 2771 
C 2054 2752 2131 2688 2131 2368 
L 2131 864 
C 2131 684 2099 595 2010 524 
C 1837 384 1638 307 1446 307 
C 1197 307 992 524 992 793 
L 992 2880 
L 58 2880 
L 58 2790 
C 365 2771 454 2675 454 2380 
L 454 768 
C 454 262 762 -64 1229 -64 
C 1466 -64 1715 38 1888 211 
L 2163 486 
L 2163 -45 
L 2189 -64 
C 2509 64 2739 134 3066 224 
L 3066 319 
z
" transform="scale(0.015625)"/>
       <path id="NimbusRomNo9L-Regu-65" d="M 2611 1052 
C 2304 564 2029 377 1619 377 
C 1254 377 979 564 794 930 
C 678 1174 634 1386 621 1779 
L 2592 1779 
C 2541 2193 2477 2377 2317 2580 
C 2125 2809 1830 2944 1498 2944 
C 1178 2944 877 2828 634 2612 
C 333 2351 160 1900 160 1374 
C 160 486 621 -64 1357 -64 
C 1965 -64 2445 313 2714 1007 
L 2611 1052 
z
M 634 1984 
C 704 2478 922 2713 1312 2713 
C 1702 2713 1856 2535 1939 1984 
L 634 1984 
z
" transform="scale(0.015625)"/>
       <path id="NimbusRomNo9L-ReguItal-79" d="M 96 2553 
C 179 2572 224 2579 294 2579 
C 659 2579 755 2419 1050 1318 
C 1158 902 1312 153 1312 44 
C 1312 -58 1274 -161 1178 -276 
C 979 -538 851 -705 781 -782 
C 646 -922 570 -974 486 -974 
C 448 -974 403 -954 333 -903 
C 237 -826 166 -794 96 -794 
C -45 -794 -154 -903 -154 -1044 
C -154 -1204 -13 -1326 173 -1326 
C 582 -1326 1421 -365 2112 902 
C 2547 1689 2726 2150 2726 2463 
C 2726 2655 2566 2816 2374 2816 
C 2227 2816 2125 2719 2125 2579 
C 2125 2483 2176 2412 2304 2329 
C 2426 2259 2470 2201 2470 2111 
C 2470 1855 2234 1356 1690 454 
L 1562 1196 
C 1466 1759 1107 2816 1011 2816 
L 986 2816 
C 979 2809 954 2809 928 2809 
C 870 2803 640 2764 301 2700 
C 269 2694 186 2675 96 2662 
L 96 2553 
z
" transform="scale(0.015625)"/>
       <path id="CMR10-28" d="M 2118 -1536 
C 2118 -1517 2118 -1504 2010 -1396 
C 1210 -589 1005 620 1005 1600 
C 1005 2713 1248 3827 2035 4627 
C 2118 4704 2118 4716 2118 4736 
C 2118 4780 2093 4800 2054 4800 
C 1990 4800 1414 4365 1037 3552 
C 710 2848 634 2137 634 1600 
C 634 1100 704 326 1056 -397 
C 1440 -1184 1990 -1600 2054 -1600 
C 2093 -1600 2118 -1581 2118 -1536 
z
" transform="scale(0.015625)"/>
       <path id="NimbusRomNo9L-ReguItal-74" d="M 1894 2752 
L 1382 2752 
L 1562 3411 
C 1568 3424 1568 3436 1568 3443 
C 1568 3488 1549 3507 1517 3507 
C 1478 3507 1459 3500 1421 3449 
C 1171 3123 774 2803 570 2745 
C 410 2694 365 2655 365 2585 
C 365 2579 365 2566 371 2547 
L 845 2547 
L 384 782 
C 371 724 365 705 346 647 
C 288 454 237 230 237 179 
C 237 38 371 -64 544 -64 
C 838 -64 1050 115 1453 711 
L 1370 756 
C 1056 352 954 249 851 249 
C 794 249 755 300 755 377 
C 755 384 755 390 762 410 
L 1325 2547 
L 1862 2547 
L 1894 2752 
z
" transform="scale(0.015625)"/>
       <path id="CMR10-29" d="M 1850 1600 
C 1850 2099 1779 2873 1427 3597 
C 1043 4384 493 4800 429 4800 
C 390 4800 365 4774 365 4736 
C 365 4716 365 4704 486 4589 
C 1114 3955 1478 2937 1478 1600 
C 1478 505 1242 -621 448 -1428 
C 365 -1504 365 -1517 365 -1536 
C 365 -1575 390 -1600 429 -1600 
C 493 -1600 1069 -1165 1446 -352 
C 1773 352 1850 1062 1850 1600 
z
" transform="scale(0.015625)"/>
      </defs>
      <use xlink:href="#NimbusRomNo9L-Regu-54" transform="scale(0.996264)"/>
      <use xlink:href="#NimbusRomNo9L-Regu-72" transform="translate(57.384904 0) scale(0.996264)"/>
      <use xlink:href="#NimbusRomNo9L-Regu-75" transform="translate(90.560134 0) scale(0.996264)"/>
      <use xlink:href="#NimbusRomNo9L-Regu-65" transform="translate(140.373334 0) scale(0.996264)"/>
      <use xlink:href="#NimbusRomNo9L-ReguItal-79" transform="translate(209.513503 0) scale(0.996264)"/>
      <use xlink:href="#CMR10-28" transform="translate(253.747072 0) scale(0.996264)"/>
      <use xlink:href="#NimbusRomNo9L-ReguItal-74" transform="translate(289.910288 0) scale(0.996264)"/>
      <use xlink:href="#CMR10-29" transform="translate(324.379281 0) scale(0.996264)"/>
     </g>
    </g>
    <g id="line2d_24">
     <path d="M 273.807595 60.906476 
L 282.807595 60.906476 
L 282.807595 60.906476 
L 291.807595 60.906476 
L 291.807595 60.906476 
" style="fill: none; stroke-dasharray: 6.66,2.88; stroke-dashoffset: 0; stroke: #7ad151; stroke-width: 1.8"/>
    </g>
    <g id="text_15">
     <!-- Estimated $\hat{y}(t)$ -->
     <g transform="translate(299.007595 64.056476) scale(0.09 -0.09)">
      <defs>
       <path id="NimbusRomNo9L-Regu-45" d="M 3821 1087 
L 3642 1087 
C 3322 391 3046 236 2131 236 
L 1958 236 
C 1645 236 1376 269 1331 314 
C 1299 333 1286 404 1286 513 
L 1286 2105 
L 2272 2105 
C 2797 2105 2893 2021 2976 1487 
L 3123 1487 
L 3123 2966 
L 2976 2966 
C 2931 2708 2906 2613 2835 2525 
C 2752 2418 2573 2368 2272 2368 
L 1286 2368 
L 1286 3766 
C 1286 3942 1325 3980 1498 3980 
L 2362 3980 
C 3085 3980 3226 3886 3334 3319 
L 3494 3319 
L 3475 4224 
L 77 4224 
L 77 4102 
C 550 4064 634 3975 634 3528 
L 634 695 
C 634 249 544 153 77 121 
L 77 0 
L 3533 0 
L 3821 1087 
z
" transform="scale(0.015625)"/>
       <path id="NimbusRomNo9L-Regu-73" d="M 2016 2009 
L 1990 2880 
L 1920 2880 
L 1907 2867 
C 1850 2822 1843 2815 1818 2815 
C 1779 2815 1715 2828 1645 2860 
C 1504 2918 1363 2944 1197 2944 
C 691 2944 326 2617 326 2155 
C 326 1796 531 1539 1075 1231 
L 1446 1019 
C 1670 891 1779 737 1779 538 
C 1779 256 1574 76 1248 76 
C 1030 76 832 160 710 301 
C 576 461 518 609 435 974 
L 333 974 
L 333 -26 
L 416 -26 
C 461 38 486 51 563 51 
C 621 51 710 38 858 0 
C 1037 -39 1210 -64 1325 -64 
C 1818 -64 2227 307 2227 756 
C 2227 1077 2074 1289 1690 1520 
L 998 1930 
C 819 2033 723 2193 723 2366 
C 723 2623 922 2803 1216 2803 
C 1581 2803 1773 2585 1920 2014 
L 2016 2009 
z
" transform="scale(0.015625)"/>
       <path id="NimbusRomNo9L-Regu-74" d="M 1632 2880 
L 986 2880 
L 986 3622 
C 986 3686 979 3705 941 3705 
C 896 3648 858 3590 813 3526 
C 570 3174 294 2867 192 2841 
C 122 2796 83 2751 83 2719 
C 83 2700 90 2687 109 2675 
L 448 2675 
L 448 748 
C 448 211 640 -64 1018 -64 
C 1331 -64 1574 89 1786 422 
L 1702 492 
C 1568 332 1459 268 1318 268 
C 1082 268 986 441 986 844 
L 986 2675 
L 1632 2675 
L 1632 2880 
z
" transform="scale(0.015625)"/>
       <path id="NimbusRomNo9L-Regu-69" d="M 1120 2944 
L 128 2592 
L 128 2496 
L 179 2502 
C 256 2515 339 2521 397 2521 
C 550 2521 608 2419 608 2137 
L 608 652 
C 608 192 544 121 102 96 
L 102 0 
L 1619 0 
L 1619 96 
C 1197 128 1146 192 1146 652 
L 1146 2924 
L 1120 2944 
z
M 819 4352 
C 646 4352 499 4204 499 4025 
C 499 3846 640 3699 819 3699 
C 1005 3699 1152 3839 1152 4025 
C 1152 4204 1005 4352 819 4352 
z
" transform="scale(0.015625)"/>
       <path id="NimbusRomNo9L-Regu-6d" d="M 122 2547 
C 205 2566 256 2572 326 2572 
C 493 2572 550 2470 550 2163 
L 550 544 
C 550 198 461 102 102 96 
L 102 0 
L 1523 0 
L 1523 96 
C 1184 108 1088 179 1088 428 
L 1088 2233 
C 1088 2246 1139 2310 1184 2355 
C 1344 2502 1619 2611 1843 2611 
C 2125 2611 2266 2387 2266 1939 
L 2266 550 
C 2266 192 2195 121 1830 96 
L 1830 0 
L 3264 0 
L 3264 96 
C 2899 102 2803 211 2803 608 
L 2803 2220 
C 2995 2496 3206 2611 3501 2611 
C 3866 2611 3981 2438 3981 1907 
L 3981 556 
C 3981 192 3930 140 3558 96 
L 3558 0 
L 4960 0 
L 4960 96 
L 4794 108 
C 4602 121 4518 236 4518 486 
L 4518 1804 
C 4518 2560 4269 2944 3776 2944 
C 3405 2944 3078 2777 2733 2406 
C 2618 2771 2400 2944 2054 2944 
C 1773 2944 1594 2854 1062 2451 
L 1062 2931 
L 1018 2944 
C 691 2822 474 2751 122 2655 
L 122 2547 
z
" transform="scale(0.015625)"/>
       <path id="NimbusRomNo9L-Regu-61" d="M 2829 422 
C 2720 332 2643 300 2547 300 
C 2400 300 2355 390 2355 672 
L 2355 1920 
C 2355 2252 2323 2438 2227 2592 
C 2086 2822 1811 2944 1434 2944 
C 832 2944 358 2630 358 2227 
C 358 2080 486 1952 634 1952 
C 787 1952 922 2080 922 2220 
C 922 2246 915 2278 909 2323 
C 896 2380 890 2432 890 2476 
C 890 2649 1094 2790 1350 2790 
C 1664 2790 1837 2604 1837 2259 
L 1837 1868 
C 851 1472 742 1420 467 1177 
C 326 1049 237 832 237 620 
C 237 217 518 -64 909 -64 
C 1190 -64 1453 70 1843 403 
C 1875 70 1990 -64 2253 -64 
C 2470 -64 2605 12 2829 256 
L 2829 422 
z
M 1837 787 
C 1837 588 1805 531 1670 454 
C 1517 364 1338 307 1203 307 
C 979 307 800 524 800 800 
L 800 825 
C 800 1203 1062 1433 1837 1715 
L 1837 787 
z
" transform="scale(0.015625)"/>
       <path id="NimbusRomNo9L-Regu-64" d="M 2202 -64 
L 3142 268 
L 3142 371 
C 3027 364 3014 364 2995 364 
C 2765 364 2714 435 2714 729 
L 2714 4358 
L 2682 4371 
C 2374 4262 2150 4198 1741 4089 
L 1741 3987 
C 1792 3993 1830 3993 1882 3993 
C 2118 3993 2176 3929 2176 3667 
L 2176 2668 
C 1933 2873 1760 2944 1504 2944 
C 768 2944 173 2220 173 1312 
C 173 492 653 -64 1357 -64 
C 1715 -64 1958 64 2176 364 
L 2176 -45 
L 2202 -64 
z
M 2176 652 
C 2176 608 2131 531 2067 460 
C 1952 332 1792 268 1606 268 
C 1075 268 723 780 723 1568 
C 723 2291 1037 2764 1523 2764 
C 1862 2764 2176 2464 2176 2124 
L 2176 652 
z
" transform="scale(0.015625)"/>
       <path id="NimbusRomNo9L-Regu-88" d="M 2061 3219 
L 1261 4288 
L 864 4288 
L 70 3219 
L 288 3219 
L 1062 3878 
L 1843 3219 
L 2061 3219 
z
" transform="scale(0.015625)"/>
      </defs>
      <use xlink:href="#NimbusRomNo9L-Regu-45" transform="scale(0.996264)"/>
      <use xlink:href="#NimbusRomNo9L-Regu-73" transform="translate(60.871631 0) scale(0.996264)"/>
      <use xlink:href="#NimbusRomNo9L-Regu-74" transform="translate(99.625337 0) scale(0.996264)"/>
      <use xlink:href="#NimbusRomNo9L-Regu-69" transform="translate(127.320506 0) scale(0.996264)"/>
      <use xlink:href="#NimbusRomNo9L-Regu-6d" transform="translate(155.015676 0) scale(0.996264)"/>
      <use xlink:href="#NimbusRomNo9L-Regu-61" transform="translate(232.524046 0) scale(0.996264)"/>
      <use xlink:href="#NimbusRomNo9L-Regu-74" transform="translate(276.757615 0) scale(0.996264)"/>
      <use xlink:href="#NimbusRomNo9L-Regu-65" transform="translate(304.452784 0) scale(0.996264)"/>
      <use xlink:href="#NimbusRomNo9L-Regu-64" transform="translate(348.686353 0) scale(0.996264)"/>
      <use xlink:href="#NimbusRomNo9L-Regu-88" transform="translate(436.407281 0) scale(0.996264)"/>
      <use xlink:href="#NimbusRomNo9L-ReguItal-79" transform="translate(423.406154 0) scale(0.996264)"/>
      <use xlink:href="#CMR10-28" transform="translate(467.639723 0) scale(0.996264)"/>
      <use xlink:href="#NimbusRomNo9L-ReguItal-74" transform="translate(503.802939 0) scale(0.996264)"/>
      <use xlink:href="#CMR10-29" transform="translate(538.271931 0) scale(0.996264)"/>
     </g>
    </g>
   </g>
  </g>
  <g id="axes_2">
   <g id="patch_8">
    <path d="M 415.244537 223.177187 
L 720 223.177187 
L 720 35.765318 
L 415.244537 35.765318 
z
" style="fill: #ffffff"/>
   </g>
   <g id="matplotlib.axis_3">
    <g id="xtick_6">
     <g id="line2d_25">
      <path d="M 429.097058 223.177187 
L 429.097058 35.765318 
" clip-path="url(#p320ce1ffcc)" style="fill: none; stroke-dasharray: 2.22,0.96; stroke-dashoffset: 0; stroke: #b0b0b0; stroke-width: 0.6"/>
     </g>
     <g id="line2d_26">
      <g>
       <use xlink:href="#mc3532e1988" x="429.097058" y="223.177187" style="stroke: #000000; stroke-width: 0.8"/>
      </g>
     </g>
     <g id="text_16">
      <!-- $\mathdefault{0.0}$ -->
      <g transform="translate(422.735963 236.931765) scale(0.1 -0.1)">
       <use xlink:href="#NimbusRomNo9L-Regu-30" transform="scale(0.996264)"/>
       <use xlink:href="#CMMI10-3a" transform="translate(49.8132 0) scale(0.996264)"/>
       <use xlink:href="#NimbusRomNo9L-Regu-30" transform="translate(77.408707 0) scale(0.996264)"/>
      </g>
     </g>
    </g>
    <g id="xtick_7">
     <g id="line2d_27">
      <path d="M 498.359663 223.177187 
L 498.359663 35.765318 
" clip-path="url(#p320ce1ffcc)" style="fill: none; stroke-dasharray: 2.22,0.96; stroke-dashoffset: 0; stroke: #b0b0b0; stroke-width: 0.6"/>
     </g>
     <g id="line2d_28">
      <g>
       <use xlink:href="#mc3532e1988" x="498.359663" y="223.177187" style="stroke: #000000; stroke-width: 0.8"/>
      </g>
     </g>
     <g id="text_17">
      <!-- $\mathdefault{1.5}$ -->
      <g transform="translate(491.998569 236.931765) scale(0.1 -0.1)">
       <use xlink:href="#NimbusRomNo9L-Regu-31" transform="scale(0.996264)"/>
       <use xlink:href="#CMMI10-3a" transform="translate(49.8132 0) scale(0.996264)"/>
       <use xlink:href="#NimbusRomNo9L-Regu-35" transform="translate(77.408707 0) scale(0.996264)"/>
      </g>
     </g>
    </g>
    <g id="xtick_8">
     <g id="line2d_29">
      <path d="M 567.622268 223.177187 
L 567.622268 35.765318 
" clip-path="url(#p320ce1ffcc)" style="fill: none; stroke-dasharray: 2.22,0.96; stroke-dashoffset: 0; stroke: #b0b0b0; stroke-width: 0.6"/>
     </g>
     <g id="line2d_30">
      <g>
       <use xlink:href="#mc3532e1988" x="567.622268" y="223.177187" style="stroke: #000000; stroke-width: 0.8"/>
      </g>
     </g>
     <g id="text_18">
      <!-- $\mathdefault{3.0}$ -->
      <g transform="translate(561.261174 236.931765) scale(0.1 -0.1)">
       <use xlink:href="#NimbusRomNo9L-Regu-33" transform="scale(0.996264)"/>
       <use xlink:href="#CMMI10-3a" transform="translate(49.8132 0) scale(0.996264)"/>
       <use xlink:href="#NimbusRomNo9L-Regu-30" transform="translate(77.408707 0) scale(0.996264)"/>
      </g>
     </g>
    </g>
    <g id="xtick_9">
     <g id="line2d_31">
      <path d="M 636.884874 223.177187 
L 636.884874 35.765318 
" clip-path="url(#p320ce1ffcc)" style="fill: none; stroke-dasharray: 2.22,0.96; stroke-dashoffset: 0; stroke: #b0b0b0; stroke-width: 0.6"/>
     </g>
     <g id="line2d_32">
      <g>
       <use xlink:href="#mc3532e1988" x="636.884874" y="223.177187" style="stroke: #000000; stroke-width: 0.8"/>
      </g>
     </g>
     <g id="text_19">
      <!-- $\mathdefault{4.5}$ -->
      <g transform="translate(630.523779 236.931765) scale(0.1 -0.1)">
       <use xlink:href="#NimbusRomNo9L-Regu-34" transform="scale(0.996264)"/>
       <use xlink:href="#CMMI10-3a" transform="translate(49.8132 0) scale(0.996264)"/>
       <use xlink:href="#NimbusRomNo9L-Regu-35" transform="translate(77.408707 0) scale(0.996264)"/>
      </g>
     </g>
    </g>
    <g id="xtick_10">
     <g id="line2d_33">
      <path d="M 706.147479 223.177187 
L 706.147479 35.765318 
" clip-path="url(#p320ce1ffcc)" style="fill: none; stroke-dasharray: 2.22,0.96; stroke-dashoffset: 0; stroke: #b0b0b0; stroke-width: 0.6"/>
     </g>
     <g id="line2d_34">
      <g>
       <use xlink:href="#mc3532e1988" x="706.147479" y="223.177187" style="stroke: #000000; stroke-width: 0.8"/>
      </g>
     </g>
     <g id="text_20">
      <!-- $\mathdefault{6.0}$ -->
      <g transform="translate(699.786384 236.931765) scale(0.1 -0.1)">
       <use xlink:href="#NimbusRomNo9L-Regu-36" transform="scale(0.996264)"/>
       <use xlink:href="#CMMI10-3a" transform="translate(49.8132 0) scale(0.996264)"/>
       <use xlink:href="#NimbusRomNo9L-Regu-30" transform="translate(77.408707 0) scale(0.996264)"/>
      </g>
     </g>
    </g>
    <g id="text_21">
     <!-- \textbf{Time} -->
     <g transform="translate(556.643549 249.843171) scale(0.1 -0.1)">
      <use xlink:href="#NimbusRomNo9L-Medi-54" transform="scale(0.996264)"/>
      <use xlink:href="#NimbusRomNo9L-Medi-69" transform="translate(64.657452 0) scale(0.996264)"/>
      <use xlink:href="#NimbusRomNo9L-Medi-6d" transform="translate(92.352622 0) scale(0.996264)"/>
      <use xlink:href="#NimbusRomNo9L-Medi-65" transform="translate(175.341052 0) scale(0.996264)"/>
     </g>
    </g>
   </g>
   <g id="matplotlib.axis_4">
    <g id="ytick_6">
     <g id="line2d_35">
      <path d="M 415.244537 214.658466 
L 720 214.658466 
" clip-path="url(#p320ce1ffcc)" style="fill: none; stroke-dasharray: 2.22,0.96; stroke-dashoffset: 0; stroke: #b0b0b0; stroke-width: 0.6"/>
     </g>
     <g id="line2d_36">
      <g>
       <use xlink:href="#mdc3502e09d" x="415.244537" y="214.658466" style="stroke: #000000; stroke-width: 0.8"/>
      </g>
     </g>
     <g id="text_22">
      <!-- $\mathdefault{0.50}$ -->
      <g transform="translate(382.800158 218.035755) scale(0.1 -0.1)">
       <defs>
        <path id="CMSY10-0" d="M 4218 1472 
C 4326 1472 4442 1472 4442 1600 
C 4442 1728 4326 1728 4218 1728 
L 755 1728 
C 646 1728 531 1728 531 1600 
C 531 1472 646 1472 755 1472 
L 4218 1472 
z
" transform="scale(0.015625)"/>
       </defs>
       <use xlink:href="#CMSY10-0" transform="scale(0.996264)"/>
       <use xlink:href="#NimbusRomNo9L-Regu-30" transform="translate(77.408707 0) scale(0.996264)"/>
       <use xlink:href="#CMMI10-3a" transform="translate(127.221908 0) scale(0.996264)"/>
       <use xlink:href="#NimbusRomNo9L-Regu-35" transform="translate(154.817414 0) scale(0.996264)"/>
       <use xlink:href="#NimbusRomNo9L-Regu-30" transform="translate(204.630615 0) scale(0.996264)"/>
      </g>
     </g>
    </g>
    <g id="ytick_7">
     <g id="line2d_37">
      <path d="M 415.244537 172.064859 
L 720 172.064859 
" clip-path="url(#p320ce1ffcc)" style="fill: none; stroke-dasharray: 2.22,0.96; stroke-dashoffset: 0; stroke: #b0b0b0; stroke-width: 0.6"/>
     </g>
     <g id="line2d_38">
      <g>
       <use xlink:href="#mdc3502e09d" x="415.244537" y="172.064859" style="stroke: #000000; stroke-width: 0.8"/>
      </g>
     </g>
     <g id="text_23">
      <!-- $\mathdefault{0.25}$ -->
      <g transform="translate(382.800158 175.442148) scale(0.1 -0.1)">
       <use xlink:href="#CMSY10-0" transform="scale(0.996264)"/>
       <use xlink:href="#NimbusRomNo9L-Regu-30" transform="translate(77.408707 0) scale(0.996264)"/>
       <use xlink:href="#CMMI10-3a" transform="translate(127.221908 0) scale(0.996264)"/>
       <use xlink:href="#NimbusRomNo9L-Regu-32" transform="translate(154.817414 0) scale(0.996264)"/>
       <use xlink:href="#NimbusRomNo9L-Regu-35" transform="translate(204.630615 0) scale(0.996264)"/>
      </g>
     </g>
    </g>
    <g id="ytick_8">
     <g id="line2d_39">
      <path d="M 415.244537 129.471253 
L 720 129.471253 
" clip-path="url(#p320ce1ffcc)" style="fill: none; stroke-dasharray: 2.22,0.96; stroke-dashoffset: 0; stroke: #b0b0b0; stroke-width: 0.6"/>
     </g>
     <g id="line2d_40">
      <g>
       <use xlink:href="#mdc3502e09d" x="415.244537" y="129.471253" style="stroke: #000000; stroke-width: 0.8"/>
      </g>
     </g>
     <g id="text_24">
      <!-- $\mathdefault{0.00}$ -->
      <g transform="translate(390.541028 132.848541) scale(0.1 -0.1)">
       <use xlink:href="#NimbusRomNo9L-Regu-30" transform="scale(0.996264)"/>
       <use xlink:href="#CMMI10-3a" transform="translate(49.8132 0) scale(0.996264)"/>
       <use xlink:href="#NimbusRomNo9L-Regu-30" transform="translate(77.408707 0) scale(0.996264)"/>
       <use xlink:href="#NimbusRomNo9L-Regu-30" transform="translate(127.221908 0) scale(0.996264)"/>
      </g>
     </g>
    </g>
    <g id="ytick_9">
     <g id="line2d_41">
      <path d="M 415.244537 86.877646 
L 720 86.877646 
" clip-path="url(#p320ce1ffcc)" style="fill: none; stroke-dasharray: 2.22,0.96; stroke-dashoffset: 0; stroke: #b0b0b0; stroke-width: 0.6"/>
     </g>
     <g id="line2d_42">
      <g>
       <use xlink:href="#mdc3502e09d" x="415.244537" y="86.877646" style="stroke: #000000; stroke-width: 0.8"/>
      </g>
     </g>
     <g id="text_25">
      <!-- $\mathdefault{0.25}$ -->
      <g transform="translate(390.541028 90.254935) scale(0.1 -0.1)">
       <use xlink:href="#NimbusRomNo9L-Regu-30" transform="scale(0.996264)"/>
       <use xlink:href="#CMMI10-3a" transform="translate(49.8132 0) scale(0.996264)"/>
       <use xlink:href="#NimbusRomNo9L-Regu-32" transform="translate(77.408707 0) scale(0.996264)"/>
       <use xlink:href="#NimbusRomNo9L-Regu-35" transform="translate(127.221908 0) scale(0.996264)"/>
      </g>
     </g>
    </g>
    <g id="ytick_10">
     <g id="line2d_43">
      <path d="M 415.244537 44.284039 
L 720 44.284039 
" clip-path="url(#p320ce1ffcc)" style="fill: none; stroke-dasharray: 2.22,0.96; stroke-dashoffset: 0; stroke: #b0b0b0; stroke-width: 0.6"/>
     </g>
     <g id="line2d_44">
      <g>
       <use xlink:href="#mdc3502e09d" x="415.244537" y="44.284039" style="stroke: #000000; stroke-width: 0.8"/>
      </g>
     </g>
     <g id="text_26">
      <!-- $\mathdefault{0.50}$ -->
      <g transform="translate(390.541028 47.661328) scale(0.1 -0.1)">
       <use xlink:href="#NimbusRomNo9L-Regu-30" transform="scale(0.996264)"/>
       <use xlink:href="#CMMI10-3a" transform="translate(49.8132 0) scale(0.996264)"/>
       <use xlink:href="#NimbusRomNo9L-Regu-35" transform="translate(77.408707 0) scale(0.996264)"/>
       <use xlink:href="#NimbusRomNo9L-Regu-30" transform="translate(127.221908 0) scale(0.996264)"/>
      </g>
     </g>
    </g>
    <g id="text_27">
     <!-- \textbf{Control Input} -->
     <g transform="translate(376.64333 159.134726) rotate(-90) scale(0.1 -0.1)">
      <defs>
       <path id="NimbusRomNo9L-Medi-43" d="M 4205 966 
C 3827 569 3622 416 3309 294 
C 3123 217 2912 179 2733 179 
C 2310 179 1907 403 1722 736 
C 1536 1075 1446 1536 1446 2176 
C 1446 3501 1856 4204 2624 4204 
C 2925 4204 3200 4089 3475 3846 
C 3750 3597 3898 3385 4122 2899 
L 4282 2899 
L 4282 4396 
L 4109 4396 
C 4019 4173 3949 4102 3827 4102 
C 3770 4102 3674 4128 3533 4192 
C 3155 4345 2848 4416 2541 4416 
C 1267 4416 314 3430 314 2124 
C 314 806 1254 -128 2579 -128 
C 3034 -128 3411 -20 3763 217 
C 3968 358 4109 486 4397 806 
L 4205 966 
z
" transform="scale(0.015625)"/>
       <path id="NimbusRomNo9L-Medi-49" d="M 723 617 
C 723 295 608 205 128 160 
L 128 0 
L 2368 0 
L 2368 160 
C 1882 192 1760 282 1760 617 
L 1760 3734 
C 1760 4069 1894 4172 2368 4191 
L 2368 4352 
L 128 4352 
L 128 4191 
C 589 4159 723 4062 723 3734 
L 723 617 
z
" transform="scale(0.015625)"/>
      </defs>
      <use xlink:href="#NimbusRomNo9L-Medi-43" transform="scale(0.996264)"/>
      <use xlink:href="#NimbusRomNo9L-Medi-6f" transform="translate(71.929985 0) scale(0.996264)"/>
      <use xlink:href="#NimbusRomNo9L-Medi-6e" transform="translate(121.743185 0) scale(0.996264)"/>
      <use xlink:href="#NimbusRomNo9L-Medi-74" transform="translate(177.134862 0) scale(0.996264)"/>
      <use xlink:href="#NimbusRomNo9L-Medi-72" transform="translate(210.310092 0) scale(0.996264)"/>
      <use xlink:href="#NimbusRomNo9L-Medi-6f" transform="translate(252.751082 0) scale(0.996264)"/>
      <use xlink:href="#NimbusRomNo9L-Medi-6c" transform="translate(302.564282 0) scale(0.996264)"/>
      <use xlink:href="#NimbusRomNo9L-Medi-49" transform="translate(355.166052 0) scale(0.996264)"/>
      <use xlink:href="#NimbusRomNo9L-Medi-6e" transform="translate(393.919758 0) scale(0.996264)"/>
      <use xlink:href="#NimbusRomNo9L-Medi-70" transform="translate(449.311435 0) scale(0.996264)"/>
      <use xlink:href="#NimbusRomNo9L-Medi-75" transform="translate(504.703112 0) scale(0.996264)"/>
      <use xlink:href="#NimbusRomNo9L-Medi-74" transform="translate(560.094789 0) scale(0.996264)"/>
     </g>
    </g>
   </g>
   <g id="line2d_45">
    <path d="M 429.097058 44.284039 
L 438.332072 44.284039 
L 438.332072 44.284039 
L 447.567086 44.284039 
L 447.567086 44.284039 
L 456.8021 44.284039 
L 456.8021 214.658466 
L 466.037114 214.658466 
L 466.037114 214.658466 
L 475.272128 214.658466 
L 475.272128 214.658466 
L 484.507142 214.658466 
L 484.507142 171.478082 
L 493.742156 171.478082 
L 493.742156 144.648353 
L 502.97717 144.648353 
L 502.97717 118.560575 
L 512.212184 118.560575 
L 512.212184 126.476886 
L 521.447198 126.476886 
L 521.447198 112.43381 
L 530.682212 112.43381 
L 530.682212 115.047295 
L 539.917226 115.047295 
L 539.917226 115.315388 
L 549.15224 115.315388 
L 549.15224 114.878467 
L 558.387254 114.878467 
L 558.387254 131.853933 
L 567.622268 131.853933 
L 567.622268 119.971951 
L 576.857283 119.971951 
L 576.857283 142.727065 
L 586.092297 142.727065 
L 586.092297 116.547432 
L 595.327311 116.547432 
L 595.327311 116.478663 
L 604.562325 116.478663 
L 604.562325 120.602844 
L 613.797339 120.602844 
L 613.797339 115.510956 
L 623.032353 115.510956 
L 623.032353 113.435836 
L 632.267367 113.435836 
L 632.267367 118.222771 
L 641.502381 118.222771 
L 641.502381 114.917129 
L 650.737395 114.917129 
L 650.737395 116.415524 
L 659.972409 116.415524 
L 659.972409 113.973505 
L 669.207423 113.973505 
L 669.207423 112.85487 
L 678.442437 112.85487 
L 678.442437 121.03681 
L 687.677451 121.03681 
L 687.677451 115.931997 
L 696.912465 115.931997 
L 696.912465 112.43381 
L 706.147479 112.43381 
L 706.147479 121.241844 
" clip-path="url(#p320ce1ffcc)" style="fill: none; stroke: #25848e; stroke-width: 2; stroke-linecap: square"/>
   </g>
   <g id="line2d_46">
    <path d="M 429.097058 214.658466 
L 438.332072 214.658466 
L 447.567086 214.658466 
L 456.8021 214.658466 
L 466.037114 214.658466 
L 475.272128 214.658466 
L 484.507142 214.658466 
L 493.742156 214.658466 
L 502.97717 214.658466 
L 512.212184 214.658466 
L 521.447198 214.658466 
L 530.682212 214.658466 
L 539.917226 214.658466 
L 549.15224 214.658466 
L 558.387254 214.658466 
L 567.622268 214.658466 
L 576.857283 214.658466 
L 586.092297 214.658466 
L 595.327311 214.658466 
L 604.562325 214.658466 
L 613.797339 214.658466 
L 623.032353 214.658466 
L 632.267367 214.658466 
L 641.502381 214.658466 
L 650.737395 214.658466 
L 659.972409 214.658466 
L 669.207423 214.658466 
L 678.442437 214.658466 
L 687.677451 214.658466 
L 696.912465 214.658466 
L 706.147479 214.658466 
" clip-path="url(#p320ce1ffcc)" style="fill: none; stroke-dasharray: 5.55,2.4; stroke-dashoffset: 0; stroke: #d2e21b; stroke-width: 1.5"/>
   </g>
   <g id="line2d_47">
    <path d="M 429.097058 112.43381 
L 438.332072 112.43381 
L 447.567086 112.43381 
L 456.8021 112.43381 
L 466.037114 112.43381 
L 475.272128 112.43381 
L 484.507142 112.43381 
L 493.742156 112.43381 
L 502.97717 112.43381 
L 512.212184 112.43381 
L 521.447198 112.43381 
L 530.682212 112.43381 
L 539.917226 112.43381 
L 549.15224 112.43381 
L 558.387254 112.43381 
L 567.622268 112.43381 
L 576.857283 112.43381 
L 586.092297 112.43381 
L 595.327311 112.43381 
L 604.562325 112.43381 
L 613.797339 112.43381 
L 623.032353 112.43381 
L 632.267367 112.43381 
L 641.502381 112.43381 
L 650.737395 112.43381 
L 659.972409 112.43381 
L 669.207423 112.43381 
L 678.442437 112.43381 
L 687.677451 112.43381 
L 696.912465 112.43381 
L 706.147479 112.43381 
" clip-path="url(#p320ce1ffcc)" style="fill: none; stroke-dasharray: 5.55,2.4; stroke-dashoffset: 0; stroke: #d2e21b; stroke-width: 1.5"/>
   </g>
   <g id="patch_9">
    <path d="M 415.244537 223.177187 
L 415.244537 35.765318 
" style="fill: none; stroke: #000000; stroke-width: 0.8; stroke-linejoin: miter; stroke-linecap: square"/>
   </g>
   <g id="patch_10">
    <path d="M 720 223.177187 
L 720 35.765318 
" style="fill: none; stroke: #000000; stroke-width: 0.8; stroke-linejoin: miter; stroke-linecap: square"/>
   </g>
   <g id="patch_11">
    <path d="M 415.244537 223.177187 
L 720 223.177187 
" style="fill: none; stroke: #000000; stroke-width: 0.8; stroke-linejoin: miter; stroke-linecap: square"/>
   </g>
   <g id="patch_12">
    <path d="M 415.244537 35.765318 
L 720 35.765318 
" style="fill: none; stroke: #000000; stroke-width: 0.8; stroke-linejoin: miter; stroke-linecap: square"/>
   </g>
   <g id="text_28">
    <!-- \textbf{Control Input vs. Time} -->
    <g transform="translate(508.695797 29.765318) scale(0.12 -0.12)">
     <use xlink:href="#NimbusRomNo9L-Medi-43" transform="scale(0.996264)"/>
     <use xlink:href="#NimbusRomNo9L-Medi-6f" transform="translate(71.929985 0) scale(0.996264)"/>
     <use xlink:href="#NimbusRomNo9L-Medi-6e" transform="translate(121.743185 0) scale(0.996264)"/>
     <use xlink:href="#NimbusRomNo9L-Medi-74" transform="translate(177.134862 0) scale(0.996264)"/>
     <use xlink:href="#NimbusRomNo9L-Medi-72" transform="translate(210.310092 0) scale(0.996264)"/>
     <use xlink:href="#NimbusRomNo9L-Medi-6f" transform="translate(252.751082 0) scale(0.996264)"/>
     <use xlink:href="#NimbusRomNo9L-Medi-6c" transform="translate(302.564282 0) scale(0.996264)"/>
     <use xlink:href="#NimbusRomNo9L-Medi-49" transform="translate(355.166052 0) scale(0.996264)"/>
     <use xlink:href="#NimbusRomNo9L-Medi-6e" transform="translate(393.919758 0) scale(0.996264)"/>
     <use xlink:href="#NimbusRomNo9L-Medi-70" transform="translate(449.311435 0) scale(0.996264)"/>
     <use xlink:href="#NimbusRomNo9L-Medi-75" transform="translate(504.703112 0) scale(0.996264)"/>
     <use xlink:href="#NimbusRomNo9L-Medi-74" transform="translate(560.094789 0) scale(0.996264)"/>
     <use xlink:href="#NimbusRomNo9L-Medi-76" transform="translate(618.176619 0) scale(0.996264)"/>
     <use xlink:href="#NimbusRomNo9L-Medi-73" transform="translate(667.98982 0) scale(0.996264)"/>
     <use xlink:href="#NimbusRomNo9L-Medi-2e" transform="translate(706.743526 0) scale(0.996264)"/>
     <use xlink:href="#NimbusRomNo9L-Medi-54" transform="translate(762.534158 0) scale(0.996264)"/>
     <use xlink:href="#NimbusRomNo9L-Medi-69" transform="translate(827.191611 0) scale(0.996264)"/>
     <use xlink:href="#NimbusRomNo9L-Medi-6d" transform="translate(854.88678 0) scale(0.996264)"/>
     <use xlink:href="#NimbusRomNo9L-Medi-65" transform="translate(937.87521 0) scale(0.996264)"/>
    </g>
   </g>
   <g id="legend_2">
    <g id="patch_13">
     <path d="M 624.879836 69.17284 
L 713.7 69.17284 
Q 715.5 69.17284 715.5 67.37284 
L 715.5 42.065318 
Q 715.5 40.265318 713.7 40.265318 
L 624.879836 40.265318 
Q 623.079836 40.265318 623.079836 42.065318 
L 623.079836 67.37284 
Q 623.079836 69.17284 624.879836 69.17284 
z
" style="fill: #ffffff; opacity: 0.8; stroke: #cccccc; stroke-linejoin: miter"/>
    </g>
    <g id="line2d_48">
     <path d="M 626.679836 47.4401 
L 635.679836 47.4401 
L 635.679836 47.4401 
L 644.679836 47.4401 
L 644.679836 47.4401 
" style="fill: none; stroke: #25848e; stroke-width: 2; stroke-linecap: square"/>
    </g>
    <g id="text_29">
     <!-- Control $u(t)$ -->
     <g transform="translate(651.879836 50.5901) scale(0.09 -0.09)">
      <defs>
       <path id="NimbusRomNo9L-Regu-43" d="M 3968 2905 
L 3910 4352 
L 3776 4352 
C 3738 4217 3635 4140 3507 4140 
C 3450 4140 3354 4159 3258 4198 
C 2944 4300 2624 4352 2323 4352 
C 1798 4352 1267 4153 870 3801 
C 422 3405 179 2809 179 2105 
C 179 1510 371 960 698 595 
C 1082 179 1670 -64 2304 -64 
C 3027 -64 3661 230 4051 748 
L 3936 864 
C 3462 409 3040 217 2509 217 
C 2106 217 1747 345 1472 588 
C 1120 902 922 1478 922 2188 
C 922 3347 1517 4095 2445 4095 
C 2810 4095 3142 3961 3398 3705 
C 3603 3501 3699 3321 3821 2905 
L 3968 2905 
z
" transform="scale(0.015625)"/>
       <path id="NimbusRomNo9L-Regu-6f" d="M 1600 2944 
C 768 2944 186 2329 186 1446 
C 186 582 781 -64 1587 -64 
C 2394 -64 3008 614 3008 1497 
C 3008 2336 2419 2944 1600 2944 
z
M 1517 2764 
C 2054 2764 2432 2150 2432 1273 
C 2432 550 2144 115 1664 115 
C 1414 115 1178 268 1043 524 
C 864 857 762 1305 762 1760 
C 762 2368 1062 2764 1517 2764 
z
" transform="scale(0.015625)"/>
       <path id="NimbusRomNo9L-Regu-6e" d="M 102 2547 
C 141 2566 205 2572 275 2572 
C 454 2572 512 2476 512 2163 
L 512 576 
C 512 211 442 121 115 96 
L 115 0 
L 1472 0 
L 1472 96 
C 1146 121 1050 198 1050 428 
L 1050 2227 
C 1357 2515 1498 2591 1709 2591 
C 2022 2591 2176 2393 2176 1971 
L 2176 633 
C 2176 230 2093 121 1773 96 
L 1773 0 
L 3104 0 
L 3104 96 
C 2790 128 2714 204 2714 518 
L 2714 1984 
C 2714 2585 2432 2944 1958 2944 
C 1664 2944 1466 2835 1030 2425 
L 1030 2931 
L 986 2944 
C 672 2828 454 2758 102 2655 
L 102 2547 
z
" transform="scale(0.015625)"/>
       <path id="NimbusRomNo9L-Regu-6c" d="M 122 3987 
L 160 3987 
C 230 3993 307 4000 358 4000 
C 563 4000 627 3910 627 3609 
L 627 556 
C 627 211 538 128 134 96 
L 134 0 
L 1645 0 
L 1645 96 
C 1242 121 1165 185 1165 537 
L 1165 4358 
L 1139 4371 
C 806 4262 563 4198 122 4089 
L 122 3987 
z
" transform="scale(0.015625)"/>
       <path id="NimbusRomNo9L-ReguItal-75" d="M 2950 742 
C 2618 326 2522 236 2419 236 
C 2374 236 2349 275 2349 345 
C 2349 384 2349 384 2470 844 
L 2976 2758 
L 2502 2758 
C 2138 1766 2093 1664 1798 1196 
C 1414 599 1101 275 896 275 
C 819 275 762 338 762 434 
C 762 459 762 472 768 491 
L 1350 2803 
L 1331 2816 
C 966 2732 736 2687 371 2643 
L 371 2554 
C 614 2554 627 2547 685 2516 
C 723 2503 755 2446 755 2401 
C 755 2350 723 2191 666 1974 
L 429 1070 
C 314 618 269 402 269 287 
C 269 57 384 -64 608 -64 
C 1062 -64 1402 281 2138 1510 
C 1952 829 1850 389 1850 256 
C 1850 51 1965 -64 2157 -64 
C 2458 -64 2605 64 3040 684 
L 2950 742 
z
" transform="scale(0.015625)"/>
      </defs>
      <use xlink:href="#NimbusRomNo9L-Regu-43" transform="scale(0.996264)"/>
      <use xlink:href="#NimbusRomNo9L-Regu-6f" transform="translate(66.450031 0) scale(0.996264)"/>
      <use xlink:href="#NimbusRomNo9L-Regu-6e" transform="translate(116.263232 0) scale(0.996264)"/>
      <use xlink:href="#NimbusRomNo9L-Regu-74" transform="translate(166.076432 0) scale(0.996264)"/>
      <use xlink:href="#NimbusRomNo9L-Regu-72" transform="translate(193.771602 0) scale(0.996264)"/>
      <use xlink:href="#NimbusRomNo9L-Regu-6f" transform="translate(226.946831 0) scale(0.996264)"/>
      <use xlink:href="#NimbusRomNo9L-Regu-6c" transform="translate(276.760032 0) scale(0.996264)"/>
      <use xlink:href="#NimbusRomNo9L-ReguItal-75" transform="translate(329.361802 0) scale(0.996264)"/>
      <use xlink:href="#CMR10-28" transform="translate(379.175002 0) scale(0.996264)"/>
      <use xlink:href="#NimbusRomNo9L-ReguItal-74" transform="translate(415.338218 0) scale(0.996264)"/>
      <use xlink:href="#CMR10-29" transform="translate(449.807211 0) scale(0.996264)"/>
     </g>
    </g>
    <g id="line2d_49">
     <path d="M 626.679836 60.481694 
L 635.679836 60.481694 
L 644.679836 60.481694 
" style="fill: none; stroke-dasharray: 5.55,2.4; stroke-dashoffset: 0; stroke: #d2e21b; stroke-width: 1.5"/>
    </g>
    <g id="text_30">
     <!-- Input constraints -->
     <g transform="translate(651.879836 63.631694) scale(0.09 -0.09)">
      <defs>
       <path id="NimbusRomNo9L-Regu-49" d="M 736 695 
C 736 217 653 140 115 121 
L 115 0 
L 2016 0 
L 2016 121 
C 1491 140 1389 230 1389 695 
L 1389 3528 
C 1389 3994 1478 4077 2016 4102 
L 2016 4224 
L 115 4224 
L 115 4102 
C 659 4070 736 4000 736 3528 
L 736 695 
z
" transform="scale(0.015625)"/>
       <path id="NimbusRomNo9L-Regu-70" d="M 58 2515 
C 115 2521 160 2521 218 2521 
C 435 2521 480 2457 480 2157 
L 480 -839 
C 480 -1172 410 -1242 32 -1280 
L 32 -1389 
L 1581 -1389 
L 1581 -1280 
C 1101 -1274 1018 -1203 1018 -798 
L 1018 211 
C 1242 0 1395 -64 1664 -64 
C 2419 -64 3008 652 3008 1580 
C 3008 2374 2560 2944 1939 2944 
C 1581 2944 1299 2783 1018 2438 
L 1018 2931 
L 979 2944 
C 634 2809 410 2726 58 2617 
L 58 2515 
z
M 1018 2137 
C 1018 2329 1376 2559 1670 2559 
C 2144 2559 2458 2073 2458 1331 
C 2458 620 2144 140 1683 140 
C 1382 140 1018 371 1018 563 
L 1018 2137 
z
" transform="scale(0.015625)"/>
       <path id="NimbusRomNo9L-Regu-63" d="M 2547 998 
C 2240 550 2010 396 1645 396 
C 1062 396 653 908 653 1644 
C 653 2303 1005 2758 1523 2758 
C 1754 2758 1837 2687 1901 2451 
L 1939 2310 
C 1990 2131 2106 2015 2240 2015 
C 2406 2015 2547 2137 2547 2284 
C 2547 2643 2099 2944 1562 2944 
C 1248 2944 922 2815 659 2585 
C 339 2303 160 1868 160 1363 
C 160 531 666 -64 1376 -64 
C 1664 -64 1920 38 2150 236 
C 2323 390 2445 563 2637 940 
L 2547 998 
z
" transform="scale(0.015625)"/>
      </defs>
      <use xlink:href="#NimbusRomNo9L-Regu-49" transform="scale(0.996264)"/>
      <use xlink:href="#NimbusRomNo9L-Regu-6e" transform="translate(33.17523 0) scale(0.996264)"/>
      <use xlink:href="#NimbusRomNo9L-Regu-70" transform="translate(82.98843 0) scale(0.996264)"/>
      <use xlink:href="#NimbusRomNo9L-Regu-75" transform="translate(132.801631 0) scale(0.996264)"/>
      <use xlink:href="#NimbusRomNo9L-Regu-74" transform="translate(182.614831 0) scale(0.996264)"/>
      <use xlink:href="#NimbusRomNo9L-Regu-63" transform="translate(235.216601 0) scale(0.996264)"/>
      <use xlink:href="#NimbusRomNo9L-Regu-6f" transform="translate(279.45017 0) scale(0.996264)"/>
      <use xlink:href="#NimbusRomNo9L-Regu-6e" transform="translate(329.26337 0) scale(0.996264)"/>
      <use xlink:href="#NimbusRomNo9L-Regu-73" transform="translate(379.076571 0) scale(0.996264)"/>
      <use xlink:href="#NimbusRomNo9L-Regu-74" transform="translate(417.830277 0) scale(0.996264)"/>
      <use xlink:href="#NimbusRomNo9L-Regu-72" transform="translate(445.525447 0) scale(0.996264)"/>
      <use xlink:href="#NimbusRomNo9L-Regu-61" transform="translate(478.700676 0) scale(0.996264)"/>
      <use xlink:href="#NimbusRomNo9L-Regu-69" transform="translate(522.934245 0) scale(0.996264)"/>
      <use xlink:href="#NimbusRomNo9L-Regu-6e" transform="translate(550.629415 0) scale(0.996264)"/>
      <use xlink:href="#NimbusRomNo9L-Regu-74" transform="translate(600.442615 0) scale(0.996264)"/>
      <use xlink:href="#NimbusRomNo9L-Regu-73" transform="translate(628.137785 0) scale(0.996264)"/>
     </g>
    </g>
   </g>
  </g>
 </g>
 <defs>
  <clipPath id="p9d23802b32">
   <rect x="54.283442" y="35.765318" width="304.755463" height="187.411869"/>
  </clipPath>
  <clipPath id="p320ce1ffcc">
   <rect x="415.244537" y="35.765318" width="304.755463" height="187.411869"/>
  </clipPath>
 </defs>
</svg>
