<?xml version="1.0" encoding="utf-8" standalone="no"?>
<!DOCTYPE svg PUBLIC "-//W3C//DTD SVG 1.1//EN"
  "http://www.w3.org/Graphics/SVG/1.1/DTD/svg11.dtd">
<svg xmlns:xlink="http://www.w3.org/1999/xlink" width="388.8pt" height="244.8pt" viewBox="0 0 388.8 244.8" xmlns="http://www.w3.org/2000/svg" version="1.1">
 <metadata>
  <rdf:RDF xmlns:dc="http://purl.org/dc/elements/1.1/" xmlns:cc="http://creativecommons.org/ns#" xmlns:rdf="http://www.w3.org/1999/02/22-rdf-syntax-ns#">
   <cc:Work>
    <dc:type rdf:resource="http://purl.org/dc/dcmitype/StillImage"/>
    <dc:date>2025-07-16T16:20:42.503212</dc:date>
    <dc:format>image/svg+xml</dc:format>
    <dc:creator>
     <cc:Agent>
      <dc:title>Matplotlib v3.9.2, https://matplotlib.org/</dc:title>
     </cc:Agent>
    </dc:creator>
   </cc:Work>
  </rdf:RDF>
 </metadata>
 <defs>
  <style type="text/css">*{stroke-linejoin: round; stroke-linecap: butt}</style>
 </defs>
 <g id="figure_1">
  <g id="patch_1">
   <path d="M 0 244.8 
L 388.8 244.8 
L 388.8 0 
L 0 0 
z
" style="fill: #ffffff"/>
  </g>
  <g id="axes_1">
   <g id="patch_2">
    <path d="M 52.905669 205.817263 
L 381.6 205.817263 
L 381.6 7.2 
L 52.905669 7.2 
z
" style="fill: #ffffff"/>
   </g>
   <g id="matplotlib.axis_1">
    <g id="xtick_1">
     <g id="line2d_1">
      <path d="M 67.846321 205.817263 
L 67.846321 7.2 
" clip-path="url(#p4bbc2117a9)" style="fill: none; stroke-dasharray: 2.22,0.96; stroke-dashoffset: 0; stroke: #b0b0b0; stroke-width: 0.6"/>
     </g>
     <g id="line2d_2">
      <defs>
       <path id="m946c7d9a3d" d="M 0 0 
L 0 3.5 
" style="stroke: #000000; stroke-width: 0.8"/>
      </defs>
      <g>
       <use xlink:href="#m946c7d9a3d" x="67.846321" y="205.817263" style="stroke: #000000; stroke-width: 0.8"/>
      </g>
     </g>
     <g id="text_1">
      <!-- $\mathdefault{0.00}$ -->
      <g transform="translate(58.994566 219.571841) scale(0.1 -0.1)">
       <defs>
        <path id="NimbusRomNo9L-Regu-30" d="M 1626 4352 
C 1274 4352 1005 4243 768 4019 
C 397 3661 154 2924 154 2176 
C 154 1478 365 729 666 371 
C 902 89 1229 -64 1600 -64 
C 1926 -64 2202 44 2432 268 
C 2803 620 3046 1363 3046 2137 
C 3046 3449 2464 4352 1626 4352 
z
M 1606 4185 
C 2144 4185 2432 3462 2432 2124 
C 2432 787 2150 102 1600 102 
C 1050 102 768 787 768 2118 
C 768 3475 1056 4185 1606 4185 
z
" transform="scale(0.015625)"/>
        <path id="CMMI10-3a" d="M 1229 339 
C 1229 524 1075 678 890 678 
C 704 678 550 524 550 339 
C 550 153 704 0 890 0 
C 1075 0 1229 153 1229 339 
z
" transform="scale(0.015625)"/>
       </defs>
       <use xlink:href="#NimbusRomNo9L-Regu-30" transform="scale(0.996264)"/>
       <use xlink:href="#CMMI10-3a" transform="translate(49.8132 0) scale(0.996264)"/>
       <use xlink:href="#NimbusRomNo9L-Regu-30" transform="translate(77.408707 0) scale(0.996264)"/>
       <use xlink:href="#NimbusRomNo9L-Regu-30" transform="translate(127.221908 0) scale(0.996264)"/>
      </g>
     </g>
    </g>
    <g id="xtick_2">
     <g id="line2d_3">
      <path d="M 142.549578 205.817263 
L 142.549578 7.2 
" clip-path="url(#p4bbc2117a9)" style="fill: none; stroke-dasharray: 2.22,0.96; stroke-dashoffset: 0; stroke: #b0b0b0; stroke-width: 0.6"/>
     </g>
     <g id="line2d_4">
      <g>
       <use xlink:href="#m946c7d9a3d" x="142.549578" y="205.817263" style="stroke: #000000; stroke-width: 0.8"/>
      </g>
     </g>
     <g id="text_2">
      <!-- $\mathdefault{0.25}$ -->
      <g transform="translate(133.697823 219.571841) scale(0.1 -0.1)">
       <defs>
        <path id="NimbusRomNo9L-Regu-32" d="M 3040 879 
L 2957 912 
C 2720 544 2637 486 2349 486 
L 819 486 
L 1894 1621 
C 2464 2221 2714 2711 2714 3214 
C 2714 3858 2195 4352 1530 4352 
C 1178 4352 845 4211 608 3955 
C 403 3736 307 3530 198 3072 
L 333 3039 
C 589 3671 819 3878 1261 3878 
C 1798 3878 2163 3510 2163 2969 
C 2163 2466 1869 1866 1331 1292 
L 192 76 
L 192 0 
L 2688 0 
L 3040 879 
z
" transform="scale(0.015625)"/>
        <path id="NimbusRomNo9L-Regu-35" d="M 1158 3718 
L 2413 3718 
C 2515 3718 2541 3731 2560 3775 
L 2803 4345 
L 2746 4390 
C 2650 4256 2586 4224 2451 4224 
L 1114 4224 
L 416 2717 
C 410 2705 410 2698 410 2686 
C 410 2654 435 2635 486 2635 
C 691 2635 947 2591 1210 2508 
C 1946 2274 2285 1882 2285 1255 
C 2285 647 1894 172 1395 172 
C 1267 172 1158 217 966 356 
C 762 502 614 565 480 565 
C 294 565 205 489 205 331 
C 205 89 506 -64 986 -64 
C 1523 -64 1984 108 2304 432 
C 2598 717 2733 1078 2733 1559 
C 2733 2015 2611 2306 2291 2622 
C 2010 2901 1645 3047 890 3180 
L 1158 3718 
z
" transform="scale(0.015625)"/>
       </defs>
       <use xlink:href="#NimbusRomNo9L-Regu-30" transform="scale(0.996264)"/>
       <use xlink:href="#CMMI10-3a" transform="translate(49.8132 0) scale(0.996264)"/>
       <use xlink:href="#NimbusRomNo9L-Regu-32" transform="translate(77.408707 0) scale(0.996264)"/>
       <use xlink:href="#NimbusRomNo9L-Regu-35" transform="translate(127.221908 0) scale(0.996264)"/>
      </g>
     </g>
    </g>
    <g id="xtick_3">
     <g id="line2d_5">
      <path d="M 217.252835 205.817263 
L 217.252835 7.2 
" clip-path="url(#p4bbc2117a9)" style="fill: none; stroke-dasharray: 2.22,0.96; stroke-dashoffset: 0; stroke: #b0b0b0; stroke-width: 0.6"/>
     </g>
     <g id="line2d_6">
      <g>
       <use xlink:href="#m946c7d9a3d" x="217.252835" y="205.817263" style="stroke: #000000; stroke-width: 0.8"/>
      </g>
     </g>
     <g id="text_3">
      <!-- $\mathdefault{0.50}$ -->
      <g transform="translate(208.40108 219.571841) scale(0.1 -0.1)">
       <use xlink:href="#NimbusRomNo9L-Regu-30" transform="scale(0.996264)"/>
       <use xlink:href="#CMMI10-3a" transform="translate(49.8132 0) scale(0.996264)"/>
       <use xlink:href="#NimbusRomNo9L-Regu-35" transform="translate(77.408707 0) scale(0.996264)"/>
       <use xlink:href="#NimbusRomNo9L-Regu-30" transform="translate(127.221908 0) scale(0.996264)"/>
      </g>
     </g>
    </g>
    <g id="xtick_4">
     <g id="line2d_7">
      <path d="M 291.956092 205.817263 
L 291.956092 7.2 
" clip-path="url(#p4bbc2117a9)" style="fill: none; stroke-dasharray: 2.22,0.96; stroke-dashoffset: 0; stroke: #b0b0b0; stroke-width: 0.6"/>
     </g>
     <g id="line2d_8">
      <g>
       <use xlink:href="#m946c7d9a3d" x="291.956092" y="205.817263" style="stroke: #000000; stroke-width: 0.8"/>
      </g>
     </g>
     <g id="text_4">
      <!-- $\mathdefault{0.75}$ -->
      <g transform="translate(283.104337 219.571841) scale(0.1 -0.1)">
       <defs>
        <path id="NimbusRomNo9L-Regu-37" d="M 2874 4224 
L 506 4224 
L 128 3283 
L 237 3232 
C 512 3667 627 3750 979 3750 
L 2368 3750 
L 1101 -64 
L 1517 -64 
L 2874 4121 
L 2874 4224 
z
" transform="scale(0.015625)"/>
       </defs>
       <use xlink:href="#NimbusRomNo9L-Regu-30" transform="scale(0.996264)"/>
       <use xlink:href="#CMMI10-3a" transform="translate(49.8132 0) scale(0.996264)"/>
       <use xlink:href="#NimbusRomNo9L-Regu-37" transform="translate(77.408707 0) scale(0.996264)"/>
       <use xlink:href="#NimbusRomNo9L-Regu-35" transform="translate(127.221908 0) scale(0.996264)"/>
      </g>
     </g>
    </g>
    <g id="xtick_5">
     <g id="line2d_9">
      <path d="M 366.659349 205.817263 
L 366.659349 7.2 
" clip-path="url(#p4bbc2117a9)" style="fill: none; stroke-dasharray: 2.22,0.96; stroke-dashoffset: 0; stroke: #b0b0b0; stroke-width: 0.6"/>
     </g>
     <g id="line2d_10">
      <g>
       <use xlink:href="#m946c7d9a3d" x="366.659349" y="205.817263" style="stroke: #000000; stroke-width: 0.8"/>
      </g>
     </g>
     <g id="text_5">
      <!-- $\mathdefault{1.00}$ -->
      <g transform="translate(357.807594 219.571841) scale(0.1 -0.1)">
       <defs>
        <path id="NimbusRomNo9L-Regu-31" d="M 1862 4352 
L 710 3776 
L 710 3686 
C 787 3718 858 3743 883 3756 
C 998 3801 1107 3826 1171 3826 
C 1306 3826 1363 3731 1363 3525 
L 1363 599 
C 1363 386 1312 238 1210 179 
C 1114 121 1024 102 755 96 
L 755 0 
L 2522 0 
L 2522 96 
C 2016 102 1914 167 1914 477 
L 1914 4339 
L 1862 4352 
z
" transform="scale(0.015625)"/>
       </defs>
       <use xlink:href="#NimbusRomNo9L-Regu-31" transform="scale(0.996264)"/>
       <use xlink:href="#CMMI10-3a" transform="translate(49.8132 0) scale(0.996264)"/>
       <use xlink:href="#NimbusRomNo9L-Regu-30" transform="translate(77.408707 0) scale(0.996264)"/>
       <use xlink:href="#NimbusRomNo9L-Regu-30" transform="translate(127.221908 0) scale(0.996264)"/>
      </g>
     </g>
    </g>
    <g id="text_6">
     <!-- $\zeta$ -->
     <g transform="translate(214.299949 234.760717) scale(0.12 -0.12)">
      <defs>
       <path id="StandardSymL-7a" d="M 1376 4851 
C 941 4819 653 4576 653 4237 
C 653 3987 800 3865 1222 3763 
C 621 2950 384 2316 384 1484 
C 384 857 525 505 896 217 
C 1107 51 1331 -26 1594 -26 
C 1632 -26 1677 -26 1741 -20 
C 2016 -13 2182 -7 2234 -7 
C 2534 -7 2720 -164 2720 -419 
C 2720 -668 2515 -896 2298 -896 
C 2266 -896 2227 -890 2189 -883 
C 1798 -779 1798 -779 1728 -779 
C 1530 -779 1370 -916 1370 -1082 
C 1370 -1287 1600 -1434 1926 -1434 
C 2547 -1434 2989 -961 2989 -288 
C 2989 313 2598 640 1882 640 
L 1747 640 
L 1670 640 
L 1594 633 
L 1472 640 
C 1011 640 704 1036 704 1632 
C 704 2400 1088 3283 1626 3763 
C 2253 3833 2778 4160 2778 4486 
C 2778 4601 2675 4691 2534 4691 
C 2304 4691 1952 4467 1376 3949 
C 1146 4019 1037 4141 1037 4326 
C 1037 4499 1152 4633 1376 4723 
L 1376 4851 
z
" transform="scale(0.015625)"/>
      </defs>
      <use xlink:href="#StandardSymL-7a" transform="scale(0.996264)"/>
     </g>
    </g>
   </g>
   <g id="matplotlib.axis_2">
    <g id="ytick_1">
     <g id="line2d_11">
      <path d="M 52.905669 199.639892 
L 381.6 199.639892 
" clip-path="url(#p4bbc2117a9)" style="fill: none; stroke-dasharray: 2.22,0.96; stroke-dashoffset: 0; stroke: #b0b0b0; stroke-width: 0.6"/>
     </g>
     <g id="line2d_12">
      <defs>
       <path id="mb01cc50b21" d="M 0 0 
L -3.5 0 
" style="stroke: #000000; stroke-width: 0.8"/>
      </defs>
      <g>
       <use xlink:href="#mb01cc50b21" x="52.905669" y="199.639892" style="stroke: #000000; stroke-width: 0.8"/>
      </g>
     </g>
     <g id="text_7">
      <!-- $\mathdefault{−240}$ -->
      <g transform="translate(23.22084 203.017181) scale(0.1 -0.1)">
       <defs>
        <path id="CMSY10-0" d="M 4218 1472 
C 4326 1472 4442 1472 4442 1600 
C 4442 1728 4326 1728 4218 1728 
L 755 1728 
C 646 1728 531 1728 531 1600 
C 531 1472 646 1472 755 1472 
L 4218 1472 
z
" transform="scale(0.015625)"/>
        <path id="NimbusRomNo9L-Regu-34" d="M 3021 1497 
L 2368 1497 
L 2368 4352 
L 2086 4352 
L 77 1497 
L 77 1088 
L 1875 1088 
L 1875 0 
L 2368 0 
L 2368 1088 
L 3021 1088 
L 3021 1497 
z
M 1869 1497 
L 333 1497 
L 1869 3697 
L 1869 1497 
z
" transform="scale(0.015625)"/>
       </defs>
       <use xlink:href="#CMSY10-0" transform="scale(0.996264)"/>
       <use xlink:href="#NimbusRomNo9L-Regu-32" transform="translate(77.408707 0) scale(0.996264)"/>
       <use xlink:href="#NimbusRomNo9L-Regu-34" transform="translate(127.221908 0) scale(0.996264)"/>
       <use xlink:href="#NimbusRomNo9L-Regu-30" transform="translate(177.035108 0) scale(0.996264)"/>
      </g>
     </g>
    </g>
    <g id="ytick_2">
     <g id="line2d_13">
      <path d="M 52.905669 144.645989 
L 381.6 144.645989 
" clip-path="url(#p4bbc2117a9)" style="fill: none; stroke-dasharray: 2.22,0.96; stroke-dashoffset: 0; stroke: #b0b0b0; stroke-width: 0.6"/>
     </g>
     <g id="line2d_14">
      <g>
       <use xlink:href="#mb01cc50b21" x="52.905669" y="144.645989" style="stroke: #000000; stroke-width: 0.8"/>
      </g>
     </g>
     <g id="text_8">
      <!-- $\mathdefault{−160}$ -->
      <g transform="translate(23.22084 148.023278) scale(0.1 -0.1)">
       <defs>
        <path id="NimbusRomNo9L-Regu-36" d="M 2854 4390 
C 2125 4326 1754 4204 1286 3878 
C 595 3385 218 2655 218 1801 
C 218 1248 390 688 666 369 
C 909 89 1254 -64 1651 -64 
C 2445 -64 2995 541 2995 1420 
C 2995 2234 2528 2752 1792 2752 
C 1510 2752 1376 2707 973 2463 
C 1146 3430 1862 4121 2867 4288 
L 2854 4390 
z
M 1549 2457 
C 2099 2457 2419 1999 2419 1203 
C 2419 503 2170 115 1722 115 
C 1158 115 813 713 813 1700 
C 813 2024 864 2203 992 2298 
C 1126 2400 1325 2457 1549 2457 
z
" transform="scale(0.015625)"/>
       </defs>
       <use xlink:href="#CMSY10-0" transform="scale(0.996264)"/>
       <use xlink:href="#NimbusRomNo9L-Regu-31" transform="translate(77.408707 0) scale(0.996264)"/>
       <use xlink:href="#NimbusRomNo9L-Regu-36" transform="translate(127.221908 0) scale(0.996264)"/>
       <use xlink:href="#NimbusRomNo9L-Regu-30" transform="translate(177.035108 0) scale(0.996264)"/>
      </g>
     </g>
    </g>
    <g id="ytick_3">
     <g id="line2d_15">
      <path d="M 52.905669 89.652085 
L 381.6 89.652085 
" clip-path="url(#p4bbc2117a9)" style="fill: none; stroke-dasharray: 2.22,0.96; stroke-dashoffset: 0; stroke: #b0b0b0; stroke-width: 0.6"/>
     </g>
     <g id="line2d_16">
      <g>
       <use xlink:href="#mb01cc50b21" x="52.905669" y="89.652085" style="stroke: #000000; stroke-width: 0.8"/>
      </g>
     </g>
     <g id="text_9">
      <!-- $\mathdefault{−80}$ -->
      <g transform="translate(28.20216 93.029374) scale(0.1 -0.1)">
       <defs>
        <path id="NimbusRomNo9L-Regu-38" d="M 1856 2400 
C 2490 2739 2714 3008 2714 3443 
C 2714 3968 2253 4352 1613 4352 
C 915 4352 397 3923 397 3341 
C 397 2924 518 2739 1190 2150 
C 499 1625 358 1427 358 992 
C 358 371 864 -64 1587 -64 
C 2355 -64 2848 358 2848 1017 
C 2848 1510 2630 1824 1856 2400 
z
M 1741 1740 
C 2208 1408 2362 1177 2362 819 
C 2362 403 2074 115 1658 115 
C 1171 115 845 486 845 1043 
C 845 1452 986 1721 1357 2022 
L 1741 1740 
z
M 1670 2515 
C 1101 2886 870 3180 870 3539 
C 870 3910 1158 4172 1562 4172 
C 1997 4172 2272 3891 2272 3449 
C 2272 3084 2093 2796 1728 2553 
C 1696 2534 1696 2534 1670 2515 
z
" transform="scale(0.015625)"/>
       </defs>
       <use xlink:href="#CMSY10-0" transform="scale(0.996264)"/>
       <use xlink:href="#NimbusRomNo9L-Regu-38" transform="translate(77.408707 0) scale(0.996264)"/>
       <use xlink:href="#NimbusRomNo9L-Regu-30" transform="translate(127.221908 0) scale(0.996264)"/>
      </g>
     </g>
    </g>
    <g id="ytick_4">
     <g id="line2d_17">
      <path d="M 52.905669 34.658181 
L 381.6 34.658181 
" clip-path="url(#p4bbc2117a9)" style="fill: none; stroke-dasharray: 2.22,0.96; stroke-dashoffset: 0; stroke: #b0b0b0; stroke-width: 0.6"/>
     </g>
     <g id="line2d_18">
      <g>
       <use xlink:href="#mb01cc50b21" x="52.905669" y="34.658181" style="stroke: #000000; stroke-width: 0.8"/>
      </g>
     </g>
     <g id="text_10">
      <!-- $\mathdefault{0}$ -->
      <g transform="translate(40.924349 38.03547) scale(0.1 -0.1)">
       <use xlink:href="#NimbusRomNo9L-Regu-30" transform="scale(0.996264)"/>
      </g>
     </g>
    </g>
    <g id="text_11">
     <!-- $L(\zeta)$ -->
     <g transform="translate(16.232048 118.199836) rotate(-90) scale(0.12 -0.12)">
      <defs>
       <path id="NimbusRomNo9L-ReguItal-4c" d="M 2579 4160 
L 832 4160 
L 832 4057 
C 1229 4019 1325 3968 1325 3783 
C 1325 3694 1299 3548 1254 3389 
L 467 574 
C 352 204 307 166 -51 102 
L -51 0 
L 3206 0 
L 3578 1141 
L 3450 1179 
C 3226 720 3053 516 2771 376 
C 2547 268 2285 230 1728 230 
C 1242 230 1082 281 1082 446 
C 1082 491 1114 644 1146 765 
L 1933 3586 
C 2029 3911 2195 4031 2579 4057 
L 2579 4160 
z
" transform="scale(0.015625)"/>
       <path id="CMR10-28" d="M 2118 -1536 
C 2118 -1517 2118 -1504 2010 -1396 
C 1210 -589 1005 620 1005 1600 
C 1005 2713 1248 3827 2035 4627 
C 2118 4704 2118 4716 2118 4736 
C 2118 4780 2093 4800 2054 4800 
C 1990 4800 1414 4365 1037 3552 
C 710 2848 634 2137 634 1600 
C 634 1100 704 326 1056 -397 
C 1440 -1184 1990 -1600 2054 -1600 
C 2093 -1600 2118 -1581 2118 -1536 
z
" transform="scale(0.015625)"/>
       <path id="CMR10-29" d="M 1850 1600 
C 1850 2099 1779 2873 1427 3597 
C 1043 4384 493 4800 429 4800 
C 390 4800 365 4774 365 4736 
C 365 4716 365 4704 486 4589 
C 1114 3955 1478 2937 1478 1600 
C 1478 505 1242 -621 448 -1428 
C 365 -1504 365 -1517 365 -1536 
C 365 -1575 390 -1600 429 -1600 
C 493 -1600 1069 -1165 1446 -352 
C 1773 352 1850 1062 1850 1600 
z
" transform="scale(0.015625)"/>
      </defs>
      <use xlink:href="#NimbusRomNo9L-ReguItal-4c" transform="scale(0.996264)"/>
      <use xlink:href="#CMR10-28" transform="translate(55.689525 0) scale(0.996264)"/>
      <use xlink:href="#StandardSymL-7a" transform="translate(94.343371 0) scale(0.996264)"/>
      <use xlink:href="#CMR10-29" transform="translate(156.110007 0) scale(0.996264)"/>
     </g>
    </g>
   </g>
   <g id="line2d_19">
    <path d="M 67.846321 42.434743 
L 77.873603 37.23193 
L 85.89543 33.35011 
L 91.911799 30.646287 
L 97.928169 28.145415 
L 103.944539 25.865166 
L 109.960908 23.81886 
L 115.977278 22.015659 
L 121.993648 20.460819 
L 128.010017 19.155978 
L 134.026387 18.09948 
L 140.042757 17.286716 
L 146.059127 16.710487 
L 152.075496 16.361365 
L 158.091866 16.228057 
L 164.108236 16.297764 
L 170.124605 16.556517 
L 178.146432 17.169919 
L 186.168258 18.056549 
L 194.190084 19.179356 
L 202.21191 20.501679 
L 212.239193 22.381274 
L 224.271933 24.883884 
L 240.315585 28.475444 
L 278.41926 37.126983 
L 292.457456 40.06042 
L 304.490195 42.366738 
L 316.522935 44.428158 
L 326.550217 45.919378 
L 336.5775 47.1658 
L 344.599326 47.958259 
L 352.621153 48.541506 
L 360.642979 48.886321 
L 366.659349 48.968359 
L 366.659349 48.968359 
" clip-path="url(#p4bbc2117a9)" style="fill: none; stroke: #414487; stroke-width: 1.5; stroke-linecap: square"/>
   </g>
   <g id="line2d_20">
    <path d="M 67.846321 196.789206 
L 73.86269 189.893541 
L 81.884517 181.149761 
L 91.911799 170.608103 
L 103.944539 158.293223 
L 113.971822 148.361499 
L 121.993648 140.749207 
L 128.010017 135.298444 
L 134.026387 130.109849 
L 140.042757 125.21097 
L 146.059127 120.618623 
L 152.075496 116.338041 
L 158.091866 112.363105 
L 164.108236 108.677538 
L 170.124605 105.256762 
L 176.140975 102.070224 
L 184.162801 98.126944 
L 192.184628 94.457576 
L 202.21191 90.142656 
L 214.24465 85.218198 
L 228.282846 79.699345 
L 240.315585 75.165937 
L 250.342868 71.586802 
L 260.370151 68.25804 
L 268.391977 65.817827 
L 276.413803 63.602016 
L 284.435629 61.622779 
L 292.457456 59.878548 
L 300.479282 58.353565 
L 310.506565 56.710689 
L 322.539304 55.018986 
L 360.642979 49.922564 
L 366.659349 48.968359 
L 366.659349 48.968359 
" clip-path="url(#p4bbc2117a9)" style="fill: none; stroke: #7ad151; stroke-width: 1.5; stroke-linecap: square"/>
   </g>
   <g id="patch_3">
    <path d="M 52.905669 205.817263 
L 52.905669 7.2 
" style="fill: none; stroke: #000000; stroke-width: 0.8; stroke-linejoin: miter; stroke-linecap: square"/>
   </g>
   <g id="patch_4">
    <path d="M 381.6 205.817263 
L 381.6 7.2 
" style="fill: none; stroke: #000000; stroke-width: 0.8; stroke-linejoin: miter; stroke-linecap: square"/>
   </g>
   <g id="patch_5">
    <path d="M 52.905669 205.817263 
L 381.6 205.817263 
" style="fill: none; stroke: #000000; stroke-width: 0.8; stroke-linejoin: miter; stroke-linecap: square"/>
   </g>
   <g id="patch_6">
    <path d="M 52.905669 7.2 
L 381.6 7.2 
" style="fill: none; stroke: #000000; stroke-width: 0.8; stroke-linejoin: miter; stroke-linecap: square"/>
   </g>
   <g id="legend_1">
    <g id="patch_7">
     <path d="M 312.745936 200.317263 
L 373.9 200.317263 
Q 376.1 200.317263 376.1 198.117263 
L 376.1 166.179057 
Q 376.1 163.979057 373.9 163.979057 
L 312.745936 163.979057 
Q 310.545936 163.979057 310.545936 166.179057 
L 310.545936 198.117263 
Q 310.545936 200.317263 312.745936 200.317263 
z
" style="fill: #ffffff; opacity: 0.8; stroke: #cccccc; stroke-linejoin: miter"/>
    </g>
    <g id="line2d_21">
     <path d="M 314.945936 172.808434 
L 325.945936 172.808434 
L 336.945936 172.808434 
" style="fill: none; stroke: #414487; stroke-width: 1.5; stroke-linecap: square"/>
    </g>
    <g id="text_12">
     <!-- $L_1(\zeta)$ -->
     <g transform="translate(345.745936 176.658434) scale(0.11 -0.11)">
      <use xlink:href="#NimbusRomNo9L-ReguItal-4c" transform="scale(0.996264)"/>
      <use xlink:href="#NimbusRomNo9L-Regu-31" transform="translate(55.391677 -15.050129) scale(0.737241)"/>
      <use xlink:href="#CMR10-28" transform="translate(92.751851 0) scale(0.996264)"/>
      <use xlink:href="#StandardSymL-7a" transform="translate(131.405697 0) scale(0.996264)"/>
      <use xlink:href="#CMR10-29" transform="translate(193.172332 0) scale(0.996264)"/>
     </g>
    </g>
    <g id="line2d_22">
     <path d="M 314.945936 189.327537 
L 325.945936 189.327537 
L 336.945936 189.327537 
" style="fill: none; stroke: #7ad151; stroke-width: 1.5; stroke-linecap: square"/>
    </g>
    <g id="text_13">
     <!-- $L_2(\zeta)$ -->
     <g transform="translate(345.745936 193.177537) scale(0.11 -0.11)">
      <use xlink:href="#NimbusRomNo9L-ReguItal-4c" transform="scale(0.996264)"/>
      <use xlink:href="#NimbusRomNo9L-Regu-32" transform="translate(55.391677 -15.050129) scale(0.737241)"/>
      <use xlink:href="#CMR10-28" transform="translate(92.751851 0) scale(0.996264)"/>
      <use xlink:href="#StandardSymL-7a" transform="translate(131.405697 0) scale(0.996264)"/>
      <use xlink:href="#CMR10-29" transform="translate(193.172332 0) scale(0.996264)"/>
     </g>
    </g>
   </g>
  </g>
 </g>
 <defs>
  <clipPath id="p4bbc2117a9">
   <rect x="52.905669" y="7.2" width="328.694331" height="198.617263"/>
  </clipPath>
 </defs>
</svg>
