<?xml version="1.0" encoding="utf-8" standalone="no"?>
<!DOCTYPE svg PUBLIC "-//W3C//DTD SVG 1.1//EN"
  "http://www.w3.org/Graphics/SVG/1.1/DTD/svg11.dtd">
<svg xmlns:xlink="http://www.w3.org/1999/xlink" width="370.08pt" height="240.48pt" viewBox="0 0 370.08 240.48" xmlns="http://www.w3.org/2000/svg" version="1.1">
 <metadata>
  <rdf:RDF xmlns:dc="http://purl.org/dc/elements/1.1/" xmlns:cc="http://creativecommons.org/ns#" xmlns:rdf="http://www.w3.org/1999/02/22-rdf-syntax-ns#">
   <cc:Work>
    <dc:type rdf:resource="http://purl.org/dc/dcmitype/StillImage"/>
    <dc:date>2025-07-22T15:34:44.823897</dc:date>
    <dc:format>image/svg+xml</dc:format>
    <dc:creator>
     <cc:Agent>
      <dc:title>Matplotlib v3.9.2, https://matplotlib.org/</dc:title>
     </cc:Agent>
    </dc:creator>
   </cc:Work>
  </rdf:RDF>
 </metadata>
 <defs>
  <style type="text/css">*{stroke-linejoin: round; stroke-linecap: butt}</style>
 </defs>
 <g id="figure_1">
  <g id="patch_1">
   <path d="M 0 240.48 
L 370.08 240.48 
L 370.08 0 
L 0 0 
z
" style="fill: #ffffff"/>
  </g>
  <g id="axes_1">
   <g id="patch_2">
    <path d="M 53.9156 200.832809 
L 362.88 200.832809 
L 362.88 11.252742 
L 53.9156 11.252742 
z
" style="fill: #ffffff"/>
   </g>
   <g id="matplotlib.axis_1">
    <g id="xtick_1">
     <g id="line2d_1">
      <path d="M 67.959436 200.832809 
L 67.959436 11.252742 
" clip-path="url(#p800695c5e0)" style="fill: none; stroke-dasharray: 1.85,0.8; stroke-dashoffset: 0; stroke: #b0b0b0; stroke-width: 0.5"/>
     </g>
     <g id="line2d_2">
      <defs>
       <path id="meabe7d8c61" d="M 0 0 
L 0 3.5 
" style="stroke: #000000; stroke-width: 0.8"/>
      </defs>
      <g>
       <use xlink:href="#meabe7d8c61" x="67.959436" y="200.832809" style="stroke: #000000; stroke-width: 0.8"/>
      </g>
     </g>
     <g id="text_1">
      <!-- $\mathdefault{0}$ -->
      <g transform="translate(64.970644 215.938293) scale(0.12 -0.12)">
       <defs>
        <path id="NimbusRomNo9L-Regu-30" d="M 1626 4352 
C 1274 4352 1005 4243 768 4019 
C 397 3661 154 2924 154 2176 
C 154 1478 365 729 666 371 
C 902 89 1229 -64 1600 -64 
C 1926 -64 2202 44 2432 268 
C 2803 620 3046 1363 3046 2137 
C 3046 3449 2464 4352 1626 4352 
z
M 1606 4185 
C 2144 4185 2432 3462 2432 2124 
C 2432 787 2150 102 1600 102 
C 1050 102 768 787 768 2118 
C 768 3475 1056 4185 1606 4185 
z
" transform="scale(0.015625)"/>
       </defs>
       <use xlink:href="#NimbusRomNo9L-Regu-30" transform="scale(0.996264)"/>
      </g>
     </g>
    </g>
    <g id="xtick_2">
     <g id="line2d_3">
      <path d="M 124.134781 200.832809 
L 124.134781 11.252742 
" clip-path="url(#p800695c5e0)" style="fill: none; stroke-dasharray: 1.85,0.8; stroke-dashoffset: 0; stroke: #b0b0b0; stroke-width: 0.5"/>
     </g>
     <g id="line2d_4">
      <g>
       <use xlink:href="#meabe7d8c61" x="124.134781" y="200.832809" style="stroke: #000000; stroke-width: 0.8"/>
      </g>
     </g>
     <g id="text_2">
      <!-- $\mathdefault{2}$ -->
      <g transform="translate(121.145989 215.938293) scale(0.12 -0.12)">
       <defs>
        <path id="NimbusRomNo9L-Regu-32" d="M 3040 879 
L 2957 912 
C 2720 544 2637 486 2349 486 
L 819 486 
L 1894 1621 
C 2464 2221 2714 2711 2714 3214 
C 2714 3858 2195 4352 1530 4352 
C 1178 4352 845 4211 608 3955 
C 403 3736 307 3530 198 3072 
L 333 3039 
C 589 3671 819 3878 1261 3878 
C 1798 3878 2163 3510 2163 2969 
C 2163 2466 1869 1866 1331 1292 
L 192 76 
L 192 0 
L 2688 0 
L 3040 879 
z
" transform="scale(0.015625)"/>
       </defs>
       <use xlink:href="#NimbusRomNo9L-Regu-32" transform="scale(0.996264)"/>
      </g>
     </g>
    </g>
    <g id="xtick_3">
     <g id="line2d_5">
      <path d="M 180.310127 200.832809 
L 180.310127 11.252742 
" clip-path="url(#p800695c5e0)" style="fill: none; stroke-dasharray: 1.85,0.8; stroke-dashoffset: 0; stroke: #b0b0b0; stroke-width: 0.5"/>
     </g>
     <g id="line2d_6">
      <g>
       <use xlink:href="#meabe7d8c61" x="180.310127" y="200.832809" style="stroke: #000000; stroke-width: 0.8"/>
      </g>
     </g>
     <g id="text_3">
      <!-- $\mathdefault{4}$ -->
      <g transform="translate(177.321335 215.938293) scale(0.12 -0.12)">
       <defs>
        <path id="NimbusRomNo9L-Regu-34" d="M 3021 1497 
L 2368 1497 
L 2368 4352 
L 2086 4352 
L 77 1497 
L 77 1088 
L 1875 1088 
L 1875 0 
L 2368 0 
L 2368 1088 
L 3021 1088 
L 3021 1497 
z
M 1869 1497 
L 333 1497 
L 1869 3697 
L 1869 1497 
z
" transform="scale(0.015625)"/>
       </defs>
       <use xlink:href="#NimbusRomNo9L-Regu-34" transform="scale(0.996264)"/>
      </g>
     </g>
    </g>
    <g id="xtick_4">
     <g id="line2d_7">
      <path d="M 236.485473 200.832809 
L 236.485473 11.252742 
" clip-path="url(#p800695c5e0)" style="fill: none; stroke-dasharray: 1.85,0.8; stroke-dashoffset: 0; stroke: #b0b0b0; stroke-width: 0.5"/>
     </g>
     <g id="line2d_8">
      <g>
       <use xlink:href="#meabe7d8c61" x="236.485473" y="200.832809" style="stroke: #000000; stroke-width: 0.8"/>
      </g>
     </g>
     <g id="text_4">
      <!-- $\mathdefault{6}$ -->
      <g transform="translate(233.496681 215.938293) scale(0.12 -0.12)">
       <defs>
        <path id="NimbusRomNo9L-Regu-36" d="M 2854 4390 
C 2125 4326 1754 4204 1286 3878 
C 595 3385 218 2655 218 1801 
C 218 1248 390 688 666 369 
C 909 89 1254 -64 1651 -64 
C 2445 -64 2995 541 2995 1420 
C 2995 2234 2528 2752 1792 2752 
C 1510 2752 1376 2707 973 2463 
C 1146 3430 1862 4121 2867 4288 
L 2854 4390 
z
M 1549 2457 
C 2099 2457 2419 1999 2419 1203 
C 2419 503 2170 115 1722 115 
C 1158 115 813 713 813 1700 
C 813 2024 864 2203 992 2298 
C 1126 2400 1325 2457 1549 2457 
z
" transform="scale(0.015625)"/>
       </defs>
       <use xlink:href="#NimbusRomNo9L-Regu-36" transform="scale(0.996264)"/>
      </g>
     </g>
    </g>
    <g id="xtick_5">
     <g id="line2d_9">
      <path d="M 292.660818 200.832809 
L 292.660818 11.252742 
" clip-path="url(#p800695c5e0)" style="fill: none; stroke-dasharray: 1.85,0.8; stroke-dashoffset: 0; stroke: #b0b0b0; stroke-width: 0.5"/>
     </g>
     <g id="line2d_10">
      <g>
       <use xlink:href="#meabe7d8c61" x="292.660818" y="200.832809" style="stroke: #000000; stroke-width: 0.8"/>
      </g>
     </g>
     <g id="text_5">
      <!-- $\mathdefault{8}$ -->
      <g transform="translate(289.672026 215.938293) scale(0.12 -0.12)">
       <defs>
        <path id="NimbusRomNo9L-Regu-38" d="M 1856 2400 
C 2490 2739 2714 3008 2714 3443 
C 2714 3968 2253 4352 1613 4352 
C 915 4352 397 3923 397 3341 
C 397 2924 518 2739 1190 2150 
C 499 1625 358 1427 358 992 
C 358 371 864 -64 1587 -64 
C 2355 -64 2848 358 2848 1017 
C 2848 1510 2630 1824 1856 2400 
z
M 1741 1740 
C 2208 1408 2362 1177 2362 819 
C 2362 403 2074 115 1658 115 
C 1171 115 845 486 845 1043 
C 845 1452 986 1721 1357 2022 
L 1741 1740 
z
M 1670 2515 
C 1101 2886 870 3180 870 3539 
C 870 3910 1158 4172 1562 4172 
C 1997 4172 2272 3891 2272 3449 
C 2272 3084 2093 2796 1728 2553 
C 1696 2534 1696 2534 1670 2515 
z
" transform="scale(0.015625)"/>
       </defs>
       <use xlink:href="#NimbusRomNo9L-Regu-38" transform="scale(0.996264)"/>
      </g>
     </g>
    </g>
    <g id="xtick_6">
     <g id="line2d_11">
      <path d="M 348.836164 200.832809 
L 348.836164 11.252742 
" clip-path="url(#p800695c5e0)" style="fill: none; stroke-dasharray: 1.85,0.8; stroke-dashoffset: 0; stroke: #b0b0b0; stroke-width: 0.5"/>
     </g>
     <g id="line2d_12">
      <g>
       <use xlink:href="#meabe7d8c61" x="348.836164" y="200.832809" style="stroke: #000000; stroke-width: 0.8"/>
      </g>
     </g>
     <g id="text_6">
      <!-- $\mathdefault{10}$ -->
      <g transform="translate(342.85858 215.938293) scale(0.12 -0.12)">
       <defs>
        <path id="NimbusRomNo9L-Regu-31" d="M 1862 4352 
L 710 3776 
L 710 3686 
C 787 3718 858 3743 883 3756 
C 998 3801 1107 3826 1171 3826 
C 1306 3826 1363 3731 1363 3525 
L 1363 599 
C 1363 386 1312 238 1210 179 
C 1114 121 1024 102 755 96 
L 755 0 
L 2522 0 
L 2522 96 
C 2016 102 1914 167 1914 477 
L 1914 4339 
L 1862 4352 
z
" transform="scale(0.015625)"/>
       </defs>
       <use xlink:href="#NimbusRomNo9L-Regu-31" transform="scale(0.996264)"/>
       <use xlink:href="#NimbusRomNo9L-Regu-30" transform="translate(49.8132 0) scale(0.996264)"/>
      </g>
     </g>
    </g>
    <g id="text_7">
     <!-- \textbf{Observer gain coefficient}, $l_{obs}$ -->
     <g transform="translate(133.889539 230.691805) scale(0.12 -0.12)">
      <defs>
       <path id="NimbusRomNo9L-Medi-4f" d="M 2515 4416 
C 1178 4416 224 3469 224 2137 
C 224 812 1165 -128 2490 -128 
C 3814 -128 4755 819 4755 2144 
C 4755 3449 3802 4416 2515 4416 
z
M 2509 4204 
C 3213 4204 3622 3430 3622 2099 
C 3622 787 3226 83 2490 83 
C 1754 83 1357 787 1357 2080 
C 1357 3462 1760 4204 2509 4204 
z
" transform="scale(0.015625)"/>
       <path id="NimbusRomNo9L-Medi-62" d="M 1350 4352 
L 109 4352 
L 109 4198 
C 403 4138 461 4078 461 3812 
L 461 -58 
L 538 -58 
L 1043 298 
C 1338 38 1568 -64 1888 -64 
C 2739 -64 3334 593 3334 1530 
C 3334 2398 2842 3008 2131 3008 
C 1824 3008 1587 2899 1350 2649 
L 1350 4352 
z
M 1350 2291 
C 1459 2561 1587 2662 1798 2662 
C 2195 2662 2394 2241 2394 1417 
C 2394 549 2202 140 1792 140 
C 1523 140 1350 335 1350 637 
L 1350 2291 
z
" transform="scale(0.015625)"/>
       <path id="NimbusRomNo9L-Medi-73" d="M 2176 2079 
L 2176 2995 
L 2035 2995 
C 1997 2899 1958 2867 1882 2867 
C 1843 2867 1779 2879 1677 2911 
C 1466 2982 1318 3008 1178 3008 
C 595 3008 173 2614 173 2085 
C 173 1670 435 1380 1082 1110 
C 1517 921 1696 764 1696 562 
C 1696 317 1504 153 1216 153 
C 768 153 474 436 339 984 
L 160 984 
L 160 -58 
L 320 -58 
C 390 76 429 121 486 121 
C 518 121 570 108 634 83 
C 806 6 1146 -64 1325 -64 
C 1907 -64 2310 329 2310 896 
C 2310 1342 2061 1613 1427 1877 
C 992 2060 813 2217 813 2431 
C 813 2639 992 2796 1235 2796 
C 1402 2796 1574 2727 1715 2595 
C 1850 2469 1920 2356 2016 2079 
L 2176 2079 
z
" transform="scale(0.015625)"/>
       <path id="NimbusRomNo9L-Medi-65" d="M 2573 811 
C 2317 508 2118 396 1843 396 
C 1594 396 1408 508 1274 725 
C 1158 923 1107 1127 1082 1555 
L 2694 1555 
C 2656 2090 2560 2389 2355 2631 
C 2144 2879 1850 3008 1498 3008 
C 698 3008 160 2377 160 1449 
C 160 545 685 -64 1478 -64 
C 1997 -64 2310 140 2726 725 
L 2573 811 
z
M 1050 1792 
C 1069 2555 1184 2809 1498 2809 
C 1677 2809 1798 2707 1850 2510 
C 1882 2389 1894 2211 1907 1887 
L 1907 1792 
L 1050 1792 
z
" transform="scale(0.015625)"/>
       <path id="NimbusRomNo9L-Medi-72" d="M 1395 2944 
L 186 2944 
L 186 2790 
C 461 2752 531 2669 531 2413 
L 531 536 
C 531 274 467 204 186 153 
L 186 0 
L 1888 0 
L 1888 153 
C 1498 179 1421 262 1421 658 
L 1421 1864 
C 1421 2196 1600 2471 1811 2471 
C 1862 2471 1920 2426 1990 2324 
C 2112 2152 2208 2094 2374 2094 
C 2611 2094 2778 2273 2778 2522 
C 2778 2796 2560 3008 2259 3008 
C 1939 3008 1696 2835 1395 2406 
L 1395 2944 
z
" transform="scale(0.015625)"/>
       <path id="NimbusRomNo9L-Medi-76" d="M 3104 2944 
L 2138 2944 
L 2138 2790 
C 2413 2777 2490 2733 2490 2581 
C 2490 2512 2464 2411 2419 2297 
L 1958 1145 
L 1453 2429 
C 1408 2550 1395 2588 1395 2626 
C 1395 2721 1459 2765 1619 2777 
C 1632 2777 1683 2784 1734 2790 
L 1734 2944 
L 134 2944 
L 134 2790 
C 282 2771 320 2752 358 2695 
C 371 2702 672 2069 774 1810 
L 1542 -64 
L 1709 -64 
L 2733 2442 
C 2854 2721 2906 2771 3104 2790 
L 3104 2944 
z
" transform="scale(0.015625)"/>
       <path id="NimbusRomNo9L-Medi-67" d="M 3085 2540 
L 3085 2880 
L 2253 2880 
C 1971 2969 1792 3008 1536 3008 
C 774 3008 237 2586 237 1980 
C 237 1764 320 1553 467 1375 
C 608 1222 730 1139 1030 1011 
C 525 844 269 612 269 287 
C 269 25 384 -90 794 -237 
C 390 -295 179 -462 179 -737 
C 179 -1126 659 -1344 1466 -1344 
C 2528 -1344 3091 -1005 3091 -341 
C 3091 153 2694 448 2042 448 
L 1626 448 
C 1114 448 986 490 986 661 
C 986 844 1165 979 1421 979 
L 1709 973 
C 2010 973 2170 1011 2387 1139 
C 2675 1323 2822 1583 2822 1919 
C 2822 2172 2746 2363 2566 2540 
L 3085 2540 
z
M 2074 -321 
C 2419 -321 2586 -435 2586 -656 
C 2586 -965 2234 -1140 1600 -1140 
C 1037 -1140 742 -985 742 -690 
C 742 -549 787 -475 966 -321 
L 2074 -321 
z
M 1536 2809 
C 1837 2809 1958 2567 1958 1974 
C 1958 1381 1837 1152 1536 1152 
C 1229 1152 1114 1381 1114 1974 
C 1114 2573 1235 2809 1536 2809 
z
" transform="scale(0.015625)"/>
       <path id="NimbusRomNo9L-Medi-61" d="M 3027 429 
L 2963 366 
C 2944 347 2925 341 2893 341 
C 2803 341 2758 397 2758 498 
L 2758 2141 
C 2758 2670 2272 3008 1491 3008 
C 768 3008 282 2683 282 2211 
C 282 1953 435 1795 698 1795 
C 954 1795 1133 1946 1133 2160 
C 1133 2249 1094 2330 1018 2431 
C 960 2494 941 2532 941 2570 
C 941 2702 1120 2803 1344 2803 
C 1715 2803 1882 2633 1882 2249 
L 1882 1789 
C 1120 1562 806 1436 570 1279 
C 294 1090 160 876 160 605 
C 160 221 461 -64 870 -64 
C 1235 -64 1530 64 1882 378 
C 1952 57 2093 -64 2406 -64 
C 2682 -64 2880 38 3123 296 
L 3027 429 
z
M 1875 655 
C 1702 460 1574 385 1421 385 
C 1229 385 1094 555 1094 807 
C 1094 1172 1363 1436 1875 1568 
L 1875 655 
z
" transform="scale(0.015625)"/>
       <path id="NimbusRomNo9L-Medi-69" d="M 1331 2944 
L 102 2944 
L 102 2790 
C 384 2733 442 2675 442 2413 
L 442 536 
C 442 274 397 223 102 153 
L 102 0 
L 1632 0 
L 1632 153 
C 1408 185 1331 274 1331 517 
L 1331 2944 
z
M 883 4416 
C 608 4416 384 4191 384 3923 
C 384 3635 595 3423 877 3423 
C 1158 3423 1376 3635 1376 3916 
C 1376 4191 1158 4416 883 4416 
z
" transform="scale(0.015625)"/>
       <path id="NimbusRomNo9L-Medi-6e" d="M 1357 2944 
L 134 2944 
L 134 2790 
C 416 2745 474 2681 474 2413 
L 474 536 
C 474 268 422 211 134 153 
L 134 0 
L 1677 0 
L 1677 153 
C 1440 185 1363 281 1363 517 
L 1363 2222 
C 1363 2247 1408 2311 1472 2369 
C 1613 2502 1766 2579 1914 2579 
C 2138 2579 2246 2407 2246 2052 
L 2246 515 
C 2246 280 2163 179 1946 153 
L 1946 0 
L 3450 0 
L 3450 153 
C 3200 172 3136 248 3136 515 
L 3136 2109 
C 3136 2655 2797 3008 2272 3008 
C 1888 3008 1594 2828 1357 2452 
L 1357 2944 
z
" transform="scale(0.015625)"/>
       <path id="NimbusRomNo9L-Medi-63" d="M 2637 716 
C 2400 452 2234 364 1971 364 
C 1414 364 1062 911 1062 1766 
C 1062 2413 1267 2809 1600 2809 
C 1702 2809 1798 2759 1837 2690 
C 1869 2633 1869 2633 1869 2369 
C 1875 2061 1990 1917 2227 1917 
C 2496 1917 2662 2068 2662 2313 
C 2662 2702 2234 3008 1670 3008 
C 800 3008 160 2338 160 1433 
C 160 565 736 -64 1530 -64 
C 2022 -64 2381 134 2752 603 
L 2637 716 
z
" transform="scale(0.015625)"/>
       <path id="NimbusRomNo9L-Medi-6f" d="M 1606 3008 
C 794 3008 160 2343 160 1487 
C 160 587 768 -64 1606 -64 
C 2432 -64 3046 593 3046 1468 
C 3046 2350 2432 3008 1606 3008 
z
M 1613 2809 
C 1984 2809 2106 2463 2106 1431 
C 2106 461 1978 134 1606 134 
C 1229 134 1101 455 1101 1374 
C 1101 2482 1216 2809 1613 2809 
z
" transform="scale(0.015625)"/>
       <path id="NimbusRomNo9L-Medi-66" d="M 454 2662 
L 454 536 
C 454 262 384 185 90 153 
L 90 0 
L 1869 0 
L 1869 153 
C 1421 166 1344 242 1344 657 
L 1344 2662 
L 1901 2662 
L 1901 2944 
L 1344 2944 
L 1344 3724 
C 1344 4076 1440 4217 1664 4217 
C 1779 4217 1850 4172 1850 4096 
C 1850 4070 1830 4025 1792 3961 
C 1734 3865 1709 3795 1709 3731 
C 1709 3532 1875 3379 2093 3379 
C 2330 3379 2490 3539 2490 3776 
C 2490 4153 2112 4416 1574 4416 
C 1146 4416 813 4262 640 3980 
C 499 3756 454 3494 454 2944 
L 90 2944 
L 90 2662 
L 454 2662 
z
" transform="scale(0.015625)"/>
       <path id="NimbusRomNo9L-Medi-2" d="M 1344 2662 
L 2010 2662 
C 2176 2662 2227 2611 2227 2445 
L 2227 517 
C 2227 262 2157 179 1926 153 
L 1926 0 
L 3430 0 
L 3430 153 
C 3200 166 3117 262 3117 517 
L 3117 3020 
C 2534 2963 2246 2944 2022 2944 
L 1344 2944 
C 1344 3616 1370 3840 1466 4012 
C 1549 4153 1696 4223 1907 4223 
C 2099 4223 2253 4147 2253 4051 
C 2253 4044 2246 4025 2240 4006 
C 2208 3936 2195 3865 2195 3788 
C 2195 3584 2362 3443 2605 3443 
C 2848 3443 3021 3603 3021 3827 
C 3021 4192 2586 4416 1882 4416 
C 1414 4416 1056 4300 819 4070 
C 563 3814 467 3513 454 2944 
L 90 2944 
L 90 2662 
L 454 2662 
L 454 536 
C 454 262 390 191 90 153 
L 90 0 
L 1645 0 
L 1645 153 
C 1414 185 1344 268 1344 517 
L 1344 2662 
z
" transform="scale(0.015625)"/>
       <path id="NimbusRomNo9L-Medi-74" d="M 1952 2944 
L 1350 2944 
L 1350 4025 
L 1190 4025 
C 800 3475 544 3187 128 2835 
L 128 2662 
L 461 2662 
L 461 606 
C 461 192 736 -64 1178 -64 
C 1606 -64 1862 128 2125 650 
L 1965 720 
C 1837 479 1734 390 1600 390 
C 1421 390 1350 498 1350 752 
L 1350 2662 
L 1952 2662 
L 1952 2944 
z
" transform="scale(0.015625)"/>
       <path id="NimbusRomNo9L-Regu-2c" d="M 531 -890 
C 960 -679 1248 -289 1248 96 
C 1248 416 1024 665 736 665 
C 512 665 358 518 358 300 
C 358 57 506 -64 736 -64 
C 774 -64 819 -58 858 -52 
C 902 0 902 0 909 0 
C 960 0 998 -39 998 -90 
C 998 -295 819 -532 474 -769 
L 531 -890 
z
" transform="scale(0.015625)"/>
       <path id="NimbusRomNo9L-ReguItal-6c" d="M 1459 793 
C 1402 723 1344 652 1286 576 
C 1082 307 960 211 845 211 
C 781 211 749 256 749 326 
C 749 371 768 448 800 576 
C 806 595 813 627 819 640 
L 1786 4345 
L 1754 4377 
C 1376 4294 1133 4249 755 4205 
L 755 4102 
C 1062 4102 1190 4057 1190 3955 
C 1190 3936 1184 3897 1165 3840 
L 288 460 
C 269 390 256 326 256 294 
C 256 64 365 -64 570 -64 
C 902 -64 1126 121 1542 736 
L 1459 793 
z
" transform="scale(0.015625)"/>
       <path id="NimbusRomNo9L-ReguItal-6f" d="M 2080 2816 
C 1120 2816 173 1828 173 828 
C 173 280 531 -64 1114 -64 
C 1536 -64 1946 127 2317 490 
C 2739 904 2995 1446 2995 1923 
C 2995 2452 2624 2816 2080 2816 
z
M 2003 2681 
C 2278 2681 2458 2446 2458 2083 
C 2458 1618 2246 981 1965 567 
C 1728 229 1485 70 1210 70 
C 909 70 710 299 710 650 
C 710 1121 896 1681 1210 2134 
C 1459 2490 1728 2681 2003 2681 
z
" transform="scale(0.015625)"/>
       <path id="NimbusRomNo9L-ReguItal-62" d="M 704 4108 
C 1082 4096 1120 4076 1120 3936 
C 1120 3878 1101 3801 1062 3660 
C 1050 3616 1037 3571 1030 3539 
L 1018 3494 
L 147 299 
L 147 274 
C 147 127 640 -64 998 -64 
C 1965 -64 3027 1050 3027 2050 
C 3027 2496 2714 2816 2285 2816 
C 1837 2816 1504 2553 1050 1853 
C 1382 3065 1427 3238 1715 4332 
L 1683 4364 
C 1363 4307 1133 4268 704 4217 
L 704 4108 
z
M 2035 2502 
C 2310 2502 2483 2292 2483 1954 
C 2483 1534 2157 853 1779 458 
C 1542 216 1267 83 992 83 
C 794 83 698 153 698 299 
C 698 681 890 1299 1158 1770 
C 1440 2260 1728 2502 2035 2502 
z
" transform="scale(0.015625)"/>
       <path id="NimbusRomNo9L-ReguItal-73" d="M 230 953 
L 102 -64 
L 205 -64 
C 256 38 294 70 358 70 
C 429 70 544 44 672 12 
C 813 -45 922 -64 1024 -64 
C 1562 -64 1946 280 1946 764 
C 1946 1006 1811 1286 1510 1656 
C 1267 1955 1165 2152 1165 2324 
C 1165 2534 1299 2668 1523 2668 
C 1856 2668 2048 2432 2112 1936 
L 2214 1936 
L 2342 2816 
L 2253 2816 
C 2202 2726 2150 2700 2061 2700 
C 2016 2700 1952 2713 1830 2745 
C 1670 2803 1574 2816 1472 2816 
C 1005 2816 698 2541 698 2114 
C 698 1910 832 1636 1101 1293 
C 1350 968 1459 745 1459 560 
C 1459 274 1267 70 986 70 
C 634 70 435 331 333 936 
L 230 953 
z
" transform="scale(0.015625)"/>
      </defs>
      <use xlink:href="#NimbusRomNo9L-Medi-4f" transform="scale(0.996264)"/>
      <use xlink:href="#NimbusRomNo9L-Medi-62" transform="translate(77.50837 0) scale(0.996264)"/>
      <use xlink:href="#NimbusRomNo9L-Medi-73" transform="translate(132.900047 0) scale(0.996264)"/>
      <use xlink:href="#NimbusRomNo9L-Medi-65" transform="translate(171.653753 0) scale(0.996264)"/>
      <use xlink:href="#NimbusRomNo9L-Medi-72" transform="translate(215.887322 0) scale(0.996264)"/>
      <use xlink:href="#NimbusRomNo9L-Medi-76" transform="translate(259.124794 0) scale(0.996264)"/>
      <use xlink:href="#NimbusRomNo9L-Medi-65" transform="translate(307.941898 0) scale(0.996264)"/>
      <use xlink:href="#NimbusRomNo9L-Medi-72" transform="translate(352.175466 0) scale(0.996264)"/>
      <use xlink:href="#NimbusRomNo9L-Medi-67" transform="translate(421.315635 0) scale(0.996264)"/>
      <use xlink:href="#NimbusRomNo9L-Medi-61" transform="translate(471.128836 0) scale(0.996264)"/>
      <use xlink:href="#NimbusRomNo9L-Medi-69" transform="translate(520.942036 0) scale(0.996264)"/>
      <use xlink:href="#NimbusRomNo9L-Medi-6e" transform="translate(548.637206 0) scale(0.996264)"/>
      <use xlink:href="#NimbusRomNo9L-Medi-63" transform="translate(628.935483 0) scale(0.996264)"/>
      <use xlink:href="#NimbusRomNo9L-Medi-6f" transform="translate(673.169052 0) scale(0.996264)"/>
      <use xlink:href="#NimbusRomNo9L-Medi-65" transform="translate(722.982252 0) scale(0.996264)"/>
      <use xlink:href="#NimbusRomNo9L-Medi-66" transform="translate(767.215821 0) scale(0.996264)"/>
      <use xlink:href="#NimbusRomNo9L-Medi-2" transform="translate(800.391051 0) scale(0.996264)"/>
      <use xlink:href="#NimbusRomNo9L-Medi-63" transform="translate(855.782728 0) scale(0.996264)"/>
      <use xlink:href="#NimbusRomNo9L-Medi-69" transform="translate(900.016296 0) scale(0.996264)"/>
      <use xlink:href="#NimbusRomNo9L-Medi-65" transform="translate(927.711466 0) scale(0.996264)"/>
      <use xlink:href="#NimbusRomNo9L-Medi-6e" transform="translate(971.945035 0) scale(0.996264)"/>
      <use xlink:href="#NimbusRomNo9L-Medi-74" transform="translate(1027.336712 0) scale(0.996264)"/>
      <use xlink:href="#NimbusRomNo9L-Regu-2c" transform="translate(1060.511941 0) scale(0.996264)"/>
      <use xlink:href="#NimbusRomNo9L-ReguItal-6c" transform="translate(1110.325142 0) scale(0.996264)"/>
      <use xlink:href="#NimbusRomNo9L-ReguItal-6f" transform="translate(1138.020311 -16.487732) scale(0.737241)"/>
      <use xlink:href="#NimbusRomNo9L-ReguItal-62" transform="translate(1174.882353 -16.487732) scale(0.737241)"/>
      <use xlink:href="#NimbusRomNo9L-ReguItal-73" transform="translate(1211.744395 -16.487732) scale(0.737241)"/>
     </g>
    </g>
   </g>
   <g id="matplotlib.axis_2">
    <g id="ytick_1">
     <g id="line2d_13">
      <path d="M 53.9156 200.832809 
L 362.88 200.832809 
" clip-path="url(#p800695c5e0)" style="fill: none; stroke-dasharray: 1.85,0.8; stroke-dashoffset: 0; stroke: #b0b0b0; stroke-width: 0.5"/>
     </g>
     <g id="line2d_14">
      <defs>
       <path id="mf0dcebc58c" d="M 0 0 
L -3.5 0 
" style="stroke: #000000; stroke-width: 0.8"/>
      </defs>
      <g>
       <use xlink:href="#mf0dcebc58c" x="53.9156" y="200.832809" style="stroke: #000000; stroke-width: 0.8"/>
      </g>
     </g>
     <g id="text_8">
      <!-- $\mathdefault{−1.5}$ -->
      <g transform="translate(22.359948 204.885551) scale(0.12 -0.12)">
       <defs>
        <path id="CMSY10-0" d="M 4218 1472 
C 4326 1472 4442 1472 4442 1600 
C 4442 1728 4326 1728 4218 1728 
L 755 1728 
C 646 1728 531 1728 531 1600 
C 531 1472 646 1472 755 1472 
L 4218 1472 
z
" transform="scale(0.015625)"/>
        <path id="CMMI10-3a" d="M 1229 339 
C 1229 524 1075 678 890 678 
C 704 678 550 524 550 339 
C 550 153 704 0 890 0 
C 1075 0 1229 153 1229 339 
z
" transform="scale(0.015625)"/>
        <path id="NimbusRomNo9L-Regu-35" d="M 1158 3718 
L 2413 3718 
C 2515 3718 2541 3731 2560 3775 
L 2803 4345 
L 2746 4390 
C 2650 4256 2586 4224 2451 4224 
L 1114 4224 
L 416 2717 
C 410 2705 410 2698 410 2686 
C 410 2654 435 2635 486 2635 
C 691 2635 947 2591 1210 2508 
C 1946 2274 2285 1882 2285 1255 
C 2285 647 1894 172 1395 172 
C 1267 172 1158 217 966 356 
C 762 502 614 565 480 565 
C 294 565 205 489 205 331 
C 205 89 506 -64 986 -64 
C 1523 -64 1984 108 2304 432 
C 2598 717 2733 1078 2733 1559 
C 2733 2015 2611 2306 2291 2622 
C 2010 2901 1645 3047 890 3180 
L 1158 3718 
z
" transform="scale(0.015625)"/>
       </defs>
       <use xlink:href="#CMSY10-0" transform="scale(0.996264)"/>
       <use xlink:href="#NimbusRomNo9L-Regu-31" transform="translate(77.408707 0) scale(0.996264)"/>
       <use xlink:href="#CMMI10-3a" transform="translate(127.221908 0) scale(0.996264)"/>
       <use xlink:href="#NimbusRomNo9L-Regu-35" transform="translate(154.817414 0) scale(0.996264)"/>
      </g>
     </g>
    </g>
    <g id="ytick_2">
     <g id="line2d_15">
      <path d="M 53.9156 162.916795 
L 362.88 162.916795 
" clip-path="url(#p800695c5e0)" style="fill: none; stroke-dasharray: 1.85,0.8; stroke-dashoffset: 0; stroke: #b0b0b0; stroke-width: 0.5"/>
     </g>
     <g id="line2d_16">
      <g>
       <use xlink:href="#mf0dcebc58c" x="53.9156" y="162.916795" style="stroke: #000000; stroke-width: 0.8"/>
      </g>
     </g>
     <g id="text_9">
      <!-- $\mathdefault{−1.0}$ -->
      <g transform="translate(22.359948 166.969537) scale(0.12 -0.12)">
       <use xlink:href="#CMSY10-0" transform="scale(0.996264)"/>
       <use xlink:href="#NimbusRomNo9L-Regu-31" transform="translate(77.408707 0) scale(0.996264)"/>
       <use xlink:href="#CMMI10-3a" transform="translate(127.221908 0) scale(0.996264)"/>
       <use xlink:href="#NimbusRomNo9L-Regu-30" transform="translate(154.817414 0) scale(0.996264)"/>
      </g>
     </g>
    </g>
    <g id="ytick_3">
     <g id="line2d_17">
      <path d="M 53.9156 125.000782 
L 362.88 125.000782 
" clip-path="url(#p800695c5e0)" style="fill: none; stroke-dasharray: 1.85,0.8; stroke-dashoffset: 0; stroke: #b0b0b0; stroke-width: 0.5"/>
     </g>
     <g id="line2d_18">
      <g>
       <use xlink:href="#mf0dcebc58c" x="53.9156" y="125.000782" style="stroke: #000000; stroke-width: 0.8"/>
      </g>
     </g>
     <g id="text_10">
      <!-- $\mathdefault{−0.5}$ -->
      <g transform="translate(22.359948 129.053524) scale(0.12 -0.12)">
       <use xlink:href="#CMSY10-0" transform="scale(0.996264)"/>
       <use xlink:href="#NimbusRomNo9L-Regu-30" transform="translate(77.408707 0) scale(0.996264)"/>
       <use xlink:href="#CMMI10-3a" transform="translate(127.221908 0) scale(0.996264)"/>
       <use xlink:href="#NimbusRomNo9L-Regu-35" transform="translate(154.817414 0) scale(0.996264)"/>
      </g>
     </g>
    </g>
    <g id="ytick_4">
     <g id="line2d_19">
      <path d="M 53.9156 87.084769 
L 362.88 87.084769 
" clip-path="url(#p800695c5e0)" style="fill: none; stroke-dasharray: 1.85,0.8; stroke-dashoffset: 0; stroke: #b0b0b0; stroke-width: 0.5"/>
     </g>
     <g id="line2d_20">
      <g>
       <use xlink:href="#mf0dcebc58c" x="53.9156" y="87.084769" style="stroke: #000000; stroke-width: 0.8"/>
      </g>
     </g>
     <g id="text_11">
      <!-- $\mathdefault{0.0}$ -->
      <g transform="translate(31.648982 91.137511) scale(0.12 -0.12)">
       <use xlink:href="#NimbusRomNo9L-Regu-30" transform="scale(0.996264)"/>
       <use xlink:href="#CMMI10-3a" transform="translate(49.8132 0) scale(0.996264)"/>
       <use xlink:href="#NimbusRomNo9L-Regu-30" transform="translate(77.408707 0) scale(0.996264)"/>
      </g>
     </g>
    </g>
    <g id="ytick_5">
     <g id="line2d_21">
      <path d="M 53.9156 49.168755 
L 362.88 49.168755 
" clip-path="url(#p800695c5e0)" style="fill: none; stroke-dasharray: 1.85,0.8; stroke-dashoffset: 0; stroke: #b0b0b0; stroke-width: 0.5"/>
     </g>
     <g id="line2d_22">
      <g>
       <use xlink:href="#mf0dcebc58c" x="53.9156" y="49.168755" style="stroke: #000000; stroke-width: 0.8"/>
      </g>
     </g>
     <g id="text_12">
      <!-- $\mathdefault{0.5}$ -->
      <g transform="translate(31.648982 53.221497) scale(0.12 -0.12)">
       <use xlink:href="#NimbusRomNo9L-Regu-30" transform="scale(0.996264)"/>
       <use xlink:href="#CMMI10-3a" transform="translate(49.8132 0) scale(0.996264)"/>
       <use xlink:href="#NimbusRomNo9L-Regu-35" transform="translate(77.408707 0) scale(0.996264)"/>
      </g>
     </g>
    </g>
    <g id="ytick_6">
     <g id="line2d_23">
      <path d="M 53.9156 11.252742 
L 362.88 11.252742 
" clip-path="url(#p800695c5e0)" style="fill: none; stroke-dasharray: 1.85,0.8; stroke-dashoffset: 0; stroke: #b0b0b0; stroke-width: 0.5"/>
     </g>
     <g id="line2d_24">
      <g>
       <use xlink:href="#mf0dcebc58c" x="53.9156" y="11.252742" style="stroke: #000000; stroke-width: 0.8"/>
      </g>
     </g>
     <g id="text_13">
      <!-- $\mathdefault{1.0}$ -->
      <g transform="translate(31.648982 15.305484) scale(0.12 -0.12)">
       <use xlink:href="#NimbusRomNo9L-Regu-31" transform="scale(0.996264)"/>
       <use xlink:href="#CMMI10-3a" transform="translate(49.8132 0) scale(0.996264)"/>
       <use xlink:href="#NimbusRomNo9L-Regu-30" transform="translate(77.408707 0) scale(0.996264)"/>
      </g>
     </g>
    </g>
    <g id="text_14">
     <!-- \textbf{Most positive real part of} $\lambda_o$ -->
     <g transform="translate(15.771753 177.247149) rotate(-90) scale(0.12 -0.12)">
      <defs>
       <path id="NimbusRomNo9L-Medi-4d" d="M 4339 3921 
L 4339 643 
C 4339 282 4250 205 3770 160 
L 3770 0 
L 5894 0 
L 5894 160 
C 5395 224 5331 295 5331 752 
L 5331 3599 
C 5331 4062 5427 4159 5894 4191 
L 5894 4352 
L 4282 4352 
L 3002 1312 
L 1722 4352 
L 102 4352 
L 102 4191 
C 570 4153 672 4069 672 3734 
L 672 675 
C 672 288 589 211 90 160 
L 90 0 
L 1587 0 
L 1587 160 
C 1062 198 941 321 941 797 
L 941 3824 
L 2554 0 
L 2726 0 
L 4339 3921 
z
" transform="scale(0.015625)"/>
       <path id="NimbusRomNo9L-Medi-70" d="M 1357 2944 
L 134 2944 
L 134 2790 
C 416 2745 480 2681 480 2413 
L 480 -783 
C 480 -1044 429 -1101 122 -1152 
L 122 -1280 
L 1869 -1280 
L 1869 -1152 
C 1478 -1133 1370 -1006 1370 -580 
L 1370 319 
C 1677 19 1843 -64 2125 -64 
C 2842 -64 3354 596 3354 1528 
C 3354 2403 2874 3008 2163 3008 
C 1786 3008 1555 2860 1357 2491 
L 1357 2944 
z
M 1370 2202 
C 1370 2246 1427 2347 1504 2428 
C 1632 2567 1779 2643 1920 2643 
C 2253 2643 2406 2265 2406 1440 
C 2406 659 2227 288 1862 288 
C 1651 288 1466 432 1370 672 
L 1370 2202 
z
" transform="scale(0.015625)"/>
       <path id="NimbusRomNo9L-Medi-6c" d="M 1318 4352 
L 102 4352 
L 102 4198 
C 326 4178 429 4062 429 3824 
L 429 540 
C 429 301 320 172 102 153 
L 102 0 
L 1632 0 
L 1632 153 
C 1421 160 1318 282 1318 540 
L 1318 4352 
z
" transform="scale(0.015625)"/>
       <path id="StandardSymL-6c" d="M 480 3650 
C 525 4013 710 4224 998 4224 
C 1203 4224 1376 4064 1472 3778 
C 1517 3650 1574 3440 1632 3198 
L 154 19 
L 755 19 
L 1843 2301 
C 2048 1059 2150 607 2266 358 
C 2406 83 2611 -64 2848 -64 
C 3098 -64 3296 89 3405 371 
C 3475 543 3501 715 3507 1014 
L 3373 1014 
C 3322 683 3174 499 2944 499 
C 2752 499 2586 620 2483 843 
C 2400 1008 2355 1174 2266 1645 
L 2093 2466 
C 2086 2485 2080 2530 2067 2594 
C 1920 3415 1690 4192 1536 4422 
C 1395 4627 1203 4736 992 4736 
C 602 4736 397 4403 326 3650 
L 480 3650 
z
" transform="scale(0.015625)"/>
      </defs>
      <use xlink:href="#NimbusRomNo9L-Medi-4d" transform="scale(0.996264)"/>
      <use xlink:href="#NimbusRomNo9L-Medi-6f" transform="translate(94.046769 0) scale(0.996264)"/>
      <use xlink:href="#NimbusRomNo9L-Medi-73" transform="translate(143.85997 0) scale(0.996264)"/>
      <use xlink:href="#NimbusRomNo9L-Medi-74" transform="translate(182.613676 0) scale(0.996264)"/>
      <use xlink:href="#NimbusRomNo9L-Medi-70" transform="translate(240.695506 0) scale(0.996264)"/>
      <use xlink:href="#NimbusRomNo9L-Medi-6f" transform="translate(296.087183 0) scale(0.996264)"/>
      <use xlink:href="#NimbusRomNo9L-Medi-73" transform="translate(345.900383 0) scale(0.996264)"/>
      <use xlink:href="#NimbusRomNo9L-Medi-69" transform="translate(384.65409 0) scale(0.996264)"/>
      <use xlink:href="#NimbusRomNo9L-Medi-74" transform="translate(412.349259 0) scale(0.996264)"/>
      <use xlink:href="#NimbusRomNo9L-Medi-69" transform="translate(445.524489 0) scale(0.996264)"/>
      <use xlink:href="#NimbusRomNo9L-Medi-76" transform="translate(472.223562 0) scale(0.996264)"/>
      <use xlink:href="#NimbusRomNo9L-Medi-65" transform="translate(521.040665 0) scale(0.996264)"/>
      <use xlink:href="#NimbusRomNo9L-Medi-72" transform="translate(590.180834 0) scale(0.996264)"/>
      <use xlink:href="#NimbusRomNo9L-Medi-65" transform="translate(632.621824 0) scale(0.996264)"/>
      <use xlink:href="#NimbusRomNo9L-Medi-61" transform="translate(676.855393 0) scale(0.996264)"/>
      <use xlink:href="#NimbusRomNo9L-Medi-6c" transform="translate(726.668593 0) scale(0.996264)"/>
      <use xlink:href="#NimbusRomNo9L-Medi-70" transform="translate(779.270363 0) scale(0.996264)"/>
      <use xlink:href="#NimbusRomNo9L-Medi-61" transform="translate(834.66204 0) scale(0.996264)"/>
      <use xlink:href="#NimbusRomNo9L-Medi-72" transform="translate(884.475241 0) scale(0.996264)"/>
      <use xlink:href="#NimbusRomNo9L-Medi-74" transform="translate(928.708809 0) scale(0.996264)"/>
      <use xlink:href="#NimbusRomNo9L-Medi-6f" transform="translate(986.790639 0) scale(0.996264)"/>
      <use xlink:href="#NimbusRomNo9L-Medi-66" transform="translate(1036.60384 0) scale(0.996264)"/>
      <use xlink:href="#StandardSymL-6c" transform="translate(1094.68567 0) scale(0.996264)"/>
      <use xlink:href="#NimbusRomNo9L-ReguItal-6f" transform="translate(1149.380436 -14.943915) scale(0.737241)"/>
     </g>
    </g>
   </g>
   <g id="line2d_25">
    <path d="M 67.959436 47.768076 
L 74.981354 77.551723 
L 82.003272 108.087447 
L 89.025191 138.354092 
L 96.047109 155.634844 
L 103.069027 152.427103 
L 110.090945 150.370243 
L 117.112863 149.31754 
L 124.134781 149.070385 
L 131.1567 149.444048 
L 138.178618 150.286095 
L 145.200536 151.475866 
L 152.222454 152.918873 
L 159.244372 154.540999 
L 166.266291 156.283772 
L 173.288209 158.100804 
L 180.310127 159.955177 
L 187.332045 161.817518 
L 194.353963 163.664578 
L 201.375882 165.478148 
L 208.3978 167.24421 
L 215.419718 168.952259 
L 222.441636 170.59473 
L 229.463554 172.166514 
L 236.485473 173.664538 
L 243.507391 175.087396 
L 250.529309 176.435025 
L 257.551227 177.708422 
L 264.573145 178.909402 
L 271.595064 180.040384 
L 278.616982 181.104222 
L 285.6389 182.104056 
L 292.660818 183.043195 
L 299.682736 183.925019 
L 306.704654 184.752913 
L 313.726573 185.530204 
L 320.748491 186.260122 
L 327.770409 186.945774 
L 334.792327 187.590119 
L 341.814245 188.195961 
L 348.836164 188.76594 
" clip-path="url(#p800695c5e0)" style="fill: none; stroke-dasharray: 5.55,2.4; stroke-dashoffset: 0; stroke: #463480; stroke-width: 1.5"/>
   </g>
   <g id="line2d_26">
    <path d="M 67.959436 47.768076 
L 74.981354 56.112488 
L 82.003272 64.782364 
L 89.025191 73.859068 
L 96.047109 83.448196 
L 103.069027 93.689724 
L 110.090945 104.773358 
L 117.112863 116.961704 
L 124.134781 130.623569 
L 131.1567 146.273254 
L 138.178618 164.578857 
L 145.200536 177.215333 
L 152.222454 171.811698 
L 159.244372 165.473135 
L 166.266291 159.176983 
L 173.288209 153.537427 
L 180.310127 148.699402 
L 187.332045 144.590602 
L 194.353963 141.088828 
L 201.375882 138.080276 
L 208.3978 135.472123 
L 215.419718 133.191478 
L 222.441636 131.181477 
L 229.463554 129.397521 
L 236.485473 127.804292 
L 243.507391 126.3735 
L 250.529309 125.082232 
L 257.551227 123.911727 
L 264.573145 122.84647 
L 271.595064 121.873511 
L 278.616982 120.981949 
L 285.6389 120.162537 
L 292.660818 119.407376 
L 299.682736 118.709674 
L 306.704654 118.063557 
L 313.726573 117.463916 
L 320.748491 116.906288 
L 327.770409 116.386753 
L 334.792327 115.901856 
L 341.814245 115.448536 
L 348.836164 115.024077 
" clip-path="url(#p800695c5e0)" style="fill: none; stroke-dasharray: 5.55,2.4; stroke-dashoffset: 0; stroke: #7ad151; stroke-width: 1.5"/>
   </g>
   <g id="line2d_27">
    <path d="M 67.959436 47.768076 
L 74.981354 68.80769 
L 82.003272 89.550411 
L 89.025191 109.351476 
L 96.047109 127.66969 
L 103.069027 144.223057 
L 110.090945 143.120667 
L 117.112863 140.421334 
L 124.134781 138.416792 
L 131.1567 136.999015 
L 138.178618 136.0715 
L 145.200536 135.552877 
L 152.222454 135.376236 
L 159.244372 135.487047 
L 166.266291 135.840873 
L 173.288209 136.401353 
L 180.310127 137.138531 
L 187.332045 138.027535 
L 194.353963 139.047551 
L 201.375882 140.181011 
L 208.3978 141.41297 
L 215.419718 142.730614 
L 222.441636 144.122879 
L 229.463554 145.580141 
L 236.485473 147.093975 
L 243.507391 148.656962 
L 250.529309 150.262527 
L 257.551227 151.904816 
L 264.573145 153.578589 
L 271.595064 155.279133 
L 278.616982 157.002195 
L 285.6389 158.743916 
L 292.660818 160.500789 
L 299.682736 162.269611 
L 306.704654 164.047455 
L 313.726573 165.831632 
L 320.748491 167.619676 
L 327.770409 169.409312 
L 334.792327 171.198447 
L 341.814245 172.985149 
L 348.836164 174.767633 
" clip-path="url(#p800695c5e0)" style="fill: none; stroke-dasharray: 5.55,2.4; stroke-dashoffset: 0; stroke: #25848e; stroke-width: 1.5"/>
   </g>
   <g id="line2d_28">
    <path d="M 53.9156 87.084769 
L 362.88 87.084769 
" clip-path="url(#p800695c5e0)" style="fill: none; stroke: #000000; stroke-width: 2; stroke-linecap: square"/>
   </g>
   <g id="patch_3">
    <path d="M 53.9156 200.832809 
L 53.9156 11.252742 
" style="fill: none; stroke: #000000; stroke-width: 0.8; stroke-linejoin: miter; stroke-linecap: square"/>
   </g>
   <g id="patch_4">
    <path d="M 362.88 200.832809 
L 362.88 11.252742 
" style="fill: none; stroke: #000000; stroke-width: 0.8; stroke-linejoin: miter; stroke-linecap: square"/>
   </g>
   <g id="patch_5">
    <path d="M 53.9156 200.832809 
L 362.88 200.832809 
" style="fill: none; stroke: #000000; stroke-width: 0.8; stroke-linejoin: miter; stroke-linecap: square"/>
   </g>
   <g id="patch_6">
    <path d="M 53.9156 11.252742 
L 362.88 11.252742 
" style="fill: none; stroke: #000000; stroke-width: 0.8; stroke-linejoin: miter; stroke-linecap: square"/>
   </g>
   <g id="legend_1">
    <g id="patch_7">
     <path d="M 220.432724 69.610051 
L 355.18 69.610051 
Q 357.38 69.610051 357.38 67.410051 
L 357.38 18.952742 
Q 357.38 16.752742 355.18 16.752742 
L 220.432724 16.752742 
Q 218.232724 16.752742 218.232724 18.952742 
L 218.232724 67.410051 
Q 218.232724 69.610051 220.432724 69.610051 
z
" style="fill: #ffffff; opacity: 0.8; stroke: #cccccc; stroke-linejoin: miter"/>
    </g>
    <g id="line2d_29">
     <path d="M 222.632724 25.582119 
L 233.632724 25.582119 
L 244.632724 25.582119 
" style="fill: none; stroke-dasharray: 5.55,2.4; stroke-dashoffset: 0; stroke: #463480; stroke-width: 1.5"/>
    </g>
    <g id="text_15">
     <!-- $f(\zeta, l_{obs}) = l_{obs}$ -->
     <g transform="translate(253.432724 29.432119) scale(0.11 -0.11)">
      <defs>
       <path id="NimbusRomNo9L-ReguItal-66" d="M 224 2547 
L 800 2547 
L 237 -164 
C 96 -855 -115 -1210 -384 -1210 
C -461 -1210 -512 -1165 -512 -1107 
C -512 -1087 -506 -1068 -487 -1036 
C -461 -997 -455 -971 -455 -933 
C -455 -797 -570 -687 -704 -687 
C -839 -687 -941 -803 -941 -952 
C -941 -1171 -717 -1344 -435 -1344 
C 134 -1344 582 -707 845 481 
L 1306 2547 
L 2003 2547 
L 2042 2752 
L 1350 2752 
C 1536 3756 1773 4211 2131 4211 
C 2214 4211 2272 4179 2272 4134 
C 2272 4115 2266 4102 2246 4070 
C 2221 4012 2208 3980 2208 3936 
C 2208 3782 2304 3680 2445 3680 
C 2592 3680 2714 3795 2714 3936 
C 2714 4172 2477 4352 2163 4352 
C 1850 4352 1600 4211 1370 3910 
C 1178 3660 1050 3366 858 2752 
L 269 2752 
L 224 2547 
z
" transform="scale(0.015625)"/>
       <path id="CMR10-28" d="M 2118 -1536 
C 2118 -1517 2118 -1504 2010 -1396 
C 1210 -589 1005 620 1005 1600 
C 1005 2713 1248 3827 2035 4627 
C 2118 4704 2118 4716 2118 4736 
C 2118 4780 2093 4800 2054 4800 
C 1990 4800 1414 4365 1037 3552 
C 710 2848 634 2137 634 1600 
C 634 1100 704 326 1056 -397 
C 1440 -1184 1990 -1600 2054 -1600 
C 2093 -1600 2118 -1581 2118 -1536 
z
" transform="scale(0.015625)"/>
       <path id="StandardSymL-7a" d="M 1376 4851 
C 941 4819 653 4576 653 4237 
C 653 3987 800 3865 1222 3763 
C 621 2950 384 2316 384 1484 
C 384 857 525 505 896 217 
C 1107 51 1331 -26 1594 -26 
C 1632 -26 1677 -26 1741 -20 
C 2016 -13 2182 -7 2234 -7 
C 2534 -7 2720 -164 2720 -419 
C 2720 -668 2515 -896 2298 -896 
C 2266 -896 2227 -890 2189 -883 
C 1798 -779 1798 -779 1728 -779 
C 1530 -779 1370 -916 1370 -1082 
C 1370 -1287 1600 -1434 1926 -1434 
C 2547 -1434 2989 -961 2989 -288 
C 2989 313 2598 640 1882 640 
L 1747 640 
L 1670 640 
L 1594 633 
L 1472 640 
C 1011 640 704 1036 704 1632 
C 704 2400 1088 3283 1626 3763 
C 2253 3833 2778 4160 2778 4486 
C 2778 4601 2675 4691 2534 4691 
C 2304 4691 1952 4467 1376 3949 
C 1146 4019 1037 4141 1037 4326 
C 1037 4499 1152 4633 1376 4723 
L 1376 4851 
z
" transform="scale(0.015625)"/>
       <path id="CMMI10-3b" d="M 1299 6 
C 1299 428 1139 678 890 678 
C 678 678 550 518 550 339 
C 550 166 678 0 890 0 
C 966 0 1050 25 1114 83 
C 1133 96 1139 102 1146 102 
C 1152 102 1158 96 1158 6 
C 1158 -460 934 -837 723 -1044 
C 653 -1114 653 -1127 653 -1146 
C 653 -1191 685 -1216 717 -1216 
C 787 -1216 1299 -730 1299 6 
z
" transform="scale(0.015625)"/>
       <path id="CMR10-29" d="M 1850 1600 
C 1850 2099 1779 2873 1427 3597 
C 1043 4384 493 4800 429 4800 
C 390 4800 365 4774 365 4736 
C 365 4716 365 4704 486 4589 
C 1114 3955 1478 2937 1478 1600 
C 1478 505 1242 -621 448 -1428 
C 365 -1504 365 -1517 365 -1536 
C 365 -1575 390 -1600 429 -1600 
C 493 -1600 1069 -1165 1446 -352 
C 1773 352 1850 1062 1850 1600 
z
" transform="scale(0.015625)"/>
       <path id="CMR10-3d" d="M 4397 2111 
C 4493 2111 4614 2111 4614 2239 
C 4614 2368 4493 2368 4403 2368 
L 570 2368 
C 480 2368 358 2368 358 2239 
C 358 2111 480 2111 576 2111 
L 4397 2111 
z
M 4403 832 
C 4493 832 4614 832 4614 960 
C 4614 1088 4493 1088 4397 1088 
L 576 1088 
C 480 1088 358 1088 358 960 
C 358 832 480 832 570 832 
L 4403 832 
z
" transform="scale(0.015625)"/>
      </defs>
      <use xlink:href="#NimbusRomNo9L-ReguItal-66" transform="scale(0.996264)"/>
      <use xlink:href="#CMR10-28" transform="translate(42.240235 0) scale(0.996264)"/>
      <use xlink:href="#StandardSymL-7a" transform="translate(80.894081 0) scale(0.996264)"/>
      <use xlink:href="#CMMI10-3b" transform="translate(142.660716 0) scale(0.996264)"/>
      <use xlink:href="#NimbusRomNo9L-ReguItal-6c" transform="translate(181.325796 0) scale(0.996264)"/>
      <use xlink:href="#NimbusRomNo9L-ReguItal-6f" transform="translate(209.020966 -16.487732) scale(0.737241)"/>
      <use xlink:href="#NimbusRomNo9L-ReguItal-62" transform="translate(245.883008 -16.487732) scale(0.737241)"/>
      <use xlink:href="#NimbusRomNo9L-ReguItal-73" transform="translate(282.74505 -16.487732) scale(0.737241)"/>
      <use xlink:href="#CMR10-29" transform="translate(311.921131 0) scale(0.996264)"/>
      <use xlink:href="#CMR10-3d" transform="translate(372.714123 0) scale(0.996264)"/>
      <use xlink:href="#NimbusRomNo9L-ReguItal-6c" transform="translate(472.261977 0) scale(0.996264)"/>
      <use xlink:href="#NimbusRomNo9L-ReguItal-6f" transform="translate(499.957146 -16.487732) scale(0.737241)"/>
      <use xlink:href="#NimbusRomNo9L-ReguItal-62" transform="translate(536.819188 -16.487732) scale(0.737241)"/>
      <use xlink:href="#NimbusRomNo9L-ReguItal-73" transform="translate(573.68123 -16.487732) scale(0.737241)"/>
     </g>
    </g>
    <g id="line2d_30">
     <path d="M 222.632724 42.101222 
L 233.632724 42.101222 
L 244.632724 42.101222 
" style="fill: none; stroke-dasharray: 5.55,2.4; stroke-dashoffset: 0; stroke: #7ad151; stroke-width: 1.5"/>
    </g>
    <g id="text_16">
     <!-- $f(\zeta, l_{obs}) = l_{obs} \zeta$ -->
     <g transform="translate(253.432724 45.951222) scale(0.11 -0.11)">
      <use xlink:href="#NimbusRomNo9L-ReguItal-66" transform="scale(0.996264)"/>
      <use xlink:href="#CMR10-28" transform="translate(42.240235 0) scale(0.996264)"/>
      <use xlink:href="#StandardSymL-7a" transform="translate(80.894081 0) scale(0.996264)"/>
      <use xlink:href="#CMMI10-3b" transform="translate(142.660716 0) scale(0.996264)"/>
      <use xlink:href="#NimbusRomNo9L-ReguItal-6c" transform="translate(181.325796 0) scale(0.996264)"/>
      <use xlink:href="#NimbusRomNo9L-ReguItal-6f" transform="translate(209.020966 -16.487732) scale(0.737241)"/>
      <use xlink:href="#NimbusRomNo9L-ReguItal-62" transform="translate(245.883008 -16.487732) scale(0.737241)"/>
      <use xlink:href="#NimbusRomNo9L-ReguItal-73" transform="translate(282.74505 -16.487732) scale(0.737241)"/>
      <use xlink:href="#CMR10-29" transform="translate(311.921131 0) scale(0.996264)"/>
      <use xlink:href="#CMR10-3d" transform="translate(372.714123 0) scale(0.996264)"/>
      <use xlink:href="#NimbusRomNo9L-ReguItal-6c" transform="translate(472.261977 0) scale(0.996264)"/>
      <use xlink:href="#NimbusRomNo9L-ReguItal-6f" transform="translate(499.957146 -16.487732) scale(0.737241)"/>
      <use xlink:href="#NimbusRomNo9L-ReguItal-62" transform="translate(536.819188 -16.487732) scale(0.737241)"/>
      <use xlink:href="#NimbusRomNo9L-ReguItal-73" transform="translate(573.68123 -16.487732) scale(0.737241)"/>
      <use xlink:href="#StandardSymL-7a" transform="translate(602.857312 0) scale(0.996264)"/>
     </g>
    </g>
    <g id="line2d_31">
     <path d="M 222.632724 58.620325 
L 233.632724 58.620325 
L 244.632724 58.620325 
" style="fill: none; stroke-dasharray: 5.55,2.4; stroke-dashoffset: 0; stroke: #25848e; stroke-width: 1.5"/>
    </g>
    <g id="text_17">
     <!-- $f(\zeta, l_{obs}) = l_{obs} (1-\zeta)$ -->
     <g transform="translate(253.432724 62.470325) scale(0.11 -0.11)">
      <use xlink:href="#NimbusRomNo9L-ReguItal-66" transform="scale(0.996264)"/>
      <use xlink:href="#CMR10-28" transform="translate(42.240235 0) scale(0.996264)"/>
      <use xlink:href="#StandardSymL-7a" transform="translate(80.894081 0) scale(0.996264)"/>
      <use xlink:href="#CMMI10-3b" transform="translate(142.660716 0) scale(0.996264)"/>
      <use xlink:href="#NimbusRomNo9L-ReguItal-6c" transform="translate(181.325796 0) scale(0.996264)"/>
      <use xlink:href="#NimbusRomNo9L-ReguItal-6f" transform="translate(209.020966 -16.487732) scale(0.737241)"/>
      <use xlink:href="#NimbusRomNo9L-ReguItal-62" transform="translate(245.883008 -16.487732) scale(0.737241)"/>
      <use xlink:href="#NimbusRomNo9L-ReguItal-73" transform="translate(282.74505 -16.487732) scale(0.737241)"/>
      <use xlink:href="#CMR10-29" transform="translate(311.921131 0) scale(0.996264)"/>
      <use xlink:href="#CMR10-3d" transform="translate(372.714123 0) scale(0.996264)"/>
      <use xlink:href="#NimbusRomNo9L-ReguItal-6c" transform="translate(472.261977 0) scale(0.996264)"/>
      <use xlink:href="#NimbusRomNo9L-ReguItal-6f" transform="translate(499.957146 -16.487732) scale(0.737241)"/>
      <use xlink:href="#NimbusRomNo9L-ReguItal-62" transform="translate(536.819188 -16.487732) scale(0.737241)"/>
      <use xlink:href="#NimbusRomNo9L-ReguItal-73" transform="translate(573.68123 -16.487732) scale(0.737241)"/>
      <use xlink:href="#CMR10-28" transform="translate(602.857312 0) scale(0.996264)"/>
      <use xlink:href="#NimbusRomNo9L-Regu-31" transform="translate(641.511158 0) scale(0.996264)"/>
      <use xlink:href="#CMSY10-0" transform="translate(705.161324 0) scale(0.996264)"/>
      <use xlink:href="#StandardSymL-7a" transform="translate(796.406998 0) scale(0.996264)"/>
      <use xlink:href="#CMR10-29" transform="translate(858.173634 0) scale(0.996264)"/>
     </g>
    </g>
   </g>
  </g>
 </g>
 <defs>
  <clipPath id="p800695c5e0">
   <rect x="53.9156" y="11.252742" width="308.9644" height="189.580067"/>
  </clipPath>
 </defs>
</svg>
