<?xml version="1.0" encoding="utf-8"?>
<!-- Generator: Adobe Illustrator 27.0.0, SVG Export Plug-In . SVG Version: 6.00 Build 0)  -->
<svg version="1.1" id="Layer_1" xmlns="http://www.w3.org/2000/svg" xmlns:xlink="http://www.w3.org/1999/xlink" x="0px" y="0px"
	 viewBox="0 0 324 108" style="enable-background:new 0 0 324 108;" xml:space="preserve">
<style type="text/css">
	.st0{fill:#055D32;}
</style>
<g>
	<g>
		<path class="st0" d="M119.71,24.27l0,15.8c0,1.79-0.38,3.34-1.14,4.65c-0.76,1.31-1.86,2.31-3.28,2.99
			c-1.43,0.69-3.11,1.03-5.06,1.03c-2.94,0-5.26-0.76-6.95-2.29c-1.69-1.53-2.55-3.61-2.59-6.27l0-15.92l5.85,0l0,16.03
			c0.07,2.64,1.29,3.96,3.68,3.96c1.2,0,2.12-0.33,2.74-0.99c0.62-0.66,0.93-1.74,0.93-3.23l0-15.77L119.71,24.27z"/>
		<path class="st0" d="M145.81,48.41l-5.79,0l-8.56-15.02l0,15.02l-5.82,0l0-24.14l5.82,0l8.54,15.02V24.27l5.8,0L145.81,48.41z"/>
		<path class="st0" d="M157.78,48.41l-5.8,0l0-24.14l5.8,0V48.41z"/>
		<path class="st0" d="M172.52,41.85l4.81-17.57l6.5,0l-8.12,24.14l-6.37,0l-8.06-24.14l6.45,0L172.52,41.85z"/>
		<path class="st0" d="M202.3,38.17l-9.15,0l0,5.77l10.81,0v4.48l-16.63,0l0-24.14l16.66,0l0,4.49l-10.84,0v5.09h9.15V38.17z"/>
		<path class="st0" d="M218.13,39.87l-3.15,0v8.54h-5.82l0-24.14l9.5,0c2.86,0,5.1,0.64,6.72,1.91c1.61,1.27,2.42,3.06,2.42,5.38
			c0,1.68-0.34,3.07-1.02,4.17c-0.68,1.1-1.74,2-3.19,2.68l5.04,9.75v0.25h-6.23L218.13,39.87z M214.98,35.4h3.68
			c1.11,0,1.94-0.29,2.5-0.87c0.56-0.58,0.84-1.39,0.84-2.44c0-1.04-0.28-1.86-0.85-2.45c-0.56-0.59-1.39-0.89-2.49-0.89l-3.68,0
			V35.4z"/>
		<path class="st0" d="M244.88,42c0-0.85-0.3-1.51-0.9-1.99c-0.6-0.47-1.66-0.97-3.18-1.48s-2.75-1-3.71-1.48
			c-3.13-1.54-4.69-3.65-4.69-6.33c0-1.34,0.39-2.52,1.17-3.54c0.78-1.02,1.88-1.82,3.31-2.39c1.43-0.57,3.03-0.85,4.81-0.85
			c1.73,0,3.29,0.31,4.67,0.93c1.38,0.62,2.45,1.5,3.21,2.64c0.76,1.14,1.14,2.45,1.14,3.92l-5.8,0c0-0.98-0.3-1.75-0.9-2.29
			c-0.6-0.54-1.42-0.81-2.45-0.81c-1.04,0-1.86,0.23-2.46,0.69c-0.6,0.46-0.9,1.04-0.9,1.75c0,0.62,0.33,1.18,1,1.68
			c0.66,0.5,1.83,1.02,3.5,1.56c1.67,0.54,3.04,1.11,4.11,1.73c2.61,1.5,3.91,3.58,3.91,6.22c0,2.11-0.8,3.77-2.39,4.97
			c-1.59,1.2-3.78,1.81-6.55,1.81c-1.96,0-3.73-0.35-5.31-1.05c-1.59-0.7-2.78-1.66-3.58-2.88c-0.8-1.22-1.2-2.63-1.2-4.22h5.84
			c0,1.29,0.33,2.25,1,2.86c0.67,0.61,1.75,0.92,3.26,0.92c0.96,0,1.72-0.21,2.28-0.62C244.6,43.33,244.88,42.75,244.88,42z"/>
		<path class="st0" d="M261.21,48.41h-5.8V24.27l5.8,0V48.41z"/>
		<polygon class="st0" points="299.71,24.27 294.37,34.75 289.01,24.27 264.71,24.27 264.71,28.77 271.82,28.77 271.82,48.41 
			277.64,48.41 277.64,28.77 285.27,28.77 291.42,39.74 291.42,48.41 297.32,48.41 297.32,39.74 305.99,24.27 		"/>
	</g>
	<g>
		<path class="st0" d="M120.95,70.54c0,2.35-0.44,4.44-1.31,6.25s-2.11,3.21-3.72,4.19c-1.61,0.98-3.44,1.47-5.5,1.47
			c-2.06,0-3.88-0.47-5.47-1.42s-2.83-2.3-3.72-4.05s-1.36-3.77-1.4-6.05v-1.36c0-2.37,0.43-4.45,1.3-6.26
			c0.87-1.81,2.11-3.2,3.73-4.19c1.62-0.98,3.46-1.48,5.53-1.48c2.04,0,3.87,0.49,5.47,1.46c1.6,0.97,2.85,2.36,3.74,4.15
			c0.89,1.8,1.34,3.85,1.35,6.18V70.54z M115.03,69.53c0-2.4-0.4-4.22-1.2-5.46c-0.8-1.24-1.95-1.87-3.44-1.87
			c-2.92,0-4.46,2.19-4.63,6.57l-0.02,1.77c0,2.37,0.39,4.18,1.18,5.45c0.78,1.27,1.95,1.91,3.5,1.91c1.47,0,2.6-0.62,3.4-1.87
			c0.8-1.25,1.2-3.04,1.21-5.39V69.53z"/>
		<path class="st0" d="M141.21,72.49h-9.38l0,9.62h-5.82l0-24.14l16.15,0v4.49h-10.33v5.55l9.38,0V72.49z"/>
	</g>
	<g>
		<g>
			<path class="st0" d="M236.8,71.86h-9.15v5.77l10.81,0v4.48l-16.63,0l0-24.14l16.66,0v4.49l-10.84,0v5.09h9.15V71.86z"/>
			<path class="st0" d="M252.68,73.57h-3.15v8.54l-5.82,0V57.97l9.5,0c2.86,0,5.1,0.63,6.72,1.91c1.61,1.27,2.42,3.06,2.42,5.38
				c0,1.68-0.34,3.07-1.02,4.17c-0.68,1.1-1.74,2-3.19,2.68l5.04,9.75v0.25h-6.23L252.68,73.57z M249.53,69.1h3.68
				c1.11,0,1.94-0.29,2.5-0.87c0.56-0.58,0.84-1.39,0.84-2.44c0-1.04-0.28-1.86-0.85-2.45c-0.56-0.59-1.39-0.89-2.49-0.89l-3.68,0
				V69.1z"/>
		</g>
		<path class="st0" d="M168.65,77.6h-7.97l-1.39,4.51h-6.67l9.3-24.14l5.47,0l8.92,24.14h-6.25L168.65,77.6z M162.07,73.11h5.19
			l-2.6-8.37L162.07,73.11z"/>
		<path class="st0" d="M185.21,77.63h10.13v4.48l-15.95,0V57.97l5.82,0V77.63z"/>
		<path class="st0" d="M199.09,82.11V57.97l8.67,0c3.11,0,5.47,0.57,7.09,1.71c1.62,1.14,2.43,2.79,2.43,4.96
			c0,1.25-0.29,2.32-0.86,3.2c-0.58,0.88-1.42,1.54-2.54,1.96c1.26,0.33,2.23,0.95,2.9,1.86c0.67,0.91,1.01,2.01,1.01,3.32
			c0,2.37-0.75,4.14-2.25,5.33c-1.5,1.19-3.72,1.79-6.66,1.82H199.09z M204.9,68.03h3.03c1.27-0.01,2.18-0.24,2.72-0.7
			c0.54-0.45,0.81-1.13,0.81-2.01c0-1.02-0.29-1.75-0.88-2.2c-0.59-0.45-1.53-0.67-2.83-0.67h-2.85V68.03z M204.9,71.85v5.79h3.81
			c1.05,0,1.86-0.24,2.42-0.72c0.56-0.48,0.85-1.16,0.85-2.03c0-2.01-1-3.02-3-3.03H204.9z"/>
		<path class="st0" d="M284.89,62.46l-7.25,0v19.65l-5.82,0V62.46h-7.11v-4.49l20.18,0V62.46z"/>
		<path class="st0" d="M298.34,77.6h-7.97l-1.39,4.51h-6.22l8.85-24.14l5.47,0L306,82.11h-6.25L298.34,77.6z M291.76,73.11h5.19
			l-2.6-8.37L291.76,73.11z"/>
	</g>
	<g>
		<path class="st0" d="M59.21,24.01l-0.65-0.26c-1.45-0.58-3.18-0.89-5.01-0.89c-1.68,0-3.26,0.27-4.63,0.76
			c-1.37-0.49-2.95-0.76-4.63-0.76c-1.83,0-3.57,0.31-5.01,0.89l-0.65,0.26v1.44h-1.61V36.6h23.8V25.44h-1.61V24.01z M47.89,33.98
			c-1.11-0.28-2.33-0.43-3.6-0.43c-1.27,0-2.49,0.15-3.6,0.43v-8.55c2.14-0.66,5.07-0.66,7.2,0V33.98z M57.15,33.98
			c-1.11-0.28-2.33-0.43-3.6-0.43c-1.27,0-2.49,0.15-3.6,0.43v-8.55c2.14-0.66,5.07-0.66,7.2,0V33.98z"/>
		<path class="st0" d="M77.02,20.7l-0.85-0.41c-7.84-3.82-16.5-5.6-27.25-5.6c-10.76,0-19.42,1.78-27.26,5.59l-0.85,0.41L18,22.06
			v3.13v29.14c0,5.4,1.15,18.94,11.76,28.11c8.04,6.94,16.15,9.84,17.05,10.15c0,0,1.96,0.72,2.1,0.72s2.1-0.72,2.1-0.72
			c0.9-0.31,9-3.2,17.05-10.15c10.61-9.18,11.76-22.72,11.76-28.12V25.19v-3.12L77.02,20.7z M40.27,81.98l-1.18,1.18
			c-0.98-0.62-1.99-1.31-3.02-2.07l3.1-3.1l1.1,1.1V81.98z M40.27,73.96l-1.83,1.83l-2.54,2.54l-2.54-2.54l-1.83-1.83v-2.88l1.1-1.1
			l3.27,3.27l3.27-3.27l1.1,1.1V73.96z M40.27,65.93L35.9,70.3l-4.37-4.37v-2.88l1.1-1.1l3.27,3.27l3.27-3.27l1.1,1.1V65.93z
			 M53.29,81.98l-1.83,1.83l-2.54,2.54l-2.54-2.54l-1.83-1.83V79.1l1.1-1.1l3.27,3.27L52.18,78l1.1,1.1V81.98z M53.29,73.96
			l-1.83,1.83l-2.54,2.54l-2.54-2.54l-1.83-1.83v-2.88l1.1-1.1l3.27,3.27l3.27-3.27l1.1,1.1V73.96z M53.29,65.93l-4.37,4.37
			l-4.37-4.37v-2.88l1.1-1.1l3.27,3.27l3.27-3.27l1.1,1.1V65.93z M57.56,81.98V79.1l1.1-1.1l3.1,3.1c-1.03,0.76-2.04,1.45-3.02,2.07
			L57.56,81.98z M66.3,73.96l-1.83,1.83l-2.54,2.54l-2.54-2.54l-1.83-1.83v-2.88l1.1-1.1l3.27,3.27l3.27-3.27l1.1,1.1V73.96z
			 M66.3,65.93l-4.37,4.37l-4.37-4.37v-2.88l1.1-1.1l3.27,3.27l3.27-3.27l1.1,1.1V65.93z M74.54,59.07
			c-1.45-0.17-2.87-0.62-4.2-1.36c-2.2-1.23-4.73-1.23-6.94,0c-3.45,1.92-7.57,1.92-11.02,0c-2.2-1.23-4.73-1.23-6.94,0
			c-3.45,1.92-7.57,1.92-11.02,0c-2.2-1.23-4.73-1.23-6.94,0c-1.33,0.74-2.75,1.19-4.2,1.36c-0.2-1.63-0.28-3.06-0.3-4.18
			c0.84-0.12,1.67-0.41,2.45-0.84c3.45-1.92,7.57-1.92,11.02,0c2.2,1.23,4.73,1.23,6.94,0c3.45-1.92,7.57-1.92,11.02,0
			c2.2,1.23,4.73,1.23,6.94,0c3.45-1.92,7.57-1.92,11.02,0c0.79,0.44,1.61,0.72,2.45,0.84C74.82,56,74.74,57.44,74.54,59.07z
			 M74.84,50.73l-7.81-7.97l-7.36,7.42L48.92,39.14L38.16,50.18l-7.36-7.42l-7.81,7.97V25.19l0.85-0.41
			c7.14-3.47,15.1-5.09,25.08-5.09c9.97,0,17.94,1.62,25.07,5.09l0.85,0.41V50.73z"/>
	</g>
</g>
</svg>
